<svg width="96" height="135" viewBox="0 0 96 135" fill="none" xmlns="http://www.w3.org/2000/svg">
<rect width="96" height="134.4" transform="translate(0 0.600098)" fill="#0F3B63"/>
<circle cx="9.60001" cy="10.2" r="6.4" fill="white" fill-opacity="0.2"/>
<circle cx="28.8" cy="10.2" r="6.4" fill="#FFC000"/>
<circle cx="48" cy="10.2" r="6.4" fill="#FFC000"/>
<circle cx="67.2" cy="10.2" r="6.4" fill="#FFC000"/>
<circle cx="86.4" cy="10.2" r="6.4" fill="white" fill-opacity="0.2"/>
<circle cx="9.60001" cy="29.4001" r="6.4" fill="#FFC000"/>
<circle cx="28.8" cy="29.4001" r="6.4" fill="white" fill-opacity="0.2"/>
<circle cx="48" cy="29.4001" r="6.4" fill="white" fill-opacity="0.2"/>
<circle cx="67.2" cy="29.4001" r="6.4" fill="white" fill-opacity="0.2"/>
<circle cx="86.4" cy="29.4001" r="6.4" fill="#FFC000"/>
<circle cx="9.60001" cy="48.6001" r="6.4" fill="#FFC000"/>
<circle cx="28.8" cy="48.6001" r="6.4" fill="white" fill-opacity="0.2"/>
<circle cx="48" cy="48.6001" r="6.4" fill="white" fill-opacity="0.2"/>
<circle cx="67.2" cy="48.6001" r="6.4" fill="white" fill-opacity="0.2"/>
<circle cx="86.4" cy="48.6001" r="6.4" fill="#FFC000"/>
<circle cx="9.60001" cy="67.8001" r="6.4" fill="white" fill-opacity="0.2"/>
<circle cx="28.8" cy="67.8001" r="6.4" fill="#FFC000"/>
<circle cx="48" cy="67.8001" r="6.4" fill="#FFC000"/>
<circle cx="67.2" cy="67.8001" r="6.4" fill="#FFC000"/>
<circle cx="86.4" cy="67.8001" r="6.4" fill="#FFC000"/>
<circle cx="9.60001" cy="87.0001" r="6.4" fill="white" fill-opacity="0.2"/>
<circle cx="28.8" cy="87.0001" r="6.4" fill="white" fill-opacity="0.2"/>
<circle cx="48" cy="87.0001" r="6.4" fill="white" fill-opacity="0.2"/>
<circle cx="67.2" cy="87.0001" r="6.4" fill="white" fill-opacity="0.2"/>
<circle cx="86.4" cy="87.0001" r="6.4" fill="#FFC000"/>
<circle cx="9.60001" cy="106.2" r="6.4" fill="#FFC000"/>
<circle cx="28.8" cy="106.2" r="6.4" fill="white" fill-opacity="0.2"/>
<circle cx="48" cy="106.2" r="6.4" fill="white" fill-opacity="0.2"/>
<circle cx="67.2" cy="106.2" r="6.4" fill="white" fill-opacity="0.2"/>
<circle cx="86.4" cy="106.2" r="6.4" fill="#FFC000"/>
<circle cx="9.60001" cy="125.4" r="6.4" fill="white" fill-opacity="0.2"/>
<circle cx="28.8" cy="125.4" r="6.4" fill="#FFC000"/>
<circle cx="48" cy="125.4" r="6.4" fill="#FFC000"/>
<circle cx="67.2" cy="125.4" r="6.4" fill="#FFC000"/>
<circle cx="86.4" cy="125.4" r="6.4" fill="white" fill-opacity="0.2"/>
</svg>
