<svg width="96" height="135" viewBox="0 0 96 135" fill="none" xmlns="http://www.w3.org/2000/svg">
<rect width="96" height="134.4" fill="#0F3B63"/>
<circle cx="9.6" cy="9.60001" r="6.4" fill="white" fill-opacity="0.2"/>
<circle cx="28.8" cy="9.60001" r="6.4" fill="#FFC000"/>
<circle cx="48" cy="9.60001" r="6.4" fill="#FFC000"/>
<circle cx="67.2" cy="9.60001" r="6.4" fill="#FFC000"/>
<circle cx="86.4" cy="9.60001" r="6.4" fill="white" fill-opacity="0.2"/>
<circle cx="9.6" cy="28.8" r="6.4" fill="#FFC000"/>
<circle cx="28.8" cy="28.8" r="6.4" fill="white" fill-opacity="0.2"/>
<circle cx="48" cy="28.8" r="6.4" fill="white" fill-opacity="0.2"/>
<circle cx="67.2" cy="28.8" r="6.4" fill="white" fill-opacity="0.2"/>
<circle cx="86.4" cy="28.8" r="6.4" fill="#FFC000"/>
<circle cx="9.6" cy="48" r="6.4" fill="#FFC000"/>
<circle cx="28.8" cy="48" r="6.4" fill="white" fill-opacity="0.2"/>
<circle cx="48" cy="48" r="6.4" fill="white" fill-opacity="0.2"/>
<circle cx="67.2" cy="48" r="6.4" fill="white" fill-opacity="0.2"/>
<circle cx="86.4" cy="48" r="6.4" fill="white" fill-opacity="0.2"/>
<circle cx="9.6" cy="67.2" r="6.4" fill="white" fill-opacity="0.2"/>
<circle cx="28.8" cy="67.2" r="6.4" fill="#FFC000"/>
<circle cx="48" cy="67.2" r="6.4" fill="#FFC000"/>
<circle cx="67.2" cy="67.2" r="6.4" fill="#FFC000"/>
<circle cx="86.4" cy="67.2" r="6.4" fill="white" fill-opacity="0.2"/>
<circle cx="9.6" cy="86.4" r="6.4" fill="white" fill-opacity="0.2"/>
<circle cx="28.8" cy="86.4" r="6.4" fill="white" fill-opacity="0.2"/>
<circle cx="48" cy="86.4" r="6.4" fill="white" fill-opacity="0.2"/>
<circle cx="67.2" cy="86.4" r="6.4" fill="white" fill-opacity="0.2"/>
<circle cx="86.4" cy="86.4" r="6.4" fill="#FFC000"/>
<circle cx="9.6" cy="105.6" r="6.4" fill="#FFC000"/>
<circle cx="28.8" cy="105.6" r="6.4" fill="white" fill-opacity="0.2"/>
<circle cx="48" cy="105.6" r="6.4" fill="white" fill-opacity="0.2"/>
<circle cx="67.2" cy="105.6" r="6.4" fill="white" fill-opacity="0.2"/>
<circle cx="86.4" cy="105.6" r="6.4" fill="#FFC000"/>
<circle cx="9.6" cy="124.8" r="6.4" fill="white" fill-opacity="0.2"/>
<circle cx="28.8" cy="124.8" r="6.4" fill="#FFC000"/>
<circle cx="48" cy="124.8" r="6.4" fill="#FFC000"/>
<circle cx="67.2" cy="124.8" r="6.4" fill="#FFC000"/>
<circle cx="86.4" cy="124.8" r="6.4" fill="white" fill-opacity="0.2"/>
</svg>
