<?xml version="1.0" standalone="no"?>
<!DOCTYPE svg PUBLIC "-//W3C//DTD SVG 20010904//EN"
 "http://www.w3.org/TR/2001/REC-SVG-20010904/DTD/svg10.dtd">
<svg version="1.0" xmlns="http://www.w3.org/2000/svg"
 width="260.000000pt" height="260.000000pt" viewBox="0 0 260.000000 260.000000"
 preserveAspectRatio="xMidYMid meet">
<metadata>
Created by potrace 1.11, written by Peter Selinger 2001-2013
</metadata>
<g transform="translate(0.000000,260.000000) scale(0.100000,-0.100000)"
fill="#000000" stroke="none">
<path d="M1150 2593 c-321 -49 -551 -162 -765 -378 -265 -265 -388 -572 -380
-945 2 -80 6 -158 10 -175 21 -101 28 -128 51 -200 61 -191 163 -356 318 -510
196 -195 395 -303 667 -361 117 -25 382 -25 494 -1 206 46 385 126 530 235 39
30 39 30 63 11 56 -44 144 -32 188 26 34 45 36 113 5 155 l-22 30 56 79 c160
228 237 485 230 766 -2 77 -6 154 -9 170 -4 17 -11 53 -16 80 -29 143 -104
317 -195 456 -62 93 -248 280 -340 341 -137 91 -318 169 -460 198 -27 5 -63
12 -80 16 -35 7 -309 12 -345 7z m127 -1308 c37 -1 82 1 100 6 43 9 38 19 104
-226 27 -104 62 -233 76 -285 14 -52 27 -106 30 -119 2 -14 6 -27 8 -31 11
-18 105 -395 101 -405 -2 -7 -22 -15 -43 -19 -21 -3 -49 -8 -63 -11 -107 -19
-167 -23 -320 -20 -96 1 -188 6 -205 9 -62 13 -165 38 -165 41 0 3 68 256 150
560 28 105 53 197 55 205 7 30 76 285 80 298 3 7 10 10 16 7 6 -4 40 -8 76
-10z"/>
</g>
</svg>
