<?xml version="1.0" encoding="UTF-8"?>
<svg width="200px" height="200px" viewBox="0 0 200 200" version="1.1" xmlns="http://www.w3.org/2000/svg" xmlns:xlink="http://www.w3.org/1999/xlink">
    <!-- Generator: Sketch 54.1 (76490) - https://sketchapp.com -->
    <title>cuore</title>
    <desc>Created with Sketch.</desc>
    <g id="cuore" stroke="none" stroke-width="1" fill="none" fill-rule="evenodd">
        <path d="M196.076176,76.5194466 C195.974156,76.7627237 195.85775,77.0890551 195.823743,77.4909201 C194.960502,87.5431036 191.195593,96.8265445 184.633651,105.083905 C179.188364,111.93621 172.209189,118.224792 162.670045,124.874366 C157.151513,128.721349 151.476356,132.553617 145.987907,136.259669 C141.04585,139.596882 135.935069,143.048212 130.945273,146.505428 C116.164554,156.745955 105.057843,166.555842 95.9905394,177.377422 C95.3512831,178.139952 94.7116998,178.920139 94.0845419,179.689209 C89.0669517,171.137888 82.9163574,163.477275 75.7795752,156.89506 C66.8957104,148.701135 57.55472,140.732829 48.5217499,133.027092 L44.5766717,129.661432 C36.2405073,122.553751 27.6198656,115.204102 20.360791,106.77867 C6.40538342,90.5817784 1.40250764,73.3682888 5.06572446,54.1549569 C7.31669158,42.349478 12.4938506,33.6071978 20.8931231,27.4281558 C29.4774694,21.1134148 39.5283449,17.9246537 50.8207838,17.9246537 C52.1185887,17.9246537 53.4350317,17.9668348 54.7652081,18.051197 C72.9243392,19.2031664 87.788766,26.7957661 98.945506,40.6177636 C99.1626243,40.8868726 99.3817045,41.1239369 99.6138641,41.3747347 C99.7171914,41.4865637 99.8270585,41.6052594 99.9441193,41.7353995 L101.415553,43.3690183 L102.871946,41.7219931 C103.039363,41.5326686 103.193046,41.3475949 103.34117,41.1693879 C103.572022,40.8907964 103.771156,40.6504622 103.949036,40.4944902 C105.058497,39.5223627 106.140819,38.4962827 107.187172,37.5035552 C109.544736,35.2673024 111.771833,33.1549771 114.314471,31.5818506 C132.33071,20.438517 151.289974,19.3156493 170.664183,28.2439842 C184.2465,34.5034647 192.424731,45.1429138 194.971946,59.8670639 C195.275716,61.6216673 195.518012,63.4367629 195.752787,65.1923473 C195.858404,65.9856137 195.964347,66.7785532 196.076176,67.5708387 L196.076176,76.5194466 Z M199.980381,67.1568752 C199.862993,66.3296023 199.752472,65.5013484 199.641624,64.6730945 C199.402598,62.8805609 199.154743,61.0272079 198.838221,59.1980519 C197.457035,51.2127428 194.485719,44.2227771 190.006674,38.422057 C185.564905,32.6694039 179.609848,28.0461581 172.30663,24.6804979 C151.661756,15.1665323 131.455697,16.3659145 112.25054,28.2449651 C109.363913,30.0303051 106.88471,32.3823107 104.486927,34.6568208 C103.493872,35.5985386 102.468119,36.571647 101.443347,37.4731456 C89.6316554,23.1907527 74.0158163,15.3404885 55.0137169,14.1352205 C41.1619637,13.2562839 28.9016482,16.6654331 18.5679303,24.2675154 C9.33353719,31.060636 3.65641762,40.5965096 1.2115482,53.4195669 C-0.774233806,63.8340501 -0.317108293,73.9251449 2.56951834,83.4132786 C5.29330626,92.3658104 10.2788518,101.088798 17.3878402,109.33962 C24.844414,117.993941 33.5814625,125.443321 42.0307638,132.647462 L45.975188,136.012468 C54.9797104,143.694008 64.2912721,151.637136 73.1192225,159.779071 C80.4744308,166.563036 86.741105,174.543767 91.7446347,183.497934 C91.917283,183.808243 92.1206679,184.018168 92.2691192,184.171197 C92.3132622,184.216648 92.3659069,184.270273 92.4273801,184.339267 L93.9547287,186.047439 L95.4071976,184.274851 C95.7976181,183.798434 96.1837878,183.324632 96.5673416,182.853446 C97.3991923,181.832271 98.1849381,180.867664 98.9978237,179.897498 C107.833949,169.351894 118.695748,159.766319 133.179891,149.730484 C138.150722,146.286675 143.251366,142.842538 148.18394,139.511538 C153.684161,135.797312 159.371744,131.956869 164.913818,128.09321 C174.774389,121.219651 182.01646,114.683868 187.705351,107.525178 C194.722784,98.6946118 198.764649,88.7545843 199.719774,77.9784552 C199.725005,77.9663568 199.730564,77.9539313 199.735796,77.9418329 C199.788767,77.8218292 199.840104,77.7014986 199.883593,77.580841 L200,77.2584335 L200,67.2938821 L199.980381,67.1568752 Z" id="Fill-1" fill="#000000"></path>
    </g>
</svg>