<?xml version="1.0" encoding="UTF-8"?>
<svg width="200px" height="200px" viewBox="0 0 200 200" version="1.1" xmlns="http://www.w3.org/2000/svg" xmlns:xlink="http://www.w3.org/1999/xlink">
    <!-- Generator: Sketch 54.1 (76490) - https://sketchapp.com -->
    <title>fiore</title>
    <desc>Created with Sketch.</desc>
    <g id="fiore" stroke="none" stroke-width="1" fill="none" fill-rule="evenodd">
        <path d="M113.635392,131.126755 C103.341633,135.008724 91.2717228,135.252171 81.7072904,129.362777 C75.5967654,125.598474 70.6669593,119.640104 68.2720474,112.862128 C65.8091731,105.890408 66.1692721,98.1974763 68.9973172,91.3900836 C74.6026893,77.8939787 88.6414785,69.3520247 103.090071,69.3520247 C105.160386,69.3520247 107.231716,69.520409 109.271601,69.86935 C123.603541,72.3190376 135.360013,83.910168 136.081225,98.741175 C136.78215,113.151221 126.837332,126.149274 113.635392,131.126755 M187.747824,94.8794936 C192.687774,89.5530715 195.69029,83.6119451 196.431789,77.6982066 C197.274725,70.9750061 195.325119,64.1351538 191.084066,58.932484 C187.118919,54.0716546 181.18185,50.7293273 174.362285,49.5232492 C172.532374,49.1996673 170.67406,49.0363548 168.840091,49.0363548 C159.945138,49.0363548 151.887036,52.7448673 144.713458,57.4109389 C146.679294,54.3921935 148.482832,51.2172361 150.096684,47.9002678 C153.434954,41.0431713 156.40501,33.5754281 155.540773,25.438205 C154.045601,11.3710136 141.766732,0.441248073 126.980357,0.0121723606 C126.703436,0.00405745354 126.424486,0 126.148579,0 C118.758942,0 111.760849,2.77732695 106.445585,7.81871298 C102.181201,11.8639942 98.9961,17.3841597 96.9815743,24.224012 C95.2003522,30.2706322 94.214391,37.1104845 93.9628289,45.0468636 C93.8553063,44.7668993 93.7528556,44.4798345 93.64229,44.2039276 C91.0871087,37.7992372 87.8401315,32.1705348 83.9926511,27.4740323 C81.6048397,24.5597663 79.1470373,22.3352674 76.4812903,20.6727258 C73.613685,18.8844031 70.1242749,17.6063053 66.1114534,16.8749493 C64.1405453,16.5148503 62.14935,16.3332792 60.1936574,16.3332792 C47.240237,16.3332792 32.0694182,24.684533 29.104434,38.6614461 C27.7817041,44.8997809 28.7169472,51.8725148 31.669759,57.7903108 C34.5079477,63.4748032 39.2054646,68.4583705 46.4520766,73.4733831 C47.511072,74.2067678 48.5883259,74.8985637 49.6736947,75.5741297 C45.9895269,74.7869837 42.1927648,74.1022884 38.2874657,73.5575753 C36.7212887,73.3394871 34.8579031,73.1163272 32.9072823,73.1163272 C19.6363661,73.1163272 7.47719225,82.4515134 4.62277368,94.8308042 C1.8018291,107.071127 8.79687901,120.290311 20.8962055,125.579201 C25.2153648,127.466932 30.1431421,128.384931 35.9625448,128.384931 L35.9635592,128.384931 C37.0134253,128.384931 38.1129952,128.3545 39.231838,128.292624 C41.3680873,128.175972 43.5570835,127.929481 45.8130277,127.559239 C42.0497395,129.855758 38.2773221,132.531648 35.0181725,135.969326 C29.8631778,141.409356 26.6446028,147.868823 25.7113885,154.647813 C24.7741167,161.452163 26.1556796,168.422868 29.601472,174.275745 C33.4570673,180.825489 39.432682,185.683275 45.5868246,187.26974 C47.1306857,187.66737 48.7445379,187.869228 50.3857778,187.869228 L50.3857778,187.869228 C55.3531153,187.869228 60.7667727,185.967297 65.6286164,182.51339 C71.8933247,178.063377 76.3220352,171.68506 79.1084914,167.276637 C80.860297,164.504382 82.5197955,161.506938 84.1153891,158.250832 C83.5422738,163.751724 83.4682253,168.353891 83.8780281,172.724783 C84.5343212,179.72389 86.250624,185.16595 89.1253299,189.361357 C92.2282675,193.889475 96.927813,197.182099 102.714756,198.882172 C105.241535,199.623671 107.768315,200 110.226117,200 C114.471228,200 118.411015,198.901444 121.933899,196.736793 C127.107152,193.555749 131.472972,188.298304 133.911502,182.31356 C137.436415,173.657997 136.574206,164.256877 134.305075,155.640875 C138.715527,161.15394 143.515495,165.004463 148.909879,167.365901 C153.240196,169.260732 158.045236,170.262923 162.808686,170.262923 L162.809701,170.262923 C165.562683,170.262923 168.296392,169.933255 170.928665,169.284062 C178.271642,167.475452 184.28073,163.605656 187.849261,158.388785 C193.448547,150.202873 193.859364,135.664002 182.155639,121.635357 C177.59709,116.171995 171.898396,111.690538 165.217799,108.315751 C163.910285,107.654386 162.584512,107.052869 161.252653,106.483811 C166.048563,106.211961 170.451914,105.344681 174.364314,103.873854 C179.431059,101.967865 184.058585,98.8578268 187.747824,94.8794936 M102.947045,65.9102897 C109.681404,65.9102897 116.349829,67.5566015 122.201691,70.9141443 C123.440229,71.6241987 124.767016,72.805932 126.253059,72.0867484 C127.584918,71.4426276 128.766651,70.0458492 129.830718,69.0365577 C132.11405,66.8708918 134.260443,64.560172 136.25671,62.1277286 C140.277647,57.2232817 143.67475,51.8238254 146.449034,46.1241175 C149.533713,39.7884038 152.269451,33.0530309 151.505635,25.8662663 C150.18392,13.4322 139.12533,4.42363872 126.862691,4.06759718 C120.351492,3.87892559 113.967089,6.27688063 109.238127,10.7623955 C105.072137,14.7143553 102.480438,19.9160107 100.873687,25.3702426 C98.7881555,32.4494847 98.0689718,39.8938976 97.960435,47.2490465 C97.9087024,50.7486002 98.0101388,54.2471395 98.1501209,57.7446644 C98.2150402,59.373732 98.2850312,61.0017853 98.3550223,62.6298385 C98.3945825,63.5559523 98.2860456,64.6139333 98.9727696,65.3402175 C99.9323574,66.3555952 101.711551,65.9102897 102.947045,65.9102897 M60.1936574,20.3907328 C48.8033709,20.3907328 35.5811442,27.6819768 33.0736379,39.5023533 C31.9101631,44.9890449 32.805846,50.979875 35.3001655,55.9776434 C38.2600779,61.9076118 43.3886992,66.4195001 48.7607677,70.1371419 C54.2596316,73.9430334 60.2666916,76.9080175 66.2524499,79.8577863 C67.7668944,80.6043577 69.3665455,81.8540534 70.947938,80.6104439 C73.5862972,78.5350564 75.9517926,76.1330439 78.632755,74.1002597 C81.4263118,71.9822689 84.4967897,70.407977 87.7062355,69.0203278 C89.1486602,68.3975087 90.6032573,67.8010631 92.0497395,67.1843301 C93.3318948,66.6375882 94.8270665,66.1831535 94.7550467,64.5135113 C94.6830269,62.8387974 94.2164197,61.0849631 93.8867516,59.4437231 C93.5591122,57.8116124 93.1878552,56.188631 92.7679088,54.577822 C91.9827915,51.5661771 91.0272612,48.5981498 89.8739301,45.7072142 C87.6443593,40.1201006 84.6753177,34.7094863 80.8552252,30.0464578 C78.9867678,27.7671833 76.843418,25.6796235 74.333883,24.1154751 C71.6265471,22.4265601 68.5083941,21.4355271 65.3841548,20.8664692 C63.6729238,20.5540453 61.934305,20.3907328 60.1936574,20.3907328 M168.840091,53.0938083 C155.788277,53.0938083 144.513628,62.1155563 134.788926,69.8257324 C133.73196,70.6656253 132.676007,71.5065325 131.619041,72.345411 C130.558017,73.1873326 128.88736,74.0637426 129.250502,75.6826666 C129.514237,76.8664286 130.976949,77.8889069 131.741779,78.7947334 C132.652677,79.8760448 133.497642,81.0131461 134.265515,82.20198 C137.326864,86.9380427 139.042152,92.4054613 139.518903,98.009819 C139.659899,99.6835186 140.490663,100.320539 142.07307,100.659336 C143.766042,101.021464 145.46713,101.345046 147.176332,101.615881 C150.198121,102.096689 153.247297,102.417228 156.305603,102.503449 C161.921118,102.66169 167.650243,102.064229 172.93609,100.076077 C177.446964,98.3790473 181.495288,95.6544673 184.772697,92.1204252 C188.614091,87.9777652 191.692684,82.8765317 192.405781,77.194068 C193.107721,71.5978252 191.506041,65.8717439 187.938525,61.4967946 C184.358836,57.1056155 179.181526,54.4966729 173.657303,53.5188266 C172.066781,53.2378479 170.453943,53.0938083 168.840091,53.0938083 M32.9072823,77.1737807 C21.9643301,77.1737807 11.0842684,84.8646839 8.57676216,95.7427169 C6.11693095,106.41382 12.7031924,117.569788 22.5212156,121.86156 C27.6711385,124.112432 33.4560529,124.544551 39.0107068,124.241256 C45.2328118,123.901444 51.3321789,122.455977 57.2378025,120.519557 C58.6954427,120.041792 60.1429392,119.533596 61.5823209,119.008155 C62.7082642,118.59531 64.5615061,118.269699 65.2847472,117.244178 C66.1702865,115.991439 65.1559231,114.40396 64.759307,113.142092 C64.2724126,111.587073 63.8889832,109.999594 63.6272775,108.391828 C62.6190002,102.201169 63.4954102,95.8329952 65.8639487,90.0450377 C66.381274,88.7801266 67.7658801,86.9755741 67.2120377,85.5757527 C66.7961487,84.5258866 65.658033,84.2824393 64.7004739,83.9476994 C61.8825724,82.9647813 59.0301826,82.0822852 56.1514193,81.2981823 C50.1007417,79.6508561 43.9364554,78.441735 37.7275371,77.576483 C36.124843,77.3523087 34.5272206,77.1737807 32.9072823,77.1737807 M141.021175,104.261341 C139.187206,104.261341 139.022879,106.07908 138.713498,107.445427 C138.385859,108.891909 137.974027,110.31709 137.476989,111.713868 C136.457554,114.570316 135.074977,117.289824 133.371861,119.799359 C131.645414,122.342368 129.598429,124.660188 127.327269,126.730504 C126.342322,127.62923 124.365328,128.660837 124.093479,130.046458 C123.816558,131.450337 125.278255,133.207214 125.902089,134.391991 C128.853886,139.995334 131.999427,145.599692 135.69171,150.752658 C139.584836,156.187617 144.341186,160.936866 150.537932,163.649274 C156.599768,166.302848 163.528884,166.929725 169.957919,165.344275 C175.550105,163.966769 181.185908,160.942952 184.499833,156.097338 C191.274766,146.194109 185.949358,132.516433 179.040529,124.234156 C174.733542,119.073075 169.376689,114.96186 163.387888,111.937028 C157.721654,109.074495 151.647646,107.157348 145.554365,105.441045 C144.786492,105.223971 144.017604,105.010955 143.248717,104.798953 C142.548806,104.60521 141.753545,104.261341 141.021175,104.261341 M67.1156731,120.707214 C66.1570997,120.707214 65.1031762,121.519719 64.2835706,121.962996 C63.4477351,122.414388 62.6118997,122.865779 61.7760643,123.317171 C59.2066818,124.702792 56.6352706,126.081311 54.0811036,127.495334 C48.3144478,130.686521 42.5417058,133.93147 37.9628694,138.760854 C33.6579112,143.303173 30.589462,148.960278 29.7313106,155.201655 C28.9248917,161.057575 30.0974957,167.119411 33.0979826,172.217601 C36.0234066,177.186967 40.9004658,181.871298 46.6001737,183.34111 C52.4145046,184.840339 58.5382163,182.574251 63.2783364,179.205551 C68.4079721,175.562972 72.3487738,170.37856 75.6789288,165.107928 C79.1389223,159.634423 81.9223355,153.760245 84.3273911,147.756228 C85.4634781,144.922097 86.5579761,142.058549 87.520607,139.161527 C87.9385247,137.905745 88.556272,136.410574 87.2122405,135.472288 C86.1268717,134.714558 84.5525797,134.390976 83.3444729,133.828005 C78.1661479,131.414834 73.6420872,127.832103 70.1029733,123.347602 C69.3097411,122.342368 68.594615,120.707214 67.1156731,120.707214 M93.7711142,137.001948 C92.0821991,137.001948 91.7839763,138.597541 91.470538,139.900998 C91.0800081,141.52398 90.7087511,143.151018 90.3638676,144.783129 C89.7136606,147.858679 89.153732,150.954516 88.7145127,154.066583 C87.8634618,160.099002 87.3471509,166.264303 87.9172231,172.346425 C88.3939739,177.424328 89.547305,182.798426 92.472729,187.067881 C95.1861511,191.027956 99.2933085,193.648056 103.857944,194.989045 C109.288845,196.583624 114.920591,196.284387 119.808808,193.278828 C124.435319,190.435568 128.113401,185.790798 130.153286,180.782886 C134.747338,169.500122 130.900872,156.395561 126.685177,145.602735 C125.554162,142.706727 124.317653,139.853323 123.035498,137.022235 C122.496871,135.834415 122.019106,134.091739 121.091978,133.145338 C119.902129,131.931145 118.454633,132.910006 117.218124,133.477035 C111.362204,136.171184 105.002146,137.526373 98.5538375,137.361032 C96.9623014,137.319443 95.3555498,137.001948 93.7711142,137.001948" id="Fill-1" fill="#000000"></path>
    </g>
</svg>