<?xml version="1.0" encoding="UTF-8"?>
<svg width="200px" height="200px" viewBox="0 0 200 200" version="1.1" xmlns="http://www.w3.org/2000/svg" xmlns:xlink="http://www.w3.org/1999/xlink">
    <!-- Generator: Sketch 54.1 (76490) - https://sketchapp.com -->
    <title>fiori</title>
    <desc>Created with Sketch.</desc>
    <g id="fiori" stroke="none" stroke-width="1" fill="none" fill-rule="evenodd">
        <path d="M42.2261905,165.46627 C44.0261905,168.962302 44.8515873,173.01627 45.747619,176.90119 C46.4214286,179.820238 46.5007937,182.876587 46.9333333,186.640873 C43.5460317,185.725794 40.0134921,185.282937 36.9373016,183.855952 C22.131746,176.990079 12.702381,165.51627 7.61587302,149.978175 C4.26825397,139.753571 3.12301587,129.600397 4.81349206,118.877381 C16.5626984,122.282937 22.5507937,131.175 28.1111111,140.320238 C33.1031746,148.531349 37.8285714,156.924206 42.2261905,165.46627 L42.2261905,165.46627 Z M44.3571429,79.6916667 C46.6936508,67.0035714 53.5238095,56.6242063 61.4103175,46.8083333 C61.7206349,46.4218254 62.2753968,46.2297619 63.2349206,45.6138889 C69.8825397,62.527381 75.434127,79.0742063 69.0761905,96.9376984 C67.2880952,101.959921 65.4690476,107.167063 62.5468254,111.544048 C58.184127,118.075794 53.9103175,116.989286 50.05,111.154365 C43.7253968,101.59246 42.2952381,90.8869048 44.3571429,79.6916667 L44.3571429,79.6916667 Z M34.2952381,46.5400794 C38.5579365,50.6353175 42.6611111,54.2027778 46.2126984,58.2543651 C47.0833333,59.2472222 46.6555556,62.0392857 45.965873,63.6313492 C40.9825397,75.1416667 38.3119048,86.925 41.2492063,99.4210317 C42.1031746,103.056746 43.4634921,106.573413 44.597619,110.162302 C30.8888889,100.988492 27.5380952,65.4186508 34.2952381,46.5400794 L34.2952381,46.5400794 Z M75.4460317,71.4821429 C74.6595238,68.5162698 74.5619048,66.3535714 76.6563492,63.1186508 C79.4928571,58.7361111 83.1150794,56.5583333 88.0253968,53.9257937 C86.8611111,65.9861111 86.6142857,77.5170635 84.4047619,88.6583333 C82.5793651,97.8623016 77.3365079,105.854365 69.3722222,111.125 C71.2920635,104.444841 73.3214286,97.5329365 75.2587302,90.5948413 C77.0301587,84.2535714 77.1404762,77.8694444 75.4460317,71.4821429 L75.4460317,71.4821429 Z M55.368254,187.817857 C53.8761905,186.832937 52.6007937,186.429762 52.0642857,185.567857 C47.8349206,178.776587 50.0579365,171.275794 49.9761905,164.050397 C49.9134921,158.523413 50.1706349,152.985317 50.4912698,147.464683 C51.0166667,138.414683 51.7087302,129.374206 52.3492063,120.059127 C53.6539683,120.281349 54.8738095,120.488492 55.368254,120.572619 L55.368254,187.817857 Z M59.0706349,155.88373 C59.4412698,152.544048 61.9666667,149.047222 64.3690476,146.39881 C75.0230159,134.65119 88.3865079,127.758333 104.096825,125.476587 C104.445238,125.425794 104.834921,125.65119 105.842063,125.913889 C103.973016,128.69881 102.129365,131.193254 100.553968,133.847222 C97.4150794,139.140873 94.0896825,144.363095 91.4436508,149.901984 C86.55,160.147222 82.2944444,170.806746 73.3714286,178.370238 C69.715873,181.468651 65.297619,183.668651 60.4055556,186.803571 C59.5753968,183.862302 58.5412698,181.855952 58.5230159,179.840873 C58.452381,171.847222 58.1912698,163.795635 59.0706349,155.88373 L59.0706349,155.88373 Z M107.014286,86.0686508 C108.837302,88.1313492 110.581746,89.9686508 112.172222,91.9321429 C115.487302,96.025 118.747619,100.163095 121.983333,104.318651 C130.20873,114.885317 133.925397,127.127381 134.006349,140.267063 C134.057143,148.578175 132.596032,156.894048 131.880952,165.214683 C131.72619,167.025 131.85873,168.859921 131.85873,170.934524 C116.685714,163.496429 111.007937,148.93373 104.024603,135.477381 C106.901587,131.387698 109.761905,127.321032 112.72381,123.109921 C108.442857,119.31627 103.823016,122.531349 99.7087302,121.767063 C97.8563492,109.305159 100.23254,97.3353175 107.014286,86.0686508 L107.014286,86.0686508 Z M136.953968,155.230556 C138.392063,141.951984 139.886508,128.668651 141.887302,115.467857 C143.325397,105.982937 145.607143,96.625 147.563492,87.2210317 C147.639683,86.8527778 148.243651,86.5940476 149.165079,86.4313492 C146.383333,115.495635 138.478571,143.913889 139.543651,173.344048 L138.078571,173.85754 C137.507937,172.976587 136.444444,172.094048 136.446825,171.213889 C136.45873,165.882937 136.381746,160.517063 136.953968,155.230556 L136.953968,155.230556 Z M141.17619,76.1742063 C137.038889,65.0686508 135.564286,53.7289683 139.47619,42.2202381 C140.310317,39.7678571 141.673016,37.4559524 143.04127,35.2329365 C146.490476,29.6337302 150.08254,24.1218254 153.931746,18.0813492 C161.200794,34.7646825 164.565079,51.6456349 161.493651,69.3170635 C160.633333,74.2646825 158.719048,79.2011905 152.915079,81.0980159 C148.238889,82.627381 142.880952,80.7535714 141.17619,76.1742063 L141.17619,76.1742063 Z M128.703175,16.7297619 C132.45873,21.5861111 136.147619,26.2488095 139.656349,31.0440476 C140.034921,31.5623016 139.634127,33.0242063 139.148413,33.7472222 C132.094444,44.2392857 132.545238,55.6853175 134.984921,67.2900794 C135.97381,71.990873 137.634921,76.5503968 139.05,81.3789683 C118.761905,76.5257937 112.368254,38.4464286 128.703175,16.7297619 L128.703175,16.7297619 Z M164.645238,36.4289683 C164.345238,34.9321429 164.837302,32.6345238 165.864286,31.6265873 C169.948413,27.6178571 174.388889,23.972619 178.698413,20.1916667 C179.130159,20.3876984 179.561905,20.5837302 179.994444,20.7797619 C179.994444,28.027381 180.55873,35.3329365 179.828571,42.5059524 C179.154762,49.1305556 177.230159,55.6472222 175.607143,62.1488095 C173.869048,69.1035714 169.828571,74.4607143 163.361111,78.1916667 C169.150794,64.1337302 167.434921,50.322619 164.645238,36.4289683 L164.645238,36.4289683 Z M153.357937,134.749603 C161.076984,126.690873 169.01746,118.790873 177.427778,111.468651 C182.303175,107.222619 188.265873,104.225 194.584127,101.15754 C193.323016,106.624206 192.346032,112.176587 190.742857,117.541667 C187.265079,129.177381 183.673016,140.88373 176.051587,150.609127 C171.361111,156.594048 166.161905,162.255159 160.662698,167.50754 C156.096825,171.869444 149.906349,173.196429 144.211111,174.334524 C144.211111,165.179762 143.218254,156.111508 144.615079,147.427381 C145.353968,142.827381 149.799206,138.465476 153.357937,134.749603 L153.357937,134.749603 Z M45.5547619,161.468651 C45.1507937,161.620238 44.7460317,161.771825 44.3412698,161.923413 C41.5325397,156.582937 38.7238095,151.24246 35.6150794,145.331349 C34.6166667,143.43373 25.8134921,131.025 23.3174603,126.932937 C19.0984127,120.634524 12.1968254,116.584524 4.28492063,113.491667 C3.49047619,113.181349 2.15079365,112.850397 1.5547619,113.260714 C0.758730159,113.808333 -0.00396825397,115.063095 2.8901103e-16,116.011508 C0.0333333333,123.746429 0.426984127,132.81627 0.715079365,140.544841 C0.848412698,144.131349 2.20634921,146.458333 2.95555556,148.886111 C3.8047619,151.643254 4.94126984,154.337698 5.97857143,157.049603 C12.3738095,173.752778 24.6134921,184.260714 41.4309524,189.264683 C46.4277778,190.751984 52.2650794,191.313889 57.3293651,190.319444 C72.1595238,187.408333 81.6103175,177.291667 88.3920635,164.408333 C91.8063492,157.921825 94.9253968,151.279762 98.1706349,144.723413 C99.05,144.999603 100.002381,145.571032 100.938095,145.54246 C104.190476,145.445635 106.292857,146.667857 107.55873,149.815476 C111.211905,158.893254 117.560317,165.805952 125.490476,171.359921 C135.930159,178.672619 146.607937,179.839286 158.003175,173.277381 C166.519048,168.373413 172.099206,160.543254 178.019048,153.286905 C180.912698,149.740079 184.839683,143.986111 185.648413,142.559921 C188.250794,135.409921 190.985714,128.976587 192.919841,122.312302 C195.370635,113.867857 197.215873,105.245635 199.188889,96.6686508 C199.407143,95.7210317 198.755556,94.5718254 198.506349,93.5162698 C197.485714,93.8813492 196.388095,94.1146825 195.460317,94.643254 C194.094444,95.422619 192.904762,96.5123016 191.542063,97.2988095 C176.201587,106.155159 162.592063,117.071825 151.360317,130.847222 C149.818254,132.737698 148.203968,134.568651 146.623016,136.427381 C146.246032,136.177381 145.869048,135.926587 145.49127,135.675794 C146.280159,130.83373 147.074603,125.993254 147.85873,121.150397 C149.53254,110.805159 151.305556,100.474206 152.794444,90.1027778 C153.15,87.6337302 153.931746,86.6075397 156.413492,85.8964286 C165.996825,83.1535714 174.263492,77.6686508 177.446825,68.2305556 C180.988889,57.7305556 182.715873,46.5519841 184.485714,35.5488095 C185.351587,30.1654762 184.592063,24.509127 184.420635,18.9805556 C184.370635,17.3757937 183.80873,15.7869048 183.480952,14.1916667 C181.93254,14.7019841 180.169048,14.8956349 178.873016,15.7781746 C173.469841,19.4551587 168.207143,23.3400794 162.24127,27.6170635 C160.326984,21.909127 158.601587,16.5551587 156.702381,11.2638889 C156.271429,10.0638889 155.236508,9.08214286 154.478571,8.00039683 C153.429365,9.12103175 152.034921,10.0734127 151.392063,11.3924603 C148.654762,17.0027778 146.140476,22.7210317 143.061111,29.4583333 C138.121429,23.077381 133.906349,17.7662698 129.857937,12.3329365 C128.35,10.3083333 126.414286,10.3202381 125.006349,12.856746 C123.406349,15.7392857 122,18.7289683 120.534127,21.6853175 C112.084127,38.7194444 111.447619,55.6678571 121.781746,72.1297619 C126.39127,79.4718254 131.921429,86.0440476 141.938095,85.877381 C142.62619,85.8654762 144.099206,87.7940476 143.930159,88.5257937 C142.28254,95.6702381 140.207143,102.71627 138.57619,109.863095 C137.543651,114.390079 137.055556,119.040873 136.32381,123.635317 C135.907937,123.744048 135.492857,123.851984 135.07619,123.960714 C134.534921,116.571825 131.245238,110.590873 126.707143,105.163095 C120.361111,97.5694444 114.219841,89.806746 107.909524,82.1829365 C105.734921,79.5575397 104.385714,79.9170635 103.003968,83.1162698 C101.490476,86.6218254 99.6952381,90.0170635 98.3603175,93.5861111 C95.2309524,101.944048 93.797619,110.520238 95.6706349,119.435317 C96.1769841,121.844048 94.7349206,122.754365 92.6325397,123.70119 C85.552381,126.891667 78.3626984,129.981349 71.7277778,133.963095 C67.1468254,136.711508 63.4119048,140.869444 59.3,144.398016 C58.9126984,144.332937 58.5253968,144.268651 58.1388889,144.203571 C58.902381,136.934524 59.6253968,129.660714 60.4944444,122.403571 C60.5793651,121.694841 61.4555556,120.936905 62.1452381,120.467857 C65.384127,118.267063 68.8373016,116.358333 71.9380952,113.98373 C82.4111111,105.963889 88.15,95.3099206 89.3753968,82.143254 C90.2547619,72.709127 91.3992063,63.3003968 92.3944444,53.8757937 C92.5833333,52.0845238 92.6246032,50.2757937 92.7801587,47.727381 C84.8190476,50.2543651 78.55,54.1742063 73.2436508,59.5694444 C70.6492063,53.3194444 68.0912698,47.0123016 65.3888889,40.7678571 C64.9007937,39.6416667 63.8222222,38.7718254 63.015873,37.7837302 C62.0619048,38.7234127 60.8928571,39.525 60.1904762,40.625 C56.7071429,46.0797619 53.3484127,51.6138889 50.2126984,56.6876984 C44.5690476,51.9789683 39.4206349,47.7178571 34.3142857,43.4059524 C32.2380952,41.6527778 30.7944444,42.7011905 30.0301587,44.5876984 C29.0468254,47.0178571 28.2714286,49.5916667 27.8436508,52.1757937 C25.6269841,65.5718254 25.3952381,78.9630952 29.2357143,92.1186508 C32.2063492,102.29246 36.7492063,111.518651 46.4428571,117.205159 C47.3206349,117.721032 48.0825397,119.327381 48.0301587,120.385317 C47.7111111,126.962302 47.2222222,133.536905 46.5396825,140.084524 C46.3769841,141.637698 45.5547619,156.094048 45.5547619,161.468651 L45.5547619,161.468651 Z" id="Fill-1" fill="#000000"></path>
    </g>
</svg>