<?xml version="1.0" encoding="UTF-8"?>
<svg width="200px" height="200px" viewBox="0 0 200 200" version="1.1" xmlns="http://www.w3.org/2000/svg" xmlns:xlink="http://www.w3.org/1999/xlink">
    <!-- Generator: Sketch 54.1 (76490) - https://sketchapp.com -->
    <title>foglia</title>
    <desc>Created with Sketch.</desc>
    <g id="foglia" stroke="none" stroke-width="1" fill="none" fill-rule="evenodd">
        <path d="M95.5505062,181.420025 C95.2987224,189.66156 104.186236,215.787318 109.413783,222.221086 C110.616582,221.761369 111.860333,221.300893 113.091192,220.809314 C114.28034,220.333665 115.457353,219.825397 116.776185,219.274646 C106.017736,208.593422 100.649128,195.565819 98.0926126,181.061961 C97.1453898,181.195476 96.3339178,181.309268 95.5505062,181.420025 M94.3871436,-7.31826161 C94.2438089,-7.42067392 94.1012325,-7.52232761 93.9571393,-7.62549852 C85.5216233,1.22975186 77.0853489,10.0842436 68.5315248,19.0623888 C75.9379125,24.5918945 82.9378057,29.8171977 90.0529735,35.1297411 C91.5204484,20.7601572 92.9530376,6.72132708 94.3871436,-7.31826161 M154.230543,141.612742 C153.855143,141.768257 153.472917,141.909359 153.105858,142.082322 C136.053572,150.09855 118.993702,158.098089 101.958101,166.147696 C96.6577482,168.652625 96.6880836,168.716348 98.0880623,174.410472 C98.1312902,174.585711 98.20182,174.755639 98.2420144,174.931637 C98.4793889,175.963346 99.0132919,176.305479 100.08489,175.936036 C102.259938,175.187288 104.479731,174.570538 106.658571,173.830894 C119.303123,169.537922 131.325042,164.031933 141.805164,155.574953 C146.683096,151.639286 150.972521,147.149834 154.230543,141.612742 M88.1054409,90.3519715 C88.1054409,85.8458302 87.9636229,81.8638882 88.131226,77.8940839 C88.6742296,64.9893753 89.3097562,52.0884597 89.9741015,39.1890613 C90.040081,37.9130798 89.7981562,37.0831609 88.7250414,36.2942069 C82.2780108,31.5536552 75.8855839,26.7372426 69.4704054,21.9534501 C68.8591471,21.4967671 68.2099696,21.0901524 67.4932958,20.6023664 C56.9107919,32.8357055 47.0995656,45.400557 38.8157265,59.2474589 C55.2135264,69.5948944 71.3845691,79.80047 88.1054409,90.3519715 M21.7930175,105.484717 C21.6534747,105.818505 21.5837033,105.92471 21.565502,106.040019 C21.5093815,106.398841 21.4578113,106.760698 21.4320263,107.123314 C20.6933593,117.466197 22.4922484,127.299296 27.4482942,136.465576 C32.6265468,146.041506 40.2771344,153.281676 49.2799224,159.17228 C62.2369296,167.65126 76.5613049,172.743806 91.5909782,176.043 C92.3721148,176.214446 93.1722109,176.300168 93.7303822,176.388926 C92.5829458,166.92527 91.4203416,157.667198 90.3714952,148.396988 C90.1712816,146.633221 89.5676071,145.533996 87.9636229,144.591803 C70.560963,134.370296 53.2136652,124.052446 35.8474078,113.766458 C31.2136756,111.021809 26.5678093,108.297641 21.7930175,105.484717 M37.7812894,60.6857828 C35.6737376,64.6950347 33.6260982,68.4031187 31.7506122,72.1969255 C27.1912017,81.4238946 23.7405501,91.0294099 22.0470765,101.225124 C21.8043933,102.692275 21.9992982,103.613985 23.4470551,104.447697 C30.5872496,108.559362 37.6478137,112.806817 44.7371964,117.007239 C59.2299332,125.5947 73.7234283,134.18292 88.2191987,142.765829 C88.6469278,143.019205 89.1125762,143.210374 89.6942574,143.49637 C89.6942574,142.690727 89.7124587,142.152873 89.6912239,141.615777 C89.0920998,125.868558 88.4489893,110.123615 87.9461801,94.3726026 C87.8930931,92.7264197 87.3326466,91.9078799 86.0441506,91.0999606 C74.6949195,83.9879952 63.3805741,76.8206513 52.0540946,69.6730312 C47.4006444,66.7364533 42.7411272,63.8082201 37.7812894,60.6857828 M92.2029949,119.33086 C92.4653961,119.409755 92.7277973,119.488651 92.9909569,119.567546 C115.359522,108.844599 137.728845,98.1208929 160.263496,87.3190502 C155.949044,72.3205789 148.995412,58.6800189 140.879934,45.5689684 C140.500742,45.6546913 140.253508,45.6736565 140.037369,45.7654483 C124.656563,52.3175598 109.271207,58.860568 93.9222536,65.489299 C93.3072034,65.7548124 92.6777439,66.8221762 92.6648514,67.5261659 C92.4525036,79.1040663 92.317511,90.6842426 92.2120955,102.262902 C92.1590086,107.951715 92.2029949,113.641288 92.2029949,119.33086 M160.738245,89.126817 C159.979101,89.4431572 159.469467,89.6282579 158.983342,89.8619097 C137.46341,100.176725 115.953337,110.512023 94.4091368,120.77677 C93.0432855,121.427657 92.7338644,122.202956 92.8461054,123.56466 C93.7690599,134.798911 94.6139007,146.03923 95.5618819,157.271963 C95.8182161,160.31778 96.3452936,163.340081 96.7730227,166.566448 C97.8059431,166.115075 98.5794957,165.797977 99.3356056,165.442189 C118.026762,156.652179 136.719434,147.865962 155.389355,139.031194 C156.141673,138.674647 156.87579,137.962313 157.275459,137.228737 C162.305068,127.975217 164.075897,118.002534 163.664852,107.566342 C163.422169,101.376845 162.397591,95.3193475 160.738245,89.126817 M112.7211,7.70372657 C108.26938,2.74014367 103.816902,-2.22343924 99.3644242,-7.18702214 L98.7910851,-6.89571604 C97.9667207,0.36190243 97.1415978,7.6195209 96.2709719,15.2716164 C98.8244541,14.0540479 100.922905,13.0230974 103.0479,12.0475254 C106.280895,10.5636849 109.53285,9.12005078 112.776462,7.6589686 L112.776462,9.28770351 C107.67329,11.7539435 102.567084,14.2725275 97.4055158,16.6750442 C96.3506023,17.1658647 95.9896111,17.7939935 95.9099806,18.8621158 C95.0689317,30.0500909 94.1732791,41.2342729 93.3557401,52.4245237 C93.0834799,56.1629521 92.997024,59.9150354 92.8089445,64.0031827 C108.609895,57.2636947 124.119626,50.6471013 139.851564,43.9379576 C131.635221,31.019594 122.537635,19.0934918 112.7211,7.70372657 M102.162865,179.833014 C102.887881,183.017657 103.432401,186.118094 104.305302,189.122189 C107.565599,200.338991 112.843959,210.353397 121.8968,218.070733 C123.734367,219.636503 123.43708,221.314548 121.19226,222.228672 C117.432946,223.759546 113.631162,225.184215 109.874881,226.721158 C108.079784,227.455493 107.024871,226.66047 106.084473,225.258559 C102.440434,219.829948 99.8626831,213.893069 97.6641251,207.77109 C94.7488933,199.653966 92.6633346,191.311536 91.2208864,182.823453 C90.8788547,180.813137 90.0924095,180.060596 88.1668701,179.628189 C75.2007623,176.715887 62.8072351,172.234021 51.3116357,165.493774 C39.6666345,158.666287 29.740892,150.04393 23.3393645,137.884176 C18.5031435,128.69893 16.5639531,118.870384 17.0811717,108.551017 C17.9510392,91.206166 24.4412978,75.6918401 32.8715051,60.8519183 C42.7775296,43.4122412 55.0959767,27.7310212 68.5884037,12.9859255 C76.9723495,3.82419685 85.8227022,-4.9104346 94.4811834,-13.8195463 C96.0252552,-15.4080749 97.0270817,-15.3860752 98.6287908,-13.7975466 C110.878983,-1.64765452 122.047719,11.4383619 132.285916,25.3178839 C141.771795,38.1755588 150.2877,51.6302594 156.947837,66.1963232 C161.910708,77.0489928 165.74131,88.2506228 167.298275,100.147139 C170.679155,125.977039 161.846245,146.548257 140.736599,161.803897 C129.854534,169.667644 117.671837,174.846672 104.965856,178.915096 C104.160451,179.173023 103.357321,179.441571 102.162865,179.833014" id="Fill-1" fill="#000000" transform="translate(92.500000, 106.000000) rotate(-33.000000) translate(-92.500000, -106.000000) "></path>
    </g>
</svg>