<?xml version="1.0" encoding="UTF-8"?>
<svg width="200px" height="200px" viewBox="0 0 200 200" version="1.1" xmlns="http://www.w3.org/2000/svg" xmlns:xlink="http://www.w3.org/1999/xlink">
    <!-- Generator: Sketch 54.1 (76490) - https://sketchapp.com -->
    <title>luna</title>
    <desc>Created with Sketch.</desc>
    <g id="luna" stroke="none" stroke-width="1" fill="none" fill-rule="evenodd">
        <path d="M151.086581,181.407934 C149.867569,182.267166 148.716563,183.078135 147.475612,183.684717 C142.65075,186.0434 137.717294,188.213784 132.812358,190.136271 C130.349835,191.101536 127.631737,191.68106 125.002486,192.241938 L124.376892,192.375393 C120.483656,193.209397 117.269031,193.779415 114.261353,194.169177 C113.636856,194.249982 113.007605,194.342486 112.375064,194.435356 C109.871225,194.802815 107.282559,195.182706 104.973601,194.796965 C103.193711,194.499707 101.406508,194.454004 99.6778062,194.409397 C96.975064,194.339927 94.4214991,194.274113 91.9812797,193.308848 C90.7395978,192.817806 89.4335649,192.717989 88.1703108,192.621097 C87.4006581,192.56223 86.6741499,192.506654 85.9937112,192.367349 C84.120585,191.983437 81.670128,191.441207 79.3257038,190.648519 C76.8953565,189.826581 74.4489214,188.872651 72.0825594,187.950165 C71.2569653,187.62841 70.4313711,187.306289 69.6043144,186.988921 C66.215649,185.687642 62.6419744,184.213053 59.4734186,181.767715 C58.0719561,180.686179 56.5575137,179.757477 55.0924314,178.859488 C53.3801828,177.809762 51.7633638,176.818172 50.3180256,175.607934 C47.8430713,173.534442 45.5337477,171.122742 43.2997441,168.790384 C42.5531261,168.010859 41.8065082,167.2317 41.0525777,166.462048 C40.6277148,166.02841 40.2006581,165.595868 39.7736015,165.163327 C37.8043144,163.169177 35.768117,161.10702 33.977989,158.940293 C31.8207678,156.328958 29.8719561,153.40574 28.2145521,150.870823 C25.8895064,147.313601 23.9172943,144.083254 22.1863985,140.995137 C21.9385009,140.552358 21.6832907,140.113967 21.4280804,139.674479 C20.4214991,137.94468 19.4704936,136.310676 18.9534918,134.449982 C18.5984644,133.170274 18.0752468,131.961865 17.5695795,130.792578 C17.0975503,129.70117 16.6514808,128.670091 16.3428885,127.607934 C15.7235101,125.478867 15.2478245,123.091664 14.8884095,120.309945 C14.3637294,116.248154 13.9052285,112.101901 13.4620841,108.092029 C13.3264351,106.864241 13.1904205,105.636453 13.0529433,104.4083 L13.4112614,104.366618 L13.4112614,103.228044 C13.4112614,102.62 13.3926143,102.009397 13.3746984,101.418537 C13.3355759,100.125667 13.2982815,98.9048263 13.4405119,97.7187203 C13.7549543,95.10117 14.1874954,92.4397441 14.6061426,89.8657038 C14.7863985,88.7545521 14.9670201,87.6434004 15.1395978,86.5296892 L15.1549543,86.4327971 C15.1915174,86.2006216 15.2372212,85.9121389 15.2331993,85.5973309 C15.1907861,82.3593053 16.1085192,79.3242048 17.08,76.1106764 C17.3929799,75.0755759 17.7165631,74.0046435 18.0024863,72.9351737 C18.8054113,69.9278611 19.8306399,66.8397441 21.0481901,63.7578428 C22.2068739,60.8243876 23.3911517,58.3618647 24.6686654,56.2295064 C27.4339305,51.613053 30.2620841,47.2210969 33.0748812,43.1750274 C33.8478245,42.0638757 34.8862157,41.1008044 35.9863985,40.0810603 C36.4759781,39.6273126 36.9823766,39.1578428 37.4664717,38.6715539 C38.1048629,38.0302377 38.7534918,37.3976965 39.4013894,36.7651554 C40.7231444,35.4752102 42.0902377,34.1413894 43.3633638,32.7384644 C46.1640951,29.6521755 49.5842048,27.1399269 52.8917002,24.7106764 C60.6752468,18.993309 66.8949909,15.1479707 73.0598903,12.2434004 C76.3224132,10.7062888 79.9286289,9.63718464 83.4167459,8.60391225 C84.0130896,8.42694698 84.608702,8.25034735 85.2024863,8.07191956 C88.900841,6.95967093 92.0163803,6.12164534 95.2028519,5.6485192 C99.0280804,5.0806947 103.539598,4.61012797 108.003949,5.4295064 C108.917294,5.59696527 109.807605,5.56076782 110.6683,5.52566728 C111.36117,5.49678245 112.014186,5.47045704 112.609068,5.5545521 C112.948007,5.60281536 113.2917,5.6474223 113.636856,5.69239488 C115.311444,5.90957952 117.043071,6.13444241 118.36958,6.81926874 C119.909616,7.61488117 120.916563,8.7450457 121.281828,10.0869104 C121.676344,11.5362706 121.334479,13.1757587 120.293163,14.8265814 C119.401389,16.2404753 118.227715,17.324936 116.488044,18.3435832 C113.093894,20.3315174 109.967751,22.5530896 107.357514,24.4642413 C104.282559,26.715064 101.826252,28.6978793 99.6284461,30.7029982 L98.8258867,31.4331627 C96.270128,33.7552834 93.6277148,36.1560146 91.5161974,38.9611335 C91.1659232,39.426947 90.8065082,39.8880073 90.4459963,40.3508958 C88.5746984,42.7530896 86.639415,45.236819 85.7388665,48.5234735 C85.3110786,50.0858135 84.5798172,51.5768556 83.8046801,53.1552834 C83.2617185,54.2620475 82.7004753,55.4064717 82.2434369,56.593309 C81.4847532,58.5647898 80.9787203,60.5578428 80.7403291,62.5168921 C80.293894,66.1805119 79.8160146,70.5216453 79.6540402,74.93883 C79.5476417,77.8485192 79.496819,81.6653382 80.0573309,85.3881901 C80.5096161,88.3903839 81.2668373,91.3647898 81.99883,94.2419378 C82.2796344,95.3443144 82.5695795,96.4847166 82.8368556,97.6042779 C82.9874954,98.2357221 83.1322852,98.8700914 83.2767093,99.5040951 C83.7246069,101.468629 84.1871298,103.500439 84.84234,105.464607 C85.4145521,107.179415 86.2430713,109.397331 87.588958,111.337002 C102.28585,132.525667 121.452578,143.322011 143.889141,143.320914 C152.078537,143.320548 160.706325,141.881792 169.707057,138.984899 L169.825155,138.940293 C171.019671,138.421097 172.591883,137.795137 174.164461,137.561499 C176.877075,137.15894 179.658428,136.915064 182.429909,136.837185 C183.764095,136.786728 184.654406,137.986362 184.92936,139.104826 C185.029177,139.512139 185.134845,139.918355 185.240512,140.324936 C185.50925,141.356746 185.763364,142.331517 185.925704,143.320914 C185.991152,143.718355 185.916563,144.25766 185.731188,144.727495 C185.524607,145.25181 185.319122,145.777587 185.114004,146.303364 C184.155686,148.759671 183.164461,151.299342 181.99298,153.668263 C181.187495,155.296051 179.937404,156.771737 178.821133,158.000622 C175.783108,161.343583 173.035759,164.212322 170.422962,166.771005 C165.852578,171.24596 160.87415,175.883985 154.699378,179.099342 C153.411627,179.769909 152.229543,180.60245 151.086581,181.407934 M190.362633,142.872285 C190.286947,142.559671 190.290603,142.122011 190.373967,141.533346 C190.666837,139.473382 190.029177,137.43426 188.530091,135.63755 C186.618574,133.346874 183.561901,131.795868 180.743254,131.686179 C177.029909,131.540658 173.697916,132.777952 170.479269,133.973565 C169.792614,134.22841 169.106325,134.483254 168.417112,134.724205 L168.371408,134.741024 C154.530457,140.181243 138.520951,140.022925 123.293163,134.29532 C108.916563,128.888373 97.0858501,119.150165 90.8258867,107.571737 C90.3363071,106.481426 89.9147349,104.870823 89.4690311,103.166618 C89.077075,101.66936 88.6723218,100.12128 88.1721389,98.7355393 C88.0503839,98.3984278 87.9260695,98.0624132 87.8021207,97.7271298 C86.9118099,95.3161609 86.0712249,93.0393784 86.16117,90.5775868 C86.1743327,90.2207313 86.0854845,89.9194516 86.0266179,89.7201828 C86.0130896,89.6763071 85.9980987,89.6327971 85.9896892,89.5885558 C85.8116271,88.6551005 85.5856673,87.7212797 85.3677514,86.8178062 C84.886947,84.826947 84.4328336,82.9461426 84.4489214,81.0964168 C84.4617185,79.6525411 84.4072395,78.196234 84.354223,76.7881901 C84.2068739,72.8551005 84.0675686,69.1402925 85.2481901,65.4284095 C85.5805484,64.3841682 85.7615356,63.3201828 85.9370384,62.291298 C86.1812797,60.8583912 86.4119927,59.5044607 87.0182084,58.243766 C87.6672029,56.8945887 88.1052285,55.4664351 88.5286289,54.0850823 C89.0178428,52.4902011 89.48,50.9841682 90.2258867,49.6657038 C92.4346618,45.7614991 94.9004753,41.6909324 97.9600731,38.3688117 C100.318757,35.8075686 103.205411,33.5761243 105.997002,31.4178062 C106.995174,30.6459598 108.027715,29.8474223 109.02808,29.0412066 C110.776527,27.6313346 112.745814,26.3944059 114.650018,25.1984278 C117.458428,23.4342596 120.362633,21.6104936 122.794808,19.1205484 C124.144351,17.7384644 125.567386,16.0748446 125.886947,14.2108592 C126.761901,9.10994516 124.466106,4.59769653 119.896453,2.43462523 C116.94947,1.04010969 113.502303,0.371005484 109.649653,0.428409506 C108.224059,0.452541133 106.761901,0.426215722 105.348373,0.402084095 C101.462084,0.333345521 97.4434369,0.264606947 93.4569653,1.16625229 C92.7629982,1.32310786 92.059159,1.43572212 91.313638,1.55528336 C90.2723218,1.72201097 89.1955393,1.89422303 88.1337477,2.19842779 C86.9915174,2.52603291 85.8723218,2.93261426 84.7896892,3.32603291 C83.256234,3.88325411 81.8083364,4.40903108 80.3154662,4.72347349 C77.1666545,5.38563071 73.9692139,6.54212066 70.2529433,8.36296161 C68.1403291,9.39806216 66.1308227,10.6554662 64.1878611,11.8715539 C63.134479,12.5311517 62.0452651,13.2126874 60.9644607,13.8426691 C54.1242413,17.8273126 48.1991956,22.0642413 42.8511152,26.7947715 C40.7904205,28.6174406 38.9619013,30.5253016 36.7856673,32.8306033 C36.391883,33.2474223 35.9966362,33.6638757 35.601755,34.0803291 C33.3377697,36.4671664 30.9966362,38.9355393 28.8814625,41.5468739 C27.4079707,43.3662523 26.120585,45.3424863 24.8752468,47.2540037 C24.3670201,48.033894 23.8416088,48.8401097 23.3151005,49.6174406 C23.1158318,49.9117733 22.9410603,50.2072029 22.7725046,50.4927605 C22.5597075,50.853638 22.358245,51.1940402 22.1355759,51.4825229 C19.7001097,54.6434004 18.3246069,58.2861792 16.994808,61.8090311 L16.7827422,62.3710055 C16.6383181,62.7523583 16.4672029,63.1315174 16.2862157,63.5329799 C16.0847532,63.9808775 15.8759781,64.4441316 15.6953565,64.9329799 C15.2470932,66.1501645 14.8006581,67.4554662 14.2906033,69.0412066 C14.1743327,69.403181 14.0555027,69.7647898 13.9366728,70.1267642 C13.5092505,71.4273126 13.0672029,72.7728336 12.7406947,74.1494333 C12.4518464,75.3684461 12.2467276,76.6053748 12.0485558,77.8017185 C11.9363071,78.4799634 11.8240585,79.158574 11.6964534,79.8331627 C11.5955393,80.365521 11.4756124,80.9132358 11.3593419,81.4434004 C11.1907861,82.2104936 11.0163803,83.0035466 10.8873126,83.8086654 C10.8145521,84.2572943 10.8558684,84.6894698 10.8917002,85.0708227 C10.9048629,85.2057404 10.9224132,85.393309 10.9235101,85.5128702 C9.70486289,87.1607678 9.7216819,88.9702742 9.73703839,90.5717367 C9.74873857,91.8309689 9.75934186,92.917989 9.2145521,93.8042779 L9.02515539,94.1132358 L9.02552102,94.4752102 C9.02698355,95.98234 9.01967093,97.4898355 9.01272395,98.9969653 C8.98054845,105.957843 8.94691042,113.155283 9.76848263,120.246691 C9.80687386,120.577221 9.90559415,120.851079 9.98530165,121.071188 C10.0112614,121.142486 10.0379525,121.213053 10.0584278,121.285082 L10.5648263,123.089104 C11.0445338,124.796965 11.5246069,126.504461 11.988958,128.216709 C12.1209506,128.702633 12.2291773,129.198062 12.3436197,129.723473 C12.5637294,130.73298 12.7915174,131.777221 13.205777,132.787824 C14.2953565,135.441572 15.530457,138.110311 16.8767093,140.720914 C18.3640951,143.605009 20.0116271,146.449616 21.6050457,149.200622 L21.6277148,149.239013 C22.1019378,150.05766 22.6448995,150.818903 23.1703108,151.554918 C23.4076051,151.88691 23.6445338,152.218537 23.8745155,152.555283 C24.3370384,153.232066 24.7966362,153.940658 25.2405119,154.625484 C26.270128,156.213419 27.334479,157.855101 28.5874954,159.349068 C29.0917002,159.950165 29.5659232,160.572834 30.0679342,161.230969 C31.5044973,163.116161 32.988958,165.063144 35.1728702,166.439744 C35.7447166,167.145777 36.3099817,167.900073 36.856234,168.629506 C38.1403291,170.342486 39.4679342,172.114333 41.1059598,173.58234 C44.6536746,176.761499 48.554223,179.615978 52.3260695,182.37649 L52.4748812,182.485448 C55.4690311,184.677038 58.6372212,186.639744 61.0628154,188.104461 C62.9469104,189.242669 64.9549543,190.129689 66.6891408,190.87192 C69.134479,191.917989 71.9827422,193.11543 74.8438026,194.090201 C77.3172943,194.932614 79.7469104,195.558574 82.6653748,196.28947 L83.6419744,196.535174 C86.0620841,197.145777 88.5648263,197.777221 91.0942596,198.156015 C93.2368556,198.476307 95.4152834,198.621097 97.5220475,198.761133 C98.3944424,198.818903 99.2664717,198.877038 100.137038,198.947239 C100.794808,199.000256 101.452943,199.047788 102.111079,199.095686 C103.060622,199.164059 104.043071,199.235356 105.001755,199.322011 C105.262815,199.345777 105.552395,199.404278 105.859525,199.466435 C106.338135,199.562962 106.86574,199.66936 107.423327,199.66936 C107.596636,199.66936 107.772505,199.659122 107.950932,199.635356 C109.681463,199.40245 111.470494,199.259122 113.201024,199.120548 C116.732285,198.837916 120.383473,198.545777 123.941426,197.483254 C125.212358,197.103729 126.531554,196.762596 127.807239,196.432797 C129.753126,195.929689 131.765558,195.409031 133.714735,194.728227 C135.325338,194.165521 136.884022,193.458391 138.391883,192.775027 C139.885119,192.097879 141.428812,191.398062 142.96958,190.867532 C147.814918,189.200256 152.124241,186.534442 156.292066,183.95638 L156.503035,183.825484 C160.233931,181.518355 163.622962,178.803181 167.054771,175.991481 C168.630274,174.700073 170.086216,173.25766 171.493528,171.862779 C172.345082,171.019634 173.22479,170.147605 174.110347,169.331152 C174.736307,168.754552 175.393711,168.218903 176.090603,167.652176 C176.996271,166.914698 177.933016,166.152724 178.791152,165.292395 C179.923876,164.156746 180.941426,162.913967 181.926069,161.712505 C182.292431,161.264973 182.658793,160.818172 183.030274,160.37649 L183.244168,160.126764 C183.622596,159.686545 184.051846,159.187824 184.366654,158.587093 C184.753492,157.848154 185.150567,157.113236 185.547642,156.377587 C186.750567,154.149799 187.994442,151.84596 188.959342,149.43755 C189.088044,149.116892 189.231005,148.795137 189.375795,148.469726 C190.087313,146.86936 190.893894,145.055466 190.362633,142.872285" id="Fill-1" fill="#000000"></path>
        <path d="M77.3069835,102.244607 C76.4901645,101.314442 74.8982084,100.627057 73.5969287,100.667276 C73.2802925,100.674589 72.8203291,100.800731 72.424351,101.357952 C71.7066179,102.369287 71.5384278,104.359415 71.8729799,105.397075 C72.1142962,106.145887 72.1307495,107.00841 71.9106399,107.402925 C69.5991225,111.550274 65.9208775,113.428154 59.6122852,113.682633 L59.5643876,113.686289 C58.502596,113.798172 56.4923583,113.045704 54.6667642,111.854113 C53.2645704,110.93894 51.9958318,109.747715 50.8163071,108.605119 C49.4671298,107.299817 49.0108227,106.055941 49.2905302,104.444973 C49.4989397,103.242779 48.0057038,101.822303 47.1603656,101.328336 C46.586691,100.993784 45.946106,100.927239 45.3080804,101.13309 C44.546106,101.380622 43.8349543,102.037294 43.4963803,102.806216 C43.0810238,103.749909 43.5589031,105.133455 44.0949177,106.031444 C44.4199634,106.5766 44.976819,106.888117 45.4682267,107.163437 C45.7117367,107.299817 45.9413528,107.428885 46.119415,107.569287 C46.3018647,107.713711 46.4934552,107.854479 46.685777,107.995978 C47.2462888,108.408044 47.7757221,108.797441 48.0605484,109.264351 C50.6228885,113.466179 55.2993053,115.959049 60.474808,115.958684 C60.8993053,115.958684 61.3281901,115.941865 61.7585375,115.907861 C62.8839488,115.818647 63.9398903,115.598537 64.9614625,115.38574 C65.4810238,115.277879 66.0185009,115.165631 66.5490311,115.07532 C69.3409872,114.598172 70.99766,112.769653 72.6002194,111.001097 C72.8320293,110.745521 73.0631079,110.490676 73.2967459,110.240951 C73.6726143,109.839488 73.9497623,109.398172 74.2185009,108.971481 C74.7014991,108.202925 75.1186837,107.53894 76.0221572,107.241316 C76.9069835,106.949909 77.6027788,106.161243 77.8828519,105.131627 C78.1731627,104.065082 77.9578062,102.985375 77.3069835,102.244607" id="Fill-4" fill="#000000"></path>
        <path d="M44.5694698,96.57766 C44.7800731,96.3897258 44.9793419,96.2120293 45.1859232,96.065777 C45.5603291,95.7992322 45.9555759,95.5392687 46.3420475,95.2873492 C46.5570384,95.6771115 46.7552102,96.0500548 46.8802559,96.4288483 C46.9489945,96.6354296 46.9500914,96.9385375 46.9511883,97.3579159 C46.9522852,97.6277514 46.9533821,97.9378062 46.9705667,98.3034369 L47.0531993,100.004717 L48.2301645,98.7732724 C48.4016453,98.5933821 48.5672761,98.4460329 48.7131627,98.316234 C49.0568556,98.0094698 49.4126143,97.6928336 49.3804388,97.194479 C49.3303473,96.4072761 49.6199269,96.268702 50.5427788,95.9495064 C50.8561243,95.8412797 51.1804388,95.7293967 51.4912249,95.5604753 C52.0488117,95.2562706 52.5716636,94.9027057 53.0773309,94.5604753 C53.2967093,94.4120293 53.516819,94.2635832 53.7387569,94.119159 L54.3559415,93.719159 L53.0817185,91.7802194 L51.5416819,92.8983181 C50.7917733,93.4467642 49.9329068,93.6215356 49.1244973,93.390457 C48.3248629,93.1623035 47.6967093,92.5718099 47.3555759,91.7272029 C47.1153565,91.1312249 46.8001828,90.7041682 46.4202925,90.45883 C45.9146252,90.1326874 45.4180987,90.4906399 45.0553931,90.7531627 C44.9702011,90.8149543 44.8850091,90.8774771 44.8107861,90.9220841 L44.1508227,91.3184278 L44.5800731,91.956819 C44.9961609,92.5758318 44.8224863,92.8361609 44.211883,93.5652285 C43.9460695,93.8829616 43.6711152,94.211298 43.4835466,94.6153199 C43.3124314,94.9831444 43.2338208,95.3699817 43.1639854,95.7114808 C43.1365631,95.8467642 43.1091408,95.9816819 43.0755027,96.1140402 L42.5106033,98.3410969 L44.2586837,96.8504205 C44.3636197,96.7612066 44.4667276,96.6694333 44.5694698,96.57766" id="Fill-6" fill="#000000"></path>
        <path d="M65.3454479,93.2255941 C65.5505667,93.6921389 65.7827422,94.2215722 66.2368556,94.5846435 C67.246362,95.3934186 68.3110786,96.1272395 69.3406947,96.8369287 C69.7348446,97.1085923 70.1260695,97.3780622 70.5103473,97.6493601 L71.5348446,98.3722121 L71.6657404,97.0548446 L71.6606216,96.9897623 C71.6518464,96.8775137 71.6609872,96.7170018 71.6960878,96.6263254 C71.8200366,96.3038391 71.9721389,95.9882998 72.1359415,95.6617916 C72.4021207,95.8482633 72.677075,96.0351005 72.9666545,96.2062157 C73.3732358,96.4468007 73.7834735,96.6563071 74.3034004,96.921755 C74.5560512,97.0511883 74.8357587,97.1941499 75.1538574,97.3605119 L76.5469104,98.0888483 L76.2065082,96.5542962 C75.9867642,95.56234 75.3165631,94.8764168 74.7776234,94.3250457 C73.9297258,93.4581353 73.6737843,93.1963437 74.4277148,92.2745887 L74.8441682,91.7652651 L73.5626325,90.4705667 L73.0558684,90.8340037 C72.9403291,90.9170018 72.7977331,90.9992687 72.6467276,91.0862888 C72.2353931,91.3239488 71.7688483,91.593053 71.4993784,92.0723949 C71.0284461,92.908958 70.3545887,93.4113346 69.6500183,93.450457 C68.9739671,93.4921389 68.3044973,93.1053016 67.7746984,92.3700183 C67.5300914,92.0303473 67.201755,91.8087751 66.9125411,91.6131627 C66.8090676,91.542596 66.7052285,91.4734918 66.6090676,91.3978062 L66.100841,90.9989031 L64.8448995,92.2468007 L65.1110786,92.7297989 C65.1915174,92.8753199 65.266106,93.0457038 65.3454479,93.2255941" id="Fill-8" fill="#000000"></path>
    </g>
</svg>