<?xml version="1.0" encoding="UTF-8"?>
<svg width="200px" height="200px" viewBox="0 0 200 200" version="1.1" xmlns="http://www.w3.org/2000/svg" xmlns:xlink="http://www.w3.org/1999/xlink">
    <!-- Generator: Sketch 54.1 (76490) - https://sketchapp.com -->
    <title>macchia</title>
    <desc>Created with Sketch.</desc>
    <g id="macchia" stroke="none" stroke-width="1" fill="none" fill-rule="evenodd">
        <path d="M44.7603577,133.930069 C44.890692,133.912144 44.890692,133.912144 45.0213627,133.893817 C45.3006547,133.85448 45.4516629,133.832442 46.0624273,133.742528 C50.1147096,133.145972 52.2366249,133.043954 55.2917615,133.589439 L58.9291537,134.238884 L56.3957245,137.101585 C55.8464874,137.722206 52.2079368,141.731994 51.2770737,142.817325 C50.7083802,143.480388 50.2030614,144.095337 49.7345509,144.69754 C48.2069898,146.660648 47.9594058,147.522648 48.6723979,148.43641 C49.4892783,149.482581 50.7065403,149.552146 52.9977587,148.734696 C54.1684382,148.316683 55.1116853,147.950132 57.2100183,147.112155 L57.2263054,147.10565 C59.1750686,146.327404 60.0493855,145.985899 61.1589922,145.58129 C65.5371796,143.98536 68.1134586,146.372999 67.9837479,151.062968 C67.9194765,153.409018 67.0431123,155.288286 65.3472503,157.522267 C64.5291355,158.600331 63.8571618,159.452138 62.3595296,161.326119 L62.33127,161.36148 C60.2951984,163.90921 59.3940215,165.065363 58.3409675,166.521727 C53.8438063,172.741412 54.8029525,178.034405 61.2252629,182.357201 C71.5666611,189.317853 87.966338,185.277246 94.0296333,174.321444 C95.5908356,171.50055 96.6061663,169.102895 98.7181203,163.58351 L98.7253217,163.564689 C99.6528593,161.140663 100.07924,160.047966 100.637964,158.694971 C103.681417,151.326634 105.386938,148.097439 108.655724,144.694502 C113.70218,139.439214 118.901233,139.026718 124.69737,143.363538 C125.002957,143.592092 125.243565,143.775814 125.778111,144.186798 L125.779688,144.188011 C126.957234,145.093364 127.479104,145.480237 128.13546,145.91513 C132.462839,148.782565 135.004854,147.779213 136.318101,142.749384 C136.532315,141.927698 136.64689,141.206448 136.8554,139.549611 C137.64423,133.298014 139.583084,132.342755 145.06133,135.243281 C155.046256,140.530736 165.24212,139.736579 178.890444,134.108738 C181.828211,132.897424 182.244887,130.324467 179.921111,127.552974 C179.0216,126.480567 178.105116,125.670387 175.986895,123.97894 L175.88156,123.894831 C175.100863,123.271429 174.712621,122.957099 174.259702,122.576092 C174.086539,122.430281 173.912067,122.286504 173.641513,122.065763 C173.542386,121.984922 173.542386,121.984922 173.44208,121.903142 C169.929495,119.038484 168.594314,117.139178 169.036188,113.585933 C169.523927,109.669103 171.675415,107.938079 176.141731,106.242993 C176.307557,106.180058 176.459879,106.122802 176.770122,106.006451 C177.328826,105.79658 177.83884,105.611512 178.733926,105.291288 C178.831722,105.256305 178.831722,105.256305 178.929353,105.221389 C183.609809,103.547448 185.58084,102.641868 187.670021,100.937837 C192.027762,97.3837593 193.646772,94.4979537 192.864318,90.6317363 C192.03782,86.5486792 189.236179,84.1125563 183.969982,82.3136467 C180.021183,80.9656876 176.788016,81.3025892 169.558334,83.194786 C161.81855,85.2208218 158.318734,81.7697926 160.104493,73.6686712 C160.965515,69.761059 162.080294,65.812919 163.703163,60.7032749 C165.55032,54.8860517 164.96093,49.9048579 161.712161,45.4054962 C157.109344,39.0315389 152.100764,34.5283546 146.105106,31.7450918 C137.225984,27.6243782 131.789213,30.7942314 130.803817,40.5130768 C130.769048,40.8564927 130.769048,40.8564927 130.734325,41.2009528 C130.668981,41.8492397 130.642362,42.1121117 130.606525,42.4608718 C130.026898,48.1017895 129.464351,51.4030736 128.265543,54.9139233 C126.877447,58.979488 124.870364,61.3383287 121.227928,61.936443 C117.359288,62.573302 114.645236,60.8125922 112.138328,57.0890229 C111.665927,56.387462 111.313114,55.8223543 110.545823,54.561252 L110.539453,54.5507822 C110.043619,53.7358407 109.819203,53.3713557 109.538866,52.9316741 C106.436098,48.0676434 101.922037,44.8840229 96.0297861,43.2642101 C86.6178924,40.6775113 83.7164296,43.5228771 85.9855322,52.8624561 C86.0604773,53.1707104 86.1297287,53.4270269 86.293168,54.0122799 L86.3048455,54.0540973 C86.690165,55.4340669 86.8503603,56.1123192 86.952598,57.0053961 C87.2207822,59.3719631 87.298049,61.0441441 87.1360719,62.7463784 C86.8097684,66.1526574 85.0087753,68.5668688 81.755724,68.9452966 C78.7409216,69.2980934 76.6163875,67.54183 75.4558616,64.5669684 C74.7325519,62.7151199 74.214066,60.8291586 73.9432304,58.9862109 C73.2297388,54.1172571 72.6341374,49.4287056 72.1557287,44.8604188 C70.9377399,33.2238014 63.6571645,23.8978605 54.0702517,21.5956179 C47.5781614,20.0364398 42.8542395,23.0796728 41.4425234,29.6019396 C40.530348,33.819836 41.2142221,37.7228391 43.4784252,41.6117156 C45.3063014,44.7504585 47.7361578,47.6169148 51.2324993,50.9651382 C52.9250401,52.5863083 54.3371094,53.8493309 57.5370077,56.6463388 L57.5565983,56.6634627 C63.1526355,61.5549177 65.5868659,63.8306233 68.3717958,67.0102038 C72.9155969,72.1976305 74.8475631,76.8555385 73.7031699,82.4981603 C72.2328537,89.7483041 67.8174084,91.6442303 61.7578813,87.7660864 C59.0988657,86.0641908 57.3004769,84.4151271 53.5291975,80.5313481 L53.5264949,80.5285649 C51.5558401,78.4991242 50.6716447,77.6195443 49.5304819,76.5967604 C43.2135152,70.9355756 36.7301256,71.1585542 30.8123295,77.2285467 C26.9829084,81.1569432 26.9696251,84.5683095 30.7694113,88.548889 C34.6087441,92.5713492 39.0493157,94.9143953 47.4022491,97.9672024 C52.6053461,99.8691926 56.9668545,102.710788 60.5090004,106.623673 C67.1255076,113.929919 65.2852443,119.745009 55.7619089,122.069182 C54.8298119,122.29676 54.0846369,122.466009 52.4170242,122.835336 L52.3727129,122.84515 C47.1676997,123.997928 44.8867178,124.642236 42.2563642,125.893064 C39.010474,127.436642 37.9126318,128.888229 38.4007841,131.330325 C38.7994414,133.322453 41.0568921,134.437091 44.7603577,133.930069 Z M46.5989554,137.901132 C45.9794332,137.992335 45.8251246,138.014855 45.5350826,138.055706 C45.397705,138.074973 45.397705,138.074973 45.2597079,138.093953 C39.7588694,138.847044 35.4617337,136.725292 34.5576282,132.207391 C33.5935777,127.384504 35.9167696,124.312736 40.6580815,122.058012 C43.6304011,120.644568 46.0963012,119.948026 51.5748819,118.73466 L51.6192055,118.724843 C53.260818,118.361274 53.9886659,118.195961 54.8864267,117.976766 C61.5032756,116.361922 62.1136159,114.433294 57.6841766,109.542107 C54.5923214,106.126643 50.7660042,103.633733 46.1299568,101.939028 C37.257016,98.6961696 32.3924915,96.1294268 28.017699,91.5459668 C22.636818,85.9090642 22.6607203,79.7706108 28.0903326,74.2006644 C35.4575319,66.6439923 44.2035422,66.343197 52.0563953,73.3808236 C53.2899317,74.4863987 54.2183956,75.410016 56.2540648,77.5064106 L56.2567674,77.5091937 C59.815572,81.1741597 61.4585014,82.6806722 63.7777167,84.1650795 C67.5741397,86.5948194 68.9731597,85.9941011 69.8623783,81.6093553 C70.677145,77.5920113 69.25459,74.1622771 65.5021375,69.8782928 C62.8759414,66.8799402 60.5291082,64.6859403 55.0678597,59.9123031 L55.048269,59.895179 C51.8025855,57.0581507 50.360209,55.7680198 48.609069,54.0907216 C44.8597662,50.5002531 42.197642,47.359795 40.141406,43.8289234 C37.3424621,39.0216042 36.4605354,33.9882758 37.6135638,28.6566759 C39.5196629,19.850311 46.3627937,15.4418467 54.9322592,17.4999392 C66.2115892,20.2086062 74.6629325,31.0342242 76.0612659,44.393847 C76.5330345,48.8987278 77.1209452,53.5267387 77.8257038,58.3360983 C78.0454436,59.8313546 78.4757155,61.3964427 79.0830549,62.9513798 C79.6343624,64.3645868 80.2764547,64.8953776 81.3290144,64.7722059 C82.5390157,64.6314461 83.073752,63.9146381 83.2264665,62.3204572 C83.3522102,60.9989999 83.2872332,59.5927905 83.051482,57.5124128 C82.985069,56.9322835 82.861779,56.4102852 82.5389061,55.2539594 L82.5272722,55.2122983 C82.3504103,54.5789809 82.2725088,54.2906479 82.1817465,53.9173366 C79.1357832,41.3802153 84.7858563,35.8393809 97.0091199,39.1987369 C103.790246,41.0629065 109.121979,44.8232039 112.786718,50.5682049 C113.088475,51.0414819 113.323379,51.4230005 113.834554,52.2631562 L113.840925,52.2736272 C114.574562,53.4794179 114.904373,54.0076822 115.328735,54.6379008 C117.061676,57.211878 118.491485,58.1394505 120.630093,57.7873911 C122.592375,57.4651702 123.626231,56.250122 124.573561,53.4755082 C125.635442,50.3656671 126.152697,47.3301715 126.700101,42.0028513 C126.735538,41.6579759 126.761975,41.3969053 126.827022,40.7515641 C126.861801,40.4065471 126.861801,40.4065471 126.896795,40.060912 C128.173363,27.4702637 136.409306,22.6683827 147.671248,27.8949398 C154.328473,30.9853108 159.841644,35.9421692 164.823911,42.8415873 C168.914106,48.5062757 169.677433,54.9574905 167.424744,62.0518481 C165.838738,67.0454297 164.756995,70.8765676 163.929804,74.6306457 C162.83453,79.5993687 163.662673,80.4159674 168.623042,79.1174967 C176.535575,77.0465797 180.301133,76.654202 185.166612,78.3150784 C191.633163,80.5240234 195.523808,83.9070725 196.705451,89.7446205 C197.885189,95.5738703 195.491596,99.8403327 190.054926,104.274361 C187.508054,106.351706 185.2634,107.383 180.177044,109.202109 C180.079429,109.23702 180.079429,109.23702 179.98197,109.271882 C179.104463,109.585817 178.608904,109.76564 178.073478,109.966767 C177.762713,110.083318 177.616687,110.138207 177.457424,110.198651 C174.267968,111.409135 173.160829,112.299907 172.931807,114.139087 C172.741411,115.670116 173.367622,116.560905 175.826855,118.566512 C175.92639,118.647662 175.92639,118.647662 176.026929,118.729656 C176.312173,118.962383 176.499989,119.117155 176.691834,119.278697 C177.110052,119.630513 177.479577,119.929689 178.234526,120.532531 L178.339865,120.616644 C180.666328,122.474376 181.716734,123.402945 182.848259,124.751962 C186.923925,129.612879 185.937702,135.70277 180.305641,138.025007 C165.729547,144.035411 154.472323,144.912238 143.315967,139.00446 C142.241841,138.435751 141.576977,138.115026 141.102621,137.941314 C140.990402,138.397434 140.880707,139.075022 140.750158,140.109636 C140.517656,141.957115 140.382868,142.805607 140.103725,143.876351 C138.077113,151.638416 132.587545,153.805189 126.063921,149.482465 C125.305701,148.980078 124.734449,148.556597 123.483944,147.595149 C122.961656,147.193589 122.730325,147.016951 122.443056,146.802097 C118.184484,143.615723 115.085229,143.86162 111.398791,147.700609 C108.608249,150.605674 107.077442,153.50407 104.233499,160.389383 C103.694133,161.695504 103.277056,162.764357 102.363062,165.152989 L102.355861,165.171808 C100.171929,170.8793 99.1032527,173.402929 97.4125705,176.457777 C90.2128217,189.467043 71.3290364,194.119692 59.1302159,185.908836 C50.7704278,180.281942 49.2986379,172.159955 55.2307793,163.955656 C56.3360303,162.427105 57.2647769,161.235581 59.342364,158.635903 L59.370625,158.60054 C60.8466839,156.753554 61.5042363,155.920027 62.2946172,154.878509 C63.4979046,153.293404 64.0218565,152.169845 64.0555602,150.939588 C64.1086657,149.019444 64.048444,148.963632 62.4283756,149.554177 C61.3665644,149.941358 60.5159294,150.273612 58.6024897,151.037753 L58.5862012,151.044257 C56.4448629,151.899409 55.4724668,152.277288 54.2431805,152.716227 C50.5840418,154.021718 47.7915034,153.862127 45.6540556,151.124717 C43.3124536,148.123751 44.1047396,145.365291 46.7122559,142.014305 C47.223735,141.356872 47.7701949,140.691856 48.3794278,139.981527 C48.7926762,139.499704 49.6892007,138.496483 50.6246318,137.455741 C49.500662,137.509032 48.2365706,137.660051 46.5989554,137.901132 Z" id="Fill-1" fill="#000000" fill-rule="nonzero"></path>
        <path d="M145.88209,183.357641 C145.88062,183.468732 145.88062,183.468732 145.879122,183.578995 C145.863264,184.745795 145.864737,185.252505 145.896689,185.860347 C145.903691,185.995938 145.903691,185.995938 145.910531,186.130559 C145.935879,186.629885 145.945667,186.813314 145.96138,187.066526 C146.147082,190.059092 146.634183,191.120469 148.278788,191.583201 C150.369569,192.172324 151.862804,191.16796 154.216567,188.028962 C154.689072,187.398809 155.095018,186.545794 155.432869,185.509091 C157.486375,179.195761 157.687731,172.967949 155.979944,166.803188 C155.191458,163.959322 153.997756,162.054194 152.095929,160.878392 C150.140267,159.668691 149.017302,160.092238 148.724337,161.832754 C148.52269,163.031424 148.324468,164.145461 147.982961,166.021894 C147.940373,166.255834 147.940373,166.255834 147.897802,166.489569 C146.445005,174.466075 145.950107,178.019218 145.889345,182.458376 C145.889256,182.723152 145.886929,182.986853 145.88209,183.357641 Z M142.020461,182.411534 C142.084892,177.624311 142.602931,173.902091 144.102953,165.666296 C144.145508,165.432649 144.145508,165.432649 144.188004,165.199213 C144.526095,163.341552 144.721474,162.243491 144.918884,161.07001 C145.733104,156.232689 149.894716,154.663061 154.003333,157.204499 C156.874503,158.979596 158.629904,161.781186 159.68334,165.580661 C161.634842,172.625181 161.403682,179.774812 159.078646,186.922936 C158.602749,188.383238 157.998708,189.652509 157.210821,190.703272 C153.993333,194.994138 151.310546,196.798608 147.312245,195.671999 C143.614811,194.631675 142.386831,191.95595 142.101127,187.351854 C142.083954,187.07512 142.073625,186.881542 142.04736,186.364156 C142.040588,186.230883 142.040588,186.230883 142.033878,186.100925 C141.994883,185.359102 141.993213,184.784773 142.010451,183.516368 C142.011944,183.406521 142.011944,183.406521 142.013387,183.297499 C142.018083,182.937699 142.020252,182.688448 142.020252,182.442543 L143.9548,182.442543 L142.020461,182.411534 Z" id="Fill-3" fill="#000000" fill-rule="nonzero"></path>
        <path d="M168.894732,27.9670524 C168.953244,29.2857683 168.99843,29.9099931 169.098291,30.5768356 C169.196525,31.2341578 169.274338,31.5575392 169.369068,31.740144 C169.391139,31.7826889 169.384247,31.7841043 169.428827,31.7895775 C169.489676,31.6989222 169.577786,31.5431776 169.700208,31.2979554 C169.731585,31.235105 169.858058,30.9779075 169.889651,30.9144819 C169.926282,30.8411668 169.926282,30.8411668 169.964789,30.7654143 C171.041463,28.6582243 172.183271,27.3168094 174.896343,24.5988859 L174.910235,24.5849696 C175.496863,23.9972927 175.760087,23.7312861 176.076334,23.4033291 C176.695168,22.7613683 177.199425,22.2608318 178.324774,21.1601647 L178.335502,21.1496717 C181.526661,18.0285019 182.826491,16.5800408 184.047785,14.5351879 C185.732986,11.7139066 185.533854,9.56151341 183.695179,8.13697932 C181.724737,6.60981351 178.955422,6.91870861 176.801345,9.1075589 C171.830884,14.1580903 169.098027,19.9164866 168.806857,26.1755831 C168.835687,26.649674 168.847601,26.904851 168.894732,27.9670524 Z M165,26.0996214 C165.311507,18.6236994 168.521002,11.8215233 174.219286,6.031444 C177.652435,2.54287342 182.402262,2.01306798 185.886585,4.7135478 C189.534792,7.54003773 189.970041,12.2445984 187.228235,16.8347987 C185.761465,19.2906605 184.30511,20.9135443 180.863996,24.2791868 L180.853268,24.2896798 C179.755692,25.363184 179.269884,25.845407 178.686884,26.450195 C178.349247,26.8003344 178.075164,27.0773141 177.472437,27.6811182 L177.458546,27.695034 C175.045968,30.1119256 174.091883,31.2328005 173.282086,32.8176781 C173.25551,32.8699522 173.25551,32.8699522 173.227058,32.92689 C173.202372,32.9764489 173.074749,33.2359841 173.035877,33.3138473 C172.07783,35.2329008 170.967644,36.2538395 168.971353,35.9457418 C166.575731,35.5767179 165.751096,33.9871228 165.343076,31.2568979 C165.212465,30.3847242 165.158888,29.6445792 165.093515,28.1712268 C165.043892,27.0528583 165.034652,26.8594145 165.002391,26.3375917 L166.900875,26.1955042 L165,26.0996214 Z" id="Fill-5" fill="#000000" fill-rule="nonzero"></path>
        <path d="M34.7043977,163.031391 C33.6133189,163.146684 29.5043235,163.555831 28.8773608,163.620108 C26.4120814,163.872849 24.4355419,164.096541 22.5312079,164.34691 C22.3712174,164.367944 22.2124033,164.389092 22.054303,164.410419 C16.8573682,165.11035 13.6001387,165.898947 10.5733997,167.414355 C8.54305571,168.431399 7.80449233,169.392792 8.04451751,170.792813 C8.34002157,172.516544 9.51932679,173.494084 11.6891944,173.854617 C14.2593051,174.281519 16.9301737,173.76776 20.2226543,172.389257 C25.9741881,169.982761 31.680799,167.44212 37.3281949,164.774056 C37.9186521,164.495282 38.4135886,164.354615 39.4868531,164.104976 C39.5629618,164.087281 39.5629618,164.087281 39.6377441,164.069865 C40.341986,163.90566 40.7406961,163.790374 40.9768323,163.682989 C40.8609825,163.339117 40.4255095,163.212035 38.8047438,163.136515 C38.6899648,163.131167 38.5962352,163.127168 38.3811353,163.118258 C37.5764713,163.084881 37.207888,163.062671 36.7545991,163.008128 C36.6337328,162.993706 36.5520092,162.993363 35.8206839,163.00562 C35.4802831,163.011325 35.1895931,163.014472 34.8587884,163.015023 C34.8160077,163.019576 34.7854557,163.02281 34.7043977,163.031391 Z M34.7521061,161.01699 L34.7521061,159.01887 C35.1036194,159.01887 35.3980008,159.015903 35.7539239,159.009938 C36.7417021,158.993384 36.8398266,158.993795 37.2285944,159.040184 C37.5444156,159.078185 37.8479055,159.096473 38.5462513,159.12544 C38.7642047,159.134464 38.8661617,159.138813 38.9901797,159.144592 C42.5336263,159.3097 44.5193767,160.174576 44.9550914,163.24265 C45.1798515,164.828553 44.5505461,166.140595 43.3006728,166.953644 C42.5660849,167.431498 41.8918728,167.647389 40.5424842,167.962021 C40.4652677,167.980003 40.4652677,167.980003 40.3895001,167.997619 C39.6057819,168.17991 39.2696894,168.275432 39.0300548,168.388571 C33.3289933,171.081989 27.5676365,173.647003 21.7611986,176.076473 C17.8388198,177.718703 14.4682511,178.367053 11.0362592,177.796991 C7.31277799,177.178318 4.72262973,175.031314 4.11194564,171.469077 C3.51145951,167.966558 5.36330618,165.555997 8.78887622,163.840052 C12.3034979,162.080374 15.9238275,161.203868 21.5221074,160.449883 C21.6842511,160.428011 21.8474879,160.406275 22.0118729,160.384662 C23.9597786,160.128565 25.9712205,159.900923 28.4710426,159.64464 C29.1088682,159.57925 33.209064,159.170979 34.285737,159.057208 C34.413605,159.043673 34.413605,159.043673 34.5404763,159.030143 L34.7521061,161.01699 Z" id="Fill-7" fill="#000000" fill-rule="nonzero"></path>
        <path d="M108.129422,29.4867882 C107.937052,27.9748365 107.814589,26.6448296 107.592979,23.9103469 C107.483465,22.5590342 107.43651,21.9963319 107.370361,21.2689896 C106.954818,16.6999172 106.400752,13.6250856 105.310911,10.671853 C104.382892,8.15716937 103.761407,7.37404752 102.300693,7.21451816 C100.571294,7.02608782 99.3886674,7.83302641 97.8920053,9.98153125 C96.8636958,11.4576558 96.6175879,13.0203254 97.135235,14.7195909 C98.9080783,20.5414607 101.771853,25.7177996 105.744033,30.2174235 C105.74539,30.2189592 106.087765,30.6087684 106.183095,30.7153354 C107.047994,31.6821788 107.412015,31.8824152 107.845736,31.7352379 C107.99514,31.6845354 107.963344,31.7158972 107.968509,31.7018883 C108.024519,31.5499702 108.053173,31.2759045 108.075518,30.5396475 C108.079068,30.4225901 108.079068,30.4225901 108.083094,30.2997185 C108.093808,29.9846745 108.107305,29.7297719 108.129422,29.4867882 Z M112,29.7451498 C111.977538,29.9230494 111.964232,30.1309082 111.953265,30.4533568 C111.949695,30.5623014 111.949695,30.5623014 111.946221,30.6767729 C111.862057,33.4499175 111.310829,34.9450375 109.006261,35.7271258 C106.764634,36.4877923 105.182375,35.6174423 103.398356,33.6231431 C103.288419,33.5002473 102.93349,33.0961448 102.942268,33.1060768 C98.5712712,28.15468 95.40867,22.4382053 93.4565023,16.027449 C92.5402801,13.0197929 93.0111565,10.0299499 94.7976859,7.46541078 C97.0245362,4.26869827 99.3428523,2.68684724 102.689738,3.05151436 C105.999766,3.41301306 107.498158,5.3011088 108.9083,9.12221968 C110.160869,12.51641 110.776489,15.9328381 111.224583,20.8598264 C111.292533,21.6069707 111.340274,22.1791003 111.451002,23.5453816 C111.679662,26.3668596 111.798525,27.6381888 111.998742,29.1698043 L110.081378,29.4623726 L112,29.7451498 Z" id="Fill-10" fill="#000000" fill-rule="nonzero"></path>
    </g>
</svg>