<?xml version="1.0" encoding="UTF-8"?>
<svg width="200px" height="200px" viewBox="0 0 200 200" version="1.1" xmlns="http://www.w3.org/2000/svg" xmlns:xlink="http://www.w3.org/1999/xlink">
    <!-- Generator: Sketch 54.1 (76490) - https://sketchapp.com -->
    <title>mela</title>
    <desc>Created with Sketch.</desc>
    <g id="mela" stroke="none" stroke-width="1" fill="none" fill-rule="evenodd">
        <path d="M92.4766667,14.0032258 C93.6809677,14.1268817 95.1605376,13.7247312 96.5702151,13.1075269 C99.0648387,12.016129 99.4207527,9.70322581 97.454086,7.82043011 C95.7884946,6.22473118 93.7401075,6.30430108 91.6960215,6.49892473 C88.8798925,6.7688172 86.31,8.7 86.3325806,10.4215054 C86.3573118,12.2709677 89.1164516,13.9806452 92.4766667,14.0032258 M99.1433333,46.3301075 C99.1433333,43.4268817 99.2013978,40.5225806 99.1229032,37.6225806 C99.0669892,35.5817204 99.9680645,34.4645161 101.902473,33.9311828 C103.957312,33.3645161 106.021828,32.7688172 107.987419,31.9580645 C110.520753,30.9150538 112.773441,31.0795699 115.321828,32.211828 C123.261613,35.7354839 131.603548,37.1451613 140.302473,36.2096774 C153.897097,34.7473118 165.536882,28.7247312 176.378817,20.8311828 C178.437957,19.3322581 178.372366,18.9322581 175.916452,17.9258065 C169.98957,15.5 163.984194,13.2924731 157.849785,11.4387097 C148.811075,8.70645161 139.674516,6.75268817 130.137957,7.43870968 C121.549785,8.05483871 115.19172,12.4602151 113.703548,20.6247312 C112.677742,26.2494624 109.905699,28.9322581 104.884194,30.2268817 C104.556237,30.311828 104.251935,30.483871 103.934731,30.6096774 C100.56914,31.9451613 99.1906452,31.0010753 99.1454839,27.2924731 C99.1153763,24.8172043 99.1024731,22.3397849 99.1508602,19.8655914 C99.1766667,18.5086022 98.8530108,17.9580645 97.3702151,18.5086022 C96.2669892,18.9193548 95.0433333,18.9913978 93.8884946,19.2763441 C92.1250538,19.7107527 89.5143011,18.1021505 88.7992473,19.5967742 C88.1282796,21.0032258 89.3175269,23.3322581 89.7734409,25.2354839 C92.1358065,35.1129032 94.51,44.9870968 96.9325806,54.8494624 C97.1508602,55.7376344 97.0013978,57.3494624 98.3465591,57.1569892 C99.6626882,56.9698925 99.082043,55.455914 99.1078495,54.5258065 C99.1852688,51.7946237 99.1358065,49.0612903 99.1433333,46.3301075 M76.6056989,47.2967742 C78.0153763,47.2677419 78.8035484,48.1956989 79.7186022,48.9053763 C83.2153763,51.6172043 86.2175269,54.9924731 90.3508602,56.8451613 C90.7992473,57.0462366 91.4196774,57.3526882 91.7648387,57.1924731 C92.465914,56.8666667 92.054086,56.1247312 91.9293548,55.6 C90.6454839,50.2032258 89.2895699,44.8236559 88.0390323,39.4193548 C87.6970968,37.9419355 86.8637634,37.2387097 85.4530108,37.0107527 C82.0852688,36.4677419 78.7390323,35.716129 75.3508602,35.3913978 C64.7315054,34.3741935 54.3282796,35.088172 44.7336559,40.3473118 C33.1648387,46.6892473 25.5669892,56.6849462 20.1422581,68.3473118 C11.4229032,87.0903226 10.4444086,106.74086 14.7530108,126.68172 C19.382043,148.106452 31.0960215,165.4 47.5616129,179.448387 C62.1325806,191.877419 78.8841935,196.76129 97.8874194,191.980645 C99.082043,191.680645 100.23043,191.763441 101.425054,192.008602 C105.521828,192.851613 109.634731,193.606452 113.82828,193.764516 C131.108925,194.419355 145.644409,187.794624 157.654086,175.973118 C185.413226,148.646237 192.859462,115.391398 183.900323,78.2924731 C180.151935,62.7741935 170.846559,50.2645161 157.78957,40.7645161 C155.614301,39.1817204 153.612151,38.7892473 150.92828,39.6 C143.327204,41.8978495 135.527204,42.5215054 127.63043,41.3010753 C122.712151,40.5419355 117.993871,39.1053763 113.384194,37.2365591 C108.714301,35.344086 104.139032,38.327957 104.117527,43.2086022 C104.100323,47.3913978 104.099247,51.5752688 104.119677,55.7591398 C104.132581,58.6419355 104.422903,58.8139785 107.290645,58.0462366 C112.302473,56.7043011 116.872366,54.4784946 121.019677,51.3623656 C121.688495,50.8591398 122.301398,50.1053763 123.300323,50.2139785 C117.872366,60.6107527 109.399247,65.1935484 97.8680645,64.3354839 C86.8487097,63.5150538 81.4852688,55.7397849 76.6056989,47.2967742 M116.51,199.110753 C111.440108,199.247312 106.473441,198.453763 101.541183,197.402151 C100.443333,197.167742 99.3766667,196.973118 98.2562366,197.247312 C77.6637634,202.297849 59.7196774,196.692473 43.9992473,183.23871 C28.0013978,169.547312 16.2841935,152.789247 10.7723656,132.319355 C4.85086022,110.329032 5.66806452,88.4494624 14.8831183,67.416129 C20.821828,53.8623656 29.6368817,42.4021505 43.0110753,35.2301075 C54.5164516,29.0602151 66.91,28.8258065 79.4594624,30.5741935 C86.1056989,31.5 86.0766667,31.644086 84.4831183,25.1516129 C83.4669892,21.0075269 82.4863441,16.8537634 81.4798925,12.7064516 C80.6530108,9.29677419 81.5884946,6.50322581 84.293871,4.24946237 C90.0895699,-0.580645161 98.7508602,0.207526882 102.676667,5.89139785 C104.349785,8.31290323 104.236882,11.0784946 104.386344,13.7731183 C104.542258,16.5806452 104.39172,19.4053763 104.451935,22.2225806 C104.468065,22.9774194 104.039032,24.1634409 105.300323,24.2806452 C106.249785,24.3688172 107.121828,23.8 107.570215,22.8784946 C107.788495,22.4301075 107.844409,21.8989247 107.956237,21.4021505 C110.722903,9.06236559 118.227204,2.84516129 130.978817,2.10430108 C140.606774,1.54516129 149.823978,3.50107527 158.931505,6.27526882 C167.27129,8.81505376 175.400323,11.9247312 183.358387,15.4795699 C186.996022,17.1043011 187.25086,18.9494624 184.187419,21.4129032 C177.579892,26.7268817 170.572366,31.4290323 162.905699,35.0827957 C161.117527,35.9344086 160.939032,36.4516129 162.605699,37.7763441 C178.625054,50.5010753 188.380968,67.0290323 191.431505,87.216129 C194.874516,110.002151 191.916452,132.034409 181.556237,152.747312 C173.473441,168.905376 161.775591,181.926882 146.070215,191.134409 C137.199247,196.335484 126.83043,199.115054 116.51,199.110753" id="Fill-1" fill="#000000"></path>
        <path d="M169.555161,21.6891398 C168.183118,22.6364516 166.616452,22.5837634 165.155161,22.8160215 C159.32828,23.7450538 153.456237,23.9590323 147.56914,23.741828 C136.764839,23.3429032 126.101398,24.0396774 115.776667,27.5869892 C115.302473,27.7493548 114.784194,27.7955914 114.280968,27.8515054 C114.141183,27.8665591 113.984194,27.718172 113.642258,27.5504301 C114.696022,26.0106452 116.186344,25.0955914 117.711075,24.2213978 C124.640108,20.2493548 132.290645,19.0160215 140.080968,18.6504301 C148.780968,18.2429032 157.455161,18.8762366 166.065914,20.2213978 C168.073441,20.5353763 168.08957,20.5966667 169.555161,21.6891398" id="Fill-4" fill="#000000"></path>
    </g>
</svg>