<?xml version="1.0" encoding="UTF-8"?>
<svg width="200px" height="200px" viewBox="0 0 200 200" version="1.1" xmlns="http://www.w3.org/2000/svg" xmlns:xlink="http://www.w3.org/1999/xlink">
    <!-- Generator: Sketch 54.1 (76490) - https://sketchapp.com -->
    <title>num-10--dieci</title>
    <desc>Created with Sketch.</desc>
    <g id="num-10--dieci" stroke="none" stroke-width="1" fill="none" fill-rule="evenodd">
        <path d="M39.852,148.692 C39.852,159.872997 46.1615999,165.664 57.01,165.664 C67.8584001,165.664 74.168,159.872997 74.168,148.692 L74.168,46.02 C74.168,38.5547096 69.8791656,35 61.102,35 C55.3715797,35 52.4789007,37.3761291 45.6113585,46.8189811 C39.6068646,55.1328957 33.0896999,59.6380498 22.3867607,61.5680609 C8.37324606,64.020426 6,65.9564951 6,74.292 C6,81.8726461 9.70088209,85.498 17.764,85.498 L39.852,85.498 L39.852,148.692 Z M35.852,89.498 L17.764,89.498 C7.50999291,89.498 2,84.1004559 2,74.292 C2,63.6310312 5.98894695,60.3768902 21.6870689,57.629746 C31.2944538,55.8972667 36.9384981,51.9956791 42.3725278,44.4716566 C49.9490993,34.0538709 53.6668551,31 61.102,31 C71.9397475,31 78.168,36.1621552 78.168,46.02 L78.168,148.692 C78.168,162.162372 69.9945849,169.664 57.01,169.664 C44.0254151,169.664 35.852,162.162372 35.852,148.692 L35.852,89.498 Z M159.888,100.332 C159.888,130.124848 154.626424,140.648 141.148,140.648 C127.669576,140.648 122.408,130.124848 122.408,100.332 C122.408,72.5453415 127.724879,60.016 141.148,60.016 C154.571121,60.016 159.888,72.5453415 159.888,100.332 Z M155.888,100.332 C155.888,74.5344846 151.424436,64.016 141.148,64.016 C130.871564,64.016 126.408,74.5344846 126.408,100.332 C126.408,128.199152 130.632424,136.648 141.148,136.648 C151.663576,136.648 155.888,128.199152 155.888,100.332 Z M88.092,99.774 C88.092,144.534696 107.176533,165.664 141.148,165.664 C175.119467,165.664 194.204,144.534696 194.204,99.774 C194.204,58.6986483 175.226008,35 141.148,35 C107.069992,35 88.092,58.6986483 88.092,99.774 Z M84.092,99.774 C84.092,56.6605176 104.641066,31 141.148,31 C177.654934,31 198.204,56.6605176 198.204,99.774 C198.204,146.658162 177.424533,169.664 141.148,169.664 C104.871467,169.664 84.092,146.658162 84.092,99.774 Z" id="10" fill="#000000" fill-rule="nonzero"></path>
    </g>
</svg>