<?xml version="1.0" encoding="UTF-8"?>
<svg width="200px" height="200px" viewBox="0 0 200 200" version="1.1" xmlns="http://www.w3.org/2000/svg" xmlns:xlink="http://www.w3.org/1999/xlink">
    <!-- Generator: Sketch 54.1 (76490) - https://sketchapp.com -->
    <title>num-16--sedici</title>
    <desc>Created with Sketch.</desc>
    <g id="num-16--sedici" stroke="none" stroke-width="1" fill="none" fill-rule="evenodd">
        <path d="M39.852,148.692 C39.852,159.872997 46.1615999,165.664 57.01,165.664 C67.8584001,165.664 74.168,159.872997 74.168,148.692 L74.168,46.02 C74.168,38.5547096 69.8791656,35 61.102,35 C55.3715797,35 52.4789007,37.3761291 45.6113585,46.8189811 C39.6068646,55.1328957 33.0896999,59.6380498 22.3867607,61.5680609 C8.37324606,64.020426 6,65.9564951 6,74.292 C6,81.8726461 9.70088209,85.498 17.764,85.498 L39.852,85.498 L39.852,148.692 Z M35.852,89.498 L17.764,89.498 C7.50999291,89.498 2,84.1004559 2,74.292 C2,63.6310312 5.98894695,60.3768902 21.6870689,57.629746 C31.2944538,55.8972667 36.9384981,51.9956791 42.3725278,44.4716566 C49.9490993,34.0538709 53.6668551,31 61.102,31 C71.9397475,31 78.168,36.1621552 78.168,46.02 L78.168,148.692 C78.168,162.162372 69.9945849,169.664 57.01,169.664 C44.0254151,169.664 35.852,162.162372 35.852,148.692 L35.852,89.498 Z M161.19,123.024 C161.19,133.437893 153.67165,141.764 142.636,141.764 C131.448933,141.764 123.896,133.468155 123.896,123.024 C123.896,112.700174 131.501728,104.284 142.636,104.284 C153.998551,104.284 161.19,111.711234 161.19,123.024 Z M157.19,123.024 C157.19,113.892012 151.76002,108.284 142.636,108.284 C133.806272,108.284 127.896,114.824055 127.896,123.024 C127.896,131.338402 133.746171,137.764 142.636,137.764 C151.366321,137.764 157.19,131.314636 157.19,123.024 Z M87.906,101.82 C87.906,142.637425 108.533974,165.664 143.938,165.664 C176.346022,165.664 194.39,149.443615 194.39,123.21 C194.39,98.5735933 177.638103,83.732 151.378,83.732 C141.089007,83.732 132.717445,86.565452 125.546396,92.9026582 L122.222,95.8404961 L122.222,91.404 C122.222,81.642292 123.426978,74.1141062 126.352063,68.4664419 C129.95092,61.517879 136.067988,57.784 144.868,57.784 C149.661499,57.784 153.05578,59.5227165 158.478477,63.7885942 C158.655754,63.9280533 158.837881,64.0718751 159.072908,64.2578734 C159.368737,64.4920961 159.540412,64.6280314 159.663475,64.7253694 C165.350792,69.2238125 168.394534,70.804 172.954,70.804 C181.104486,70.804 186.578,65.4224775 186.578,57.18 C186.578,49.5072608 181.059797,43.7179326 171.230619,39.7610584 C163.571158,36.677634 153.65729,35 146.17,35 C106.918579,35 87.906,59.1560793 87.906,101.82 Z M151.378,79.732 C179.74665,79.732 198.39,96.2493541 198.39,123.21 C198.39,151.753385 178.465765,169.664 143.938,169.664 C106.220776,169.664 83.906,144.754482 83.906,101.82 C83.906,57.1286164 104.471109,31 146.17,31 C154.141416,31 164.556947,32.7625261 172.724381,36.0504416 C183.904016,40.5509616 190.578,47.5528577 190.578,57.18 C190.578,67.6469343 183.298591,74.804 172.954,74.804 C167.229216,74.804 163.529594,72.8833062 157.182025,67.8626306 C157.057961,67.7645011 156.885217,67.6277189 156.590624,67.3944742 C156.35838,67.2106786 156.179051,67.0690661 156.005331,66.932406 C151.238161,63.1822117 148.508605,61.784 144.868,61.784 C132.351998,61.784 127.027114,70.2769266 126.307587,87.1884941 C133.480643,82.0663097 141.725546,79.732 151.378,79.732 Z" id="16" fill="#000000" fill-rule="nonzero"></path>
    </g>
</svg>