<?xml version="1.0" encoding="UTF-8"?>
<svg width="200px" height="200px" viewBox="0 0 200 200" version="1.1" xmlns="http://www.w3.org/2000/svg" xmlns:xlink="http://www.w3.org/1999/xlink">
    <!-- Generator: Sketch 54.1 (76490) - https://sketchapp.com -->
    <title>num-15--quindici</title>
    <desc>Created with Sketch.</desc>
    <g id="num-15--quindici" stroke="none" stroke-width="1" fill="none" fill-rule="evenodd">
        <path d="M41.852,148.692 C41.852,159.872997 48.1615999,165.664 59.01,165.664 C69.8584001,165.664 76.168,159.872997 76.168,148.692 L76.168,46.02 C76.168,38.5547096 71.8791656,35 63.102,35 C57.3715797,35 54.4789007,37.3761291 47.6113585,46.8189811 C41.6068646,55.1328957 35.0896999,59.6380498 24.3867607,61.5680609 C10.3732461,64.020426 8,65.9564951 8,74.292 C8,81.8726461 11.7008821,85.498 19.764,85.498 L41.852,85.498 L41.852,148.692 Z M37.852,89.498 L19.764,89.498 C9.50999291,89.498 4,84.1004559 4,74.292 C4,63.6310312 7.98894695,60.3768902 23.6870689,57.629746 C33.2944538,55.8972667 38.9384981,51.9956791 44.3725278,44.4716566 C51.9490993,34.0538709 55.6668551,31 63.102,31 C73.9397475,31 80.168,36.1621552 80.168,46.02 L80.168,148.692 C80.168,162.162372 71.9945849,169.664 59.01,169.664 C46.0254151,169.664 37.852,162.162372 37.852,148.692 L37.852,89.498 Z M126.219854,63.55 L170.304,63.55 C179.92644,63.55 184.858,58.9085318 184.858,50.484 C184.858,42.0594682 179.92644,37.418 170.304,37.418 L120.084,37.418 C107.624893,37.418 103.58151,40.4723544 101.206646,51.8375067 C98.0144854,66.5705568 94.556,87.3214694 94.556,93.822 C94.556,103.323383 101.148184,107.632 110.04,107.632 C115.25955,107.632 118.64758,106.674513 124.14049,104.183542 C124.286412,104.117369 124.388113,104.071121 124.63592,103.9583 C124.883896,103.84534 124.883896,103.84534 125.132355,103.732232 C125.535202,103.548949 125.835811,103.413028 126.131814,103.280728 C130.670805,101.252004 133.800235,100.378 137.94,100.378 C149.371211,100.378 158.54,109.737805 158.54,121.164 C158.54,131.947192 150.503837,140.648 137.568,140.648 C130.990799,140.648 127.558361,138.824517 121.95891,133.814483 L121.819426,133.689674 C116.978146,129.358002 114.439697,128 109.296,128 C100.123621,128 93.44,133.433447 93.44,141.066 C93.44,149.384351 98.6864533,155.725156 108.13402,160.081806 C116.011723,163.714529 126.421161,165.664 135.708,165.664 C171.112905,165.664 192.856,150.207496 192.856,120.42 C192.856,94.7312371 175.679933,80.942 150.774,80.942 C139.647453,80.942 134.818515,82.1066262 125.308253,87.2139889 L121.67098,89.1673391 L126.219854,63.55 Z M129.572146,67.55 L127.036655,81.8288219 C135.000894,77.9515364 140.48335,76.942 150.774,76.942 C177.719646,76.942 196.856,92.3049883 196.856,120.42 C196.856,152.767017 173.086544,169.664 135.708,169.664 C125.878075,169.664 114.904931,167.608959 106.45898,163.714194 C95.7259442,158.764763 89.44,151.16764 89.44,141.066 C89.44,131.020524 98.0758656,124 109.296,124 C115.649588,124 118.97982,125.781585 124.486606,130.708709 L124.62609,130.833517 C129.560678,135.248675 132.194701,136.648 137.568,136.648 C148.220579,136.648 154.54,129.805921 154.54,121.164 C154.54,111.928695 147.143401,104.378 137.94,104.378 C134.46675,104.378 131.83506,105.112992 127.764019,106.932564 C127.477613,107.060575 127.1843,107.193197 126.788843,107.373117 C126.542231,107.485385 126.542231,107.485385 126.293722,107.598588 C126.044197,107.712191 125.940721,107.759245 125.79251,107.826458 C119.826747,110.531862 115.93395,111.632 110.04,111.632 C105.698539,111.632 101.262211,110.570995 97.7625461,108.283632 C93.1697725,105.281819 90.556,100.443988 90.556,93.822 C90.556,86.9305306 94.0415146,66.0174432 97.2942826,51.0049247 C100.066079,37.7398986 105.78745,33.418 120.084,33.418 L170.304,33.418 C182.083185,33.418 188.858,39.7942965 188.858,50.484 C188.858,61.1737035 182.083185,67.55 170.304,67.55 L129.572146,67.55 Z" id="15" fill="#000000" fill-rule="nonzero"></path>
    </g>
</svg>