<?xml version="1.0" encoding="UTF-8"?>
<svg width="200px" height="200px" viewBox="0 0 200 200" version="1.1" xmlns="http://www.w3.org/2000/svg" xmlns:xlink="http://www.w3.org/1999/xlink">
    <!-- Generator: Sketch 54.1 (76490) - https://sketchapp.com -->
    <title>num-13--tredici</title>
    <desc>Created with Sketch.</desc>
    <g id="num-13--tredici" stroke="none" stroke-width="1" fill="none" fill-rule="evenodd">
        <path d="M41.852,148.692 C41.852,159.872997 48.1615999,165.664 59.01,165.664 C69.8584001,165.664 76.168,159.872997 76.168,148.692 L76.168,46.02 C76.168,38.5547096 71.8791656,35 63.102,35 C57.3715797,35 54.4789007,37.3761291 47.6113585,46.8189811 C41.6068646,55.1328957 35.0896999,59.6380498 24.3867607,61.5680609 C10.3732461,64.020426 8,65.9564951 8,74.292 C8,81.8726461 11.7008821,85.498 19.764,85.498 L41.852,85.498 L41.852,148.692 Z M37.852,89.498 L19.764,89.498 C9.50999291,89.498 4,84.1004559 4,74.292 C4,63.6310312 7.98894695,60.3768902 23.6870689,57.629746 C33.2944538,55.8972667 38.9384981,51.9956791 44.3725278,44.4716566 C51.9490993,34.0538709 55.6668551,31 63.102,31 C73.9397475,31 80.168,36.1621552 80.168,46.02 L80.168,148.692 C80.168,162.162372 71.9945849,169.664 59.01,169.664 C46.0254151,169.664 37.852,162.162372 37.852,148.692 L37.852,89.498 Z M157.982,122.652 C157.982,135.975753 151.253781,141.764 136.824,141.764 C131.587024,141.764 127.746114,140.391899 124.882804,137.706159 C122.749277,135.704944 121.615871,133.747635 119.611767,129.338606 L119.564677,129.235001 C117.774296,125.295872 116.851388,123.69061 115.266382,122.186609 C113.236634,120.260595 110.465255,119.258 106.32,119.258 C96.9566053,119.258 91.208,125.462844 91.208,135.114 C91.208,151.472371 110.924614,165.664 137.94,165.664 C159.165112,165.664 173.690842,160.131191 182.488222,150.353532 C189.24804,142.840477 192.298,133.129358 192.298,123.024 C192.298,110.365604 185.918058,100.725838 174.727828,97.2184524 L173.326,96.7790734 L173.326,93.5129329 L174.672959,93.0476196 C183.93476,89.8480885 189.136,81.4356481 189.136,69.642 C189.136,48.7378637 170.516917,35 142.404,35 C112.75358,35 93.998,46.8241698 93.998,62.574 C93.998,70.7502776 99.390927,77.128 108.366,77.128 C113.6421,77.128 116.288486,75.6243713 119.704858,70.4185973 C125.313156,61.7160659 129.761724,58.9 137.754,58.9 C149.713195,58.9 157.052,63.555212 157.052,73.548 C157.052,82.6185108 150.607001,88.01 142.218,88.01 C133.261086,88.01 128.966,91.1303615 128.966,98.844 C128.966,104.535668 133.166828,107.769933 143.851951,108.567333 C153.536563,109.275963 157.982,113.037487 157.982,122.652 Z M180.048836,95.0223549 C190.43043,100.003684 196.298,110.29069 196.298,123.024 C196.298,134.045978 192.949862,144.706498 185.461778,153.028968 C175.846195,163.716003 160.230437,169.664 137.94,169.664 C108.945248,169.664 87.208,154.017959 87.208,135.114 C87.208,123.319061 94.6763359,115.258 106.32,115.258 C111.447464,115.258 115.21043,116.61932 118.019691,119.285008 C120.106397,121.265068 121.202779,123.172062 123.206189,127.579891 L123.253233,127.683394 C125.042942,131.620755 125.995303,133.265413 127.619321,134.788716 C129.703344,136.743497 132.56003,137.764 136.824,137.764 C149.16709,137.764 153.982,133.621762 153.982,122.652 C153.982,115.369129 151.330093,113.125207 143.55716,112.556454 C131.004395,111.61968 124.966,106.970651 124.966,98.844 C124.966,88.5951257 131.277291,84.01 142.218,84.01 C148.540102,84.01 153.052,80.2356238 153.052,73.548 C153.052,66.2441761 147.780005,62.9 137.754,62.9 C131.230189,62.9 127.984945,64.9543287 123.058096,72.5993129 C118.910386,78.9196333 115.02366,81.128 108.366,81.128 C97.0192053,81.128 89.998,72.8246615 89.998,62.574 C89.998,44.1281345 110.821938,31 142.404,31 C172.508401,31 193.136,46.2198228 193.136,69.642 C193.136,81.289178 188.474562,90.3560963 180.048836,95.0223549 Z" id="13" fill="#000000" fill-rule="nonzero"></path>
    </g>
</svg>