<?xml version="1.0" encoding="UTF-8"?>
<svg width="200px" height="200px" viewBox="0 0 200 200" version="1.1" xmlns="http://www.w3.org/2000/svg" xmlns:xlink="http://www.w3.org/1999/xlink">
    <!-- Generator: Sketch 54.1 (76490) - https://sketchapp.com -->
    <title>num-04--quattro</title>
    <desc>Created with Sketch.</desc>
    <g id="num-04--quattro" stroke="none" stroke-width="1" fill="none" fill-rule="evenodd">
        <path d="M105.38,147.692 C105.38,159.370313 110.892331,165.78 121.422,165.78 C131.951669,165.78 137.464,159.370313 137.464,147.692 L137.464,136.764 L139.464,136.764 C150.677693,136.764 155.32,133.448067 155.32,124.256 C155.32,115.176956 150.569467,111.748 139.464,111.748 L137.464,111.748 L137.464,51.716 C137.464,40.5653562 130.362696,34 117.702,34 C109.20901,34 104.408059,37.277296 93.5734427,50.20276 L54.6988198,97.0755108 C46.863253,106.513807 44,112.466359 44,118.862 C44,130.279162 49.0531202,136.764 59.484,136.764 L105.38,136.764 L105.38,147.692 Z M141.464,147.692 C141.464,161.456756 134.306011,169.78 121.422,169.78 C108.537989,169.78 101.38,161.456756 101.38,147.692 L101.38,140.764 L59.484,140.764 C46.5948278,140.764 40,132.300638 40,118.862 C40,111.356588 43.2454857,104.609394 51.6205573,94.52124 L90.501259,47.6412024 C102.031515,33.8858098 107.723885,30 117.702,30 C132.504773,30 141.464,38.2830589 141.464,51.716 L141.464,107.788308 C153.239311,108.277179 159.32,113.241895 159.32,124.256 C159.32,135.392864 153.327237,140.251153 141.464,140.725245 L141.464,147.692 Z M105.38,111.748 L68.4629865,111.748 L102.018149,67.758 L105.38,67.758 L105.38,111.748 Z M101.38,75.1899384 L76.5450135,107.748 L101.38,107.748 L101.38,75.1899384 Z M103.008,69.758 L103.008,71.758 L103.38,71.758 L103.38,70.0417581 L103.008,69.758 Z" id="4" fill="#000000" fill-rule="nonzero"></path>
    </g>
</svg>