<?xml version="1.0" encoding="UTF-8"?>
<svg width="200px" height="200px" viewBox="0 0 200 200" version="1.1" xmlns="http://www.w3.org/2000/svg" xmlns:xlink="http://www.w3.org/1999/xlink">
    <!-- Generator: Sketch 54.1 (76490) - https://sketchapp.com -->
    <title>num-14--quattordici</title>
    <desc>Created with Sketch.</desc>
    <g id="num-14--quattordici" stroke="none" stroke-width="1" fill="none" fill-rule="evenodd">
        <path d="M38.852,148.808 C38.852,159.988997 45.1615999,165.78 56.01,165.78 C66.8584001,165.78 73.168,159.988997 73.168,148.808 L73.168,46.136 C73.168,38.6707096 68.8791656,35.116 60.102,35.116 C54.3715797,35.116 51.4789007,37.4921291 44.6113585,46.9349811 C38.6068646,55.2488957 32.0896999,59.7540498 21.3867607,61.6840609 C7.37324606,64.136426 5,66.0724951 5,74.408 C5,81.9886461 8.70088209,85.614 16.764,85.614 L38.852,85.614 L38.852,148.808 Z M34.852,89.614 L16.764,89.614 C6.50999291,89.614 1,84.2164559 1,74.408 C1,63.7470312 4.98894695,60.4928902 20.6870689,57.745746 C30.2944538,56.0132667 35.9384981,52.1116791 41.3725278,44.5876566 C48.9490993,34.1698709 52.6668551,31.116 60.102,31.116 C70.9397475,31.116 77.168,36.2781552 77.168,46.136 L77.168,148.808 C77.168,162.278372 68.9945849,169.78 56.01,169.78 C43.0254151,169.78 34.852,162.278372 34.852,148.808 L34.852,89.614 Z M145.868,147.692 C145.868,159.370313 151.380331,165.78 161.91,165.78 C172.439669,165.78 177.952,159.370313 177.952,147.692 L177.952,136.764 L179.952,136.764 C191.165693,136.764 195.808,133.448067 195.808,124.256 C195.808,115.176956 191.057467,111.748 179.952,111.748 L177.952,111.748 L177.952,51.716 C177.952,40.5653562 170.850696,34 158.19,34 C149.69701,34 144.896059,37.277296 134.061443,50.20276 L95.1868198,97.0755108 C87.351253,106.513807 84.488,112.466359 84.488,118.862 C84.488,130.279162 89.5411202,136.764 99.972,136.764 L145.868,136.764 L145.868,147.692 Z M181.952,147.692 C181.952,161.456756 174.794011,169.78 161.91,169.78 C149.025989,169.78 141.868,161.456756 141.868,147.692 L141.868,140.764 L99.972,140.764 C87.0828278,140.764 80.488,132.300638 80.488,118.862 C80.488,111.356588 83.7334857,104.609394 92.1085573,94.52124 L130.989259,47.6412024 C142.519515,33.8858098 148.211885,30 158.19,30 C172.992773,30 181.952,38.2830589 181.952,51.716 L181.952,107.788308 C193.727311,108.277179 199.808,113.241895 199.808,124.256 C199.808,135.392864 193.815237,140.251153 181.952,140.725245 L181.952,147.692 Z M145.868,111.748 L108.950987,111.748 L142.506149,67.758 L145.868,67.758 L145.868,111.748 Z M141.868,75.1899384 L117.033013,107.748 L141.868,107.748 L141.868,75.1899384 Z M143.496,69.758 L143.496,71.758 L143.868,71.758 L143.868,70.0417581 L143.496,69.758 Z" id="14" fill="#000000" fill-rule="nonzero"></path>
    </g>
</svg>