<?xml version="1.0" encoding="UTF-8"?>
<svg width="200px" height="200px" viewBox="0 0 200 200" version="1.1" xmlns="http://www.w3.org/2000/svg" xmlns:xlink="http://www.w3.org/1999/xlink">
    <!-- Generator: Sketch 54.1 (76490) - https://sketchapp.com -->
    <title>num-02--due</title>
    <desc>Created with Sketch.</desc>
    <g id="num-02--due" stroke="none" stroke-width="1" fill="none" fill-rule="evenodd">
        <path d="M91.43,136.998 L91.43,133.522035 L92.3641255,132.93369 L126.030878,111.729217 C142.378743,101.44292 149.462,90.7975625 149.462,76.222 C149.462,65.5846903 145.711025,55.9075175 138.250146,48.8186486 C129.573633,40.57476 116.189484,36 98.08,36 C82.90173,36 70.3899175,40.0897337 61.6363559,47.2647842 C53.7964938,53.6909007 49.488,62.2614356 49.488,70.828 C49.488,81.4159482 54.424514,86.87 65.716,86.87 C70.0468031,86.87 72.9137139,85.7180306 75.0037213,83.4847668 C76.6513873,81.7241641 77.5891616,79.8525558 79.3862179,75.2691545 L79.408259,75.2129388 C81.3928208,70.1513957 82.4958372,67.957987 84.63537,65.6849036 C87.5371957,62.6019449 91.5085778,61.016 96.964,61.016 C107.995235,61.016 115.146,67.7496369 115.146,78.082 C115.146,86.4684067 111.403465,92.2363137 101.825116,98.8825149 L84.156129,111.15781 C67.1308895,123.001455 58.0147939,130.342366 53.20251,136.054142 C49.0844668,140.941913 48,144.416957 48,150.808 C48,158.314566 53.6420954,164.246 61.81,164.246 L137.698,164.246 C147.300402,164.246 151.508,159.847147 151.508,150.622 C151.508,141.396853 147.300402,136.998 137.698,136.998 L91.43,136.998 Z M137.698,132.998 C149.550294,132.998 155.508,139.226511 155.508,150.622 C155.508,162.017489 149.550294,168.246 137.698,168.246 L61.81,168.246 C51.3869777,168.246 44,160.480203 44,150.808 C44,137.086066 49.8343949,130.161129 81.8728844,107.873485 L99.5438369,95.5968238 C108.135718,89.6351105 111.146,84.9957344 111.146,78.082 C111.146,70.0143131 105.838057,65.016 96.964,65.016 C92.5738775,65.016 89.6646355,66.1777864 87.5480675,68.4264714 C85.8810965,70.1974953 84.928484,72.0918178 83.132241,76.6730612 L83.110209,76.7292539 C81.1254042,81.7915086 80.0405788,83.9566012 77.9242686,86.2179707 C75.049434,89.2898565 71.1169245,90.87 65.716,90.87 C52.1215006,90.87 45.488,83.5410518 45.488,70.828 C45.488,61.0264378 50.3593911,51.3361772 59.1006441,44.1712158 C68.6013663,36.3837386 82.0126344,32 98.08,32 C117.153057,32 131.526957,36.9130612 141.005354,45.9188514 C149.301361,53.8012066 153.462,64.5352754 153.462,76.222 C153.462,92.3138595 145.58578,104.150954 128.161875,115.11431 L99.767594,132.998 L137.698,132.998 Z" id="2" fill="#000000" fill-rule="nonzero"></path>
    </g>
</svg>