<?xml version="1.0" encoding="UTF-8"?>
<svg width="200px" height="200px" viewBox="0 0 200 200" version="1.1" xmlns="http://www.w3.org/2000/svg" xmlns:xlink="http://www.w3.org/1999/xlink">
    <!-- Generator: Sketch 54.1 (76490) - https://sketchapp.com -->
    <title>num-09--nove</title>
    <desc>Created with Sketch.</desc>
    <g id="num-09--nove" stroke="none" stroke-width="1" fill="none" fill-rule="evenodd">
        <path d="M117.494,77.64 C117.494,87.9638259 109.888272,96.38 98.754,96.38 C87.3914489,96.38 80.2,88.9527659 80.2,77.64 C80.2,67.226107 87.7183504,58.9 98.754,58.9 C109.941067,58.9 117.494,67.1958448 117.494,77.64 Z M113.494,77.64 C113.494,69.3255978 107.643829,62.9 98.754,62.9 C90.0236795,62.9 84.2,69.349364 84.2,77.64 C84.2,86.7719882 89.6299797,92.38 98.754,92.38 C107.583728,92.38 113.494,85.8399446 113.494,77.64 Z M90.012,116.932 C100.300993,116.932 108.672555,114.098548 115.843604,107.761342 L119.168,104.823504 L119.168,109.26 C119.168,119.021708 117.963022,126.549894 115.037937,132.197558 C111.43908,139.146121 105.322012,142.88 96.522,142.88 C91.728501,142.88 88.3342205,141.141284 82.9115235,136.875406 C82.7342459,136.735947 82.5521185,136.592125 82.3170921,136.406127 C82.0212628,136.171904 81.8495882,136.035969 81.7265252,135.938631 C76.0392078,131.440187 72.9954658,129.86 68.436,129.86 C60.2855144,129.86 54.812,135.241523 54.812,143.484 C54.812,151.156739 60.3302026,156.946067 70.1593806,160.902942 C77.8188425,163.986366 87.73271,165.664 95.22,165.664 C134.471421,165.664 153.484,141.507921 153.484,98.844 C153.484,57.5586977 133.780241,35 97.452,35 C66.1311573,35 47,52.1779763 47,77.454 C47,102.090407 63.7518974,116.932 90.012,116.932 Z M90.012,120.932 C61.6433501,120.932 43,104.414646 43,77.454 C43,49.8670708 64.0123062,31 97.452,31 C136.118804,31 157.484,55.4608652 157.484,98.844 C157.484,143.535384 136.918891,169.664 95.22,169.664 C87.2485843,169.664 76.8330527,167.901474 68.6656194,164.613558 C57.4859836,160.113038 50.812,153.111142 50.812,143.484 C50.812,133.017066 58.0914087,125.86 68.436,125.86 C74.1607842,125.86 77.8604064,127.780694 84.2079748,132.801369 C84.3320386,132.899499 84.5047826,133.036281 84.7993764,133.269526 C85.0316195,133.453321 85.2109492,133.594934 85.3846687,133.731594 C90.1518394,137.481788 92.8813947,138.88 96.522,138.88 C109.038002,138.88 114.362886,130.387073 115.082413,113.475506 C107.909357,118.59769 99.6644537,120.932 90.012,120.932 Z" id="9" fill="#000000" fill-rule="nonzero"></path>
    </g>
</svg>