<?xml version="1.0" encoding="UTF-8"?>
<svg width="200px" height="200px" viewBox="0 0 200 200" version="1.1" xmlns="http://www.w3.org/2000/svg" xmlns:xlink="http://www.w3.org/1999/xlink">
    <!-- Generator: Sketch 54.1 (76490) - https://sketchapp.com -->
    <title>num-07--sette</title>
    <desc>Created with Sketch.</desc>
    <g id="num-07--sette" stroke="none" stroke-width="1" fill="none" fill-rule="evenodd">
        <path d="M119.631894,62.132 L115.570304,65.6447263 C108.896062,71.417044 98.4117221,86.4775669 89.6632395,102.966853 C79.9038524,121.36151 73.854,138.407787 73.854,149.134 C73.854,157.292105 80.913257,164.246 88.408,164.246 C93.8821621,164.246 97.5296119,163.268094 100.573062,160.509411 C104.501497,156.948549 107.223341,150.361364 108.557877,139.768491 C111.504189,116.525365 125.130762,86.6446743 135.315063,75.9636003 C147.896609,62.6631086 151.508,56.8192219 151.508,50.368 C151.508,40.1518302 146.421073,36 135.094,36 L62.554,36 C52.93156,36 48,40.6414682 48,49.066 C48,57.4905318 52.93156,62.132 62.554,62.132 L119.631894,62.132 Z M62.554,66.132 C50.774815,66.132 44,59.7557035 44,49.066 C44,38.3762965 50.774815,32 62.554,32 L135.094,32 C148.471414,32 155.508,37.7430963 155.508,50.368 C155.508,58.1711417 151.468418,64.7079191 138.215475,78.7181507 C134.32162,82.8019503 128.691763,92.0313286 123.870462,102.603598 C118.141676,115.165825 114.036663,128.355023 112.526314,140.269992 C109.864035,161.401835 102.313375,168.246 88.408,168.246 C78.7174703,168.246 69.854,159.51482 69.854,149.134 C69.854,137.582799 76.0865374,120.021782 86.1297605,101.092147 C93.6993435,86.8248697 102.53219,73.6097505 109.391513,66.132 L62.554,66.132 Z" id="7" fill="#000000" fill-rule="nonzero"></path>
    </g>
</svg>