<?xml version="1.0" encoding="UTF-8"?>
<svg width="200px" height="200px" viewBox="0 0 200 200" version="1.1" xmlns="http://www.w3.org/2000/svg" xmlns:xlink="http://www.w3.org/1999/xlink">
    <!-- Generator: Sketch 54.1 (76490) - https://sketchapp.com -->
    <title>num-19--diciannove</title>
    <desc>Created with Sketch.</desc>
    <g id="num-19--diciannove" stroke="none" stroke-width="1" fill="none" fill-rule="evenodd">
        <path d="M39.852,148.692 C39.852,159.872997 46.1615999,165.664 57.01,165.664 C67.8584001,165.664 74.168,159.872997 74.168,148.692 L74.168,46.02 C74.168,38.5547096 69.8791656,35 61.102,35 C55.3715797,35 52.4789007,37.3761291 45.6113585,46.8189811 C39.6068646,55.1328957 33.0896999,59.6380498 22.3867607,61.5680609 C8.37324606,64.020426 6,65.9564951 6,74.292 C6,81.8726461 9.70088209,85.498 17.764,85.498 L39.852,85.498 L39.852,148.692 Z M35.852,89.498 L17.764,89.498 C7.50999291,89.498 2,84.1004559 2,74.292 C2,63.6310312 5.98894695,60.3768902 21.6870689,57.629746 C31.2944538,55.8972667 36.9384981,51.9956791 42.3725278,44.4716566 C49.9490993,34.0538709 53.6668551,31 61.102,31 C71.9397475,31 78.168,36.1621552 78.168,46.02 L78.168,148.692 C78.168,162.162372 69.9945849,169.664 57.01,169.664 C44.0254151,169.664 35.852,162.162372 35.852,148.692 L35.852,89.498 Z M158.4,77.64 C158.4,87.9638259 150.794272,96.38 139.66,96.38 C128.297449,96.38 121.106,88.9527659 121.106,77.64 C121.106,67.226107 128.62435,58.9 139.66,58.9 C150.847067,58.9 158.4,67.1958448 158.4,77.64 Z M154.4,77.64 C154.4,69.3255978 148.549829,62.9 139.66,62.9 C130.929679,62.9 125.106,69.349364 125.106,77.64 C125.106,86.7719882 130.53598,92.38 139.66,92.38 C148.489728,92.38 154.4,85.8399446 154.4,77.64 Z M130.918,116.932 C141.206993,116.932 149.578555,114.098548 156.749604,107.761342 L160.074,104.823504 L160.074,109.26 C160.074,119.021708 158.869022,126.549894 155.943937,132.197558 C152.34508,139.146121 146.228012,142.88 137.428,142.88 C132.634501,142.88 129.24022,141.141284 123.817523,136.875406 C123.640246,136.735947 123.458119,136.592125 123.223092,136.406127 C122.927263,136.171904 122.755588,136.035969 122.632525,135.938631 C116.945208,131.440187 113.901466,129.86 109.342,129.86 C101.191514,129.86 95.718,135.241523 95.718,143.484 C95.718,151.156739 101.236203,156.946067 111.065381,160.902942 C118.724842,163.986366 128.63871,165.664 136.126,165.664 C175.377421,165.664 194.39,141.507921 194.39,98.844 C194.39,57.5586977 174.686241,35 138.358,35 C107.037157,35 87.906,52.1779763 87.906,77.454 C87.906,102.090407 104.657897,116.932 130.918,116.932 Z M130.918,120.932 C102.54935,120.932 83.906,104.414646 83.906,77.454 C83.906,49.8670708 104.918306,31 138.358,31 C177.024804,31 198.39,55.4608652 198.39,98.844 C198.39,143.535384 177.824891,169.664 136.126,169.664 C128.154584,169.664 117.739053,167.901474 109.571619,164.613558 C98.3919836,160.113038 91.718,153.111142 91.718,143.484 C91.718,133.017066 98.9974087,125.86 109.342,125.86 C115.066784,125.86 118.766406,127.780694 125.113975,132.801369 C125.238039,132.899499 125.410783,133.036281 125.705376,133.269526 C125.93762,133.453321 126.116949,133.594934 126.290669,133.731594 C131.057839,137.481788 133.787395,138.88 137.428,138.88 C149.944002,138.88 155.268886,130.387073 155.988413,113.475506 C148.815357,118.59769 140.570454,120.932 130.918,120.932 Z" id="19" fill="#000000" fill-rule="nonzero"></path>
    </g>
</svg>