<?xml version="1.0" encoding="UTF-8"?>
<svg width="200px" height="200px" viewBox="0 0 200 200" version="1.1" xmlns="http://www.w3.org/2000/svg" xmlns:xlink="http://www.w3.org/1999/xlink">
    <!-- Generator: Sketch 54.1 (76490) - https://sketchapp.com -->
    <title>num-01--uno</title>
    <desc>Created with Sketch.</desc>
    <g id="num-01--uno" stroke="none" stroke-width="1" fill="none" fill-rule="evenodd">
        <path d="M85.852,148.692 C85.852,159.872997 92.1615999,165.664 103.01,165.664 C113.8584,165.664 120.168,159.872997 120.168,148.692 L120.168,46.02 C120.168,38.5547096 115.879166,35 107.102,35 C101.37158,35 98.4789007,37.3761291 91.6113585,46.8189811 C85.6068646,55.1328957 79.0896999,59.6380498 68.3867607,61.5680609 C54.3732461,64.020426 52,65.9564951 52,74.292 C52,81.8726461 55.7008821,85.498 63.764,85.498 L85.852,85.498 L85.852,148.692 Z M81.852,89.498 L63.764,89.498 C53.5099929,89.498 48,84.1004559 48,74.292 C48,63.6310312 51.988947,60.3768902 67.6870689,57.629746 C77.2944538,55.8972667 82.9384981,51.9956791 88.3725278,44.4716566 C95.9490993,34.0538709 99.6668551,31 107.102,31 C117.939747,31 124.168,36.1621552 124.168,46.02 L124.168,148.692 C124.168,162.162372 115.994585,169.664 103.01,169.664 C90.0254151,169.664 81.852,162.162372 81.852,148.692 L81.852,89.498 Z" id="1" fill="#000000" fill-rule="nonzero"></path>
    </g>
</svg>