<?xml version="1.0" encoding="UTF-8"?>
<svg width="200px" height="200px" viewBox="0 0 200 200" version="1.1" xmlns="http://www.w3.org/2000/svg" xmlns:xlink="http://www.w3.org/1999/xlink">
    <!-- Generator: Sketch 54.1 (76490) - https://sketchapp.com -->
    <title>num-05--cinque</title>
    <desc>Created with Sketch.</desc>
    <g id="num-05--cinque" stroke="none" stroke-width="1" fill="none" fill-rule="evenodd">
        <path d="M82.7798538,62.132 L126.864,62.132 C136.48644,62.132 141.418,57.4905318 141.418,49.066 C141.418,40.6414682 136.48644,36 126.864,36 L76.644,36 C64.1848932,36 60.1415098,39.0543544 57.7666463,50.4195067 C54.5744854,65.1525568 51.116,85.9034694 51.116,92.404 C51.116,101.905383 57.7081844,106.214 66.6,106.214 C71.81955,106.214 75.2075802,105.256513 80.7004902,102.765542 C80.846412,102.699369 80.9481127,102.653121 81.1959203,102.5403 C81.4438955,102.42734 81.4438955,102.42734 81.6923553,102.314232 C82.0952015,102.130949 82.3958114,101.995028 82.6918139,101.862728 C87.2308047,99.8340041 90.3602349,98.96 94.5,98.96 C105.931211,98.96 115.1,108.319805 115.1,119.746 C115.1,130.529192 107.063837,139.23 94.128,139.23 C87.550799,139.23 84.1183605,137.406517 78.5189103,132.396483 L78.3794264,132.271674 C73.538146,127.940002 70.9996971,126.582 65.856,126.582 C56.6836211,126.582 50,132.015447 50,139.648 C50,147.966351 55.2464533,154.307156 64.6940196,158.663806 C72.5717233,162.296529 82.9811606,164.246 92.268,164.246 C127.672905,164.246 149.416,148.789496 149.416,119.002 C149.416,93.3132371 132.239933,79.524 107.334,79.524 C96.2074527,79.524 91.3785148,80.6886262 81.8682533,85.7959889 L78.2309805,87.7493391 L82.7798538,62.132 Z M83.5966545,80.4108219 C91.5608942,76.5335364 97.0433501,75.524 107.334,75.524 C134.279646,75.524 153.416,90.8869883 153.416,119.002 C153.416,151.349017 129.646544,168.246 92.268,168.246 C82.4380752,168.246 71.464931,166.190959 63.0189804,162.296194 C52.2859442,157.346763 46,149.74964 46,139.648 C46,129.602524 54.6358656,122.582 65.856,122.582 C72.2095882,122.582 75.5398204,124.363585 81.0466058,129.290709 L81.1860897,129.415517 C86.1206779,133.830675 88.754701,135.23 94.128,135.23 C104.780579,135.23 111.1,128.387921 111.1,119.746 C111.1,110.510695 103.703401,102.96 94.5,102.96 C91.0267498,102.96 88.3950604,103.694992 84.3240195,105.514564 C84.0376125,105.642575 83.7443,105.775197 83.3488426,105.955117 C83.1022308,106.067385 83.1022308,106.067385 82.8537216,106.180588 C82.6041972,106.294191 82.5007215,106.341245 82.3525098,106.408458 C76.3867467,109.113862 72.49395,110.214 66.6,110.214 C62.2585391,110.214 57.8222113,109.152995 54.3225461,106.865632 C49.7297725,103.863819 47.116,99.0259883 47.116,92.404 C47.116,85.5125306 50.6015146,64.5994432 53.8542826,49.5869247 C56.6260791,36.3218986 62.3474496,32 76.644,32 L126.864,32 C138.643185,32 145.418,38.3762965 145.418,49.066 C145.418,59.7557035 138.643185,66.132 126.864,66.132 L86.1321462,66.132 L83.5966545,80.4108219 Z" id="5" fill="#000000" fill-rule="nonzero"></path>
    </g>
</svg>