<?xml version="1.0" encoding="UTF-8"?>
<svg width="200px" height="200px" viewBox="0 0 200 200" version="1.1" xmlns="http://www.w3.org/2000/svg" xmlns:xlink="http://www.w3.org/1999/xlink">
    <!-- Generator: Sketch 54.1 (76490) - https://sketchapp.com -->
    <title>num-06--sei</title>
    <desc>Created with Sketch.</desc>
    <g id="num-06--sei" stroke="none" stroke-width="1" fill="none" fill-rule="evenodd">
        <path d="M120.284,123.024 C120.284,133.437893 112.76565,141.764 101.73,141.764 C90.5429333,141.764 82.99,133.468155 82.99,123.024 C82.99,112.700174 90.5957277,104.284 101.73,104.284 C113.092551,104.284 120.284,111.711234 120.284,123.024 Z M116.284,123.024 C116.284,113.892012 110.85402,108.284 101.73,108.284 C92.9002723,108.284 86.99,114.824055 86.99,123.024 C86.99,131.338402 92.8401712,137.764 101.73,137.764 C110.460321,137.764 116.284,131.314636 116.284,123.024 Z M47,101.82 C47,142.637425 67.6279736,165.664 103.032,165.664 C135.440022,165.664 153.484,149.443615 153.484,123.21 C153.484,98.5735933 136.732103,83.732 110.472,83.732 C100.183007,83.732 91.8114447,86.565452 84.6403956,92.9026582 L81.316,95.8404961 L81.316,91.404 C81.316,81.642292 82.5209777,74.1141062 85.4460628,68.4664419 C89.04492,61.517879 95.1619879,57.784 103.962,57.784 C108.755499,57.784 112.14978,59.5227165 117.572477,63.7885942 C117.749754,63.9280533 117.931881,64.0718751 118.166908,64.2578734 C118.462737,64.4920961 118.634412,64.6280314 118.757475,64.7253694 C124.444792,69.2238125 127.488534,70.804 132.048,70.804 C140.198486,70.804 145.672,65.4224775 145.672,57.18 C145.672,49.5072608 140.153797,43.7179326 130.324619,39.7610584 C122.665158,36.677634 112.75129,35 105.264,35 C66.0125795,35 47,59.1560793 47,101.82 Z M110.472,79.732 C138.84065,79.732 157.484,96.2493541 157.484,123.21 C157.484,151.753385 137.559765,169.664 103.032,169.664 C65.3147764,169.664 43,144.754482 43,101.82 C43,57.1286164 63.5651087,31 105.264,31 C113.235416,31 123.650947,32.7625261 131.818381,36.0504416 C142.998016,40.5509616 149.672,47.5528577 149.672,57.18 C149.672,67.6469343 142.392591,74.804 132.048,74.804 C126.323216,74.804 122.623594,72.8833062 116.276025,67.8626306 C116.151961,67.7645011 115.979217,67.6277189 115.684624,67.3944742 C115.45238,67.2106786 115.273051,67.0690661 115.099331,66.932406 C110.332161,63.1822117 107.602605,61.784 103.962,61.784 C91.4459976,61.784 86.1211136,70.2769266 85.4015874,87.1884941 C92.5746432,82.0663097 100.819546,79.732 110.472,79.732 Z" id="6" fill="#000000" fill-rule="nonzero"></path>
    </g>
</svg>