<?xml version="1.0" encoding="UTF-8"?>
<svg width="200px" height="200px" viewBox="0 0 200 200" version="1.1" xmlns="http://www.w3.org/2000/svg" xmlns:xlink="http://www.w3.org/1999/xlink">
    <!-- Generator: Sketch 54.1 (76490) - https://sketchapp.com -->
    <title>num-18--diciotto</title>
    <desc>Created with Sketch.</desc>
    <g id="num-18--diciotto" stroke="none" stroke-width="1" fill="none" fill-rule="evenodd">
        <path d="M39.852,148.692 C39.852,159.872997 46.1615999,165.664 57.01,165.664 C67.8584001,165.664 74.168,159.872997 74.168,148.692 L74.168,46.02 C74.168,38.5547096 69.8791656,35 61.102,35 C55.3715797,35 52.4789007,37.3761291 45.6113585,46.8189811 C39.6068646,55.1328957 33.0896999,59.6380498 22.3867607,61.5680609 C8.37324606,64.020426 6,65.9564951 6,74.292 C6,81.8726461 9.70088209,85.498 17.764,85.498 L39.852,85.498 L39.852,148.692 Z M35.852,89.498 L17.764,89.498 C7.50999291,89.498 2,84.1004559 2,74.292 C2,63.6310312 5.98894695,60.3768902 21.6870689,57.629746 C31.2944538,55.8972667 36.9384981,51.9956791 42.3725278,44.4716566 C49.9490993,34.0538709 53.6668551,31 61.102,31 C71.9397475,31 78.168,36.1621552 78.168,46.02 L78.168,148.692 C78.168,162.162372 69.9945849,169.664 57.01,169.664 C44.0254151,169.664 35.852,162.162372 35.852,148.692 L35.852,89.498 Z M91.626,68.712 C91.626,80.7899402 97.7273431,90.5804675 107.727323,94.9664236 L111.834506,96.7678195 L107.749776,98.6195638 C93.5502634,105.056676 88.092,112.200041 88.092,125.628 C88.092,151.357463 107.609527,165.664 140.962,165.664 C174.640862,165.664 194.204,151.393305 194.204,125.628 C194.204,112.200041 188.745737,105.056676 174.546224,98.6195638 L170.461494,96.7678195 L174.568677,94.9664236 C184.568657,90.5804675 190.67,80.7899402 190.67,68.712 C190.67,61.3686208 187.435881,53.4571995 180.932908,47.3630969 C172.547895,39.5052846 159.354251,35 140.962,35 C122.741193,35 109.652621,39.5041413 101.320959,47.3589913 C94.8523159,53.4574414 91.626,61.3781629 91.626,68.712 Z M87.626,68.712 C87.626,60.3047508 91.2840349,51.3241436 98.5770406,44.4485087 C107.704555,35.8433519 121.778837,31 140.962,31 C160.311646,31 174.486911,35.8404823 183.668092,44.4444031 C191.001082,51.3163369 194.67,60.2913792 194.67,68.712 C194.67,80.8356267 189.127555,91.0718298 179.822882,96.7328091 C192.743923,103.445799 198.204,111.726678 198.204,125.628 C198.204,153.923999 176.626648,169.664 140.962,169.664 C105.621347,169.664 84.092,153.88278 84.092,125.628 C84.092,111.726678 89.5520772,103.445799 102.473118,96.7328091 C93.1684445,91.0718298 87.626,80.8356267 87.626,68.712 Z M122.408,124.698 C122.408,113.983049 130.309264,106.144 140.962,106.144 C151.925245,106.144 159.888,113.921575 159.888,124.698 C159.888,136.423191 152.701291,142.88 140.776,142.88 C129.491483,142.88 122.408,136.310641 122.408,124.698 Z M126.408,124.698 C126.408,134.031359 131.6361,138.88 140.776,138.88 C150.581979,138.88 155.888,134.112872 155.888,124.698 C155.888,116.152053 149.736898,110.144 140.962,110.144 C132.511355,110.144 126.408,116.199297 126.408,124.698 Z M123.71,73.362 C123.71,63.2732065 129.698225,57.784 140.962,57.784 C152.541666,57.784 158.586,63.2239003 158.586,73.362 C158.586,83.340042 152.014621,88.94 140.962,88.94 C130.22758,88.94 123.71,83.2875857 123.71,73.362 Z M127.71,73.362 C127.71,80.9418126 132.320155,84.94 140.962,84.94 C149.934747,84.94 154.586,80.9763232 154.586,73.362 C154.586,65.5324997 150.421,61.784 140.962,61.784 C131.833411,61.784 127.71,65.5637935 127.71,73.362 Z" id="18" fill="#000000" fill-rule="nonzero"></path>
    </g>
</svg>