<?xml version="1.0" encoding="UTF-8"?>
<svg width="200px" height="200px" viewBox="0 0 200 200" version="1.1" xmlns="http://www.w3.org/2000/svg" xmlns:xlink="http://www.w3.org/1999/xlink">
    <!-- Generator: Sketch 54.1 (76490) - https://sketchapp.com -->
    <title>num-20--venti</title>
    <desc>Created with Sketch.</desc>
    <g id="num-20--venti" stroke="none" stroke-width="1" fill="none" fill-rule="evenodd">
        <path d="M42.7543809,135.998 L42.7543809,132.522035 L43.5964209,131.93369 L73.9443264,110.729217 C88.6806296,100.44292 95.0656234,89.7975625 95.0656234,75.222 C95.0656234,64.5846903 91.6844172,54.9075175 84.9590264,47.8186486 C77.1378389,39.57476 65.0730908,35 48.7488282,35 C35.0668223,35 23.7884163,39.0897337 15.8977752,46.2647842 C8.83076173,52.6909007 4.94699647,61.2614356 4.94699647,69.828 C4.94699647,80.4159482 9.39687208,85.87 19.5752506,85.87 C23.4791259,85.87 26.0634184,84.7180306 27.9473943,82.4847668 C29.4326344,80.7241641 30.2779635,78.8525558 31.8978671,74.2691545 L31.9177354,74.2129388 C33.7066604,69.1513957 34.7009421,66.957987 36.6295612,64.6849036 C39.2453267,61.6019449 42.8252126,60.016 47.7428427,60.016 C57.6866258,60.016 64.1324728,66.7496369 64.1324728,77.082 C64.1324728,85.4684067 60.7588744,91.2363137 52.1247527,97.8825149 L36.1975634,110.15781 C20.8506612,122.001455 12.6332245,129.342366 8.29533248,135.054142 C4.58324333,139.941913 3.60568256,143.416957 3.60568256,149.808 C3.60568256,157.314566 8.69158383,163.246 16.0543016,163.246 L84.461311,163.246 C93.117114,163.246 96.90993,158.847147 96.90993,149.622 C96.90993,140.396853 93.117114,135.998 84.461311,135.998 L42.7543809,135.998 Z M84.461311,131.998 C95.1452135,131.998 100.515613,138.226511 100.515613,149.622 C100.515613,161.017489 95.1452135,167.246 84.461311,167.246 L16.0543016,167.246 C6.65877419,167.246 0,159.480203 0,149.808 C0,136.086066 5.25924399,129.161129 34.1393996,106.873485 L50.068361,94.5968238 C57.8132597,88.6351105 60.5267902,83.9957344 60.5267902,77.082 C60.5267902,69.0143131 55.7421007,64.016 47.7428427,64.016 C43.7854957,64.016 41.1630449,65.1777864 39.2551268,67.4264714 C37.7524848,69.1974953 36.8937802,71.0918178 35.2746097,75.6730612 L35.2547496,75.7292539 C33.4656056,80.7915086 32.4877216,82.9566012 30.5800359,85.2179707 C27.9886006,88.2898565 24.4437554,89.87 19.5752506,89.87 C7.32088825,89.87 1.34131391,82.5410518 1.34131391,69.828 C1.34131391,60.0264378 5.73248641,50.3361772 13.6120322,43.1712158 C22.1761793,35.3837386 34.2653732,31 48.7488282,31 C65.9416753,31 78.8986057,35.9130612 87.4426286,44.9188514 C94.92082,52.8012066 98.671306,63.5352754 98.671306,75.222 C98.671306,91.3138595 91.5715183,103.150954 75.8652507,114.11431 L50.2700602,131.998 L84.461311,131.998 Z M165.461167,100.332 C165.461167,130.124848 160.718274,140.648 148.568544,140.648 C136.418814,140.648 131.675921,130.124848 131.675921,100.332 C131.675921,72.5453415 136.468666,60.016 148.568544,60.016 C160.668422,60.016 165.461167,72.5453415 165.461167,100.332 Z M161.855484,100.332 C161.855484,74.5344846 157.831936,64.016 148.568544,64.016 C139.305152,64.016 135.281604,74.5344846 135.281604,100.332 C135.281604,128.199152 139.089587,136.648 148.568544,136.648 C158.047501,136.648 161.855484,128.199152 161.855484,100.332 Z M100.742771,99.774 C100.742771,144.534696 117.945963,165.664 148.568544,165.664 C179.191125,165.664 196.394317,144.534696 196.394317,99.774 C196.394317,58.6986483 179.287164,35 148.568544,35 C117.849924,35 100.742771,58.6986483 100.742771,99.774 Z M97.1370881,99.774 C97.1370881,56.6605176 115.660441,31 148.568544,31 C181.476647,31 200,56.6605176 200,99.774 C200,146.658162 181.26896,169.664 148.568544,169.664 C115.868128,169.664 97.1370881,146.658162 97.1370881,99.774 Z" id="20" fill="#000000" fill-rule="nonzero"></path>
    </g>
</svg>