<?xml version="1.0" encoding="UTF-8"?>
<svg width="200px" height="200px" viewBox="0 0 200 200" version="1.1" xmlns="http://www.w3.org/2000/svg" xmlns:xlink="http://www.w3.org/1999/xlink">
    <!-- Generator: Sketch 54.1 (76490) - https://sketchapp.com -->
    <title>num-08--otto</title>
    <desc>Created with Sketch.</desc>
    <g id="num-08--otto" stroke="none" stroke-width="1" fill="none" fill-rule="evenodd">
        <path d="M50.534,68.712 C50.534,80.7899402 56.6353431,90.5804675 66.635323,94.9664236 L70.7425057,96.7678195 L66.6577756,98.6195638 C52.4582634,105.056676 47,112.200041 47,125.628 C47,151.357463 66.5175271,165.664 99.87,165.664 C133.548862,165.664 153.112,151.393305 153.112,125.628 C153.112,112.200041 147.653737,105.056676 133.454224,98.6195638 L129.369494,96.7678195 L133.476677,94.9664236 C143.476657,90.5804675 149.578,80.7899402 149.578,68.712 C149.578,61.3686208 146.343881,53.4571995 139.840908,47.3630969 C131.455895,39.5052846 118.262251,35 99.87,35 C81.6491927,35 68.5606214,39.5041413 60.2289594,47.3589913 C53.7603159,53.4574414 50.534,61.3781629 50.534,68.712 Z M46.534,68.712 C46.534,60.3047508 50.1920349,51.3241436 57.4850406,44.4485087 C66.6125551,35.8433519 80.6868374,31 99.87,31 C119.219646,31 133.394911,35.8404823 142.576092,44.4444031 C149.909082,51.3163369 153.578,60.2913792 153.578,68.712 C153.578,80.8356267 148.035555,91.0718298 138.730882,96.7328091 C151.651923,103.445799 157.112,111.726678 157.112,125.628 C157.112,153.923999 135.534648,169.664 99.87,169.664 C64.5293471,169.664 43,153.88278 43,125.628 C43,111.726678 48.4600772,103.445799 61.3811185,96.7328091 C52.0764445,91.0718298 46.534,80.8356267 46.534,68.712 Z M81.316,124.698 C81.316,113.983049 89.2172637,106.144 99.87,106.144 C110.833245,106.144 118.796,113.921575 118.796,124.698 C118.796,136.423191 111.609291,142.88 99.684,142.88 C88.3994829,142.88 81.316,136.310641 81.316,124.698 Z M85.316,124.698 C85.316,134.031359 90.5440998,138.88 99.684,138.88 C109.489979,138.88 114.796,134.112872 114.796,124.698 C114.796,116.152053 108.644898,110.144 99.87,110.144 C91.4193553,110.144 85.316,116.199297 85.316,124.698 Z M82.618,73.362 C82.618,63.2732065 88.6062253,57.784 99.87,57.784 C111.449666,57.784 117.494,63.2239003 117.494,73.362 C117.494,83.340042 110.922621,88.94 99.87,88.94 C89.1355798,88.94 82.618,83.2875857 82.618,73.362 Z M86.618,73.362 C86.618,80.9418126 91.2281549,84.94 99.87,84.94 C108.842747,84.94 113.494,80.9763232 113.494,73.362 C113.494,65.5324997 109.329,61.784 99.87,61.784 C90.7414111,61.784 86.618,65.5637935 86.618,73.362 Z" id="8" fill="#000000" fill-rule="nonzero"></path>
    </g>
</svg>