<?xml version="1.0" encoding="UTF-8"?>
<svg width="200px" height="200px" viewBox="0 0 200 200" version="1.1" xmlns="http://www.w3.org/2000/svg" xmlns:xlink="http://www.w3.org/1999/xlink">
    <!-- Generator: Sketch 54.1 (76490) - https://sketchapp.com -->
    <title>palloncini</title>
    <desc>Created with Sketch.</desc>
    <g id="palloncini" stroke="none" stroke-width="1" fill="none" fill-rule="evenodd">
        <path d="M136.342067,120.331173 C137.584525,120.247374 138.828101,120.163575 140.072235,120.080335 C140.681173,120.039553 140.90352,119.850726 140.437039,119.28648 C139.267207,117.871955 138.113575,116.444581 136.965531,115.012179 C136.618045,114.578659 136.334246,114.470838 135.933687,114.974749 C134.791788,116.411061 133.617486,117.822235 132.458268,119.245698 C132.044302,119.754637 132.17,120.034525 132.824749,120.080335 C133.99514,120.162458 135.165531,120.247374 136.342067,120.331173 M68.6811732,154.92838 C70.3459777,154.94905 71.8778212,154.921117 73.4085475,154.713855 C74.2426257,154.600447 74.37,154.360223 73.8364804,153.713855 C72.320838,151.879218 70.8063128,150.042905 69.3247486,148.180894 C68.9275419,147.682011 68.673352,147.606592 68.2465363,148.142346 C66.7409497,150.032291 65.2102235,151.902123 63.6739106,153.768045 C63.143743,154.412179 63.3755866,154.605475 64.0984916,154.704916 C65.6638547,154.921117 67.2331285,154.964134 68.6811732,154.92838 M126.530894,80.7596648 C126.517486,90.2859218 125.350447,97.6473743 122.89514,104.788156 C122.564972,105.748492 122.721955,106.122793 123.70352,106.422793 C129.910223,108.315531 136.225866,108.904916 142.63257,107.893743 C155.100726,105.925587 164.968324,99.5624581 172.367765,89.4943017 C181.828101,76.6222346 184.80743,62.1144134 182.037039,46.4948603 C179.919162,34.5551955 174.396816,24.3272626 165.184525,16.3127374 C156.343184,8.61944134 146.067207,4.77698324 134.244302,5.34234637 C127.361061,5.67195531 120.958827,7.57307263 114.99514,10.9836872 C108.094022,14.9300559 102.675028,20.418324 98.3565922,27.0496089 C97.8794972,27.7820112 98.0024022,28.1747486 98.7213966,28.62 C99.7180447,29.2362011 100.702402,29.8998883 101.588436,30.6630168 C102.357709,31.3261453 102.73257,31.1998883 103.267207,30.3820112 C105.882291,26.3825698 109.121397,22.9468156 112.909665,20.0362011 C115.927542,17.718324 119.197374,15.8328492 122.775028,14.521676 C124.698492,13.816648 126.338715,15.0641341 126.080056,16.969162 C125.894022,18.3401117 124.766089,18.716648 123.712458,19.1546369 C116.491788,22.1535196 110.92419,27.0931844 106.675028,33.6015642 C106.24486,34.2596648 106.301844,34.6663687 106.867765,35.192067 C108.537039,36.742905 110.077263,38.4227933 111.514693,40.1903911 C121.590112,52.5814525 126.338715,66.8529609 126.530894,80.7596648 M121.817486,82.7887151 C121.886201,79.8032402 121.704637,76.8322905 121.264413,73.8909497 C119.048212,59.0892737 112.777263,46.3842458 101.385084,36.4987709 C90.2990503,26.8797765 77.3632961,22.7160894 62.7392737,24.4267039 C52.1236313,25.6680447 42.8873184,30.1831285 35.0901117,37.4283799 C22.3638547,49.2535196 16.2739106,64.1177654 15.6912291,81.3278212 C15.4549162,88.3088268 16.4392737,95.1686034 18.5571508,101.837877 C22.3163687,113.678101 28.8426257,123.659665 38.794581,131.197095 C50.197933,139.833966 63.0526816,143.212179 77.1817318,140.737877 C90.9917877,138.32 101.785084,130.869721 110.000726,119.682011 C118.039832,108.734525 121.79067,96.3362011 121.817486,82.7887151 M141.177821,112.814972 C142.88676,114.920559 144.502961,116.906034 146.111341,118.898212 C147.515251,120.637318 147.188994,122.344022 145.223631,123.461341 C143.584525,124.393184 141.74486,124.616089 139.921397,124.779218 C139.027542,124.859106 138.783966,125.204916 138.862737,126.017207 C139.208547,129.57419 139.044302,133.135084 138.833687,136.688715 C138.538156,141.684804 138.014134,146.654637 135.886201,151.275307 C134.543184,154.189274 132.607989,156.498212 129.221397,157.132849 C126.594581,157.624469 122.811899,156.025028 121.387318,153.792626 C120.84486,152.942346 120.935363,151.766369 121.600168,151.031173 C122.321397,150.234525 123.477821,150.024469 124.418045,150.532849 C124.609665,150.636201 124.799609,150.763575 124.949888,150.918324 C127.601844,153.646816 129.962179,152.768045 131.523631,149.634525 C132.955475,146.760223 133.481173,143.650726 133.863296,140.511061 C134.414134,135.980335 134.354916,131.426145 134.304637,126.874749 C134.283966,125.021676 134.275587,125.018324 132.51581,124.759665 C130.990112,124.535084 129.457151,124.339553 128.043743,123.665251 C125.687318,122.540112 125.264413,120.730056 126.891788,118.711061 C128.228659,117.052961 129.583966,115.409385 130.925307,113.755196 C131.129777,113.503799 131.519162,113.276425 131.438715,112.951285 C131.339832,112.552402 130.874469,112.716648 130.574469,112.673631 C127.55324,112.241788 124.566648,111.648492 121.688994,110.617765 C120.862737,110.322235 120.602961,110.683128 120.301285,111.336201 C116.95324,118.581453 112.471117,125.039553 106.682849,130.544022 C97.9415084,138.855754 87.6515642,144.05352 75.6526816,145.738994 C75.0498883,145.824469 74.1582682,145.573073 73.9264246,146.131173 C73.6973743,146.682011 74.4968156,147.146816 74.8722346,147.618324 C76.4046369,149.542346 77.9834078,151.430615 79.5264246,153.346816 C80.9554749,155.12 80.6130168,156.875866 78.620838,158.01162 C76.9543575,158.961899 75.0968156,159.22 73.2331285,159.441229 C72.9057542,159.479777 72.5744693,159.504916 72.2448603,159.511061 C71.3024022,159.527821 70.9504469,159.929497 70.943743,160.935642 C70.9024022,167.104358 70.8577095,173.270838 71.8638547,179.384804 C72.4320112,182.835084 73.1917877,186.236201 74.8163687,189.373631 C75.5275419,190.747933 76.3705587,192.026145 77.5593855,193.061341 C79.4722346,194.727263 81.5632961,194.892067 83.8074302,193.890391 C85.4342458,193.164134 86.6599441,191.978101 87.592905,190.473073 C88.1247486,189.614972 88.9001676,189.187039 89.9135754,189.313296 C90.8308939,189.427263 91.4605028,189.952961 91.7783799,190.822235 C92.0504469,191.56581 91.9029609,192.271397 91.5107821,192.933966 C87.8504469,199.114413 78.3783799,202.551285 72.2990503,194.255754 C69.8348045,190.893184 68.622514,187.007709 67.7828492,182.99486 C66.2850838,175.836201 66.1269832,168.574749 66.2510056,161.297095 C66.2800559,159.57419 66.2409497,159.560782 64.4867598,159.444581 C62.7197207,159.327263 60.9923464,159.001564 59.3638547,158.268045 C56.8476536,157.134525 56.6051955,154.797095 58.1577095,153.111061 C60.166648,150.928939 61.9409497,148.531732 63.8889944,146.137318 C62.9901117,145.618883 62.042067,145.745698 61.1767039,145.617207 C50.6074302,144.041229 41.3085475,139.681453 33.2761453,132.701006 C21.0917877,122.112737 14.0772626,108.641788 11.7800559,92.7563128 C9.31301676,75.6943017 12.6739106,59.7853631 22.2063128,45.3646927 C29.3605028,34.5412291 39.0029609,26.6943017 51.3269832,22.3512849 C58.3403911,19.8803352 65.5649721,18.9484916 72.9968156,19.5607821 C79.9286592,20.1317318 86.4940223,21.9496089 92.6783799,25.1116201 C93.6046369,25.5848045 93.9660894,25.3440223 94.4800559,24.5507263 C101.911899,13.0769832 111.97838,5.05351955 125.423073,1.93340782 C141.331453,-1.75821229 155.596257,2.0473743 167.947654,12.5909497 C178.633128,21.7116201 184.735922,33.5110615 186.887318,47.3239106 C189.145978,61.8250279 186.642067,75.5222346 178.94486,88.0468156 C170.876704,101.176425 159.356592,109.602123 144.006872,112.412179 C143.573911,112.491508 143.134246,112.530056 142.698492,112.591508 C142.263855,112.652961 141.830335,112.718883 141.177821,112.814972" id="Fill-1" fill="#000000"></path>
        <path d="M22.5875419,81.0859218 C23.6389385,63.1255866 30.8445251,48.5903911 46.254581,38.6434637 C48.4165922,37.2473743 50.7372626,36.1322905 53.1484358,35.221676 C54.8439665,34.5814525 56.1154749,35.0132961 56.6417318,36.3741899 C57.1540223,37.6982123 56.5255307,38.8239106 54.8953631,39.5261453 C39.0596089,46.3473743 30.6043017,58.7535196 27.757933,75.4010056 C27.4110056,77.4317318 27.2953631,79.4803352 27.277486,81.5378771 C27.2724581,82.0853631 27.2255307,82.6406704 27.1216201,83.1781006 C26.8981564,84.3339665 25.8657542,85.146257 24.7663128,85.0853631 C23.6104469,85.021676 22.6702235,84.072514 22.5936872,82.8473743 C22.5568156,82.2624581 22.5875419,81.6736313 22.5875419,81.0859218" id="Fill-4" fill="#000000"></path>
        <path d="M26.0601117,90.8046369 C27.0260335,90.9018436 27.8595531,91.4314525 28.0981006,92.5158101 C28.9193296,96.2510056 30.0997765,99.8610615 31.564581,103.39067 C32.0534078,104.569441 31.4271508,105.809665 30.2796648,106.287318 C29.1059218,106.775028 27.8712849,106.302402 27.2768715,105.018045 C25.9182123,102.083966 24.890838,99.0297765 24.1349721,95.8856425 C23.938324,95.0672067 23.7288268,94.2459777 23.6159777,93.4135754 C23.4271508,92.0124581 24.5567598,90.773352 26.0601117,90.8046369" id="Fill-6" fill="#000000"></path>
    </g>
</svg>