<?xml version="1.0" encoding="UTF-8"?>
<svg width="200px" height="200px" viewBox="0 0 200 200" version="1.1" xmlns="http://www.w3.org/2000/svg" xmlns:xlink="http://www.w3.org/1999/xlink">
    <!-- Generator: Sketch 54.1 (76490) - https://sketchapp.com -->
    <title>pera</title>
    <desc>Created with Sketch.</desc>
    <g id="pera" stroke="none" stroke-width="1" fill="none" fill-rule="evenodd">
        <path d="M156.554378,43.3087558 L156.554378,73.0115207 C151.898157,64.6313364 151.898157,53.5511521 156.554378,43.3087558 M73.9857143,29.024424 C70.1198157,27.8341014 66.3506912,26.0032258 62.7847926,23.5820276 C60.6018433,22.1 58.6626728,20.2976959 56.7870968,18.5548387 C55.4428571,17.30553 54.0525346,16.0138249 52.5718894,14.8364055 C51.8608295,14.2709677 51.0341014,14.2737327 50.3589862,14.8451613 L49.8207373,15.3004608 C49.2258065,15.802765 49.2271889,16.6866359 49.5304147,17.2626728 C51.1677419,20.3778802 54.3548387,22.8511521 57.1658986,25.0331797 L57.7138249,25.4585253 C61.0004608,28.0207373 64.397235,30.078341 67.8082949,31.5741935 C71.2543779,33.0861751 74.9677419,34.1230415 79.1608295,34.7447005 C81.6857143,35.118894 83.7313364,35.6479263 85.597235,36.4092166 L85.8470046,36.5110599 C86.5746544,36.8064516 87.5271889,37.1930876 88.4483871,37.6617512 C78.2585253,36.7184332 67.8497696,35.5322581 59.3635945,29.9640553 C55.3894009,27.356682 51.8995392,23.8391705 49.2718894,19.7921659 C47.0852535,16.4248848 45.7345622,12.7778802 44.5248848,9.01290323 C45.3631336,9.69124424 46.2317972,10.3700461 47.1682028,10.935023 C49.19447,12.1585253 51.5225806,13.2552995 54.2847926,14.2870968 C59.7548387,16.3308756 65.5336406,17.6843318 71.121659,18.9935484 L72.6635945,19.3534562 C77.8700461,20.5626728 83.2539171,21.8129032 87.5539171,25.0073733 C91.8198157,28.1764977 94.464977,32.4225806 94.9327189,36.7907834 L94.8018433,36.6847926 C94.0511521,36.0746544 93.2746544,35.4437788 92.4465438,34.8889401 C90.7225806,33.735023 88.8474654,32.7686636 86.8737327,32.0170507 C84.5470046,31.1308756 82.0889401,30.6976959 79.7115207,30.2788018 C77.8133641,29.9442396 75.8506912,29.5986175 73.9857143,29.024424 M115.717051,25.8663594 C122.902765,21.1308756 130,19.7705069 136.809677,21.8248848 C143.658525,23.8898618 148.892627,28.059447 152.36682,34.2170507 L152.485714,34.4271889 C152.774194,34.9368664 153.071889,35.4640553 153.305991,35.9917051 C153.8553,37.2317972 153.829493,37.7654378 153.447005,39.083871 C153.03871,40.4880184 152.562673,41.9069124 152.102304,43.2788018 C151.911982,43.8460829 151.72212,44.4133641 151.535484,44.9806452 L151.008295,46.5958525 C150.421198,48.3986175 149.817051,50.2552995 149.170968,52.075576 C147.593088,50 146.034101,47.8797235 144.52212,45.8225806 C143.449309,44.3631336 142.375576,42.9032258 141.28894,41.4488479 C138.289862,37.4345622 134.75023,35.0294931 130.766359,34.2990783 C126.638249,31.6175115 121.682028,33.6364055 117.69447,35.2599078 L117.314286,35.4147465 C116.138249,35.8921659 114.976498,36.4447005 113.853456,36.9792627 C110.380184,38.6313364 107.087558,40.1949309 103.412903,39.6898618 C106.199539,34.9700461 109.858065,29.7271889 115.717051,25.8663594 M132.696774,16.90553 C131.753456,16.8101382 130.815668,16.7626728 129.882028,16.7626728 C122.493088,16.7626728 115.417051,19.7562212 108.784793,25.6898618 C110.451613,23.2119816 112.502765,21.1456221 114.910138,19.5248848 C117.473733,17.7990783 120.375576,16.5170507 123.782028,15.6064516 C126.538249,14.8691244 129.971889,13.9488479 133.31106,14.1723502 C138.595853,14.521659 144.302304,17.1511521 148.96682,21.3866359 C151.084332,23.3096774 152.779263,25.3626728 154.003687,27.4889401 C154.719816,28.7327189 155.481567,30.3506912 155.879263,31.7889401 C150.688479,23.1603687 142.534562,17.902765 132.696774,16.90553 M106.217512,22.1820276 C104.907834,24.8589862 104.237788,28.0852535 103.04977,30.9331797 C101.607373,34.3912442 101.492627,35.443318 100.153456,34.5313364 C100.476498,32.9875576 100.325346,31.6064516 100.472811,29.9668203 C100.788018,26.4474654 103.251613,20.6930876 106.485714,17.940553 L107.613364,19.0142857 C107.405991,19.4410138 106.425806,21.7562212 106.217512,22.1820276 M123.418433,89.7299539 C124.547926,96.4341014 127.268203,102.821198 131.284793,108.2 C132.045622,109.219816 132.811982,110.22765 133.575115,111.231797 C137.33318,116.175576 140.882949,120.8447 143.550691,126.406912 C146.42765,132.40553 148.476037,139.241475 149.996774,147.919355 C152.682949,163.25023 147.935945,177.054839 136.974194,185.794009 C130.847926,190.67788 123.870507,193.478341 115.01659,194.606912 C110.647005,195.164055 105.982949,195.718894 101.234562,195.847005 C98.9737327,195.908295 96.6866359,195.703226 94.4718894,195.505991 C92.518894,195.331797 90.5059908,195.152074 88.5036866,195.152074 C88.3202765,195.152074 88.1359447,195.153456 87.9529954,195.156682 C87.8585253,195.119355 87.7640553,195.091705 87.6658986,195.072811 C83.5917051,194.280184 80.0737327,193.380645 76.9253456,192.327189 L73.4990783,191.062673 C70.9202765,190.013825 68.5336406,188.795392 66.4009217,187.43871 C66.3345622,187.137788 66.1774194,186.881567 65.9391705,186.687558 C57.2447005,179.617512 52.4677419,171.445161 51.740553,162.397696 C50.8165899,150.906912 52.6230415,139.852535 56.9645161,130.429954 C60.2801843,123.234101 65.1488479,116.892627 69.8580645,110.759908 C71.9483871,108.037327 74.1101382,105.22212 76.1142857,102.361751 C81.3705069,94.8599078 83.0889401,85.6119816 81.2221198,74.8746544 C79.840553,66.9225806 80.4986175,60.4626728 83.2345622,55.1253456 C85.5013825,50.7018433 89.2368664,47.2064516 94.0474654,44.9986175 C96.675576,47.6949309 100.08341,48.1557604 103.011982,46.1847926 C103.628571,45.7695853 103.896313,45.0092166 103.67788,44.2930876 C103.630876,44.1410138 103.566359,44.0013825 103.484793,43.8769585 C104.170968,44.0082949 104.915668,44.2958525 105.537327,44.5354839 C105.739171,44.6133641 105.930876,44.6875576 106.109217,44.7520737 C109.210138,45.8769585 111.975576,47.6599078 114.106452,49.9073733 C118.560829,54.60553 121.641475,61.8087558 122.558986,69.6705069 C122.911982,72.6926267 122.885714,75.7778802 122.860829,78.7612903 C122.830415,82.3479263 122.799078,86.0571429 123.418433,89.7299539 M161.213825,41.9612903 C161.153456,38.2262673 161.091244,34.3635945 159.969124,30.6949309 C156.648848,19.835023 145.511982,11.1884793 133.488018,10.1345622 C129.387097,9.77511521 125.195392,10.2248848 121.368203,11.435023 C119.397235,12.0585253 117.457143,12.8935484 115.602765,13.9152074 C114.729032,14.3967742 113.85023,14.9387097 112.990323,15.5276498 C112.684332,15.7368664 112.365899,15.9981567 112.029032,16.2741935 C111.747005,16.50553 111.458525,16.7423963 111.17235,16.9516129 C110.288479,15.59447 109.129032,14.283871 107.322581,14.0465438 C105.705991,13.8345622 104.192166,14.6700461 103.070046,16.4013825 C100.576037,20.2470046 98.8465438,24.5064516 97.0663594,29.2465438 C94.0824885,24.8400922 91.0400922,21.8516129 87.2875576,19.6239631 C82.1963134,16.6009217 76.581106,15.3165899 71.2663594,14.2599078 C65.4894009,13.1119816 59.8686636,11.8963134 54.6124424,9.67096774 C51.8327189,8.49354839 49.2986175,7.07557604 47.0815668,5.45483871 C45.8202765,4.53364055 44.5917051,3.48064516 43.4304147,2.32534562 C43.2949309,2.19078341 43.1677419,2.06175115 43.0465438,1.93824885 C42.2253456,1.10368664 41.5769585,0.443778802 40.2184332,0.0594470046 C39.3801843,-0.177419355 38.5105991,0.309677419 38.2368664,1.16774194 C37.5774194,3.23087558 38.4193548,5.35668203 39.2341014,7.4124424 C39.5903226,8.3124424 39.9271889,9.16221198 40.1281106,9.97788018 C40.8497696,12.916129 41.8506912,15.6658986 43.1032258,18.1506912 C45.6248848,23.1557604 49.4313364,27.702765 54.4165899,31.6658986 C60.2207373,36.2801843 65.5248848,38.7806452 71.6152074,39.7746544 C77.0709677,40.6654378 82.9557604,41.5050691 89.5631336,42.3368664 C89.2990783,42.4778802 89.0364055,42.624424 88.7889401,42.7806452 C87.5645161,43.5529954 86.3986175,44.4225806 85.3225806,45.3658986 C83.2631336,47.1714286 81.5133641,49.3193548 80.1221198,51.7493088 C77.1179724,56.9953917 75.9036866,63.359447 76.5133641,70.6658986 C76.656682,72.3861751 76.8778802,74.1175115 77.0917051,75.7921659 C77.7419355,80.8760369 78.3557604,85.6778802 77.0645161,90.635023 C76.1543779,94.1294931 74.2940092,96.9253456 72.1359447,99.959447 C71.6576037,100.631336 71.1815668,101.304608 70.7059908,101.978341 C69.0820276,104.276959 67.4023041,106.653456 65.6682028,108.926267 L65.0133641,109.78341 C61.183871,114.797235 57.5663594,119.532719 54.7631336,125.151152 C51.9870968,130.715668 49.9663594,136.611982 48.7571429,142.676959 C45.8036866,157.492627 47.1843318,169.176959 52.978341,178.397696 C55.621659,182.603687 59.0792627,186.215207 63.2557604,189.13318 C63.5248848,189.541935 63.937788,189.818894 64.3741935,189.886636 C70.0313364,193.569124 77.1603687,196.242396 86.1571429,198.054839 C86.4142857,198.551613 86.9345622,198.890323 87.5534562,198.943779 C92.6101382,199.375115 97.7317972,199.694009 102.801843,199.694009 C113.824424,199.693548 124.596774,198.185714 133.880645,193.049309 C144.506912,187.170507 151.905069,177.261751 154.17788,165.864055 C155.572811,158.868203 154.875576,152.078341 153.399539,144.036406 C151.857143,135.635023 149.281106,128.097235 145.743318,121.632258 C143.816129,118.110599 141.369585,114.928111 139.003226,111.84977 C136.952535,109.182028 134.831797,106.423041 133.080645,103.476959 C129.639631,97.6889401 127.587097,90.8248848 127.145161,83.6267281 C127.019355,81.5829493 127.080645,79.4967742 127.139631,77.4797235 C127.199539,75.4331797 127.261751,73.3170507 127.130876,71.2239631 C126.880645,67.202765 126.112903,63.3926267 124.84977,59.9 C123.498157,56.1635945 121.565899,52.6718894 119.107373,49.5225806 C117.132258,46.9921659 114.602765,45.0700461 112.156221,43.2119816 C111.924424,43.0359447 111.692627,42.8599078 111.46129,42.6834101 C111.764516,42.5281106 112.069124,42.3718894 112.375115,42.2142857 C117.975115,39.3354839 123.762673,36.359447 129.800461,37.4331797 C133.417051,39.1571429 136.460369,41.918894 139.372811,46.1202765 C139.813364,46.7552995 140.240092,47.3986175 140.665899,48.0410138 C141.543318,49.3626728 142.45023,50.7290323 143.46682,52.0046083 C143.984332,52.6539171 144.62765,53.29447 145.250691,53.9138249 C146.426728,55.083871 147.642857,56.2940092 148.147005,57.6635945 C148.585714,58.8552995 148.623041,60.2861751 148.658525,61.6700461 C148.682488,62.583871 148.707373,63.5285714 148.845622,64.4110599 C149.210599,66.7285714 149.850691,69.0387097 150.748387,71.278341 C152.501843,75.6525346 154.816129,79.118894 158.030415,82.1875576 C158.460369,82.5976959 159.150691,82.7400922 159.748848,82.5414747 C160.282028,82.3640553 160.639171,81.9557604 160.729032,81.421659 C161.200461,78.6046083 161.160369,75.681106 161.121659,72.8539171 C161.108756,71.8866359 161.095392,70.8866359 161.102765,69.9147465 C161.140553,65.2331797 161.175576,60.5511521 161.19447,55.8691244 C161.2,54.6179724 161.209217,53.3663594 161.218433,52.1147465 C161.243318,48.7870968 161.268203,45.3460829 161.213825,41.9612903" id="Fill-1" fill="#000000"></path>
    </g>
</svg>