<?xml version="1.0" encoding="UTF-8"?>
<svg width="200px" height="200px" viewBox="0 0 200 200" version="1.1" xmlns="http://www.w3.org/2000/svg" xmlns:xlink="http://www.w3.org/1999/xlink">
    <!-- Generator: Sketch 54.1 (76490) - https://sketchapp.com -->
    <title>pesce</title>
    <desc>Created with Sketch.</desc>
    <g id="pesce" stroke="none" stroke-width="1" fill="none" fill-rule="evenodd">
        <path d="M150.894983,143.769703 C150.05538,144.750561 149.046799,145.668713 148.071881,146.557162 C147.537228,147.04363 147.003234,147.530759 146.489043,148.04363 C146.486403,148.04495 146.429637,148.054851 146.25868,148.025149 C143.469901,147.529439 140.997294,146.03769 138.898944,144.678614 C135.885083,142.726139 133.422376,140.009967 131.579472,136.604686 C129.337228,132.462772 128.974191,128.547921 130.468581,124.63769 C130.621716,124.23703 130.854059,123.854191 131.197954,123.434389 C131.926667,122.551881 131.931287,121.606667 131.210495,120.905017 C130.918746,120.620528 129.86,119.791485 128.518746,121.085875 C127.253399,122.304356 126.85736,123.913597 126.539868,125.205347 L126.469241,125.489175 C126.174851,126.670693 126.042178,127.956502 126.065281,129.468053 C126.393333,136.017888 129.292343,141.604026 134.679802,146.071353 C137.551749,148.452211 140.245479,150.032409 143.06066,150.976964 C141.297624,152.324158 139.345809,153.572343 137.241518,154.698416 C134.469901,156.181584 131.891023,157.367063 129.35703,158.322838 C125.713465,159.696436 122.6567,160.646271 119.737228,161.311617 C117.168911,161.897096 114.324026,162.33736 110.808515,162.691815 C110.75703,161.53868 110.983432,160.334719 111.203234,159.167063 C111.265941,158.833729 111.328647,158.502376 111.384752,158.171683 C111.575512,157.062772 111.753729,155.951221 111.931947,154.83967 C112.35769,152.184884 112.797954,149.43901 113.410495,146.782244 C114.409835,142.448251 115.65736,137.753201 117.224356,132.429109 C118.812475,127.031749 120.848779,121.722178 122.812475,116.787525 L123.2567,115.670033 C124.718086,111.990825 126.228977,108.186205 128.002574,104.604686 C128.603234,103.392805 129.188713,102.173003 129.773531,100.952541 C131.279142,97.8152475 132.835578,94.5710231 134.632277,91.5406601 C135.698284,89.7433003 136.666601,87.8720132 137.603234,86.0621122 L138.298944,84.7215182 C138.806535,83.7505611 139.441518,82.7987459 140.05934,81.8739934 C140.635578,81.0119472 141.230297,80.120198 141.75637,79.1683828 C143.154389,76.6376898 144.813795,74.1723432 146.419076,71.7888449 C146.704884,71.3637624 146.990693,70.9386799 147.276502,70.5129373 C151.682442,74.4845545 154.673861,77.8838944 156.948449,81.4990759 C159.644818,85.7842244 161.546469,90.590165 162.600594,95.7835644 C163.366271,99.5571617 163.850099,102.883234 164.081122,105.950561 C164.410495,110.33868 164.220396,114.197426 163.499604,117.747921 C162.96165,120.401386 162.405215,122.986205 161.522046,125.43703 C159.704884,130.485215 157.737228,134.416568 155.329307,137.812607 L154.633597,138.798086 C153.450759,140.477294 152.226997,142.213927 150.894983,143.769703 L150.894983,143.769703 Z M13.4626403,96.930099 C16.6368977,96.7426403 19.8421782,96.650231 22.2857426,96.6706931 C27.4157756,96.6046865 31.9167657,96.9281188 36.2666007,97.24033 L36.9675908,97.290495 C37.0434983,97.2957756 37.2461386,97.310297 37.320066,97.3353795 C37.7345875,97.4779538 38.1590099,97.499736 38.5042244,97.5175578 C38.5227063,97.5188779 38.5405281,97.519538 38.5583498,97.5208581 C38.5847525,97.9571617 38.499604,98.4706931 38.3748515,99.0350495 C37.489703,99.1749835 36.6038944,99.310297 35.7174257,99.4456106 L35.5867327,99.4654125 C33.329967,99.8086469 30.9966337,100.163762 28.7068647,100.603366 C26.3471287,101.056172 24.2250165,101.384224 22.220396,101.605347 C16.9761716,102.186865 12.7669307,101.215248 9.35306931,98.6310891 C8.9220462,98.3050165 8.51808581,97.910297 8.10158416,97.4871947 C9.80653465,97.2581518 11.6626403,97.0376898 13.4626403,96.930099 L13.4626403,96.930099 Z M30.0956436,70.559802 C30.680462,69.6594719 30.5108251,68.7373597 29.5972937,67.8251485 L28.9233663,67.1333993 C27.3035644,65.4693729 25.7728713,63.8977558 24.6236964,61.9862046 C23.0751815,59.4086469 22.1372277,56.959802 21.7682508,54.5254785 C21.8157756,54.5776238 21.8633003,54.6291089 21.9108251,54.6805941 C25.0514191,58.0687129 27.6580198,60.499736 30.3623102,62.5631023 C31.2151155,63.2139274 32.0514191,63.9485809 32.8672607,64.6654125 C33.8283168,65.5089769 34.8217162,66.3822442 35.8963036,67.1683828 C36.7174257,67.7690429 37.5339274,68.3763036 38.3510891,68.9829043 C40.7312871,70.7518812 43.1920132,72.580264 45.750429,74.23967 C45.8065347,74.2753135 45.9068647,74.3413201 46.0144554,74.4132673 C45.9715512,74.4733333 45.9220462,74.5419802 45.8646205,74.619868 C44.9425083,75.8726733 44.3227063,77.2376898 43.729967,78.5677228 C39.3543894,76.6046865 34.8824422,75.1135974 30.3068647,73.6343894 C26.5576898,72.4238284 22.6071947,71.1862046 18.5418482,70.2535314 C21.8712211,69.9439604 24.7689109,70.2574917 27.3834323,71.2093069 L27.609835,70.5888449 L27.3854125,71.209967 C28.6124752,71.6568317 29.5233663,71.4390099 30.0956436,70.559802 L30.0956436,70.559802 Z M95.3147855,49.7914851 C94.8316172,49.7848845 94.329967,49.7769637 93.8164356,49.8093069 C93.8111551,49.809967 93.8052145,49.809967 93.799934,49.809967 C93.7946535,49.7862046 93.7893729,49.7558416 93.7840924,49.720198 C93.6718812,48.9875248 93.6751815,48.2409901 93.7920132,47.4911551 C94.5959736,48.1947855 95.4441584,48.9670627 96.2672607,49.7954455 L95.3147855,49.7914851 Z M105.745149,46.5340594 C106.831617,47.8508911 107.778152,49.3188779 108.678482,50.7868647 C108.580132,50.770363 108.482442,50.7532013 108.385413,50.7366997 C106.678482,50.4409901 105.066601,50.1624422 103.379472,50.1624422 L103.102904,50.1644224 C101.475182,50.1835644 100.623036,49.5089769 99.5873927,48.2475908 C98.419736,46.8251485 96.9312871,45.4581518 95.1642904,44.1848845 C95.1121452,44.1479208 95.0712211,44.1168977 95.039538,44.0911551 C95.0487789,44.0766337 95.0580198,44.060132 95.0692409,44.0423102 C96.1405281,42.3188779 97.2494389,41.3149175 98.7774917,40.6858746 C99.6890429,40.309637 99.8514191,40.4020462 100.449439,41.1472607 C101.321386,42.2357096 102.319406,43.1584818 103.289043,44.0548515 C104.140528,44.8416502 105.021056,45.6561716 105.745149,46.5340594 L105.745149,46.5340594 Z M119.35901,51.120198 C119.607855,51.6852145 119.833597,52.279934 120.050099,52.8766337 C117.947129,52.3492409 115.652739,51.8020462 113.343828,51.4264686 C113.315446,51.4218482 113.294323,51.4165677 113.278482,51.4126073 C111.275182,47.949901 108.945149,44.8251485 106.353729,42.1254785 C105.589373,41.3294389 104.819076,40.5380198 104.048779,39.7472607 L103.613795,39.299736 C103.674521,39.2964356 103.731947,39.2990759 103.782772,39.3083168 L103.985413,39.3466007 L104.188713,39.3208581 C104.867261,39.2376898 105.531947,39.3829043 106.302904,39.5525413 L106.327327,39.5578218 C106.582772,39.6139274 106.836238,39.6687129 107.090363,39.7162376 C107.808515,39.8489109 108.493003,39.870033 109.16429,39.8911551 C109.843498,39.9122772 110.485083,39.9314191 111.070561,40.0739934 C112.586733,40.4423102 113.478482,41.589505 114.485743,43.0508911 C115.150429,44.0132673 115.914785,44.9974257 116.824356,46.060132 C117.713465,47.099736 118.242178,48.4046865 118.801914,49.7855446 C118.983432,50.2330693 119.16495,50.679934 119.35901,51.120198 L119.35901,51.120198 Z M126.806535,55.0937954 C126.043498,54.830429 125.280462,54.5664026 124.514785,54.310297 C124.487063,54.300396 124.46462,54.2924752 124.446799,54.2858746 C124.047459,52.5716832 123.183432,51.1327393 122.347789,49.7406601 C121.830297,48.8792739 121.524686,47.899736 121.200594,46.8607921 L121.06396,46.4244884 C120.784752,45.5433003 120.345809,44.8178878 119.850759,44.1538614 C122.051419,45.3637624 123.939208,47.3043564 125.834257,50.2713531 C127.022376,52.130099 127.999274,54.0937954 128.769571,55.7670627 C128.114125,55.5459406 127.46066,55.319538 126.806535,55.0937954 L126.806535,55.0937954 Z M42.2520792,81.9848845 C41.7510891,83.219868 41.3253465,84.4812541 40.9134653,85.700396 L40.6791419,86.3908251 L39.4712211,86.0911551 C38.2520792,85.7881848 37.0230363,85.4832343 35.7939934,85.1835644 C31.5847525,84.1578218 28.110165,83.449571 24.8586799,82.9545215 C23.9088449,82.809967 22.939868,82.6086469 22.0025743,82.4145875 C21.2032343,82.2489109 20.4038944,82.0832343 19.599934,81.9452805 L18.8131353,81.8106271 C14.339868,81.0409901 9.72138614,80.2462706 4.98805281,80.1578218 C5.24349835,79.4258086 5.69762376,78.7248185 6.20983498,77.9340594 C7.46462046,75.9974257 8.75636964,74.1723432 10.7510891,73.1294389 C11.3187459,72.8330693 11.75967,72.7518812 12.2745215,72.849571 C17.0461386,73.7472607 22.0217162,75.0119472 27.0626403,76.6079868 C31.5748515,78.0370297 36.9075248,79.7928053 42.2467987,81.9829043 C42.2487789,81.9835644 42.2507591,81.9842244 42.2520792,81.9848845 L42.2520792,81.9848845 Z M50.7893729,66.9030363 C50.9860726,67.0779538 51.1827723,67.229769 51.3755116,67.3716832 C50.2269967,68.5650825 49.0672607,69.8073267 48.1147855,71.260132 C46.7319472,70.3314191 45.3557096,69.3433003 44.0223762,68.3848845 C43.4837624,67.9974257 42.9444884,67.6106271 42.4032343,67.2258086 C37.9246865,64.0423102 33.3227063,60.3274587 28.3332673,55.870033 C26.2850825,54.03967 24.3392079,52.0060066 22.3557096,49.6165677 C22.35967,49.6020462 22.3649505,49.5848845 22.3715512,49.5650825 C22.9781518,47.6548515 23.9834323,45.8865347 25.4454785,44.1591419 C25.7141254,43.8409901 25.9715512,43.5135974 26.229637,43.1855446 C26.8342574,42.4152475 27.409835,41.6819142 28.1154455,41.1294389 C30.0151155,44.2145875 32.2679208,47.0581518 34.4507591,49.8126073 L34.7114851,50.1419802 C37.1015842,53.1584818 39.7022442,55.9644224 42.3781518,58.8119472 C44.7854125,61.3723432 47.4580198,63.9433003 50.7893729,66.9030363 L50.7893729,66.9030363 Z M54.4910231,64.4832343 L54.1656106,64.789505 C51.6223762,62.6911551 49.309505,60.4317492 46.7708911,57.9122772 C41.9557096,53.1340594 37.3992739,47.9030363 33.2289769,42.3637624 C32.690363,41.6482508 32.1761716,40.8687129 31.6705611,40.1030363 C31.46,39.7848845 31.250099,39.4660726 31.0368977,39.149901 C33.3530693,37.7829043 36.6573597,36.9366997 39.7385479,36.9366997 L39.8666007,36.9393399 C40.0243564,36.9419802 40.1807921,36.9439604 40.3392079,36.9347195 C41.5444884,36.8535314 41.9669307,37.1307591 42.4916832,38.330099 C45.0593399,44.1954455 48.3959736,49.9921452 52.410495,55.5591419 C52.9438284,56.2984158 53.4646205,57.0456106 53.9860726,57.7934653 C55.0052145,59.2535314 56.0540594,60.7578218 57.1933333,62.200066 C56.1847525,62.8825743 55.3266667,63.6937954 54.4910231,64.4832343 L54.4910231,64.4832343 Z M60.2626403,60.1076568 C60.1662706,59.9868647 60.0448185,59.8284488 59.899604,59.6330693 C58.9794719,58.3987459 58.0778218,57.1135974 57.2058746,55.8713531 C56.4355776,54.7730033 55.6652805,53.6753135 54.8718812,52.5941254 C52.2989439,49.0858746 49.8817822,45.2159076 47.480462,40.759802 L47.0989439,40.0574917 C46.7649505,39.4469307 46.4250165,38.8238284 46.1121452,38.1921452 C49.100264,39.4429703 51.3788119,41.4007261 53.050099,44.1426403 C55.3332673,47.8885149 57.1471287,51.990165 58.9035644,55.960462 L59.499604,57.3063366 C59.7220462,57.8066667 59.970231,58.2957756 60.2190759,58.7855446 C60.3675908,59.0779538 60.5167657,59.3710231 60.6593399,59.6673927 C60.680462,59.7116172 60.7009241,59.7558416 60.720066,59.8013861 C60.5781518,59.8977558 60.4091749,60.0119472 60.2626403,60.1076568 L60.2626403,60.1076568 Z M10.4672607,93.4409901 L10.3339274,93.4528713 C8.9279868,93.5743234 7.47452145,93.700396 6.01841584,94.0805941 C5.88772277,94.1149175 5.66660066,94.1723432 5.54052805,94.1914851 C5.46132013,94.0627723 5.33788779,93.7921452 5.25933993,93.6185479 C3.90884488,90.6462706 3.48376238,87.4594719 3.9959736,84.1452805 C4.00521452,84.0858746 4.02039604,83.9875248 4.03755776,83.8832343 C4.13524752,83.8825743 4.23425743,83.8819142 4.31544554,83.8819142 C7.47518152,83.9314191 10.8368977,84.2786139 14.5926733,84.9446205 L15.8058746,85.1591419 C20.6725413,86.0211881 25.7042244,86.9122772 30.630297,87.8766337 C32.4936634,88.2416502 34.3867327,88.6964356 36.2243564,89.1380198 C37.3669307,89.4132673 38.510165,89.6878548 39.6566997,89.9446205 C39.3524092,91.030429 39.009835,92.4020462 38.8560396,93.8654125 C34.7860726,93.2324092 30.6692409,93.1617822 26.6811221,93.0937954 L25.2883828,93.0693729 C19.2870627,92.9571617 14.7154455,93.0713531 10.4672607,93.4409901 L10.4672607,93.4409901 Z M51.4329373,131.324158 C49.6019142,128.64363 48.1029043,125.957822 46.850099,123.112937 C45.709505,120.520858 44.9055446,117.725479 44.1286469,115.023168 L43.9524092,114.410627 C42.8118152,110.456172 42.3728713,106.349241 42.0217162,102.481914 C41.9873927,102.105017 41.9979538,101.699736 42.0078548,101.270033 C42.0131353,101.052871 42.0184158,100.83637 42.0184158,100.64297 C42.2085149,95.5069967 43.1141254,90.769703 44.7867327,86.1617822 C45.9048845,83.0819142 47.1484488,79.8291089 48.9708911,76.8957756 C51.2817822,73.1776238 53.7359076,70.1875248 56.4738614,67.7558416 C58.7920132,65.6964356 61.0824422,63.9987459 63.4745215,62.5657426 C67.3332673,60.2541914 70.8573597,58.5327393 74.2467987,57.3017162 C78.5121452,55.7525413 83.0382178,54.6284488 88.0831023,53.8654125 C90.1761716,53.5492409 91.7649505,53.349901 93.2335974,53.2185479 C93.76033,53.1710231 94.2956436,53.1512211 94.8349175,53.1512211 C96.0137954,53.1512211 97.2065347,53.2462706 98.3491089,53.3565017 C99.2276568,53.4416502 100.104884,53.4885149 100.953729,53.5333993 C102.075842,53.5928053 103.236238,53.6541914 104.35505,53.8060066 L105.709505,53.9881848 C110.55571,54.6383498 115.567591,55.3109571 120.298284,56.7353795 C123.979472,57.8442904 128.784752,59.3848845 133.312805,61.4772937 C137.734587,63.520198 141.190033,65.5637624 144.187393,67.9089769 L144.241518,67.9512211 C144.289043,67.9881848 144.340528,68.0284488 144.392673,68.0693729 C144.353069,68.1274587 144.314125,68.1835644 144.280462,68.2330693 L144.239538,68.2911551 C142.55901,70.7261386 140.975512,73.2647525 139.439538,75.7274587 L139.383432,75.8172277 C138.774191,76.7934653 138.16429,77.769703 137.548449,78.7413201 C134.285083,83.8832343 131.498284,89.3670627 129.037558,94.2079868 C125.514125,101.14264 123.011155,106.561122 120.922046,111.778944 C119.009175,116.554521 117.300264,120.871353 115.75835,125.34 C114.342508,129.44363 113.15769,133.266073 112.134587,137.025809 C110.848779,141.753201 109.879142,145.945941 109.170891,149.84429 L109.023036,150.658812 C108.300924,154.621188 107.55505,158.716898 107.209175,162.83769 C103.16231,162.702376 99.2137954,162.150561 95.4712211,161.195446 L94.4329373,160.932079 C92.0223762,160.322838 89.5286469,159.691815 87.1794719,158.824488 C83.8626403,157.600066 80.6223762,155.986205 77.4844224,154.423168 L76.9847525,154.174323 C72.1662706,151.774983 68.010495,148.464092 64.1662706,145.277954 C60.5788119,142.304356 58.0375578,139.83505 55.9266667,137.272013 C54.2329373,135.215908 52.7629703,133.270693 51.4329373,131.324158 L51.4329373,131.324158 Z M52.9484488,139.419208 C52.9524092,139.423168 52.9563696,139.427789 52.95967,139.432409 C54.3359076,141.067393 55.8494389,142.656832 57.4613201,144.159142 C55.7675908,145.732079 53.770231,147.133399 51.3649505,148.43637 C51.3260066,148.456832 51.2177558,148.487855 51.1114851,148.515578 C48.8824422,146.932739 47.3240264,145.154521 46.3623102,143.093795 C48.500264,142.400066 50.5524092,141.252871 52.9484488,139.419208 L52.9484488,139.419208 Z M45.3906931,138.821848 L45.3920132,138.266733 C45.3068647,135.974323 45.9055446,133.786205 47.2190759,131.605347 C48.2441584,133.285875 49.4217162,134.93604 50.729967,136.526139 C48.7213861,137.981584 47.0514191,138.947921 45.390033,139.615908 C45.3867327,139.351881 45.3887129,139.087195 45.3906931,138.821848 L45.3906931,138.821848 Z M58.1563696,148.385545 L58.5029043,148.107657 C59.0527393,147.668713 59.6190759,147.217228 60.1405281,146.666733 C60.5062046,146.969703 60.8718812,147.272013 61.2375578,147.574323 C61.869901,148.097096 62.5029043,148.619868 63.1319472,149.147261 C60.5689109,150.325479 58.06,150.683234 55.520066,150.229109 C56.4289769,149.663432 57.3128053,149.068053 58.1563696,148.385545 L58.1563696,148.385545 Z M167.518086,115.03637 C168.185413,108.54264 167.753729,101.74 166.197294,94.23967 C164.818416,87.590165 162.050759,81.5505611 157.971551,76.289835 C154.624356,71.9723432 150.681122,68.0627723 146.250759,64.6680528 C142.867921,62.0759736 138.86066,59.8357096 133.638218,57.6178878 C133.320066,57.4825743 133.276502,57.3954455 133.226997,57.2528713 C132.279802,54.5413201 130.981452,51.9142574 129.2567,49.2211881 C127.873861,47.0621122 126.172871,44.9987459 123.902904,42.7281188 C122.493663,41.3188779 120.826997,40.4561716 119.214455,39.6231683 L119.140528,39.5842244 C118.891023,39.4555116 118.642178,39.3261386 118.395974,39.1961056 C118.089703,39.0337294 117.776832,38.819868 117.445479,38.5928053 C116.629637,38.0357096 115.704884,37.4040264 114.493663,37.2746535 C113.76495,37.1974257 113.040858,37.0416502 112.265281,36.8739934 C111.143168,36.6317492 109.983432,36.3809241 108.712145,36.359802 C108.026997,36.3492409 107.334587,36.270033 106.598614,36.1862046 C105.069901,36.0126073 103.488383,35.8324092 101.782772,36.2416502 C101.533927,36.300396 101.282442,36.3584818 101.030297,36.4159076 C99.4732013,36.7710231 97.8633003,37.1386799 96.4877228,38.0429703 C91.9689109,41.0139274 89.8817822,45.0152475 90.2824422,49.9961056 C88.6593399,50.119538 87.079802,50.4211881 85.5240264,50.7188779 C84.7326073,50.870033 83.9405281,51.0211881 83.1438284,51.1466007 C77.8527393,51.979604 72.9332673,53.8291089 69.2388779,55.3466007 C67.3689109,56.1155776 65.5840924,57.0383498 64.0151155,57.8819142 C63.7972937,57.3809241 63.5464686,56.910297 63.2976238,56.4423102 C63.1431683,56.1518812 62.9880528,55.8614521 62.8454785,55.5650825 C62.3735314,54.5868647 61.9114851,53.6020462 61.4494389,52.6185479 C59.7906931,49.0845545 58.0758416,45.430429 55.8791419,42.0442904 C53.9906931,39.1340594 51.3213861,36.879934 47.9451485,35.3439604 C44.6190759,33.8310891 40.9326073,33.3340594 36.9893729,33.8667327 C34.3464686,34.2244884 32.3642904,34.7631023 30.5629703,35.6132673 C26.9781518,37.3056766 24.0527393,39.8310891 21.620396,43.3327393 C19.8679208,45.8548515 18.790033,48.299736 18.3246865,50.8060066 C17.2963036,56.3479208 19.5590099,60.9716832 21.6454785,64.3815842 C22.0745215,65.0819142 22.5418482,65.7617822 23.0434983,66.4126073 C19.2566997,66.03967 15.9108251,66.4772937 12.8573597,67.7426403 C10.4652805,68.7333993 7.96363036,69.8746535 5.97617162,71.9512211 C2.86,75.2086469 0.951089109,79.009967 0.303564356,83.249571 C-0.0845544554,85.7921452 -0.10039604,88.0343894 0.256039604,90.1056766 C0.948448845,94.1307591 2.59993399,97.3637624 5.30356436,99.9875248 C8.28376238,102.879274 11.6666007,104.576304 15.6461386,105.176964 C19.1986139,105.714257 22.6118152,105.377624 26.6421782,104.706337 C28.7108251,104.362442 30.7748515,103.994125 32.8388779,103.625809 L32.9405281,103.607327 C34.5081848,103.327459 36.0751815,103.047591 37.6494389,102.776964 C37.9972937,102.717558 38.2441584,102.681254 38.4170957,102.659472 C38.4514191,102.94264 38.4784818,103.300396 38.489703,103.456832 C38.7009241,106.326139 39.0652805,110.099076 40.0190759,113.830429 C41.1411881,118.225149 42.6316172,123.365083 45.1722112,128.163102 C45.1755116,128.170363 45.1788119,128.176304 45.1821122,128.182904 C44.0527393,129.695116 42.8289769,131.550561 42.2487789,133.863432 C41.5662706,136.584884 41.4844224,139.03703 41.9979538,141.360462 C42.8256766,145.099736 44.8659406,148.267393 48.2342574,151.04495 C50.7543894,153.121518 53.8210561,154.108977 57.6322772,154.064752 C60.9385479,154.025149 63.8349175,153.211947 66.2494389,151.647591 C69.2243564,153.983564 72.700264,156.13604 76.8679208,158.223168 C79.6916832,159.63835 83.4415182,161.426469 87.4019142,162.710297 C89.6467987,163.43835 92.0388779,164.093135 94.7141254,164.712277 C98.3227063,165.548581 102.633597,166.403366 107.245479,166.403366 C107.786733,166.403366 108.331947,166.391485 108.879142,166.366403 C114.883102,166.092475 120.720726,165.03967 126.228977,163.23769 C130.483762,161.845611 134.275842,160.305017 137.821056,158.527459 C141.454719,156.706337 144.978152,154.248911 148.909505,150.796106 C153.785413,146.512937 157.918086,141.253531 161.193333,135.165743 C164.685083,128.673333 166.813135,121.901056 167.518086,115.03637 L167.518086,115.03637 Z" id="Fill-1" fill="#000000"></path>
        <path d="M196.010561,127.571221 C196.034983,130.545479 195.040264,133.139538 193.133993,135.072211 C191.29637,136.934917 188.70033,138.011485 185.952475,138.026007 C183.192739,138.025347 180.620462,136.977162 178.709571,135.074851 C176.79868,133.171881 175.747855,130.622046 175.750495,127.900594 C175.780198,125.285413 176.848185,122.825347 178.757756,120.973201 C180.745215,119.046469 183.379538,117.993663 186.19868,117.993663 C186.275248,117.993663 186.353135,117.994323 186.429703,117.996304 L186.430363,117.996304 C191.759076,118.100594 195.966997,122.306535 196.010561,127.571221 M186.967657,114.469571 C183.005941,114.279472 179.267327,115.623366 176.444224,118.26297 C173.790759,120.743498 172.232343,124.146139 172.167657,127.597624 C172.09769,131.406865 173.408581,134.800924 175.959736,137.411485 C178.543234,140.05703 182.155116,141.584422 185.871287,141.603564 L185.992079,141.604224 C193.463366,141.603564 199.432343,135.726997 199.581518,128.225347 C199.752475,119.608845 193.365677,114.783762 186.967657,114.469571" id="Fill-4" fill="#000000"></path>
        <path d="M176.995314,72.4676568 C177.079802,70.2993399 178.8567,67.9594059 181.580132,67.9594059 L181.704224,67.9607261 C182.86264,67.990429 183.893663,68.4267327 184.607195,69.189769 C185.242178,69.8683168 185.571551,70.7356436 185.534587,71.6326733 C185.425017,74.2584158 183.479142,75.9976898 180.595974,76.0636964 C179.610495,76.0551155 178.647459,75.6333333 177.953729,74.9072607 C177.300924,74.2247525 176.96099,73.3580858 176.995314,72.4676568 M177.905545,79.3627063 C178.799934,79.6907591 179.75703,79.8570957 180.749109,79.8570957 C182.607855,79.8570957 184.477822,79.2610561 186.015116,78.1785479 C188.138548,76.6834983 189.351089,74.4524752 189.341188,72.1006601 C189.527327,69.1488449 188.320726,66.8630363 185.754389,65.3072607 C181.635578,62.8082508 176.55901,64.7891089 174.403234,68.2075908 C173.043498,70.3633663 172.700924,72.7435644 173.438878,74.9085809 C174.135248,76.9541254 175.76363,78.5772277 177.905545,79.3627063" id="Fill-7" fill="#000000"></path>
        <path d="M172.32363,148.449373 C172.340792,151.525281 170.148713,153.759604 166.868845,154.009769 C165.769835,154.095578 164.332871,153.537162 163.298548,152.62495 C162.51769,151.935842 161.567855,150.714059 161.474785,148.805149 C161.341452,146.081056 163.630561,143.51868 166.374455,143.32198 C166.508449,143.312079 166.643102,143.307459 166.777096,143.307459 C168.211419,143.307459 169.580396,143.839472 170.632541,144.805149 C171.702508,145.786667 172.303168,147.083036 172.32363,148.449373 M166.91967,139.691617 C164.503828,139.665875 162.11967,140.669175 160.365215,142.463894 C158.676106,144.191287 157.794257,146.41835 157.882046,148.691617 C157.760594,153.232211 161.680726,157.388647 166.272145,157.587327 C166.4233,157.593927 166.573795,157.597228 166.72363,157.597228 C169.161914,157.596568 171.446403,156.727921 173.156634,155.150363 C174.887327,153.554323 175.888647,151.388647 175.977096,149.051353 C176.068845,146.591287 175.21604,144.281056 173.574455,142.545083 C171.880066,140.752343 169.51769,139.739802 166.91967,139.691617" id="Fill-9" fill="#000000"></path>
        <path d="M151.139934,101.080264 C151.231023,101.377954 151.264026,101.751551 151.29967,102.148911 C151.387459,103.127789 151.49571,104.345611 152.527393,105.377954 C153.129373,105.979934 153.873267,106.306667 154.634983,106.316568 C153.433003,108.106007 151.866667,108.905347 149.842244,108.754191 C147.584158,108.589175 146.147195,107.521188 145.448185,105.488845 C144.629703,103.109307 145.975578,100.551551 148.579538,99.5383498 L148.579538,99.5383498 C149.225743,99.2868647 149.881848,99.1588119 150.531353,99.1588119 C150.878548,99.1588119 151.228383,99.1957756 151.577558,99.2677228 C151.258086,99.6333993 150.885149,100.247261 151.139934,101.080264 M159.0033,103.814917 C158.951155,99.0116172 155.552475,95.6162376 150.736634,95.5574917 L150.731353,95.5574917 C148.163036,95.5687129 145.720132,96.5244884 144.015182,98.2386799 C142.406601,99.8565017 141.541914,101.983234 141.580858,104.226139 C141.619802,106.426799 142.591419,108.568053 144.247525,110.102046 C145.749175,111.494785 147.679208,112.261122 149.680528,112.261122 C149.829043,112.261122 149.978218,112.257162 150.091749,112.249901 C152.660066,112.245281 154.99538,111.311287 156.667987,109.620858 C158.19736,108.075644 159.026403,106.013597 159.0033,103.814917" id="Fill-11" fill="#000000"></path>
    </g>
</svg>