<?xml version="1.0" encoding="UTF-8"?>
<svg width="200px" height="200px" viewBox="0 0 200 200" version="1.1" xmlns="http://www.w3.org/2000/svg" xmlns:xlink="http://www.w3.org/1999/xlink">
    <!-- Generator: Sketch 54.1 (76490) - https://sketchapp.com -->
    <title>sole</title>
    <desc>Created with Sketch.</desc>
    <g id="sole" stroke="none" stroke-width="1" fill="none" fill-rule="evenodd">
        <path d="M174.189848,121.934626 C170.208788,121.757533 166.092121,121.572511 162.053485,121.929339 C155.913333,122.473833 152.001212,125.551366 150.42697,131.075595 C150.00803,132.54696 149.615606,134.63859 150.132273,136.25533 C152.000455,142.109075 155.389091,146.807753 158.772424,151.013921 C160.165606,152.744317 161.48303,154.548722 162.844394,156.441233 C160.873182,155.194537 158.977727,154.014802 157.016364,152.941674 C151.479242,149.909075 144.047424,146.551366 135.737576,147.418326 C131.670152,147.847401 128.495909,150.973392 127.454242,155.576916 C126.263333,160.835066 127.318636,165.787489 128.340606,170.576035 C128.401212,170.859736 128.461818,171.142555 128.520909,171.425374 C128.167121,170.933744 127.815606,170.439471 127.463333,169.94696 C125.573182,167.292335 123.618636,164.547841 121.376212,162.203348 C114.741364,155.269427 106.83,153.053568 98.5004545,155.7963 C94.7080303,157.044758 91.9625758,160.635947 90.560303,166.180441 C90.03,168.273833 89.5739394,170.391013 89.1178788,172.509075 C88.9345455,170.750485 88.6815152,169.069427 88.1307576,167.471189 C85.4731818,159.759295 80.7383333,155.58837 74.8527273,155.58837 C73.7254545,155.58837 72.5542424,155.741674 71.3489394,156.052687 C67.4284848,157.064141 64.2527273,159.609515 61.1822727,162.069427 L60.5413636,162.583084 C59.5724242,163.355771 58.6587879,164.175154 57.7337879,165.031542 C58.3837879,163.402467 59.0163636,161.731101 59.5027273,160.013921 C60.4943939,156.510837 60.9921212,153.643877 61.0678788,150.991894 C61.1936364,146.728458 58.5375758,144.012159 53.7830303,143.539031 C48.6830303,143.039471 44.0436364,145.183965 39.5580303,147.265022 L39.0277273,147.510837 C38.1656061,147.909956 37.3186364,148.35489 36.4663636,148.802467 C36.1512121,148.967225 35.8330303,149.134626 35.5118182,149.299383 C36.4845455,148.146079 37.4860606,147.001586 38.5337879,145.975154 C41.7709091,142.799824 43.5595455,138.776035 43.5693939,134.643877 C43.5769697,130.832423 41.7527273,127.173392 38.5625758,124.60511 C34.2754545,121.153128 29.3815152,120.682643 24.6489394,120.227137 C23.9640909,120.161938 23.2784848,120.095859 22.5959091,120.020969 C20.8201515,119.826256 19.0368182,119.72141 17.1769697,119.626256 C17.6368182,119.420969 18.0959091,119.216564 18.5527273,119.013921 C22.58,117.218326 26.385303,115.523172 30.1398485,113.5637 C33.4565152,111.833304 37.9890909,108.815683 39.0542424,102.613921 C39.4406061,100.367225 38.2837879,97.2923348 36.9906061,95.7319824 C35.1731818,93.540793 32.7837879,91.7513656 30.4360606,90.8244934 C27.0443939,89.4852863 23.6337879,88.48 20.0224242,87.4156828 C19.6201515,87.2976211 19.2163636,87.1777974 18.8125758,87.0588546 C19.53,86.8465198 20.2337879,86.6755947 20.9383333,86.5927753 C25.6890909,86.0324229 30.1368182,83.8315419 34.9337879,79.6676652 C37.3913636,77.5337445 38.7284848,74.3117181 38.6004545,70.8306608 C38.5519697,69.5134802 38.2883333,68.2359471 37.8383333,67.0518062 C37.0883333,65.0773568 35.8201515,63.3628194 34.1648485,62.1672247 C32.1171212,60.6870485 30.0906061,59.172511 27.9883333,57.6007048 C29.4898485,57.7945374 30.9595455,57.987489 32.4277273,58.1910132 L33.5216667,58.3513656 C36.3610606,58.7786784 39.3012121,59.219207 42.2231818,57.6553304 C47.7512121,54.6896916 49.4807576,51.1293392 48.3936364,44.9584141 C47.560303,40.2200881 45.6451515,35.6694273 42.5383333,31.0429956 C41.5898485,29.6315419 40.7398485,28.1214097 39.9337879,26.5522467 C40.6580303,27.1390308 41.399697,27.7125991 42.1610606,28.2421145 L44.5572727,29.9143612 C48.155,32.4315419 51.8754545,35.034185 55.6959091,37.2614978 C58.6822727,39.0042291 62.9474242,38.5002643 66.0640909,36.0403524 C68.9527273,33.757533 70.3792424,30.3055507 70.0792424,26.3214097 C69.9398485,24.4720705 69.7951515,22.1592952 69.7898485,19.5751542 C70.3292424,20.3319824 70.8656061,21.0923348 71.3928788,21.8614978 C72.48,23.449163 73.6898485,25.0764758 75.0974242,26.5637004 C77.4428788,29.0421145 80.3337879,31.1328634 84.1080303,32.003348 C84.2618182,32.0385903 84.4254545,32.0544493 84.5860606,32.0782379 C88.9125758,32.7187665 95.4239394,29.1214097 97.360303,24.9011454 C98.2368182,22.98837 98.8595455,20.9848458 99.5087879,18.8703084 C99.8178788,20.2667841 100.15803,21.6835242 100.63303,23.0350661 C101.623939,25.8553304 102.636061,27.9496035 103.819394,29.6236123 C106.789091,33.8288987 112.904242,34.6465198 117.739091,31.4835242 C121.838333,28.8051101 125.242879,25.2888106 129.094394,20.834185 C129.611061,20.2377093 130.160303,19.649163 130.748182,19.0659031 C130.603485,19.3769163 130.466364,19.6923348 130.336818,20.0130396 L129.486818,22.1125991 C128.160303,25.3557709 126.788333,28.710837 126.003485,32.2315419 C125.058788,36.4632599 127.029242,40.218326 131.144394,42.0324229 C135.852727,44.1055507 140.273182,42.6165639 144.349697,40.6985022 C146.907273,39.494978 149.354242,37.9161233 151.720152,36.3892511 C152.218636,36.0685463 152.717121,35.7469604 153.215606,35.4288987 C152.230758,36.9672247 151.299697,38.464141 150.455,40.0421145 C148.224697,44.2095154 147.915606,48.3637004 149.583788,51.7363877 C150.745152,54.0879295 153.27697,55.6139207 155.08,56.556652 C157.313333,57.7249339 159.756515,58.0324229 161.412576,58.0844053 C163.032273,58.1337445 164.664848,58.1346256 166.289091,58.1125991 C167.912576,58.0896916 169.529242,58.0429956 171.117879,57.9962996 C171.492121,57.9866079 171.866364,57.9751542 172.240606,57.9654626 C172.001212,58.0808811 171.760303,58.1945374 171.519394,58.3046696 C167.033788,60.3337445 163.348182,63.8077533 160.253485,68.9249339 C158.888333,71.1822026 158.445909,74.0518062 159.039848,76.7971806 C159.667121,79.695859 161.364091,82.1381498 163.695152,83.495859 C167.864091,85.926696 172.436818,87.7020264 177.578485,88.8985022 C176.639091,89.0350661 175.697424,89.1892511 174.764091,89.372511 C168.639848,90.5830837 164.269394,92.9231718 161.009545,96.7390308 C157.403485,100.959295 157.234545,104.873833 160.461061,109.42978 C162.912576,112.893216 166.175455,115.551366 171.038333,118.051806 L178.967879,122.115242 C177.376212,122.077357 175.783788,122.005991 174.189848,121.934626 M198.848939,88.7469604 C198.748182,88.6940969 198.649697,88.6297797 198.550455,88.5663436 C198.243636,88.37163 197.897424,88.1522467 197.468636,88.0773568 L194.043636,87.4764758 C190.667879,86.8782379 187.17697,86.2588546 183.718636,85.8103965 C177.287576,84.9786784 170.498939,83.6297797 164.427727,79.4421145 C163.161818,78.5698678 162.259545,77.2051101 161.951212,75.6985022 C161.689091,74.4218502 161.873182,73.1601762 162.481515,72.0500441 C163.742121,69.7513656 165.468636,66.6042291 167.643636,64.9557709 C171.259545,62.2139207 175.398182,59.7513656 180.295152,57.4271366 C183.855,55.7363877 187.591364,54.3011454 191.205758,52.9125991 C193.067879,52.1962996 194.930758,51.48 196.78,50.7284581 C197.296667,50.5178855 197.714848,50.1434361 198.083788,49.8121586 C198.223939,49.6861674 198.363333,49.5592952 198.506515,49.4474009 C198.869394,49.1637004 199.003485,48.619207 198.826212,48.1557709 L198.586818,47.5284581 C198.420909,47.094978 198.023939,46.8350661 197.619394,46.9214097 C197.199697,47.002467 196.775455,47.0667841 196.351212,47.1337445 C195.38,47.2852863 194.376212,47.4412335 193.396667,47.772511 C191.022424,48.5733921 188.641364,49.4852863 186.339091,50.3672247 L184.555758,51.0500441 C174.997424,54.6835242 166.498939,55.5751542 158.582273,53.7663436 C156.791364,53.356652 154.889091,52.3134802 153.364091,50.9029075 C152.345909,49.9619383 151.261818,48.4139207 151.915606,46.2808811 C153.151212,42.2456388 154.317121,38.4359471 157.035303,35.4729515 C159.082273,33.2429956 160.931515,30.7293392 162.719394,28.3002643 C163.283788,27.5346256 163.846667,26.7681057 164.416364,26.0112775 C165.986818,23.9222907 167.526212,21.8015859 169.066364,19.68 L171.076212,16.9161233 C171.293636,16.619207 171.349697,16.2068722 171.223182,15.8456388 C171.096667,15.4852863 170.80803,15.2368282 170.475455,15.2007048 C169.447424,15.0940969 168.561061,15.3971806 167.905,16.0844053 L167.659545,16.3399119 C165.771667,18.3134802 163.820152,20.3548899 162.000455,22.5002643 C157.428485,27.8896916 151.961818,32.4174449 145.751212,35.957533 C142.458788,37.833304 138.876212,39.5205286 135.111061,39.2438767 C132.439848,39.0403524 130.818636,38.3637004 130.009545,37.1143612 C129.236061,35.9178855 129.111818,33.9918943 129.631515,31.2244934 C130.314848,27.5839648 131.830758,24.465022 133.436061,21.1637004 L133.998939,20.0007048 C134.436061,19.0940969 134.981515,18.2518062 135.557273,17.3601762 C135.819394,16.9557709 136.081515,16.5504846 136.33303,16.1390308 L142.170152,6.60511013 C142.395909,6.23506608 142.392121,5.73903084 142.15803,5.37515419 L141.841364,4.88264317 C141.588333,4.48528634 141.131515,4.34960352 140.746667,4.55577093 C140.620152,4.62361233 140.487576,4.68088106 140.354242,4.73726872 C139.973939,4.90202643 139.543636,5.08969163 139.172424,5.46502203 C137.892879,6.75488987 136.596667,8.02625551 135.300455,9.29762115 C131.949697,12.5839648 128.486061,15.9813216 125.369394,19.6896916 C122.294394,23.3487225 119.285303,26.156652 116.172424,28.2729515 C112.914091,30.4914537 108.302727,31.7381498 104.852727,25.0923348 C103.761818,22.9918943 102.973182,20.7742731 102.570909,18.68 C101.881515,15.0808811 101.356515,11.4606167 100.800455,7.62801762 C100.570152,6.03594714 100.335303,4.41832599 100.083788,2.76898678 C100.018636,2.34431718 99.7360606,2.00863436 99.3716667,1.92757709 C99.0027273,1.84035242 98.635303,2.03242291 98.4406061,2.39806167 C98.3375758,2.58837004 98.2110606,2.77603524 98.0837879,2.96546256 C97.7080303,3.52933921 97.2807576,4.16722467 97.2118182,4.9830837 C97.0716667,6.63154185 96.9883333,8.28704846 96.905,9.94167401 C96.799697,12.0614978 96.6898485,14.2544493 96.4527273,16.3733921 C96.0527273,19.9284581 95.3337879,22.7540088 93.124697,24.9918943 C88.9489394,29.2200881 84.7640909,29.557533 79.9504545,26.0553304 C76.9701515,23.8870485 74.885303,20.8500441 72.6784848,17.634185 C71.7565152,16.2905727 70.8019697,14.8993833 69.7845455,13.5927753 C67.6034848,10.7945374 66.5709091,7.23242291 65.8489394,4.11700441 C65.6724242,3.36193833 65.33,2.73374449 64.9989394,2.12493392 C64.8709091,1.89057269 64.7421212,1.65621145 64.6284848,1.41656388 C64.4209091,0.9769163 63.9678788,0.781321586 63.5633333,0.930220264 L62.8928788,1.18748899 C62.5254545,1.32933921 62.2762121,1.72845815 62.2762121,2.17955947 C62.2762121,2.3460793 62.2663636,2.51612335 62.2580303,2.6861674 C62.2337879,3.1522467 62.2072727,3.68 62.3209091,4.22273128 C62.6595455,5.82977974 63.0565152,7.45092511 63.5019697,9.04211454 L64.0595455,11.0139207 C65.3360606,15.494978 66.5512121,19.7592952 66.7398485,24.28 C66.7663636,24.925815 66.7724242,25.5769163 66.755,26.234185 L66.7428788,26.7337445 C66.7095455,28.2438767 66.6686364,30.1222907 66.0648485,30.9205286 C63.2959091,34.5822026 60.6345455,36.2782379 55.899697,33.4068722 C52.1269697,31.1187665 48.0580303,28.419207 43.4618182,25.1522467 L42.2474242,24.295859 C38.8504545,21.9055507 35.3375758,19.4350661 32.7868182,15.7584141 C32.485303,15.325815 32.0542424,15.2227313 31.5981818,15.1090749 C31.3065152,14.9954185 30.9875758,15.065022 30.749697,15.2905727 L30.3231818,15.695859 C29.9815152,16.0200881 29.8928788,16.5848458 30.1148485,17.0280176 C30.3042424,17.4086344 30.4875758,17.7945374 30.6716667,18.1795595 C31.085303,19.0474009 31.5133333,19.9443172 32.0148485,20.7918943 C33.0398485,22.5222907 34.1012121,24.2271366 35.1618182,25.9311013 L36.5883333,28.2297797 C36.6587879,28.3434361 36.7224242,28.464141 36.7875758,28.5830837 C36.9019697,28.7936564 37.0171212,29.003348 37.1481818,29.1971806 L37.3216667,29.4544493 C39.98,33.3839648 42.7284848,37.4465198 44.0890909,42.2694273 C44.1959091,42.649163 44.3125758,43.0359471 44.4307576,43.4280176 C44.9421212,45.1222907 45.4701515,46.8755947 45.2633333,48.2932159 C44.5481818,53.1954185 42.0360606,55.4368282 37.4390909,55.3302203 C37.3686364,55.3275771 37.3095455,55.3372687 37.2390909,55.3346256 C35.3519697,55.2659031 33.4474242,55.1099559 31.5489394,54.9125991 C29.6512121,54.7152423 27.760303,54.4764758 25.9019697,54.2412335 L25.2178788,54.1557709 C23.5216667,53.941674 21.549697,53.6253744 19.7890909,52.9073128 C18.1837879,52.2509251 16.5845455,51.3936564 15.0383333,50.5654626 C14.1754545,50.1011454 13.3118182,49.6385903 12.4390909,49.202467 C11.9966667,48.9839648 11.5368182,48.8888106 11.1315152,48.8059912 C10.9678788,48.77163 10.8057576,48.7390308 10.6459091,48.6967401 C10.1981818,48.5822026 9.71106061,49.019207 9.555,49.5125991 L9.37015152,50.1002643 C9.21712121,50.5927753 9.40121212,51.141674 9.80121212,51.3822026 C10.5633333,51.8412335 11.3201515,52.3170044 12.0769697,52.7918943 C13.7474242,53.8403524 15.4739394,54.9249339 17.2519697,55.8324229 L17.4254545,55.9214097 C23.0315152,58.7822026 28.3277273,61.4844053 33.0095455,65.8553304 C34.5663636,67.3081938 35.4943939,69.464141 35.4928788,71.6200881 C35.4913636,73.3839648 34.8481818,74.9522467 33.6822727,76.0359471 C30.3216667,79.1592952 26.6466667,82.2694273 21.9368182,82.9936564 C20.824697,83.1637004 19.7360606,83.4764758 18.6815152,83.7786784 C17.5421212,84.1055507 16.4648485,84.4148018 15.3686364,84.556652 C12.4974242,84.926696 9.555,85.1584141 6.70954545,85.3839648 C5.52848485,85.4764758 4.34666667,85.5707489 3.16787879,85.6729515 L1.33757576,85.8086344 C0.877727273,85.8429956 0.514848485,86.2773568 0.49969697,86.8130396 L0.470151515,87.7698678 C0.453484848,88.3020264 0.784545455,88.7637004 1.23757576,88.8385903 C1.97242424,88.9628194 2.70727273,89.110837 3.44060606,89.2588546 C5.06863636,89.5866079 6.75121212,89.9249339 8.44590909,89.9998238 C17.1383333,90.38837 25.574697,91.18837 33.2375758,96.6403524 C34.6406061,97.6385903 35.5534848,99.0711894 35.8087879,100.672952 C36.0360606,102.09674 35.7140909,103.520529 34.8777273,104.787489 C33.0663636,107.531101 30.5451515,109.670308 26.9436364,111.520529 C22.9822727,113.557533 18.7792424,115.451806 14.449697,117.150485 C13.8390909,117.390132 13.2292424,117.642115 12.6193939,117.894978 C9.41257576,119.22185 6.37318182,120.478238 3.04212121,120.03859 C2.505,119.968106 2.01409091,120.155771 1.49363636,120.352247 C1.255,120.442115 0.988333333,120.543436 0.676212121,120.635066 C0.32469697,120.739912 0.0610606061,121.08 0.00954545455,121.497621 C-0.0427272727,121.915242 0.126212121,122.327577 0.437575758,122.543436 C1.91939394,123.568987 3.32242424,123.901145 4.64136364,123.965463 C4.72393939,123.969868 4.80878788,123.980441 4.89136364,123.982203 C4.93227273,123.983965 4.97166667,123.980441 5.01257576,123.981322 C5.8019697,123.991013 6.56106061,123.917004 7.28454545,123.843877 L8.16409091,123.760176 C16.4474242,123.094097 25.2792424,122.874714 33.7368182,125.789251 C36.8989394,126.878238 39.0989394,128.998062 39.9292424,131.757533 C40.8133333,134.691454 40.1459091,138.233304 38.0489394,141.727577 C36.9837879,143.50467 35.5633333,144.991013 34.0587879,146.564581 C33.4436364,147.207753 32.83,147.850925 32.2413636,148.512599 C27.2777273,154.100264 22.1413636,158.318767 16.5390909,161.413921 C16.1087879,161.651806 15.7769697,161.989251 15.3565152,162.417445 C15.1489394,162.628018 14.9095455,162.871189 14.6118182,163.149604 C14.3216667,163.419207 14.2042424,163.870308 14.3186364,164.281762 C14.4315152,164.693216 14.7512121,164.981322 15.1224242,165.00511 C15.5087879,165.031542 15.8807576,165.031542 16.2383333,165.009515 C18.7459091,164.85533 20.5959091,163.604229 22.2436364,162.48793 C22.6292424,162.227137 23.0118182,161.968987 23.3981818,161.727577 C25.405,160.472952 27.3890909,159.160176 29.3724242,157.849163 C33.0989394,155.385727 36.9519697,152.837709 40.8837879,150.751366 C41.7413636,150.294978 42.6368182,149.875595 43.5663636,149.492335 C46.3557576,148.343436 49.460303,147.523172 52.8330303,147.04652 C53.0565152,147.013921 53.2459091,147.02185 53.4557576,147.005991 C55.13,146.884405 56.3837879,147.262379 57.1292424,148.192775 C58.0284848,149.317004 58.2716667,151.303789 57.8307576,153.939912 C57.7330303,154.524053 57.5322727,155.116123 57.3193939,155.741674 C57.1140909,156.346079 56.9012121,156.97163 56.7648485,157.643877 C55.7512121,162.622731 53.5875758,167.014802 51.0739394,171.830661 C50.9557576,172.056211 50.8406061,172.289692 50.7269697,172.522291 C50.4360606,173.117885 50.1610606,173.680881 49.8186364,174.110837 C48.1466667,176.210396 46.4443939,178.274714 44.6125758,180.494978 L42.4489394,183.122291 C42.1731818,183.458855 42.1209091,183.968106 42.3239394,184.369868 C42.5262121,184.769868 42.93,184.972511 43.3193939,184.853568 C43.6459091,184.756652 43.9580303,184.698502 44.2474242,184.643877 C44.9572727,184.508194 45.6262121,184.379559 46.1466667,183.837709 C47.8087879,182.102907 49.4034848,180.239471 50.9459091,178.436828 L51.9262121,177.294097 C52.7216667,176.369868 53.4981818,175.418326 54.2731818,174.466784 C55.8360606,172.548722 57.4527273,170.566344 59.1966667,168.88 C61.6883333,166.470308 64.4481818,164.294978 67.1163636,162.190132 L68.7565152,160.893216 C71.1390909,158.998062 74.8216667,158.544317 77.7171212,159.517885 C78.6822727,159.842996 79.5595455,160.326696 80.2724242,160.968106 C83.7042424,164.057974 85.7209091,168.434185 86.2663636,173.979559 C86.6678788,178.054449 86.710303,182.275595 86.7512121,186.357533 L86.7762121,188.657093 C86.7936364,189.98837 86.7080303,191.366344 86.624697,192.699383 C86.5512121,193.882643 86.4784848,195.066784 86.4678788,196.250925 C86.4610606,197.012159 86.73,197.689692 86.9663636,198.287048 C87.0527273,198.502907 87.1398485,198.717885 87.2065152,198.934626 C87.3383333,199.357533 87.6822727,199.62185 88.049697,199.62185 C88.1406061,199.62185 88.2330303,199.605991 88.3231818,199.572511 L88.9307576,199.346079 C89.2345455,199.232423 89.4640909,198.939912 89.5330303,198.577797 C89.5640909,198.414802 89.6027273,198.250925 89.6413636,198.08793 C89.7390909,197.666784 89.8504545,197.190132 89.8663636,196.674714 C90.1163636,188.176035 91.2034848,179.676476 93.1868182,170.690573 C93.3284848,170.04652 93.435303,169.375154 93.5421212,168.703789 C93.7648485,167.301145 93.9739394,165.976035 94.5140909,164.972511 C95.774697,162.622731 97.1709091,160.332863 98.8307576,159.488811 C102.648939,157.549604 107.041364,157.535507 111.534545,159.457093 C115.280758,161.058855 118.598182,163.714361 121.971667,167.812159 C127.230758,174.202467 130.505758,179.687048 132.591364,185.597181 C132.737576,186.011278 132.839848,186.445639 132.945152,186.88 C133.10197,187.53022 133.264848,188.201586 133.548182,188.848282 C133.823182,189.478238 134.335303,189.842996 134.748182,190.135507 C134.88303,190.232423 135.018636,190.325815 135.138333,190.430661 C135.361818,190.626256 135.650455,190.691454 135.919394,190.602467 C136.188333,190.514361 136.407273,190.286167 136.511061,189.983084 C136.563333,189.830661 136.641364,189.669427 136.717121,189.507313 C136.978485,188.946079 137.305,188.248282 137.099697,187.499383 C136.871667,186.671189 136.561061,185.892335 136.260303,185.140793 C135.945909,184.353128 135.648939,183.610396 135.457273,182.847401 C135.022424,181.117004 134.573182,179.390132 134.122424,177.66326 C132.798939,172.583084 131.430758,167.328458 130.505758,162.087048 C129.883788,158.553128 130.391364,155.465903 131.935303,153.395419 C133.386818,151.449163 135.675455,150.529339 138.567879,150.731101 C140.939091,150.897621 143.456515,151.155771 145.800455,151.902026 C148.886818,152.884405 152.138333,154.218326 155.464848,155.865022 C160.895152,158.551366 165.923182,162.260617 170.410303,166.88793 C171.144394,167.644758 171.902727,168.370749 172.661818,169.094978 L173.709545,170.100264 C174.024697,170.406872 174.485303,170.426256 174.817121,170.139031 L175.311061,169.714361 C175.655758,169.416564 175.770152,168.876476 175.585303,168.426256 C175.488333,168.191013 175.40197,167.94696 175.315606,167.702026 C175.089848,167.065903 174.857273,166.409515 174.457273,165.822731 C173.98303,165.128458 173.448939,164.488811 172.914848,163.850044 C172.507273,163.3637 172.100455,162.877357 171.723939,162.361938 C168.292121,157.66326 164.879242,152.946079 161.480758,148.214802 C161.070152,147.643877 160.652727,147.074714 160.236061,146.506432 C158.940606,144.741674 157.601212,142.916123 156.476212,141.002467 C154.982273,138.459736 154.027727,136.326696 153.473182,134.291454 C152.881515,132.117004 153.949697,130.126696 155.147424,128.990132 C157.553485,126.706432 160.090606,125.461498 162.687576,125.291454 C171.08303,124.742555 179.517121,125.109956 187.755758,126.383084 C188.999697,126.574273 190.259545,126.642996 191.47697,126.709075 C192.038333,126.739912 192.598182,126.768987 193.158788,126.812159 C193.627727,126.842996 194.033788,126.46326 194.102727,125.927577 L194.192121,125.244758 C194.248939,124.809515 194.065606,124.380441 193.733788,124.170749 L193.529242,124.033304 C193.311061,123.881762 193.089091,123.734626 192.854242,123.635947 C191.648182,123.127577 190.437576,122.630661 189.22697,122.133744 C186.854242,121.158414 184.401212,120.150485 182.02697,119.069427 C176.234545,116.433304 169.668636,113.445639 164.211061,108.394537 C162.629242,106.931101 161.671667,104.768106 161.711061,102.749604 C161.732273,101.70467 162.033788,100.226256 163.351212,99.1187665 C166.498939,96.4720705 169.33303,94.7443172 172.014848,93.8359471 C179.839848,91.18837 187.755758,90.3866079 195.542121,91.4562115 C196.234545,91.5513656 196.916364,91.526696 197.574697,91.5020264 C197.860303,91.4905727 198.145909,91.4808811 198.43,91.4808811 C198.898939,91.4808811 199.289848,91.0588546 199.323939,90.5143612 L199.369394,89.7689868 C199.395909,89.3355066 199.188333,88.9284581 198.848939,88.7469604" id="Fill-1" fill="#000000"></path>
        <path d="M111.676212,138.630837 C100.232273,142.559471 88.8034848,141.87489 77.705,136.599119 C70.5277273,133.186784 64.4277273,127.829956 59.5762121,120.676652 C54.9262121,113.821145 52.260303,106.509251 51.4254545,98.3189427 C51.349697,97.5788546 51.2610606,96.8325991 51.1739394,96.0845815 C50.855,93.3806167 50.524697,90.584141 50.8209091,88.0088106 C51.5565152,81.6185022 52.3178788,75.0088106 55.6065152,69.4722467 C56.274697,68.3471366 56.8989394,67.185022 57.5216667,66.0220264 C58.4284848,64.3321586 59.3656061,62.585022 60.4209091,61.0237885 C63.0633333,57.1136564 66.4095455,53.6960352 70.9519697,50.2696035 C75.7072727,46.6828194 80.4580303,44.3612335 85.4777273,43.1700441 C88.3565152,42.4863436 91.3398485,42.0229075 94.224697,41.5744493 C95.5110606,41.3744493 96.7959091,41.1744493 98.0777273,40.9559471 C106.394394,41.415859 113.542879,43.5709251 119.930758,47.5444934 C125.411061,50.9524229 130.119394,55.3629956 133.923182,60.6519824 C137.15803,65.1488987 139.707273,70.3330396 141.717879,76.4986784 C144.378485,84.6581498 144.68303,93.4440529 142.645909,103.357709 C141.392121,109.45815 138.851212,115.336564 135.295909,120.357709 C128.980758,129.271366 121.034545,135.420264 111.676212,138.630837 M146.744394,88.2405286 C146.399697,81.9585903 145.266364,76.414978 143.278485,71.29163 C140.237576,63.4511013 135.890606,56.8431718 129.990606,51.0907489 C125.72697,46.9339207 120.711061,43.6202643 115.082273,41.2431718 C108.211061,38.3400881 101.08,37.2493392 93.2913636,37.922467 C86.305,38.5215859 79.3898485,40.8370044 72.7390909,44.8017621 C66.8368182,48.3207048 61.555,53.3964758 57.0383333,59.8881057 C53.0057576,65.6854626 50.1580303,72.5215859 48.574697,80.2088106 C46.605,89.7753304 47.0466667,99.0810573 49.8868182,107.871366 C52.0542424,114.576211 54.2906061,119.223789 57.1398485,122.939207 C59.4610606,125.967401 62.2504545,128.542731 64.9489394,131.03348 C65.7989394,131.818502 66.6474242,132.603524 67.4830303,133.4 C72.1307576,137.84141 77.7474242,139.79207 83.1792424,141.680176 C84.0754545,141.990308 84.9701515,142.302203 85.8587879,142.623789 C88.4921212,143.57533 91.2815152,143.777093 93.3178788,143.923348 C94.0125758,143.973568 94.6171212,144.01674 95.0883333,144.082819 C95.124697,144.087225 95.1610606,144.090749 95.1974242,144.090749 L95.2012121,144.090749 C104.145152,144.044934 110.430758,142.829075 116.218636,140.026432 C119.170152,138.599119 122.289848,136.988546 125.110303,134.886344 C128.971667,132.012335 132.383788,128.678414 135.542121,124.696916 C139.529242,119.669604 142.485303,114.018502 144.58303,107.422026 C146.42697,101.617621 147.133788,95.3436123 146.744394,88.2405286" id="Fill-4" fill="#000000"></path>
        <path d="M135.428864,83.7618502 C135.271288,83.51163 135.025833,83.3574449 134.760682,83.3389427 L134.550076,83.3230837 C130.560682,83.0437885 127.113712,82.8006167 125.597803,78.0728634 C125.456136,77.6314537 125.082652,77.3556828 124.669015,77.3997357 C124.26447,77.4473128 123.936439,77.804141 123.872045,78.2719824 C123.515985,80.8411454 124.290227,83.0552423 126.116742,84.7336564 C119.34553,95.5089868 109.94553,101.622643 98.1652273,102.908106 C86.3606818,104.20326 76.0334091,100.51163 67.4591667,91.9512775 L69.6667424,87.7177974 C69.8773485,87.3142731 69.8281061,86.7970925 69.547803,86.4561233 L68.9788636,85.7653744 C68.8053788,85.5548018 68.5606818,85.4226432 68.3129545,85.4437885 C68.0614394,85.4499559 67.8243182,85.5777093 67.6584091,85.7962115 C67.2432576,86.343348 66.8447727,86.9327753 66.4470455,87.5213216 C64.3303788,90.6578855 62.8659848,92.4869604 59.6288636,90.7777093 C59.2652273,90.5838767 58.8341667,90.6948899 58.5735606,91.050837 C58.3144697,91.405022 58.2879545,91.9169163 58.5099242,92.3045815 C59.7932576,94.5495154 61.5652273,94.7160352 62.9879545,94.8490749 C63.2152273,94.8702203 63.4417424,94.8913656 63.6644697,94.9213216 L63.9652273,94.958326 C64.462197,95.0155947 64.9750758,95.0772687 65.2834091,95.2851982 C66.6584091,96.2094273 68.0046212,97.2067841 69.3500758,98.2032599 C72.037197,100.192687 74.8152273,102.249956 77.7955303,103.696652 C82.5106818,105.98652 87.6917424,107.137181 93.2485606,107.137181 C94.7705303,107.137181 96.3212879,107.050837 97.8970455,106.877269 C110.634924,105.481674 121.146288,98.7142731 129.13947,86.7644934 C129.278864,86.5565639 129.82053,86.2940088 130.310682,86.2684581 C131.253864,86.2191189 132.206136,86.2878414 133.209924,86.3609692 C133.623561,86.3900441 134.037197,86.4208811 134.449318,86.4420264 C134.906894,86.4799119 135.257652,86.1310132 135.360682,85.6499559 L135.576591,84.6288106 C135.640985,84.32837 135.586439,84.0103084 135.428864,83.7618502" id="Fill-6" fill="#000000"></path>
        <path d="M89.6473485,69.3069604 C89.3859848,69.1351542 89.1276515,68.9536564 88.8693182,68.7730396 C88.2412879,68.3333921 87.5920455,67.8770044 86.8799242,67.5342731 C85.8806818,67.0532159 84.8193182,66.7906608 83.9117424,66.5968282 C78.3973485,65.4188546 73.8806818,66.54837 70.1125,70.0347137 C69.642803,70.4690749 69.4549242,71.117533 69.3034091,71.6391189 C69.2541667,71.8082819 69.207197,71.9774449 69.1458333,72.1307489 C69.0087121,72.4796476 69.0473485,72.8893392 69.2473485,73.1959471 C69.417803,73.4576211 69.6829545,73.6082819 69.9617424,73.6082819 C70.0087121,73.6082819 70.0549242,73.6047577 70.1018939,73.5959471 C70.2700758,73.5651101 70.4435606,73.54837 70.617803,73.5307489 C71.0988636,73.4831718 71.6450758,73.4294273 72.1564394,73.1386784 C72.6685606,72.8488106 73.1587121,72.4822907 73.6450758,72.1148899 C74.2784091,71.6364758 74.8768939,71.1836123 75.4905303,70.9642291 C78.9602273,69.7263436 82.6412879,69.9615859 87.0768939,71.7104846 C87.5140152,71.8822907 87.9587121,71.9333921 88.3496212,71.978326 C88.5079545,71.9968282 88.6655303,72.0153304 88.8200758,72.0417621 C89.2329545,72.1034361 89.6458333,71.8338326 89.7935606,71.3712775 L90.0458333,70.579207 C90.1996212,70.0981498 90.0306818,69.5589427 89.6473485,69.3069604" id="Fill-8" fill="#000000"></path>
        <path d="M117.143485,68.0284581 C116.984394,67.8654626 116.832879,67.6795595 116.681364,67.4945374 C116.26697,66.9914537 115.79803,66.4205286 115.153333,66.1403524 C113.107121,65.2513656 110.923788,64.334185 108.684394,63.7562115 C105.554848,62.9526872 102.259394,63.594978 98.6086364,65.7271366 C98.0601515,66.0478414 97.8730303,66.7236123 97.7359091,67.2161233 C97.6987879,67.3509251 97.6639394,67.4857269 97.6184848,67.5993833 C97.5063636,67.8813216 97.5093939,68.2081938 97.6245455,68.487489 C97.7404545,68.7676652 97.9578788,68.9738326 98.2169697,69.0496035 C98.3215152,69.0786784 98.4298485,69.1288987 98.5389394,69.1764758 C98.9540909,69.3562115 99.4662121,69.5747137 100.013182,69.3500441 C100.512424,69.1421145 100.990455,68.8557709 101.46697,68.5676652 C101.969242,68.2628194 102.443485,67.9738326 102.917727,67.8161233 C106.232121,66.7130396 109.554091,67.1659031 113.073788,69.1967401 C113.689697,69.5535683 114.336667,69.840793 114.983636,70.1262555 C115.263939,70.2496035 115.544242,70.3738326 115.821515,70.5042291 C115.931364,70.5553304 116.044242,70.58 116.157121,70.58 C116.457121,70.58 116.746515,70.4046696 116.914697,70.0945374 L117.309394,69.3676652 C117.544242,68.934185 117.473788,68.3667841 117.143485,68.0284581" id="Fill-10" fill="#000000"></path>
    </g>
</svg>