<?xml version="1.0" encoding="UTF-8"?>
<svg width="200px" height="200px" viewBox="0 0 200 200" version="1.1" xmlns="http://www.w3.org/2000/svg" xmlns:xlink="http://www.w3.org/1999/xlink">
    <!-- Generator: Sketch 54.1 (76490) - https://sketchapp.com -->
    <title>stella</title>
    <desc>Created with Sketch.</desc>
    <g id="stella" stroke="none" stroke-width="1" fill="none" fill-rule="evenodd">
        <path d="M188.896918,97.6161321 C187.890629,98.3368868 186.802893,98.9472642 185.651321,99.5941195 C184.844717,100.046635 184.010755,100.514874 183.202264,101.027138 C182.267358,101.619277 181.352893,102.251981 180.468616,102.863931 C179.373962,103.621478 178.242201,104.404497 177.102579,105.085943 C175.233396,106.203553 173.297547,107.297579 171.424591,108.35544 C169.646604,109.360157 167.807925,110.399151 166.015786,111.463931 C164.51956,112.35261 163.036541,113.298208 161.601635,114.212358 C160.116101,115.159214 158.579937,116.138145 157.048176,117.041604 C155.530881,117.936572 153.907925,118.756384 152.338428,119.549151 C151.732767,119.855126 151.127421,120.161101 150.524906,120.472107 C150.083082,120.700409 149.627736,120.907642 149.187484,121.10827 C148.991258,121.197579 148.802893,121.283428 148.627421,121.365503 L146.771447,122.236258 L148.243774,123.663302 C148.54283,123.95261 148.842201,124.241289 149.141887,124.529969 C151.748176,127.040346 154.209811,129.41173 156.113899,132.31739 C156.71956,133.241918 157.315472,134.17305 157.911384,135.103868 C158.666415,136.283742 159.447233,137.503239 160.239057,138.694434 C160.677736,139.354182 161.147862,139.990346 161.602264,140.605755 C162.382453,141.660786 163.118931,142.657642 163.678679,143.726509 C165.740314,147.664245 167.450377,151.247893 168.906038,154.681855 C170.582453,158.636572 171.665786,161.687201 172.418616,164.572736 C172.911698,166.46456 172.839686,168.621478 172.714528,170.850409 C172.667044,171.698836 171.478365,172.053868 170.661384,172.044119 C169.032453,172.015818 167.397862,172.097264 165.817044,172.177767 C165.090943,172.214874 164.364843,172.251667 163.639057,172.278082 C163.405094,172.286572 163.303836,172.274308 163.259497,172.263302 C161.570189,171.832484 159.854465,171.568962 158.195346,171.314245 C155.344403,170.876509 152.651321,170.462987 150.10478,169.269591 C144.757296,166.764874 138.893459,164.297893 131.650692,161.506069 C128.910126,160.44978 126.261384,159.041289 123.700063,157.679025 C122.741572,157.169277 121.750692,156.642233 120.762013,156.137201 C118.780881,155.124937 116.814843,153.948836 114.913899,152.811415 C113.988742,152.257642 113.032138,151.685314 112.079308,151.135 L111.927736,151.045377 C111.540314,150.813616 111.009497,150.496635 110.351635,150.445377 C108.244717,150.280597 106.378365,149.327767 104.402264,148.318648 C103.350063,147.781541 102.262013,147.226195 101.112642,146.782484 C99.8928302,146.311415 98.4434591,145.799465 96.94,145.574937 C95.2849686,145.327767 93.8981761,145.613616 92.5723899,146.474623 C91.1302516,147.412044 89.5777358,148.168333 87.9340252,148.969277 C87.2409434,149.307013 86.5242767,149.656384 85.821761,150.018333 L84.2289937,150.838459 C80.2019497,152.912044 76.0371698,155.056698 71.9513208,157.189717 C71.5019497,157.424623 71.2327673,157.783428 71.048805,158.071478 C70.9340252,158.118333 70.8192453,158.164874 70.7038365,158.211415 C70.1233333,158.446635 69.5230189,158.689717 68.9296226,158.975566 C65.3698742,160.69066 62.4887421,162.096635 59.8632704,163.400723 C59.1525786,163.753239 58.4522642,164.130283 57.7745912,164.494748 C56.7613836,165.040346 55.8041509,165.55544 54.8088679,166.001352 C51.3984906,167.52934 47.5333962,169.261415 43.7072956,170.760786 C39.9013208,172.251981 36.4745912,173.441918 33.231195,174.398208 C31.4381132,174.926824 29.3566667,175.441604 27.526478,175.253868 C26.0066667,175.097893 23.9714465,174.610157 22.9054088,173.172736 C22.1887421,172.205755 21.9906289,170.86739 22.3167296,169.195377 C23.0557233,165.406069 24.5060377,162.023679 26.3252201,157.995692 C27.3289937,155.774623 28.3094969,153.504811 29.2579245,151.309843 C30.0871698,149.390346 30.944717,147.405126 31.8110692,145.467704 C32.6113836,143.678396 33.4604403,141.99978 34.3349686,140.478396 C34.7088679,139.827453 35.1478616,139.202296 35.6126415,138.540346 C36.131195,137.801667 36.6673585,137.038145 37.1289937,136.207013 C37.7591824,135.072107 38.3381132,133.902925 38.8978616,132.772107 C39.4796226,131.597579 40.080566,130.383428 40.7249057,129.24066 C41.1846541,128.425566 41.8280503,127.66739 42.5094969,126.86456 C42.6887421,126.653553 42.8673585,126.442862 43.0428302,126.231541 C43.3478616,125.863302 44.0632704,125.000723 43.8239623,123.930597 C43.6072956,122.961415 42.7780503,122.472107 42.1733333,122.188145 C39.5962893,120.97934 37.0016352,119.672421 34.4922013,118.40827 C33.8025786,118.060786 33.112327,117.713302 32.4220755,117.367075 C31.0538365,116.681226 29.6554088,116.00544 28.303522,115.351667 C25.0887421,113.797893 21.7645283,112.191289 18.6739623,110.365189 C14.9547799,108.167704 11.2371698,105.518019 7.62459119,102.490346 C6.1063522,101.217704 4.99628931,99.0966352 4.07490566,97.2085849 C3.61955975,96.275566 4.62459119,93.6601572 5.78119497,92.7664465 C6.49849057,92.2123585 7.18402516,91.6177044 7.84754717,91.0425472 C9.05100629,89.9988365 10.1881132,89.0129874 11.4472327,88.2988365 C14.4727044,86.5831132 17.7642138,85.2054403 20.9475472,83.8730503 C24.5638994,82.3592138 27.5302516,81.253239 30.2830818,80.3919182 C33.1909434,79.4818553 36.1830818,78.6362579 39.076478,77.8183333 C41.2409434,77.2066981 43.4786792,76.5743082 45.6749057,75.9170755 C46.5749057,75.6475786 47.4280503,75.2934906 48.2532075,74.9507233 C49.1472327,74.5796541 49.9912579,74.2290252 50.8475472,74.0004088 C55.5387421,72.7472642 60.6098113,71.4717925 66.8069811,69.9868868 C69.0928302,69.4390881 70.44,68.2258805 71.3113836,65.9296541 C72.049434,63.9853145 73.0585535,62.1551258 74.126478,60.2170755 C74.6022642,59.3541824 75.0940881,58.4617296 75.5560377,57.5645597 C75.7230189,57.2400314 75.8472327,56.926195 75.967044,56.6230503 C76.0745912,56.3507233 76.1761635,56.0941195 76.29,55.8837421 C77.0057233,54.5639308 77.717044,53.2416038 78.4286792,51.9195912 C80.4815094,48.1041824 82.6041509,44.1592138 84.7906289,40.3466352 C86.2478616,37.8063836 87.9855975,35.4151887 89.6403145,33.1840566 C90.8513208,31.5516667 92.2330818,29.9680189 93.5695597,28.4365723 L94.2444025,27.6623585 C95.6579245,26.0359434 97.5211321,25.1522956 99.6327673,25.1076415 C99.6472327,25.107327 99.6610692,25.107327 99.6755346,25.107327 C100.918302,25.107327 102.021761,26.2416038 103.136226,27.5057547 C106.45478,31.2695912 109.173333,34.4409748 111.444403,38.116761 C112.514528,39.8491509 113.747862,41.4796541 114.940943,43.0563836 C115.667358,44.016761 116.418931,45.0095283 117.112327,46.0000943 C117.743459,46.9019811 118.301006,47.8507233 118.890943,48.8551258 C119.146604,49.2909748 119.402579,49.726195 119.664528,50.1576415 C120.412642,51.389717 121.167044,52.6177044 121.921761,53.8460063 C123.739057,56.8041824 125.618302,59.8633019 127.363585,62.9180189 C128.102264,64.2111006 128.703836,65.5749371 129.340943,67.0186478 C129.740943,67.9252516 130.154465,68.862673 130.604151,69.7783962 C130.990943,70.5651887 131.899119,71.4041824 132.88717,71.4859434 C136.696918,71.8000943 140.525535,72.0365723 144.095346,72.2456918 L144.728994,72.2809119 C146.589371,72.3821698 148.346604,72.4777673 150.021447,73.1853145 C151.379623,73.7588994 152.828679,73.8736792 154.229937,73.9843711 C154.657925,74.0180189 155.062327,74.0500943 155.459182,74.0947484 C156.925535,74.2595283 158.413899,74.4051258 159.853836,74.5463208 C162.269245,74.7827987 164.767673,75.0274528 167.195975,75.3658176 C170.073648,75.7664465 172.996289,76.3422327 175.882453,77.0768239 C177.478679,77.4834277 179.02239,78.0548113 180.656352,78.6601572 C181.282453,78.8922327 181.908553,79.1239937 182.536855,79.3460063 C183.377107,79.6428616 184.238742,79.9038679 185.071761,80.1563836 C187.008553,80.7434906 188.838113,81.2978931 190.368931,82.2513522 C193.312956,84.085 194.994403,85.9887736 195.660126,88.2428616 C196.02522,89.4793396 195.765157,90.7522956 194.864843,92.1353145 C193.393459,94.3960063 191.212013,95.957956 188.896918,97.6161321 M199.719245,88.6934906 C199.246604,85.7004088 197.383082,82.8554403 194.329937,80.4655031 C188.920818,76.2312264 182.386541,74.5243082 176.130881,73.3104717 C168.218616,71.775566 160.110126,70.6456918 152.268302,69.5529245 C151.191887,69.4029245 150.115472,69.253239 149.039371,69.1019811 C146.491887,68.744434 143.90195,68.5227358 141.396918,68.3082704 C139.554151,68.1504088 137.648176,67.9875157 135.791258,67.7721069 C134.655723,67.6406604 134.040629,67.353239 133.905409,67.2258805 C133.31673,66.293805 132.87522,65.2375157 132.40761,64.1195912 C132.039371,63.2384591 131.658553,62.3277673 131.188428,61.4469497 C130.62239,60.3865723 129.959811,59.3956918 129.319245,58.4375157 C128.830881,57.7070126 128.36956,57.0173899 127.949119,56.3007233 C127.659497,55.8076415 127.413585,55.2636164 127.153522,54.6875157 C126.803208,53.912044 126.440943,53.1095283 125.932453,52.3497799 C123.365472,48.512673 120.456038,44.1633019 117.377107,39.976195 C116.50195,38.7853145 115.736541,37.5321698 114.925535,36.2054403 C113.326164,33.5865723 111.671761,30.8787107 109.130252,28.7243082 C108.438742,28.1378302 107.863585,27.3098428 107.25478,26.4331132 C106.960755,26.0101572 106.657296,25.5727358 106.329937,25.1488365 C105.041572,23.4809119 103.325535,21.7334277 100.364214,21.4192767 C97.8884277,21.1576415 94.3006918,21.1595283 91.7318239,24.198522 C89.548805,26.7809119 87.6654717,29.5966352 86.1107547,32.0104717 L85.0006918,33.7321698 C81.4541509,39.2321698 77.7868553,44.9192767 74.4205031,50.671478 C72.6186164,53.7500943 71.1632704,57.0529245 69.7560377,60.2469497 C69.4692453,60.8972642 69.1830818,61.5475786 68.8937736,62.1953774 C68.0116981,64.171478 67.1333962,65.8642453 65.3076101,66.5607862 C64.4478616,66.8890881 63.5041509,67.0824843 62.5050943,67.2872013 C61.9566667,67.3997799 61.3893711,67.5158176 60.8245912,67.657956 C59.8664151,67.8994654 58.9072956,68.1384591 57.9481761,68.3771384 C55.1236478,69.080283 52.2025786,69.8076415 49.3409434,70.5988365 C48.6739623,70.7834277 48.0063522,70.9664465 47.3384277,71.1494654 C43.6220755,72.1683333 39.7793082,73.2221069 36.0657862,74.5202201 C27.9544654,77.3551258 20.1541509,80.3271384 13.5937736,82.8611006 C12.5855975,83.2500943 11.7054088,83.8173899 10.8541509,84.3658176 C10.0343396,84.8941195 9.25981132,85.3931761 8.47050314,85.6648742 C5.91641509,86.544434 3.84880503,88.2019811 2.1491195,90.7318553 C0.528050314,93.1450629 -1.07352201,96.4114151 0.945660377,100.284057 C2.92584906,104.081541 6.21264151,106.710786 9.11264151,109.030597 C12.0296226,111.363616 15.3516352,113.190975 18.5645283,114.95827 C19.0450314,115.222736 19.5252201,115.486887 20.003522,115.752296 C22.2566667,117.002925 24.617673,118.094434 26.9010063,119.14978 C27.6444025,119.493176 28.3877987,119.836887 29.1277358,120.185629 C31.7774214,121.435629 34.4940881,122.695063 37.1214465,123.913302 C37.8028931,124.22934 38.4865409,124.546321 39.1730189,124.86456 C39.0107547,125.112358 38.849434,125.359528 38.6877987,125.605755 C37.6686164,127.161415 36.6145283,128.769906 35.6513208,130.39695 C34.817673,131.804811 34.0594969,133.265503 33.3261635,134.678082 C32.9626415,135.378711 32.5991195,136.079654 32.2258491,136.774623 C31.5396855,138.053239 30.8192453,139.348208 30.1227044,140.600723 C28.5742767,143.383428 26.9733333,146.260786 25.6038365,149.21456 C23.3620126,154.050094 21.2638994,159.181226 19.3679874,164.465503 C18.6752201,166.395692 18.3991195,168.429654 18.1321384,170.396635 C18.0381132,171.088774 17.9409434,171.804182 17.8280503,172.489717 C17.6796226,173.389403 18.1576101,174.321478 18.6642138,174.806384 C19.7437736,175.839717 20.7689308,176.738459 21.7978616,177.553868 C21.8758491,177.615503 21.9550943,177.680283 22.0355975,177.745692 C22.7116981,178.294434 23.5528931,178.977453 24.6104403,179.05544 C25.4249057,179.115189 26.29,179.178711 27.171761,179.178711 C28.180566,179.178711 29.2110692,179.095377 30.2126415,178.828396 C35.2714465,177.479654 39.3242767,176.218333 42.9679874,174.858899 C47.5101258,173.164245 51.9793082,171.156069 56.1321384,169.238774 C60.480566,167.231541 64.6837107,165.102296 69.3340252,162.727138 C70.2522642,162.25827 71.0560377,161.661415 71.8333962,161.084057 C72.0550943,160.919277 72.2692453,160.760157 72.4818239,160.607327 C72.64,160.579654 72.8387421,160.530912 73.0475472,160.429654 C74.0661006,159.935943 75.0859119,159.444119 76.1054088,158.952296 C78.9327673,157.589403 81.8563522,156.179654 84.7135849,154.744748 C86.1000629,154.048522 87.4821384,153.306698 88.8183019,152.589403 C90.2249057,151.834686 91.6793082,151.053868 93.1227044,150.335629 C93.9940881,149.901981 94.8859119,149.637516 95.6333962,149.591289 C98.1953459,149.433742 100.567358,150.421164 103.078679,151.467704 C103.384969,151.595063 103.691258,151.722736 103.997862,151.848208 C104.855723,152.199465 105.731509,152.530283 106.578679,152.850409 C108.509811,153.580283 110.334025,154.269591 112.032453,155.201038 C114.823648,156.73217 117.619874,158.390975 120.323648,159.995063 C123.023962,161.59695 125.816101,163.253553 128.623648,164.795692 C130.329937,165.732799 132.156667,166.40261 133.923648,167.050723 C134.786855,167.36739 135.679623,167.694748 136.527736,168.043491 C137.881509,168.600409 139.253836,169.207956 140.581195,169.795377 C145.217358,171.846635 150.010755,173.968019 155.330252,174.576509 C156.840629,174.749465 158.32239,175.085 159.892201,175.440346 C163.183396,176.185943 166.587484,176.957327 170.303522,176.148522 C173.355094,175.485 175.063899,174.54695 175.93434,171.261101 C177.003836,167.228082 175.947233,163.543805 174.925849,159.980912 C174.806981,159.566132 174.688428,159.152925 174.574277,158.740975 C173.612956,155.277138 172.073962,151.622736 169.730881,147.241289 C167.459811,142.994434 164.796289,138.589088 161.348805,133.377138 C159.836226,131.089717 158.082453,128.951038 156.385912,126.882484 C155.796918,126.163931 155.20761,125.445692 154.628365,124.721164 C154.246604,124.243491 153.836855,123.795377 153.426164,123.362673 C154.550692,122.752296 155.668931,122.149465 156.781195,121.54978 C160.61044,119.486258 164.226792,117.536887 167.855723,115.423365 C171.087799,113.540975 174.281509,111.497893 177.370189,109.521792 C178.706981,108.666761 180.043774,107.811415 181.386541,106.966761 C182.539686,106.241289 183.736226,105.524308 184.893459,104.831226 C188.696604,102.551981 192.629623,100.195377 195.986226,96.9903459 C198.153208,94.921478 200.291258,92.3180189 199.719245,88.6934906" id="Fill-1" fill="#000000"></path>
        <path d="M112.452956,113.611195 L112.840692,114.365912 C112.878113,114.438553 112.913333,114.512138 112.948868,114.586038 C113.050126,114.796415 113.16522,115.035094 113.323396,115.280063 C113.643836,115.777862 113.709874,115.986038 113.722138,116.061195 C113.692579,116.102704 113.602013,116.209937 113.364906,116.367799 C112.181258,117.156164 111.031258,118.006164 109.919308,118.828176 C108.816792,119.643585 107.676541,120.486352 106.530629,121.246415 C104.717421,122.44956 102.562075,123.825031 100.324969,124.905849 C97.6812579,126.182893 95.557044,126.623774 93.4359748,126.335409 C91.3274843,126.048616 89.4340881,125.439182 87.4768553,124.41717 C84.2145912,122.713396 81.2105031,120.341384 77.7369182,116.72566 C77.5551572,116.536981 77.4941509,116.473459 77.8215094,116.068113 C78.302327,115.472516 78.6438365,114.835723 78.9743396,114.22 C79.1010692,113.983208 79.2277987,113.746415 79.3620755,113.515912 L79.9746541,112.466855 L77.9627044,110.836981 L77.13,111.291698 C76.7947799,111.474717 76.457044,111.653962 76.1189937,111.833208 C73.7079874,113.112453 71.2149057,114.435094 69.502956,117.123774 L67.1592453,120.804906 L71.2171069,119.199874 C71.2891195,119.171572 71.3620755,119.145157 71.4350314,119.119057 C71.6520126,119.04044 71.8976101,118.951447 72.157044,118.814654 C72.7740252,118.488868 73.6133333,118.046101 73.8774843,118.020314 C74.1158491,118.125346 74.7516981,118.782893 75.2652201,119.313396 C78.1960377,122.342956 81.8315723,125.728805 86.5724528,127.872516 C88.7620755,128.862767 91.3375472,130.027547 94.2092453,130.027547 C95.320566,130.027547 96.4762264,129.853019 97.6708805,129.426604 L98.2661635,129.214654 C100.393208,128.457421 102.592893,127.674717 104.68566,126.671258 C106.899182,125.609937 109.111132,124.330692 111.260503,122.869686 C112.955157,121.718113 114.515849,120.380377 116.024654,119.086352 L116.728113,118.48478 C117.206101,118.077233 117.541635,118.026918 118.16805,118.272201 C118.728428,118.492327 119.29478,118.592956 119.794465,118.68195 C119.984717,118.715597 120.175283,118.749245 120.362704,118.79044 L121.55673,119.051447 L122.636289,116.195472 L113.925283,111.486667 L112.452956,113.611195 Z" id="Fill-4" fill="#000000"></path>
        <path d="M105.764434,93.3766981 C105.730157,93.7200943 104.814748,93.9757547 104.298396,94.2710377 C104.118836,94.096195 103.938962,93.9207233 103.759403,93.7458805 C104.082358,92.8999686 104.405943,92.0543711 104.728899,91.2087736 C104.89305,91.2056289 105.056887,91.2027987 105.221038,91.1999686 C105.430157,91.9282704 105.83456,92.6760692 105.764434,93.3766981 M104.464119,90.1902201 C103.852484,90.550283 103.313805,91.4263836 103.201226,92.1559434 C103.012547,93.3735535 103.09305,94.6565723 103.22544,95.8946226 C103.432673,97.8295283 104.54934,98.7895912 106.378899,98.7958805 C108.527013,98.8034277 109.927013,96.3358176 108.816635,94.2650629 C108.163176,93.046195 107.271352,91.9222956 106.322296,90.9090881 C105.890849,90.4483962 104.833616,89.9726101 104.464119,90.1902201" id="Fill-6" fill="#000000"></path>
        <path d="M82.1399057,93.2541824 C81.8304717,94.0145597 81.4200943,94.7340566 81.0468239,95.4686478 C80.7908491,95.3378302 80.5348742,95.2076415 80.2785849,95.0771384 C80.5399057,94.3513522 80.7578302,93.6048113 81.0880189,92.9117296 C81.1908491,92.6956918 81.5965094,92.6239937 81.8634906,92.4862579 C81.964434,92.7456918 82.2160063,93.066761 82.1399057,93.2541824 M83.0392767,90.8177044 C82.3172642,90.9007233 81.5244969,91.2403459 80.9669497,91.7066981 C79.5238679,92.9136164 79.1691509,94.7252516 78.9744969,96.4456918 C78.8848742,97.2356289 79.3606604,98.4227358 79.9807862,98.8551258 C80.4823585,99.2048113 81.7672642,98.9541824 82.3851887,98.5173899 C84.1905346,97.2406604 84.9474528,95.3305975 84.9197799,92.7771384 C84.9364465,91.2969497 84.4795283,90.6522956 83.0392767,90.8177044" id="Fill-8" fill="#000000"></path>
        <path d="M81.3285535,77.6483648 C82.6603145,76.4398742 83.3571698,75.8716352 84.6294969,76.1706918 L90.5030818,77.5502516 L85.8555975,73.7030818 C84.9996226,72.9945912 83.850566,72.7338994 82.6216352,72.9675472 C80.5222642,73.3672327 78.3952201,75.11 77.0713208,77.5156604 L74.7210063,81.7857862 L78.9927044,79.437673 C79.9150314,78.9307547 80.6662893,78.2496226 81.3285535,77.6483648" id="Fill-10" fill="#000000"></path>
        <path d="M107.613459,77.4178931 L111.302453,82.3971384 L110.140503,76.3103459 C109.510629,73.0109748 106.512516,72.3965094 105.526981,72.1943082 C103.747736,71.8307862 102.792075,72.2270126 101.739245,73.7666352 L99.3200629,77.3056289 L103.370692,75.9021698 C105.250566,75.2512264 106.281069,75.6197799 107.613459,77.4178931" id="Fill-12" fill="#000000"></path>
    </g>
</svg>