<svg xmlns="http://www.w3.org/2000/svg" width="505" height="32"><g fill="#1A1A1A"><path d="M.51 3.85c.98 1.17 2.61 1.97 3.94 2.63 4.94 2.44 10.49 3.67 15.89 4.58 11.31 1.9 22.87 2.19 34.31 1.99 19.81-.36 39.58-2.44 59.19-5.16 24.44-3.39 48.85-6.34 73.57-6.38.64 0 .64-1 0-1-20.66.03-41.28 1.88-61.73 4.69-21.17 2.91-42.31 5.77-63.68 6.63-12.55.5-25.24.49-37.71-1.18-6.12-.82-12.42-1.98-18.11-4.47-1.66-.73-3.79-1.62-4.97-3.04-.4-.49-1.11.22-.7.71zm317.42-2.34c21.54.03 43.04 2.03 64.35 5.06 20.79 2.95 41.63 5.57 62.64 6.32 12.32.44 24.77.35 37.01-1.36 6.03-.84 12.19-2.04 17.79-4.51 1.7-.75 3.87-1.69 5.1-3.17.41-.49-.29-1.2-.71-.71-.94 1.14-2.54 1.88-3.85 2.53-4.97 2.43-10.58 3.62-16 4.5-11.55 1.89-23.38 2.11-35.06 1.84-20.35-.46-40.66-2.68-60.8-5.56-23.37-3.34-46.84-5.9-70.48-5.94-.64 0-.64 1 .01 1z"/><g><path d="M317.93 1.01c-49.73.01-65.26 30.42-65.26 30.42S237.14 1.02 187.43 1.01c49.73.01 65.24 11.59 65.24 11.59s15.51-11.58 65.26-11.59z"/><path d="M317.93.51c-23.26.09-48.58 7.31-63.1 26.72-.94 1.25-1.87 2.55-2.59 3.95h.86c-2.04-3.96-5.28-7.5-8.47-10.56-8.11-7.78-18.29-13.17-29.03-16.32-9.14-2.68-18.67-3.76-28.18-3.79v1c14.55.03 29.25.86 43.52 3.89 6.5 1.38 13.15 3.15 19.08 6.22.82.42 1.66.86 2.4 1.41.13.1.38.1.5 0 2.36-1.75 5.34-2.85 8.05-3.85 9.33-3.45 19.31-5.17 29.16-6.26 9.23-1.02 18.51-1.4 27.8-1.41.64 0 .64-1 0-1-14.65.03-29.44.88-43.8 3.93-6.54 1.39-13.19 3.19-19.17 6.25-.82.42-1.65 1.12-2.51 1.45.33-.13.61.19.17-.17-.36-.3-.83-.52-1.24-.74-5.12-2.86-10.93-4.58-16.59-5.97C219.35 1.48 203.25.54 187.41.51c-.64 0-.64 1 0 1 22.95.09 48.2 7.19 62.42 26.49.86 1.17 1.72 2.38 2.39 3.68.17.33.7.33.86 0 1.95-3.79 5.02-7.16 8.05-10.11 7.95-7.72 17.97-13.07 28.55-16.22 9.16-2.73 18.69-3.81 28.23-3.85.66.01.66-.99.02-.99z"/></g></g></svg>