<svg xmlns="http://www.w3.org/2000/svg" width="505" height="30"><g fill="#1A1A1A"><g><path d="M285.67 18.85c-3.5 2.66-7.74.25-10.22-1.71-2.59-2.04-5.66-3.27-8.83-3.38-11.37-.39-12.69 12.44-12.69 12.44s7.27-12.14 15.87-7.93c0 0 6 2.59 7.05 10.38 0 0 1.89-3.68-.44-7.19 2.19 1.03 5.78 2 9.26-2.61zm-68.39 0c3.5 2.66 7.74.25 10.22-1.71 2.59-2.04 5.66-3.27 8.84-3.38 11.37-.39 12.69 12.44 12.69 12.44s-7.27-12.14-15.87-7.93c0 0-6 2.59-7.05 10.38 0 0-1.89-3.68.44-7.19-2.19 1.03-5.79 2-9.27-2.61z"/><path d="M262.14 11.02c-4.02-.77-7.68 4.18-9.93 8.18-.27.48-.52.95-.74 1.38-.21-.43-.46-.9-.73-1.37-2.24-3.99-5.91-8.96-9.93-8.19 3.14-4.86 8.01-2.33 10.66 5.58 2.65-7.91 7.53-10.44 10.67-5.58z"/><path d="M249.92 6.24c-.46-2.42 1.56-5.69 1.56-5.69s2.02 3.27 1.56 5.69c-.35 1.8-2.78 1.8-3.12 0z"/><path d="M285.76 26.5c22.92 3.24 46.66 3.57 69.7 1.83 9.35-.7 18.68-1.84 27.89-3.59 9.82-1.86 19.2-4.74 28.7-7.79 16.18-5.2 33.36-9.03 50.46-8.28 5.84.25 12.87.74 18.18 3.54.85.45 1.61-.84.76-1.3-4.11-2.16-9.23-2.86-13.76-3.35-14.67-1.61-29.72.79-43.91 4.43-10.16 2.61-19.94 6.45-30.12 8.98-9.54 2.37-19.26 3.97-29.03 5.02-17.09 1.85-34.35 2.13-51.52 1.33-8.93-.41-18.23-1.03-26.94-2.27-.95-.13-1.36 1.31-.41 1.45zm-66.6-1.4c-23.34 3.3-47.99 3.56-71.58 1.6-9.75-.81-19.48-2.11-29.06-4.12-10.03-2.1-19.54-5.5-29.33-8.42-15.34-4.58-31.62-7.84-47.71-6.88-5.72.34-12.42.94-17.61 3.68-.85.45-.1 1.75.76 1.3 4.23-2.23 9.7-2.86 14.36-3.29 15.56-1.42 31.4 1.46 46.34 5.64 9.97 2.79 19.62 6.47 29.74 8.75 9.2 2.08 18.55 3.48 27.93 4.42 16.91 1.69 33.96 1.87 50.92 1.01 8.55-.43 17.15-1.04 25.64-2.24.95-.14.55-1.58-.4-1.45z"/></g><g><path d="M10.91 2.28c-.78 3.99 4.21 7.64 8.22 9.87.49.27.95.51 1.39.74-.44.21-.91.46-1.38.73-4.01 2.23-9.02 5.87-8.24 9.87-4.89-3.12-2.35-7.97 5.62-10.6C8.57 10.25 6.03 5.4 10.91 2.28z"/><path d="M6.11 14.43c-2.43.46-5.72-1.55-5.72-1.55s3.28-2.01 5.72-1.55c1.81.34 1.81 2.76 0 3.1z"/><path d="M494.41 2.28c.78 3.99-4.21 7.64-8.22 9.87-.49.27-.95.51-1.39.74.44.21.91.46 1.38.73 4.01 2.23 9.02 5.87 8.24 9.87 4.89-3.12 2.35-7.97-5.62-10.6 7.96-2.64 10.5-7.49 5.61-10.61z"/><path d="M499.22 14.43c2.43.46 5.72-1.55 5.72-1.55s-3.28-2.01-5.72-1.55c-1.82.34-1.82 2.76 0 3.1z"/></g></g></svg>