<?xml version="1.0" encoding="UTF-8"?>
<svg width="200px" height="200px" viewBox="0 0 200 200" version="1.1" xmlns="http://www.w3.org/2000/svg" xmlns:xlink="http://www.w3.org/1999/xlink">
    <!-- Generator: Sketch 54.1 (76490) - https://sketchapp.com -->
    <title>albero</title>
    <desc>Created with Sketch.</desc>
    <g id="albero" stroke="none" stroke-width="1" fill="none" fill-rule="evenodd">
        <path d="M42.0786987,92.9564662 L42.3511991,93.0720253 C42.766354,93.2475903 43.1360504,93.403648 43.5017283,93.5656428 C43.9352174,93.7573224 44.3774969,93.9415808 44.8054606,94.1196902 C45.7975127,94.5325223 46.7340601,94.9224547 47.5960152,95.409075 C50.2632539,96.9149475 53.5975535,98.9509075 56.32532,101.613855 C56.1595594,101.497872 55.9932965,101.382737 55.8267824,101.26845 C54.270642,100.201278 52.5173469,99.1487361 50.1416962,97.8559588 C48.1219284,96.7565574 46.0416328,95.6811159 44.0304042,94.6408722 C43.1302739,94.1756674 42.2306459,93.7106747 41.3337806,93.2420774 L42.0786987,92.9564662 Z M113.098828,109.801798 C113.297238,109.504949 113.488365,109.209372 113.676479,108.918673 C114.437973,107.741454 115.165812,106.616397 116.167659,105.712703 L118.984836,110.290327 C117.121536,110.310046 115.202481,110.1489 113.098828,109.801798 L113.098828,109.801798 Z M115.414704,96.8218641 L115.414704,96.8220762 C115.341368,97.2226103 114.939524,97.6920557 114.551494,98.1460227 C114.45706,98.2564929 114.36338,98.365903 114.274472,98.4740408 C113.55693,99.3450806 112.80724,100.223329 112.082163,101.072742 C110.864827,102.499737 109.605549,103.975289 108.443718,105.478829 C106.475185,108.025581 104.15102,109.730342 101.129908,110.843314 C98.8499463,111.683185 96.6774778,112.761595 94.5760855,113.804595 C93.7826949,114.198344 92.9649427,114.604391 92.1524646,114.991779 L92.4839858,113.76452 C93.0282331,111.748492 93.5724804,109.732675 94.1252669,107.718342 C94.8822403,104.959979 95.9172394,102.901331 97.3824627,101.239189 C99.5978782,98.7261504 101.709819,96.5286197 103.838587,94.5206484 C106.566605,91.9476037 109.125848,89.7341704 111.663241,87.7537636 C112.755503,86.9011709 114.024325,86.2150257 115.367739,85.4883817 C115.888127,85.2067993 116.426346,84.9156752 116.945227,84.6181901 C116.969589,84.6061041 117.028359,84.5927459 117.062264,84.5908376 C118.41472,84.8815376 119.74407,85.1881402 121.151277,85.5129778 L121.3851,85.5668347 C121.331102,85.6497404 121.277858,85.732222 121.225116,85.8140675 C120.756717,86.5415595 120.313935,87.2285529 119.72021,87.7162334 C116.618227,90.2638338 116.020986,93.5175108 115.443838,96.6638981 L115.414704,96.8218641 Z M101.887886,72.7467749 C102.814136,74.8109356 104.155541,76.7932507 105.780497,78.503313 C103.530674,84.8081735 98.4973283,89.4835451 93.6267293,94.0073116 C93.1942448,94.4089059 92.7625138,94.8098641 92.3335455,95.2112463 C91.9239159,94.5677201 91.5142862,93.9273744 91.1059124,93.2891491 C89.6869012,91.070839 88.3465007,88.9757213 87.0475404,86.804907 L86.8091967,86.4073414 C85.3261417,83.93883 83.9259669,81.6070812 84.146981,78.9078757 C84.3303223,76.6700584 85.1490792,74.4157024 86.7235537,71.814033 C86.7406321,71.7989785 86.7978949,71.7538151 86.9305033,71.6910527 C89.3332786,70.5568775 91.0180091,68.8557208 92.1805936,66.3736392 C94.8068945,67.2368336 97.3430317,66.8259098 99.8040743,66.4266479 C100.479423,66.3172378 101.16959,66.2052834 101.860259,66.1211055 C101.822335,66.3197823 101.783407,66.5171868 101.744478,66.712047 C101.358457,68.6621328 100.959124,70.6787977 101.887886,72.7467749 L101.887886,72.7467749 Z M74.2930156,80.3806708 C73.6769387,79.9150419 73.0400162,79.4335105 72.4608587,78.9437096 C72.3953079,78.8815834 72.3219714,78.6822705 72.3335244,78.6033935 C72.408619,78.2774957 72.5231445,77.9441767 72.6600226,77.5832931 L77.1908123,82.7821791 C76.3070069,81.9037181 75.2853189,81.1310626 74.2930156,80.3806708 L74.2930156,80.3806708 Z M59.0530865,87.1840256 C63.7534041,86.4707399 68.1302374,85.3533154 70.876338,81.3941981 C71.189274,81.6325254 71.4991961,81.8649157 71.8033416,82.0930654 C73.0357466,83.0171139 74.1998381,83.890062 75.170291,84.8679673 C76.410984,86.1183377 77.5301192,87.5160724 78.612335,88.8675834 C79.0779716,89.4491954 79.559682,90.0507387 80.0476711,90.6365914 C80.2714479,90.9056638 80.4962294,91.1741001 80.7207596,91.4427484 C81.3946016,92.2482693 82.0912984,93.0811428 82.7530851,93.9089274 C85.1184386,96.8685118 85.5353516,99.9752486 84.0276836,103.406611 C83.6255886,104.321754 83.2172147,105.234989 82.809092,106.148435 C82.0950657,107.745483 81.3566776,109.397023 80.6634969,111.03457 C80.2360355,112.044068 79.8783944,113.04551 79.4996565,114.105473 C79.462486,114.209582 79.4253154,114.313903 79.3878937,114.418224 C79.1266952,114.221244 78.8672547,114.027232 78.6120839,113.835976 C77.3294484,112.875458 76.1181403,111.968584 75.0198507,110.972655 C71.770943,108.026641 68.4868739,104.911211 65.2595652,101.713087 C64.3524027,100.814059 63.5919131,99.7311963 63.0607257,98.5813305 C61.8710167,96.0051053 60.7365612,93.239957 59.6890044,90.3622181 C59.4001791,89.5685711 59.2756075,88.7085572 59.1437525,87.7982909 C59.1146188,87.5964336 59.0849828,87.3913958 59.0530865,87.1840256 L59.0530865,87.1840256 Z M73.6952729,73.2384841 L77.748873,73.7310414 L77.1149643,78.3464071 C76.9627659,78.1786874 76.8115721,78.0099075 76.6631411,77.8440962 C76.0586172,77.1681286 75.4334988,76.4690492 74.710431,75.8380331 C73.8233606,75.0638933 73.4925929,74.2265672 73.6952729,73.2384841 L73.6952729,73.2384841 Z M54.3736145,96.2603955 C51.6184724,94.4016967 48.5627009,92.7825975 45.2459819,91.4255736 L51.1229487,86.6694166 C51.3434605,89.6402389 52.5947019,92.3701895 53.8112842,95.0242315 C53.9983928,95.4323988 54.1875106,95.8448069 54.3736145,96.2603955 L54.3736145,96.2603955 Z M90.231902,136.238321 C89.8943531,139.004318 89.5452512,141.864458 89.5319402,144.696397 C89.520136,147.238697 89.935291,149.798595 90.3368837,152.274316 L90.4684875,153.089166 C91.2184287,157.772595 92.050999,162.486557 92.9423389,167.100226 C93.4767913,169.865799 94.0873428,172.629039 94.677551,175.301104 L94.9156435,176.37909 L95.3124644,176.543205 C95.4624024,176.605119 95.6110846,176.6594 95.7587622,176.709652 C98.0055718,180.718386 99.2455113,184.776312 100.241582,188.594214 C100.815465,190.794289 101.911243,192.485268 103.591202,193.764263 C105.295522,195.061917 107.277366,195.905604 109.503581,196.797636 C109.515385,196.802512 109.52744,196.805481 109.539245,196.809934 C109.239369,196.791062 108.939241,196.772403 108.640119,196.753532 C104.197484,196.473858 99.6034035,196.184854 95.081153,196.080533 C93.461471,196.043639 91.8244595,196.073324 90.2416969,196.101949 C88.5697752,196.13227 86.8413442,196.163439 85.1568649,196.114671 C84.0422505,196.082017 82.6051563,195.981725 81.3767698,195.489168 C80.9269558,195.308726 80.5062755,195.007 80.0612334,194.687463 C79.4280781,194.233284 78.7102845,193.718251 77.771979,193.488405 C75.4360103,192.916971 73.0262028,193.987748 70.9001975,194.933424 C70.1472426,195.268227 69.4359789,195.584795 68.8058375,195.791105 C65.8015521,196.775372 62.4810659,196.633308 59.3386468,196.40325 C55.8031741,196.144568 52.5095612,196.038126 49.3844716,196.081805 C49.7850597,195.896487 50.1833875,195.728555 50.6013051,195.604091 C51.6036544,195.305757 52.6961675,195.177688 54.0328007,195.203132 C56.0427735,195.241087 58.3172099,195.282433 60.4170953,193.897421 C61.9574131,192.881137 63.0263179,191.494852 64.0748792,190.044321 C64.0804046,190.036688 64.0846742,190.02863 64.0899484,190.020997 C68.2892169,184.998524 71.5210463,179.127699 73.9579783,172.084745 C76.3273503,165.235379 77.6177714,158.249038 78.5671276,152.318207 C78.5909871,152.169146 78.5847083,152.027719 78.5550723,151.894985 C78.5706437,151.720692 78.5847083,151.550216 78.5965124,151.389282 C78.8675059,147.77875 79.1312159,143.516846 79.0300015,139.283356 C78.9194944,134.657176 78.5603465,129.723546 76.6978001,124.988805 C73.9692802,118.051868 70.1555306,112.500156 65.0393045,108.016676 C64.5711564,107.606388 64.0517732,107.260983 63.5497195,106.92724 C63.2495924,106.727503 62.9660413,106.539004 62.6963036,106.339691 C61.9468647,105.786068 61.1908959,105.213997 60.4595401,104.660798 C59.7693732,104.138556 59.0684068,103.608256 58.3571431,103.081349 L58.7499455,102.878008 C59.5347968,102.471537 60.3528003,101.828222 59.7045759,100.449359 C58.9212315,98.784036 58.1738019,97.0690969 57.4509852,95.4107713 C56.789952,93.8936609 56.1065662,92.325238 55.394298,90.791801 C54.8204147,89.555849 54.5082322,88.2422922 54.446951,86.7979098 C54.9947145,86.8878127 55.3603924,86.9783516 55.5432314,87.1072689 C55.7823285,87.2754127 55.9252342,87.7376489 56.1053105,88.53172 C57.0064454,92.5082242 58.5894591,96.5733591 60.8109023,100.614322 C61.6188597,102.084149 62.9343961,103.322009 64.2062319,104.51937 C64.6384653,104.926054 65.0852654,105.346519 65.4951462,105.761896 C67.4983379,107.790434 69.4706379,109.770417 71.576551,111.687637 C72.6095409,112.628013 73.721895,113.519408 74.7975808,114.381118 C75.4802131,114.927956 76.1862026,115.493454 76.8580353,116.060859 C77.1714736,116.325691 77.455527,116.629537 77.7569099,116.951194 C77.9950024,117.205636 78.2411317,117.468772 78.5116229,117.721517 C79.576258,118.716385 80.1614432,118.595101 80.5097916,118.416568 C80.7606929,118.287651 81.5985374,117.811208 81.8431598,117.089441 C82.0674389,116.42768 82.2500268,115.753833 82.4265869,115.101825 C82.6712094,114.199828 82.9022696,113.347447 83.2350466,112.517118 C83.8880429,110.887417 84.657825,109.250719 85.4022408,107.667666 C85.6722297,107.093263 85.9424697,106.519073 86.208189,105.943397 C87.4955963,103.153017 88.045369,100.735818 87.9388803,98.3362181 C87.8356567,96.0201598 86.5570397,94.1008191 85.6039162,92.8587181 C82.9057857,89.3416937 80.4085772,86.3178626 77.9839517,83.6313793 L78.6311715,82.6744653 C78.7198283,82.5434277 78.8238054,82.4147225 78.933559,82.278384 C79.2002829,81.9482455 79.5024192,81.5742158 79.5918295,81.11516 C79.8256524,79.9169503 80.0331043,78.6985972 80.2340262,77.5203187 C80.4344459,76.3445847 80.6416466,75.1292001 80.8734603,73.940956 C80.9204258,73.8610188 81.0949767,73.7223479 81.1879031,73.6928751 C81.5606133,73.5788002 81.9664757,73.4973788 82.4170431,73.4180777 C82.2465106,73.8953685 82.0799966,74.3597251 81.9122267,74.8236577 C80.4751326,78.7918926 81.0439928,82.7840874 83.6029849,86.68956 C85.7317528,89.9381481 87.330338,92.4600923 88.7867709,94.8669015 C89.1235663,95.4234934 89.3493523,96.0441198 89.5884495,96.7010042 C89.7120164,97.0406842 89.839853,97.3920262 89.9857726,97.7387034 C90.0000883,97.772629 90.0146551,97.8097352 90.0302266,97.8483255 C90.1766484,98.2162063 90.3979137,98.772162 91.0571888,98.8724546 C91.6632196,98.96575 92.329527,98.6682649 92.6914377,98.353817 C93.033005,98.057392 93.3755769,97.7618153 93.7178976,97.4662385 C95.1605171,96.221169 96.6518602,94.9341166 98.0462585,93.6012646 L98.7223608,92.9564662 C100.554267,91.2112062 102.448458,89.4065764 104.070903,87.4630636 C105.10992,86.2184182 105.908585,84.8363741 106.68113,83.5001296 C106.983769,82.9764032 107.296956,82.4346538 107.616673,81.9153801 C107.864811,81.5125136 108.086579,81.109011 108.299305,80.715262 L113.617207,83.411499 C113.590584,83.429946 113.564213,83.448181 113.537591,83.4666281 C112.769818,83.9981998 112.04449,84.5002987 111.265918,84.9453601 C107.875611,86.8829359 104.78292,89.3910978 101.810782,92.6131816 C100.802656,93.706222 99.7593692,94.8083798 98.7502388,95.8742798 C97.5851427,97.1051429 96.3801133,98.3779889 95.2180311,99.6487147 C92.2923565,102.847899 91.2972906,106.761216 90.419764,110.213994 C90.0596114,111.629752 89.6022628,113.501809 89.2554213,115.425602 C89.2363338,115.531196 89.2152369,115.637849 89.1941401,115.745139 C89.0298865,116.579285 88.8437825,117.524325 89.4249492,118.41678 L89.8584383,119.08257 L90.6367597,118.700907 C91.5223231,118.266659 92.395329,117.834744 93.2605491,117.406645 C95.3413469,116.377215 97.3066146,115.405035 99.3288939,114.454482 C100.685619,113.816681 102.13728,113.249063 103.541222,112.699893 L104.095265,112.482981 C106.584185,111.506348 108.590391,109.940681 110.599861,107.406227 C112.010584,105.626829 113.490626,103.83895 114.921692,102.109805 L115.30922,101.641207 L115.440573,102.8074 C114.220224,103.140083 113.547637,104.057346 113.030263,104.762999 C112.925784,104.905486 112.82256,105.046702 112.716323,105.181132 C111.964372,106.134017 111.342519,107.157298 110.74126,108.146865 C110.432845,108.653841 110.114133,109.178415 109.785625,109.679454 C109.446821,110.196395 109.381772,110.664145 109.591735,111.069555 C109.797178,111.465425 110.223635,111.732801 110.860055,111.864475 C115.051789,112.733394 118.330584,113.016249 121.490333,112.780466 C121.717123,112.764775 121.857015,112.824781 122.070997,113.22786 C121.556386,113.206868 121.046546,113.186089 120.540725,113.165521 C118.409948,113.078587 116.351252,112.994621 114.292555,112.902174 L113.742783,112.876942 C110.989399,112.748449 108.143088,112.615715 105.386188,113.629454 C104.345161,114.012389 103.564831,114.400837 102.931675,114.851836 L102.379391,115.2441 C99.8829362,117.014381 97.3015916,118.844879 95.654534,121.424708 C92.583191,126.235782 90.9177992,130.464608 90.4134852,134.732661 C90.3542132,135.234335 90.292932,135.736222 90.231902,136.238321 L90.231902,136.238321 Z M165.977213,80.6949066 C165.569844,80.945532 164.954018,81.3242265 164.902783,81.9613917 C164.851548,82.5953763 165.420659,83.0569765 165.607768,83.2087935 C166.948168,84.2954729 168.290327,85.496227 168.697194,87.1643063 C169.713859,91.3337624 169.301969,94.9207584 167.438167,98.1303321 C166.880608,99.0904265 165.938033,99.2876191 164.44669,99.529763 C163.984318,99.6048234 163.506124,99.6824282 163.035716,99.8011678 C162.762211,99.8700792 162.602227,99.862658 162.568572,99.8550247 C159.917407,99.123504 158.971818,100.837383 158.463988,101.758463 C157.27001,103.925885 154.687911,104.58701 151.954117,105.286725 L151.915189,105.296903 C151.525902,105.396347 151.069056,105.420519 150.585337,105.446175 C150.164154,105.468439 149.728907,105.491339 149.28512,105.565339 C148.818982,105.643156 148.453806,105.867065 148.16046,106.047083 C148.058241,106.109845 147.961547,106.169215 147.875653,106.213318 L146.591008,106.873807 L147.903029,107.494433 C147.982644,107.532176 148.085114,107.594726 148.193863,107.661093 C148.560295,107.884578 149.015383,108.162768 149.601824,108.110183 C150.605429,108.020068 151.597983,107.859134 152.558139,107.7035 C152.93537,107.642434 153.312852,107.581156 153.690585,107.52433 C153.867145,108.732506 153.41055,109.88428 152.632731,111.275229 C152.192712,112.062303 151.657506,112.805274 151.090906,113.592136 C150.914095,113.837884 150.737033,114.083633 150.563235,114.330442 C149.171851,116.30682 146.733412,117.016077 144.145286,117.623981 C140.082142,118.578351 135.998655,118.136046 132.007592,116.309364 C131.596706,116.121077 131.179291,115.936607 130.76062,115.7515 C129.129887,115.031005 127.443901,114.285914 126.14268,113.294651 C120.509583,109.004971 117.964906,104.70787 118.134434,99.771907 C118.209529,97.590703 118.65884,95.4258257 119.133518,93.4114933 C119.553948,91.6265827 120.143402,91.1355097 120.377476,91.0072285 C121.449897,90.4192555 122.032069,89.6268807 122.545675,88.9278014 C122.793814,88.5898176 123.028139,88.2704929 123.303653,87.9874262 C123.73438,87.5446971 123.99608,87.0160939 124.227392,86.5498289 L124.296459,86.4105219 C124.504413,85.9945093 124.751296,85.8384515 125.722,85.7918038 C128.434697,85.6616143 130.656392,85.4540321 132.714083,85.138736 C133.976878,84.9451481 135.198232,84.605256 136.379402,84.2766017 C136.885976,84.1355985 137.410132,83.9897184 137.922482,83.860165 L138.503398,83.7130127 L138.638769,82.1248706 L137.876522,81.9978617 C137.797911,81.9849275 137.692427,81.9567269 137.580664,81.92683 C137.339055,81.8625834 137.036919,81.7820101 136.710923,81.7820101 C136.557971,81.7820101 136.399745,81.799609 136.240012,81.8451965 C130.817883,83.3913557 126.272526,83.7556318 121.935877,82.9914577 C121.741736,82.95732 121.546591,82.9253027 121.351445,82.8934975 C120.108492,82.6901559 119.035318,82.5143789 118.267043,81.7873109 C118.043266,81.5757 117.643933,81.3628169 117.191608,81.4052239 C115.332326,81.5763361 113.881419,80.7042362 112.34512,79.7814599 C112.074377,79.6190411 111.806649,79.4581065 111.539171,79.3050173 C108.651923,77.6498721 106.442786,75.2040485 104.973796,72.0356096 C104.435827,70.8757782 104.535033,69.6695111 104.640014,68.3924243 C104.683212,67.8676377 104.727666,67.3250402 104.727415,66.7771417 C104.726913,65.7699755 105.307075,65.427327 106.418927,64.8599213 C106.771545,64.6801157 107.136218,64.494161 107.481051,64.2649512 C110.728703,62.1077071 113.814864,59.9199301 115.883104,56.8874056 C116.050874,56.6416571 116.139781,56.3914558 116.21789,56.1707273 C116.246019,56.0924864 116.273395,56.0140335 116.305291,55.9377009 L116.506966,55.4563814 L115.20449,54.5200349 L114.639146,54.8942767 C114.573595,54.9375318 114.48544,54.9856638 114.392012,55.0367642 C114.105698,55.1928219 113.749564,55.387258 113.520262,55.7224854 C111.87446,58.1299307 109.463899,60.1788248 105.933952,62.1704695 C104.759563,62.8330788 103.345324,63.2692348 101.992365,63.6417803 C101.384828,63.809288 100.721534,63.8862567 100.019563,63.9681022 C99.4825992,64.0306525 98.9278035,64.0953232 98.375017,64.2045212 C96.064917,64.6623047 93.6985589,64.3739371 90.9280965,63.2984957 C90.5669393,63.1583405 90.2000056,63.0300594 89.8448761,62.9062309 C89.1303474,62.6568778 88.4552497,62.4213069 87.8595162,62.1053747 C87.4272828,61.8759529 87.0327224,61.5405135 86.6148047,61.185779 C86.3485832,60.9591136 86.0728178,60.7250269 85.7721884,60.5057828 C85.496423,60.3045616 85.1952912,60.186246 84.9293208,60.0821368 C84.8404129,60.0471511 84.7510026,60.0125894 84.6656108,59.973999 L83.2290189,59.3260201 L83.3761942,60.6955541 C83.3839799,60.7706145 83.3827242,60.8490674 83.382473,60.9275204 C83.3822219,61.2033779 83.3817196,61.5466625 83.5859065,61.8801936 C84.664355,63.6405081 86.6381619,64.3703325 88.3796528,65.0140708 C88.5745471,65.0861627 88.7694414,65.1580425 88.9633311,65.2316187 C89.1245709,65.2926848 89.2858108,65.3543869 89.4455437,65.4158771 C87.7477533,69.2219052 82.7028546,71.4236766 78.742432,71.3011204 L78.3827817,71.2900945 C76.5325418,71.2353895 74.7850232,71.1834409 73.2434496,70.3832209 C72.6128059,70.0558388 72.0474618,69.9971051 71.5624865,70.2093522 C70.7896905,70.547548 70.7274047,71.3808455 70.7070613,71.6547947 C70.4900656,74.5617945 69.8918205,78.2961548 67.1710863,81.3963184 C66.4791614,82.1846645 65.4238189,82.9011307 64.3483842,83.3124786 C62.682239,83.9494318 60.9241721,84.3423326 58.7989202,84.7895144 C56.8499774,85.1998021 55.0090301,84.7276002 53.0065919,83.302513 C53.0040803,83.3008167 53.0015688,83.2991204 52.9990573,83.2974241 L53.015131,83.0819966 L52.8644396,83.2039167 C52.4161325,82.9011307 51.9183484,82.6538979 51.3251264,82.720689 C50.6635909,82.7944771 50.228846,83.223636 49.8905437,83.6337116 C46.8259818,87.3513212 43.6481502,89.7369269 39.8901565,91.1408106 C36.8569886,92.2737135 33.8273369,91.670474 31.0056394,90.8490504 C28.510189,90.1228306 26.4550087,88.6464309 24.7230615,86.3350375 C22.5651599,83.4560263 22.5463235,80.2706246 24.6660499,76.5969063 C25.7196344,74.7706489 27.2265489,73.1757217 29.1453534,71.8560159 C29.5240913,71.595637 30.0500045,71.4168915 30.6070606,71.2275442 C30.9398375,71.1145296 31.2839163,70.9974862 31.6207117,70.8552108 C31.6782256,70.8308267 31.7369953,70.8068668 31.7970207,70.7824828 C32.2428163,70.6005567 32.797612,70.3743154 33.1183336,69.9313743 C33.6974911,69.1326385 32.3352404,68.1108419 32.3211759,68.1006642 C30.0582925,66.4605735 28.2497439,64.6190496 26.7925575,62.4715592 C25.096274,59.9723027 24.8815387,57.2718251 26.0961118,53.7153621 C27.1233253,50.7074337 28.9559845,48.3648711 31.5428545,46.7529811 C33.4214746,45.5825479 35.3101409,44.5601152 37.7463194,44.8961907 C39.0116253,45.0709075 39.6379994,44.698362 39.9408893,44.3552894 C40.256839,43.9977984 40.5057311,43.3491833 39.8976911,42.2904926 C37.8281951,38.6856857 37.3512566,35.0679447 38.4392489,31.2307474 C39.2738284,28.2864295 41.1393886,25.8989155 43.1142002,23.3712463 L43.3575669,23.0595549 C44.9611751,21.0047238 46.6192834,18.8797091 49.1928423,17.5682726 C53.3539357,15.4477107 57.9505273,13.5162839 63.3585925,13.746766 C68.4160489,13.9613454 72.4470453,15.1686726 75.6813862,17.437235 C76.1417486,17.7603763 76.7781689,17.8305599 77.3829439,17.6257341 C78.0766269,17.3905873 78.559593,16.86156 78.6432268,16.2449622 C78.8665013,14.5989346 79.6596406,13.0587124 81.2150276,11.2511141 C84.5817259,7.33843236 88.8098769,4.70410961 93.7816903,3.4212979 C95.94788,2.86237366 98.437554,2.53562774 100.981226,2.4760459 C104.10732,2.40437808 107.17138,3.25675875 110.921085,5.2433146 C113.84023,6.7903219 115.789424,9.04298167 117.311156,11.0426837 C118.288139,12.3271917 118.227612,13.4511892 118.150759,14.873944 C118.141215,15.0469645 118.131671,15.2216814 118.124137,15.3983065 C118.110323,15.7271728 118.163568,16.0329272 118.231128,16.4203152 C118.265536,16.6160235 118.304715,16.8418407 118.342891,17.1140937 L118.512167,18.3246014 L119.708155,17.6418488 C120.056504,17.4429599 120.370193,17.2544608 120.663539,17.0776237 C121.210549,16.7483333 121.682967,16.4639944 122.163421,16.2504751 C124.69554,15.1256295 127.42406,14.5232381 130.505449,14.4093753 L130.87389,14.395593 C133.59814,14.2929681 136.17195,14.1964922 138.651578,14.8576173 C143.158508,16.0596437 146.708799,18.1411912 149.203496,21.0443743 C151.020584,23.1587873 152.651316,25.3173035 154.050235,27.4603412 C155.491599,29.6678375 156.150121,32.2504237 156.007215,35.136644 C155.979839,35.6909035 155.935134,36.2447389 155.887667,36.8310156 C155.865816,37.1066611 155.842961,37.3871834 155.821613,37.675339 L155.762844,38.4624129 L156.697131,38.4638971 C159.489946,38.4685619 162.435461,38.6462472 165.054228,39.9036147 C170.965351,42.7417031 174.231589,46.6280925 175.039044,51.7849955 L175.137998,52.4143154 C175.567217,55.1438419 176.011003,57.9664517 176.1411,60.7354167 C176.349557,65.1709767 175.588314,69.1264895 173.813671,72.8279843 C172.399934,75.776967 169.909758,78.2766476 165.977213,80.6949066 L165.977213,80.6949066 Z M178.689544,53.9119186 C178.109884,49.8109498 177.043742,45.540777 173.199854,42.0954204 C169.528508,38.8042133 165.826019,36.9841049 161.547889,36.3672951 C160.836123,36.2646702 160.13817,36.1862172 159.463575,36.1103087 C159.442478,36.1081883 159.421632,36.1056439 159.400787,36.1033115 C159.403298,35.9824516 159.406563,35.8615916 159.409828,35.7409437 C159.429167,34.9960648 159.449259,34.2257417 159.372406,33.458175 C159.013258,29.8614254 157.549542,26.399318 155.021693,23.1676927 C154.829561,22.9221562 154.638686,22.6753475 154.447307,22.4281147 C152.67618,20.1385608 150.845028,17.7711901 147.934172,16.1940738 C145.267937,14.7499035 143.053024,13.7128404 140.963185,12.9302192 C136.616741,11.3022145 132.139949,11.8246687 127.810584,12.3297361 C127.510708,12.3647219 127.211334,12.3997076 126.91196,12.4338453 C125.309859,12.6170435 123.757988,13.0489588 122.257101,13.4668798 C121.952202,13.5516938 121.643033,13.63778 121.332107,13.7221699 C121.264547,12.2667617 121.040519,10.6803159 119.729754,9.14942324 C118.060093,7.19976148 116.167911,4.98993278 113.36957,3.48321212 C109.651761,1.48160179 105.127501,-0.484386668 99.7578623,0.106766893 C99.1920159,0.169105181 98.6033146,0.221265789 98.0334497,0.271730117 C96.1573411,0.438177587 94.2176909,0.609925931 92.4304903,1.18220838 C84.267283,3.79617577 78.7632776,8.23512835 76.0598729,14.3820228 C76.0407854,14.3724812 76.0216978,14.3629396 76.0033636,14.3533981 C72.3867687,12.4535645 68.2241684,11.3893609 63.6310929,11.1906841 C57.7779856,10.9375143 52.710232,12.9978584 48.9522383,14.8215713 C43.422113,17.5050862 40.2339841,22.0831337 37.4424249,26.5420176 C34.4346235,31.3465185 34.0754755,36.4737367 36.4039097,41.3696247 C36.5390297,41.6537515 36.6339653,41.9681994 36.7374401,42.3269626 C29.9826956,43.5750006 25.4722492,47.3723353 22.9659992,53.9110704 C20.4293597,60.5301668 24.5826673,65.2447649 29.0479063,69.1322144 C25.7600699,70.7330786 23.275419,73.123137 21.4749072,76.4098915 C19.7861583,79.4926682 19.5425405,82.5782015 20.7701735,85.3331721 C22.7655795,89.810079 26.6817993,92.6269638 32.4105861,93.7055858 C33.1030133,93.8359874 33.7876549,93.9000219 34.4499438,93.9617241 C35.6667773,94.0753749 36.8157996,94.1826646 37.9487482,94.681795 L38.6306271,94.9818245 C41.8890786,96.4145449 44.9669516,97.7675402 47.8250662,99.5662331 C48.678231,100.103106 49.5590225,100.626408 50.4106804,101.132324 C51.6674471,101.879111 52.9671609,102.651342 54.1752041,103.466829 C54.6636956,103.796755 55.0949243,104.222309 55.5517705,104.672884 C56.1223888,105.236473 56.712597,105.818933 57.4723331,106.263782 C63.0624838,109.535694 67.2024804,113.613975 70.1286573,118.73144 L70.5731971,119.506216 C72.3772249,122.643486 74.2422828,125.887621 74.7325324,129.352909 C75.3197267,133.503282 75.7065015,137.933965 75.9862853,143.719128 C76.0877509,145.821031 75.8700017,147.993541 75.6592848,150.094596 C75.6110636,150.575279 75.5628423,151.055751 75.5183883,151.535586 C75.4940265,151.797873 75.4528375,152.07988 75.3925609,152.397932 L75.2986299,152.894094 L75.4319919,152.961521 C73.4946021,164.782684 70.521962,178.115232 61.3049191,188.94916 C61.2205319,189.047969 61.1567392,189.152502 61.1097737,189.259367 C60.2307402,190.459273 59.2821375,191.629283 57.9254121,192.260511 C56.8612793,192.7554 55.5834157,192.727836 54.2329692,192.698575 C53.341378,192.67928 52.4191463,192.659773 51.5054538,192.789114 C49.9478065,193.010054 48.7025928,193.573431 47.498568,194.118361 C46.9500511,194.366654 46.3826978,194.623217 45.7955034,194.841613 C45.1226661,195.091814 44.3945752,195.230485 43.6235373,195.377001 C42.4461347,195.601122 41.2282966,195.832664 40.1074033,196.487004 C39.9745437,196.564821 39.8622786,196.657904 39.7670918,196.760741 C38.5000278,196.929097 37.2515491,197.127138 36.0178884,197.358044 C35.5007655,197.454732 35.1001774,197.757518 34.9469745,198.167806 C34.7839765,198.603538 34.9211058,199.108181 35.2960763,199.453586 C35.6602473,199.789025 36.1959555,199.930028 36.7321659,199.829312 C43.3284332,198.595056 50.3438739,198.254952 57.5835937,198.818541 L57.8832185,198.841865 C61.034428,199.087825 64.2926284,199.341631 67.5071283,198.765532 C69.1539347,198.469743 70.6400036,197.910607 71.7508508,197.45664 C72.0562521,197.33154 72.3714484,197.194141 72.6941793,197.05335 C73.9602387,196.500787 75.2694963,195.929776 76.4956224,195.903484 C76.5051662,195.903272 76.51471,195.90306 76.5245049,195.90306 C77.1184804,195.90306 77.661472,196.296597 78.2888507,196.750988 C78.697978,197.047413 79.1209187,197.353803 79.6101636,197.581317 C80.7825431,198.126035 82.1375105,198.447692 83.8737272,198.593148 C85.9000249,198.762988 87.961484,198.704678 89.9548808,198.649125 C91.151371,198.615624 92.3880455,198.581274 93.5830288,198.597601 C98.575939,198.668208 103.650474,198.987321 108.557741,199.296256 C110.573239,199.422841 112.657302,199.553878 114.709468,199.666469 C114.872215,199.675374 115.038478,199.683644 115.202229,199.692549 C115.299928,199.718418 115.397124,199.744922 115.495827,199.768882 C115.641244,199.804292 115.786159,199.821255 115.926804,199.821255 C116.091309,199.821255 116.250289,199.797719 116.399724,199.753827 C119.240509,199.893983 122.259361,200 125.385707,200 C129.635708,200 134.079348,199.80514 138.523993,199.238158 C139.319895,199.136594 139.829232,198.552013 139.708679,197.878166 C139.591641,197.225946 138.88967,196.624403 137.927506,196.748231 C130.611687,197.681609 123.153213,197.555024 115.79947,197.17633 C114.181295,196.694586 112.808496,195.853868 111.718494,194.665624 C111.39727,194.314918 110.931131,194.145926 110.43837,194.202963 C110.350216,194.213141 110.265075,194.232648 110.181693,194.256184 C108.513789,193.580217 106.845384,192.85018 105.531354,191.817146 C103.857423,190.501468 103.360644,188.82936 102.841763,186.610838 C101.839414,182.329216 100.093402,178.156155 97.6519492,174.208063 C97.6283409,174.169897 97.6027233,174.133427 97.57585,174.098229 C97.3985364,173.119264 97.2131859,172.128 97.0087478,171.148823 C96.6443257,169.403987 96.2392168,167.637947 95.8479213,165.930005 C95.242644,163.289109 94.616521,160.558099 94.1305411,157.86271 C93.2846597,153.173344 92.7800945,149.325757 92.5427554,145.754664 C92.3094348,142.244212 92.61132,138.58152 93.4662429,134.557732 C94.7277815,128.619692 96.7636231,122.496333 103.064284,117.936945 C105.785269,115.9682 108.712953,115.160559 112.280322,115.39719 C113.411764,115.472038 114.556768,115.501511 115.663848,115.530136 C117.084868,115.566606 118.554361,115.60456 119.968349,115.739838 C120.71829,115.81193 121.438847,115.784366 122.136046,115.757861 C123.51437,115.705489 124.703577,115.660325 126.00103,116.319542 C129.896907,118.298889 133.314087,119.519998 136.754875,120.162252 C143.692458,121.457574 150.685044,119.124765 154.154464,114.35737 C155.698046,112.236808 157.298139,109.718681 156.801861,106.624666 C156.861887,106.539428 156.994495,106.416023 157.069339,106.381038 C159.045908,105.512542 160.335325,104.480356 161.127208,103.133086 C161.494896,102.507582 161.978615,102.236602 162.853128,102.165994 C164.164395,102.060401 165.441756,101.865116 166.956707,101.604525 C168.312428,101.371075 169.323819,100.741119 170.04764,99.6788236 C171.396831,97.699477 172.178166,95.5047028 172.435849,92.9685522 C172.823377,89.1553149 172.18545,86.223083 170.428136,83.7399412 C170.031567,83.1799568 169.523736,82.7022419 169.032733,82.2400056 C168.994558,82.2043838 168.956383,82.1683378 168.917706,82.1320798 C169.399416,81.7434197 169.896447,81.3539114 170.378157,80.9762771 C171.629649,79.9949791 172.923838,78.9801797 174.09019,77.8782338 C174.793668,77.2132921 175.233938,76.4079832 175.659641,75.6291786 C175.816611,75.3420833 175.964791,75.0706785 176.124775,74.8083912 C178.154087,71.4754131 179.216964,68.1335296 179.284273,64.8753999 C179.365898,60.9082252 179.171254,57.3220773 178.689544,53.9119186 L178.689544,53.9119186 Z" id="Fill-1" fill="#000000"></path>
    </g>
</svg>