<?xml version="1.0" encoding="UTF-8"?>
<svg width="200px" height="200px" viewBox="0 0 200 200" version="1.1" xmlns="http://www.w3.org/2000/svg" xmlns:xlink="http://www.w3.org/1999/xlink">
    <!-- Generator: Sketch 54.1 (76490) - https://sketchapp.com -->
    <title>ciliege</title>
    <desc>Created with Sketch.</desc>
    <g id="ciliege" stroke="none" stroke-width="1" fill="none" fill-rule="evenodd">
        <path d="M138.458706,190.885989 C129.088281,187.319261 122.127098,180.793198 117.177745,170.935896 C113.101959,162.819076 111.297153,155.794307 111.497153,148.828318 C111.758891,139.730721 114.353346,131.393567 119.208059,124.048281 C121.758521,120.191349 125.569242,117.918152 130.858336,117.099667 C132.260185,116.882662 133.744473,116.772495 135.269797,116.772495 C139.548909,116.772495 143.787726,117.622773 147.730425,118.541811 L148.537079,118.73146 C149.354085,118.925176 150.169982,119.125915 150.988835,119.327024 C153.401405,119.92 155.896414,120.533678 158.403623,120.957338 C159.802144,121.193937 161.202144,121.135527 162.55963,121.079704 C163.125989,121.055675 163.711571,121.031645 164.272754,121.031645 L165.401035,121.031645 L165.782921,118.256044 L164.662033,117.971017 C164.486433,117.926654 164.311941,117.877116 164.13597,117.826839 C163.686063,117.699667 163.220628,117.568059 162.710092,117.495231 L162.61841,117.481922 C161.968503,117.388762 161.296414,117.292274 160.602144,117.270462 C160.349649,117.262329 160.114529,117.264917 159.887172,117.277486 C157.916747,117.380628 156.625804,116.606137 155.661664,114.702994 L156.211386,114.400591 C157.209538,113.852348 158.21841,113.297449 159.232828,112.752532 C166.507505,108.840148 177.986617,107.914455 185.996599,115.127024 C190.299741,119.00207 193.067209,124.098189 194.457227,130.707061 C197.509723,145.224991 194.832828,158.930351 186.500111,171.442366 C184.038373,175.139963 181.001405,178.591349 178.064621,181.929242 L177.874603,182.144769 C173.659815,186.935527 167.792532,188.586913 162.080148,189.657893 C155.174048,190.952532 147.720074,191.344399 138.619889,190.891904 L138.592163,191.445693 L138.615453,190.891534 C138.561109,190.888577 138.480518,190.887098 138.458706,190.885989 M140.979224,96.925915 C140.393272,95.2719409 139.791054,93.5821072 139.169982,91.8501294 C134.87756,79.8852495 129.459815,67.894122 122.606211,55.1920887 C120.629501,51.5288725 118.199926,48.0830314 115.850203,44.7503142 L115.828392,44.7196303 C114.80658,43.2697227 113.750388,41.7710166 112.752237,40.2826617 C112.864251,40.2501294 112.972939,40.2209242 113.080148,40.1950462 C113.343364,40.1310906 113.60732,40.0545656 113.863512,39.9676895 C115.1722,39.5233272 116.367394,38.7980037 117.578484,37.7063216 C119.835786,42.6453235 122.106026,47.5780407 124.376636,52.5107579 C129.449834,63.5321996 134.695305,74.9288725 139.707874,86.2260998 C141.980702,91.3488355 144.036525,96.6726802 146.024695,101.821664 C147.200665,104.867135 148.416932,108.016858 149.673124,111.112606 C150.293826,112.641996 151.022107,114.07268 151.799187,115.575453 L146.352237,114.17915 C146.342994,114.067505 146.334492,113.953272 146.32488,113.834233 C146.307874,113.613161 146.290869,113.389871 146.269427,113.16658 C146.208429,112.513715 146.111201,111.74403 145.85464,110.985065 C144.332643,106.487837 142.737819,101.889316 140.979224,96.925915 M114.80658,30.642366 C114.541146,31.4283179 114.178115,32.5044732 113.942994,32.6283179 C113.808059,32.6996673 113.469057,32.712976 112.933013,32.6663956 L114.819519,29.2471719 C114.974787,29.6889464 114.985139,30.1126063 114.80658,30.642366 M79.8276525,127.694861 C82.0579667,128.450499 84.0169316,129.458262 85.6498336,130.690425 C89.2302403,133.392089 91.3829205,137.270462 92.0472458,142.217597 C92.2442884,143.685619 92.3337523,145.149575 92.3134196,146.569168 C92.2775601,149.04939 91.9056562,151.476377 91.2080591,153.783216 C90.7097227,155.431645 90.0343068,157.051978 89.2010351,158.600222 C80.5137893,174.738854 68.8102773,184.619815 53.4221072,188.807246 C45.876451,190.86085 39.4930869,190.080813 33.908244,186.42536 C32.8838447,185.75475 31.9156377,184.958078 30.7777449,183.968059 C29.695305,183.0261 28.6080591,182.089686 27.5145287,181.148096 C24.4557486,178.512976 21.2923475,175.788392 18.3049168,172.995046 C7.07866913,162.498928 2.56332717,151.067505 4.50121996,138.046802 C6.07608133,127.465287 10.3962292,118.20207 17.3422551,110.513715 C22.2982625,105.027948 28.4269131,101.409464 35.5574122,99.7595564 C36.985878,99.4290573 38.4712754,99.2615896 39.9725693,99.2615896 C40.4709057,99.2615896 40.979963,99.2800739 41.4853235,99.3166728 C43.0076895,99.4268392 44.5758965,99.7044732 46.1459519,100.14329 C48.9703512,100.9322 51.2121257,102.808355 53.4143438,106.227579 C54.2527911,107.529242 55.0228466,108.89634 55.6649908,110.06159 C55.9045471,110.49634 56.1415157,110.930351 56.3758965,111.360665 L56.8383734,112.207616 C56.9762662,112.458632 57.2439187,112.948466 57.3267283,113.185804 C57.2975231,113.221664 57.2527911,113.271571 57.1847689,113.339963 L54.3126802,110.065656 L52.3041774,111.533309 L52.565915,111.967689 C56.1644362,117.942181 60.6121257,121.701146 66.1629575,123.46085 C67.9969686,124.042366 69.8598152,124.600961 71.6616636,125.141072 L71.8209982,124.610203 L71.6657301,125.142551 C74.3551941,125.948835 77.1359704,126.782477 79.8276525,127.694861 M98.9951201,20.04939 C99.7049168,20.2678743 100.426174,20.3784104 101.188835,20.3869131 C101.577375,20.391719 101.961109,20.3673198 102.333752,20.3240665 C101.459445,20.8290573 100.511941,21.2161183 99.449464,21.3569686 C99.1925323,21.391719 98.9019593,21.3821072 98.5855083,21.3536414 C98.6757116,20.9525323 98.7733087,20.5684288 98.9001109,20.2039187 C98.9126802,20.1673198 98.9492791,20.1114972 98.9951201,20.04939 M106.222107,15.0841405 C105.022107,15.5983734 103.761479,16.0626987 102.526359,16.5174122 L102.388466,16.5684288 L102.348909,16.4479113 L101.253161,16.6275786 C100.890499,16.687098 100.605102,16.6545656 99.9648059,15.701146 C99.2350462,14.6153789 99.0675786,13.2220333 99.5045471,11.8785952 C99.9448429,10.527024 100.906026,9.49375231 102.141516,9.04310536 C102.440222,8.93404806 102.714159,8.87933457 102.967024,8.87933457 C103.460555,8.87933457 103.873494,9.0889464 104.233937,9.5148244 C105.656488,11.1939372 106.346691,13.0231423 106.287911,14.9262847 C106.280887,14.9617745 106.250573,15.030536 106.222107,15.0841405 M108.819889,31.5747135 C108.633198,31.7421811 108.18403,31.8663956 107.99586,31.8431054 C106.10085,31.5780407 104.176636,31.1373752 102.476451,30.7477264 C101.812126,30.5954159 101.386617,30.3869131 101.111571,30.0453235 C105.020998,30.4238817 108.490869,29.4442144 111.650203,27.0604806 C110.973678,29.023512 110.070536,30.4527172 108.819889,31.5747135 M65.5075046,119.285619 L65.4727542,119.360665 C65.4335675,119.445323 65.3943808,119.529982 65.3548244,119.615749 L59.8357856,115.988392 C60.6453974,115.198743 61.4476155,114.422403 62.2413309,113.654566 C64.8084288,111.170647 67.2335675,108.824621 69.5825508,106.330351 C76.1773752,99.3285028 80.9089834,91.2172274 85.5718299,82.8260998 C86.1015896,81.8726802 86.636525,80.9218484 87.1773752,79.9602957 C90.5182255,74.0220333 93.9725693,67.8808133 96.1148983,61.1872828 C97.579963,56.6083549 98.837634,51.900037 100.05427,47.3466174 C100.487911,45.7229575 100.921553,44.0996673 101.365176,42.4793346 C101.482366,42.0490203 101.547061,41.6194455 101.592902,41.1968946 C103.613235,41.7103882 105.601405,41.5850647 107.43061,41.3784104 L107.350388,41.5499445 C106.579224,43.1887616 105.850943,44.7366359 105.192163,46.370647 C104.085693,49.1155638 103.004732,51.8863586 101.95963,54.565841 C100.529316,58.2316451 99.050573,62.0220333 97.5208133,65.7126063 C93.270536,75.9636229 87.1426248,85.4375601 81.2154529,94.6005915 L80.0265434,96.4394085 C77.908244,99.72 75.7241405,103.038669 73.611756,106.248651 L73.5792237,106.297449 C71.462403,109.513715 69.2738632,112.839409 67.1267283,116.163623 C66.4971534,117.138484 66.0161922,118.181738 65.5075046,119.285619 M197.232458,126.040887 C194.885693,118.010943 190.507505,112.317412 184.220259,109.117043 C174.096044,103.963993 163.923031,104.76732 153.974048,111.501516 C153.784399,111.075268 153.592532,110.647542 153.399187,110.217967 C152.48976,108.191719 151.548909,106.09597 150.738189,103.980259 C149.68976,101.244214 148.682366,98.4504991 147.707135,95.7443993 C146.026543,91.0837708 144.28902,86.2649168 142.30085,81.6238817 C139.504547,75.0978189 136.389205,68.609464 133.377006,62.3351571 L133.341516,62.2615896 C132.246506,59.9802588 131.151497,57.6992976 130.069797,55.4131608 C127.088651,49.1122366 123.92525,42.5281331 120.667948,35.8445841 C120.592163,35.6889464 120.496414,35.5377449 120.385508,35.397634 C120.363327,35.3695379 120.339298,35.3440296 120.32414,35.3303512 C120.237634,35.2283179 120.1478,35.1296118 120.049834,35.0397782 C119.93597,34.9355268 119.819519,34.8419963 119.700111,34.752902 C119.855749,34.1100185 119.904547,33.4534566 119.843919,32.7773013 C119.84281,32.7373752 119.840222,32.6978189 119.835416,32.6578928 C119.832089,32.630536 119.827652,32.6028096 119.820628,32.5676895 C119.768503,32.1761922 119.680518,31.7943068 119.559261,31.4327542 C119.541516,31.3802588 119.520444,31.3281331 119.499002,31.2763771 L119.445397,31.1384843 C119.407689,31.0357116 119.368872,30.9336784 119.322662,30.8301664 C119.248355,30.6641774 119.165915,30.4974492 119.07719,30.3344177 C119.076081,30.3240665 119.075342,30.3126063 119.074233,30.3015157 C119.062773,30.1795194 119.046876,30.0124214 118.999556,29.8253604 C118.939667,29.5909797 118.88976,29.3506839 118.838373,29.1029945 C118.695675,28.4220333 118.54817,27.7177819 118.20732,27.0279482 C117.895675,26.3972643 117.520074,25.8246211 117.155933,25.269353 C116.68939,24.5584473 116.249094,23.887098 116.024325,23.209464 C115.906396,22.8538262 115.775896,22.4974492 115.624695,22.12 C115.59549,22.0468022 115.564067,21.9750832 115.532274,21.9026248 L115.479778,21.7813678 C115.378484,21.5425508 115.276451,21.3044732 115.166285,21.0726802 C115.121922,20.97878 115.074972,20.8867283 115.027652,20.7946765 L114.97146,20.6841405 C114.86647,20.4760074 114.76,20.2686137 114.647246,20.0660259 C114.581811,19.9480961 114.513789,19.8331238 114.445767,19.7177819 L114.417671,19.6704621 C114.303438,19.4771165 114.186987,19.2856192 114.06573,19.0978189 C113.981442,18.9676895 113.895675,18.8386691 113.808059,18.7114972 C113.682366,18.5277634 113.552237,18.3462477 113.419519,18.1673198 C113.327837,18.0431054 113.235046,17.9196303 113.139667,17.7983734 C112.999556,17.6190758 112.852791,17.443475 112.705287,17.2697227 L112.649464,17.203549 C112.571091,17.1107579 112.492348,17.0179667 112.410277,16.925915 C112.282736,16.7839556 112.150758,16.6442144 112.017301,16.5052126 L113.602144,15.409464 L111.286063,15.7699076 C111.12451,15.617597 110.959261,15.4678743 110.790684,15.32 C110.50159,15.0660259 110.380333,14.8549353 110.275342,14.1765619 C110.027283,12.5747135 109.663882,10.7103882 108.853161,9.02757856 C108.77146,8.85826248 108.678669,8.68709797 108.568872,8.50521257 C107.12451,6.10558226 104.165176,4.63349353 101.680518,5.07970425 C98.5248799,5.6445841 96.1655453,8.01796673 95.5215527,11.2734196 C95.0912384,13.44939 95.3478004,15.5702773 96.2424399,17.2845102 C96.1230314,17.5155638 96.0043623,17.7418115 95.8871719,17.9651017 C95.3751571,18.9407024 94.8912384,19.8615896 94.5474307,20.8708318 C93.9884658,22.5089094 94.3636969,23.9466174 95.5215527,24.7636229 L94.7274677,25.1736044 L96.5485397,25.6468022 C96.5526063,25.6593715 96.5555638,25.6719409 96.5592606,25.6845102 L96.6025139,25.8290573 C96.6147135,25.8771165 96.6265434,25.9307209 96.6402218,25.9931978 L96.6686876,26.114085 C96.6908688,26.2198152 96.7126802,26.3321996 96.7363401,26.4534566 L96.7832902,26.6944917 C96.9559335,27.5643623 96.9636969,28.4956007 96.9710906,29.4819224 C96.9862477,31.3998521 97.0017745,33.3813678 98.1873567,35.2981885 C98.185878,35.338854 98.1829205,35.3972643 98.1755268,35.4797043 C98.1404067,35.8959704 98.1160074,36.3151941 98.0916081,36.7395933 C98.0324584,37.7455083 97.9770055,38.6952311 97.7747874,39.5843253 C97.5500185,40.5728651 97.3289464,41.5632532 97.1078743,42.5540111 L97.0657301,42.7421811 C96.1311645,46.9292421 95.1648059,51.2582625 93.9463216,55.4150092 C91.7167468,63.0183364 87.9374492,70.327024 84.5699815,76.5806285 C84.049464,77.5473567 83.5274677,78.5092791 83.0036229,79.4737893 L82.7422551,79.9554898 C76.256488,91.9074307 69.8513124,100.901146 62.5847689,108.259372 C61.8886506,108.963993 61.178854,109.647542 60.4797782,110.317043 C60.1781146,109.807616 59.8808872,109.299298 59.585878,108.794677 C58.3171165,106.6261 57.1185952,104.578041 55.696414,102.60281 C51.5773752,96.8848799 45.7655453,94.2904251 38.8875416,95.0967098 C30.6025139,96.0675046 23.444658,99.2419963 17.6132348,104.530721 C9.36961183,112.008355 3.98513863,121.74366 1.15186691,134.293383 C-1.38417745,145.524067 0.272014787,155.695231 6.0742329,164.524806 C8.45426987,168.145878 10.8424399,171.617227 13.8827357,174.279704 L14.4468762,174.773604 C17.8856932,177.783586 21.4409612,180.89634 24.7330129,184.185434 C34.1123105,193.558078 44.9551941,196.207985 56.9585213,192.059741 C59.7814418,191.08414 62.5304251,189.917412 65.1289464,188.59061 C65.8720148,188.211312 66.6150832,187.812421 67.3359704,187.406137 C67.6993715,187.201701 68.0598152,186.993567 68.41878,186.782107 C76.2897597,182.134418 83.036525,175.735157 88.4716451,167.761405 C91.6516821,163.09671 93.7784843,158.850499 94.9736784,154.779889 C95.7001109,152.304843 96.1026987,149.866026 96.204732,147.324436 C96.7932717,132.683771 88.6269131,126.745878 81.6727542,124.342921 C78.7906839,123.347357 75.8032532,122.627579 72.9148983,121.93183 L72.8287616,121.911128 C71.6320887,121.622773 70.3984473,121.324806 69.1906839,121.010943 C69.4487246,120.536636 69.7067652,120.060481 69.9707209,119.572865 C71.0727542,117.537006 72.1137893,115.61464 73.2472458,113.714824 C74.9437338,110.871201 76.7285767,108.085619 78.5522366,105.436081 C79.2320887,104.448651 79.914159,103.461959 80.5965989,102.475268 C87.0158226,93.19061 93.6535305,83.59061 98.3958595,73.0338632 C101.655749,65.777671 104.682736,58.2874677 107.609538,51.0445841 L107.709353,50.7968946 C108.656118,48.4545656 109.625804,46.0560444 110.601035,43.6719409 C110.621738,43.7037338 110.64281,43.7358965 110.663512,43.7676895 C111.444288,44.9580776 112.2539,46.1303512 113.036895,47.2641774 C114.675712,49.6375601 116.370351,52.0919039 117.742994,54.6268392 C126.472384,70.7443993 133.986617,88.1924584 140.07719,106.485989 C140.723401,108.427209 141.317486,110.346987 141.946691,112.379519 L142.015823,112.603549 C142.096784,112.864547 142.177375,113.125915 142.258336,113.387652 C142.024325,113.356599 141.791423,113.325176 141.55963,113.293752 C139.690129,113.042366 137.92451,112.804658 136.117116,112.756229 C135.471275,112.738115 134.828022,112.737375 134.205102,112.753641 C124.752976,112.996895 117.900111,117.070462 113.836525,124.86122 C104.919335,141.957338 105.439113,159.159187 115.380702,175.987652 C118.749649,181.690795 123.202144,187.981368 130.681627,191.399482 C131.545582,191.794307 132.41915,192.26085 133.267948,192.714085 C134.581072,193.415749 135.938558,194.141442 137.390314,194.678226 C138.718965,195.169168 140.28976,195.439409 141.813974,195.439409 C142.178484,195.439409 142.542994,195.423882 142.897153,195.392828 C149.212126,194.843105 156.026913,194.146248 164.344473,193.200222 C171.59549,192.375453 177.752237,188.995786 182.643919,183.15475 C185.495675,179.749575 188.778854,175.652348 191.507505,171.08451 C199.92451,156.992458 201.850573,141.83756 197.232458,126.040887" id="Fill-1" fill="#000000"></path>
    </g>
</svg>