<?xml version="1.0" encoding="UTF-8"?>
<svg width="200px" height="200px" viewBox="0 0 200 200" version="1.1" xmlns="http://www.w3.org/2000/svg" xmlns:xlink="http://www.w3.org/1999/xlink">
    <!-- Generator: Sketch 54.1 (76490) - https://sketchapp.com -->
    <title>mano</title>
    <desc>Created with Sketch.</desc>
    <g id="mano" stroke="none" stroke-width="1" fill="none" fill-rule="evenodd">
        <path d="M171.768822,54.2510612 C170.447438,57.5509434 168.237978,60.41854 166.221668,63.3147513 C164.031625,66.4623627 161.839539,69.6130399 159.846733,72.8914611 C157.910134,76.0748408 155.801848,79.4902036 155.067064,83.188647 C154.705293,85.0118089 154.792159,86.8257733 154.821796,88.6714181 C154.854498,90.6734216 154.848367,92.6754251 154.799313,94.6774286 C154.618427,101.927154 153.845832,109.169726 152.244434,116.248786 C150.846404,122.423419 148.856663,128.527536 145.410642,133.88563 C141.975862,139.226349 137.19415,143.654466 131.038935,145.554275 C127.898477,146.523085 124.585309,146.828648 121.310976,146.686597 C119.847541,146.623236 118.407611,146.418846 116.958483,146.224675 C115.828205,146.073426 114.470031,146.175621 114.625368,147.692198 C114.772529,149.119864 117.170027,149.051394 118.194023,149.171984 C120.074414,149.394769 121.970135,149.490833 123.861768,149.428494 C125.80041,149.363089 127.730877,149.129062 129.624553,148.706996 C131.100252,148.376905 133.201385,147.270132 134.26728,148.936935 C134.730224,149.661499 134.57591,150.512785 134.561602,151.329324 C134.542185,152.39522 134.552405,153.462137 134.586129,154.528033 C134.64949,156.499378 134.795629,158.467657 134.995932,160.42776 C135.197256,162.396039 135.452744,164.358187 135.731737,166.316246 C136.017884,168.317228 134.830376,169.064275 133.301536,170.074985 C120.990083,178.211765 105.747673,179.871414 91.4352384,177.447345 C87.5446681,176.788186 83.6868002,175.871495 79.9117105,174.725887 C78.4983512,174.296668 77.9158387,173.415745 78.1028559,171.956398 C78.3031584,170.388724 78.4840439,168.824116 78.5811293,167.245201 C78.7926733,163.799179 78.7098952,160.340895 78.460539,156.897939 C78.3910462,155.937304 78.3082682,154.977692 78.2152705,154.020123 C78.1284046,153.127959 77.8698509,152.166302 78.3562999,151.348741 C79.1554662,150.004875 80.9929354,150.379931 82.3051215,150.307372 C86.1629893,150.092762 90.0198352,149.861801 93.8756592,149.616533 C94.7984816,149.558282 95.7213041,149.499008 96.6441265,149.439735 C97.3278122,149.394769 98.3426103,149.479591 98.8719813,148.930803 C99.2470376,148.544505 99.3124425,147.823008 99.0641082,147.338602 C98.77183,146.770397 98.1882956,146.689663 97.5945416,146.678422 C95.701887,146.642653 93.7448494,146.9707 91.8583264,147.120927 C89.8093132,147.284439 87.759278,147.437732 85.7061769,147.531751 C82.3388459,147.689132 78.9745807,147.69322 75.6399521,147.139322 C63.5839873,145.134252 51.241876,135.595355 51.5157591,122.426485 C51.5545932,120.551203 52.109513,118.768919 52.4855913,116.946779 C52.8657573,115.1042 53.1927819,113.202348 53.4073918,111.332176 C53.7477017,108.373626 53.2224185,105.515227 51.114132,103.306789 C49.0957773,101.192371 46.2567953,100.173485 43.4280329,99.7279141 C40.0412848,99.1954773 36.3499951,99.6911239 33.1441324,98.3421476 C27.1953513,95.8383658 24.5801767,87.847725 28.6485667,82.5673003 C30.7844458,79.7947452 34.4328136,78.2424005 37.6182372,77.046717 C41.031556,75.7641675 44.6564189,75.0263183 48.3078525,75.0488013 C54.6919851,75.0866135 60.7398956,77.554627 65.5951884,81.6506096 C68.3370849,83.9622645 70.6191032,86.6970073 72.5853383,89.6872382 C73.5980925,91.2293634 74.4585759,92.9421545 75.5898765,94.3974138 C75.917923,94.8194799 76.3297696,95.2997972 76.9122821,95.2446118 C77.4385872,95.1945362 78.0415387,94.7346579 78.1488437,94.2093747 C78.2357096,93.7801549 78.0272314,93.3192547 77.8616752,92.9360228 C77.4886629,92.0755394 77.2638335,91.2406048 77.9066411,90.4179337 C78.9132636,89.1292525 81.4078478,89.5349674 82.8559535,89.5308796 C86.2631406,89.52066 89.6928107,89.8262236 92.9916709,90.7091899 C99.1356449,92.3545322 104.606153,95.8639146 106.881017,102.025262 C107.204976,102.90414 107.423674,103.807546 107.710842,104.696644 C107.870266,105.190246 108.073635,105.772759 108.613225,105.952622 C109.505389,106.25001 110.382224,105.565303 110.42719,104.691534 C110.493617,103.398765 109.779272,101.81474 109.304065,100.636429 C108.798199,99.3845384 108.171742,98.1806792 107.423674,97.0565323 C104.192262,92.2043053 98.9373862,89.4051795 93.3994297,88.0071495 C89.8001156,87.0986344 86.0832771,86.7450391 82.3766581,86.7848952 C80.4543668,86.8043123 78.5330975,86.9289904 76.6210258,87.1333807 C74.9327615,87.3152882 74.2092197,86.9085514 73.1504777,85.5565092 C70.9747424,82.7798663 68.4535874,80.2709747 65.623803,78.1616663 C64.4322073,77.2735902 62.488455,76.5296094 61.810901,75.1642818 C61.0352396,73.6017176 61.1200616,71.4719701 60.8962542,69.7673546 C60.0163537,63.0418901 58.8472409,56.3450403 57.0741546,49.7943296 C56.1748371,46.4729864 55.1120073,43.2017188 53.8815774,39.9887025 C52.6102694,36.6694032 50.9833222,33.5023747 50.8770392,29.8764899 C50.6951318,23.7049233 55.1988732,16.1864242 61.8701742,15.6723825 C65.2579443,15.4107629 67.9364798,17.2584516 69.816871,19.9247238 C71.8464672,22.8025399 73.4734144,25.955261 74.8356761,29.197914 C77.7799191,36.2105469 79.7635275,43.6176532 81.2330941,51.0687034 C81.890209,54.4063978 82.4400191,57.7635093 82.9223803,61.1298184 C83.1114414,62.4379167 83.6837344,64.1660371 82.4185581,65.1144083 C81.8207163,65.5630451 80.9673866,65.7643696 80.2796131,66.0341649 C78.5085707,66.730114 76.7365064,67.4240193 74.9767054,68.148583 C73.9680391,68.5634955 71.9077843,69.1827982 72.6834457,70.6758697 C73.5020291,72.2517193 75.6450619,70.8015698 76.7313966,70.3478232 C78.5392293,69.5926009 80.3715887,68.8966517 82.2264312,68.2681514 C89.3862252,65.8440818 96.8832632,64.4807982 104.44775,64.4388982 C111.685212,64.3990421 118.913477,65.50275 125.662447,68.1690221 C128.94189,69.4638349 132.084391,71.0969138 135.037832,73.0243149 C136.236581,73.8061079 137.384233,74.652284 138.533929,75.5076576 C139.135858,75.9573164 139.797061,76.4161727 140.521625,75.9378993 C141.194069,75.4933503 141.391306,74.6073181 140.913033,73.9655324 C139.999408,72.7422562 137.954482,72.2404779 138.618751,70.3079671 C138.916139,69.4433959 139.585517,68.6176589 140.054593,67.8379097 C140.597249,66.9375702 141.137862,66.0362088 141.679496,65.1338254 C143.663105,61.8278115 145.652845,58.5248634 147.724341,55.271991 C149.834671,51.9547356 152.15348,48.8633315 154.661349,45.8373324 C156.735911,43.3345725 158.718498,40.0888538 162.429205,40.4598223 C164.082723,40.6253785 165.570684,41.4797301 166.983022,42.2962696 C168.412732,43.1220066 169.792367,44.087751 170.821472,45.3968712 C172.840849,47.9691237 172.95633,51.288423 171.768822,54.2510612 M83.5621221,20.5143899 C83.6673831,17.6355518 83.987254,14.7679552 84.4461104,11.9248854 C84.7639374,9.95558441 85.2514084,7.97299801 86.5216944,6.38181913 C89.2298665,2.98791737 94.7187694,2.40438291 98.6972276,3.09011254 C103.505511,3.91891541 107.488057,7.11558049 109.410348,11.5866194 C111.579951,16.6289294 110.991307,22.6124569 111.032185,27.9664621 C111.069997,32.9617623 111.09759,37.9570624 111.164017,42.9513406 C111.205917,46.0008447 111.182412,49.0697658 111.378627,52.1131381 C111.53192,54.4799784 111.881427,56.8222918 112.144069,59.1778906 C112.23911,60.0322422 112.175749,60.8436719 111.44301,61.4292503 C110.520187,62.1650555 109.180409,61.8083944 108.108381,61.7634285 C105.230565,61.6428382 102.344573,61.7184626 99.4749329,61.9616871 C96.5153606,62.2130873 93.5711176,62.6392411 90.6585551,63.2156219 C89.558935,63.4332977 88.0382708,64.0893907 86.9550019,63.5508221 C86.0740795,63.1124048 85.8747989,62.2887117 85.7685159,61.4057454 C84.1333931,47.8863457 83.0715853,34.1370068 83.5621221,20.5143899 M115.391831,60.4226278 C117.128127,51.6757427 118.863401,42.9288577 120.601741,34.1819727 C121.633913,28.985348 122.464759,23.6967477 123.860746,18.5839231 C124.794809,15.1654944 127.269977,13.395474 130.704756,12.8395323 C135.392449,12.0802221 140.334608,13.2084568 143.651863,16.7536075 C147.006931,20.3375923 147.752956,25.2470485 147.562873,29.979707 C147.355416,35.1957488 146.004396,40.2257953 144.623739,45.2292711 C143.091834,50.7743813 141.454667,56.288833 139.706107,61.7685383 C139.233966,63.2473024 138.655541,64.6361349 137.930977,66.009638 C137.507889,66.8118702 137.104218,67.7868121 136.543167,68.5164857 C135.627498,69.7091034 134.397068,69.3626617 133.270877,68.743359 C132.041469,68.0668269 130.785491,67.4342388 129.508051,66.8517263 C126.94193,65.6815915 124.284856,64.7117593 121.571574,63.9381418 C120.174566,63.5395806 118.764272,63.2176658 117.347847,62.896773 C116.148076,62.6249338 115.114882,61.8073724 115.391831,60.4226278 M172.333961,42.9145504 C170.577226,40.9237884 168.304405,39.4981657 165.811865,38.6151994 C163.027046,37.6290159 160.058277,37.0832937 157.515661,38.9555093 C155.032318,40.782759 153.286824,43.3611433 151.04875,45.3927834 C150.166806,46.1919496 146.783123,50.2797567 145.850081,51.3487182 C147.559807,45.2578857 149.290993,39.1977119 150.02271,32.8861378 C150.613399,27.7845547 150.439667,22.4213519 147.832668,17.8583373 C145.504662,13.7787059 141.498611,11.0000191 136.883477,10.1609967 C132.820197,9.4221256 127.638901,9.81557702 124.354348,12.6044834 C121.912906,14.6770015 121.280317,17.653947 120.625246,20.6237388 C118.843984,28.7114649 117.508293,36.9085399 115.489939,44.9431246 C115.290658,45.7320714 115.138387,47.3528868 114.547699,47.984453 C114.297321,48.2522044 113.794521,47.4090942 113.822114,47.1648477 C113.959055,45.9906252 113.799631,44.7060318 113.789411,43.5266995 C113.739335,37.8885917 113.688238,32.2504838 113.63714,26.612376 C113.603416,22.7851667 113.950879,18.7351719 113.233469,14.9519065 C112.508906,11.1328728 110.771588,7.50187826 107.91421,4.82232076 C105.042526,2.1315218 101.262326,0.602681975 97.3840196,0.130540266 C93.3186955,-0.363062431 89.0786177,0.507640462 86.0117405,3.35071024 C82.8007681,6.32663374 81.7553114,10.5237896 81.2453575,14.7178796 C80.4329059,21.3922465 80.810006,28.1545012 80.9724964,34.8564608 C80.9878257,35.5227734 81.0041769,36.1880639 81.0205281,36.8533545 C79.6337396,33.4911333 78.2633023,30.1207364 76.8591406,26.7656688 C74.0794318,20.1219604 69.4520343,11.9790489 61.0188884,13.1164812 C53.1549697,14.1762451 48.0452109,22.2741908 48.1116378,29.7702069 C48.1463841,33.7466212 49.9378656,37.1067986 51.2980833,40.7469907 C52.8453183,44.8889612 54.1094726,49.1341487 55.1447097,53.4324778 C56.2596591,58.0578314 57.0813083,62.7393924 57.7936087,67.4413924 C57.9826698,68.6922614 58.5212383,70.3856354 58.3444407,71.6773824 C57.9714283,74.39884 54.7338851,73.0805222 53.0824111,72.8056172 C48.4529697,72.0371095 43.7182672,72.3569804 39.2124819,73.6466835 C35.1124115,74.8198841 30.6291092,76.5868387 27.5744954,79.672111 C21.7176899,85.5902336 23.3497468,95.7371925 30.3429627,100.004863 C34.0138134,102.243959 38.0382594,101.755466 42.1199347,102.304255 C45.7734122,102.796835 49.7283655,104.14479 50.6859342,108.141643 C51.7007323,112.377633 49.2838164,116.517559 48.8597065,120.684057 C48.4519477,124.696239 49.1264359,128.731927 50.8259416,132.389492 C54.2034922,139.655569 60.8492444,145.083155 68.2440873,147.904764 C69.2047219,148.271644 70.1796639,148.597647 71.1658474,148.887881 C72.127504,149.170962 73.3957461,149.264981 74.223527,149.854648 C75.0962738,150.475994 75.1228445,151.438673 75.2260617,152.415659 C75.3538056,153.627693 75.4611106,154.841772 75.5633058,156.056873 C75.6695887,157.314895 76.1815866,159.193243 75.7002473,160.367465 C75.3231471,161.287222 74.5127393,161.57439 73.6021803,161.651037 C72.4289797,161.749144 71.2619108,161.865647 70.0958639,162.033247 C65.9150593,162.633132 60.8308493,163.367916 57.6004598,166.364278 C56.1799469,167.681574 55.4461855,169.502692 55.9244589,171.424983 C56.4262372,173.450492 57.9857356,174.843412 58.2269162,176.991554 C58.4967115,179.382922 58.273926,181.895901 58.2708601,184.301575 C58.2667723,186.794116 58.2688162,189.2887 58.2708601,191.782262 C58.2729041,193.705575 58.2483772,195.630932 58.2759699,197.554246 C58.2912992,198.594593 58.5089749,200.362569 60.0071562,199.934371 C61.0035591,199.648225 60.9729006,198.272678 60.986186,197.443875 C61.0107128,195.905837 60.986186,194.364734 60.9872079,192.827719 C60.9872079,190.343354 60.9872079,187.857967 60.9872079,185.374625 C60.9872079,184.066526 60.7981468,182.607179 61.0096908,181.308279 C61.1629836,180.369105 61.937623,179.644541 62.891104,179.579136 C63.7209288,179.520885 64.267673,179.751846 64.756166,178.845375 C65.4664224,177.529101 63.4255848,176.395757 62.6080234,175.68039 C61.1568519,174.412148 58.6898604,172.563437 58.5212383,170.476612 C58.3812309,168.745426 60.3566637,167.312649 61.8875474,166.987669 C62.7756235,166.79963 63.6841386,167.194103 64.1235778,167.997357 C64.6222903,168.906894 64.0520412,169.696863 64.2145315,170.626839 C64.3279682,171.269647 64.7674074,171.626308 65.3110858,171.939025 C66.3166863,172.519494 67.4755796,172.928274 68.5384094,173.39224 C73.038063,175.358476 77.6715922,177.019147 82.4165142,178.286367 C91.4352384,180.69613 101.056914,181.877506 110.367917,180.827961 C114.680553,180.342534 118.955377,179.432997 123.092238,178.120811 C126.38701,177.075354 129.704266,175.797915 132.62807,173.927743 C135.886052,171.845005 138.638168,168.65345 141.080633,165.6949 C142.187406,164.353077 143.232863,162.954025 144.080061,161.432339 C144.954852,159.864665 146.847506,158.865196 148.370214,160.387904 C149.746783,161.766517 148.868927,163.414925 148.037058,164.79456 C146.869989,166.733203 145.526123,168.577826 144.1005,170.334561 C144.968137,170.838383 145.655911,169.965636 146.423396,169.725477 C147.405492,169.416848 148.502046,169.918626 148.911849,170.859844 C149.111129,171.319722 149.080471,171.808215 149.080471,172.294664 C149.080471,174.029938 149.080471,175.766234 149.081493,177.50253 C149.081493,182.062479 149.081493,186.62345 149.082515,191.185442 C149.082515,192.512958 148.748337,194.337142 149.835693,195.259964 C150.323164,195.672832 150.711506,195.439827 151.197955,195.063749 C151.90208,194.520071 151.796819,194.093917 151.785577,193.265114 C151.777402,192.62946 151.785577,191.991762 151.786599,191.355086 C151.787621,185.927501 151.787621,180.498893 151.791709,175.071307 C151.792731,172.493945 151.796819,169.917604 151.80295,167.340242 C151.804994,166.180327 151.746743,165.000995 151.866311,163.845167 C151.977704,162.784381 152.360936,161.765495 152.411012,160.700622 C152.606204,156.523905 147.648717,155.462097 144.371317,155.330265 C142.664658,155.260772 140.936537,155.434504 139.234988,155.329243 C136.972387,155.190258 137.203348,153.058466 137.328026,151.41108 C137.415914,150.263428 137.505845,149.115776 137.605997,147.969147 C137.704104,146.856241 137.676511,145.869036 138.523709,145.050452 C140.006561,143.61461 141.779648,142.521122 143.236951,141.04338 C148.791259,135.406294 151.921497,128.020648 153.995037,120.492952 C156.345526,111.963742 157.370544,103.11875 157.507485,94.2839772 C157.575956,89.8671017 157.049651,85.3551847 158.574403,81.112041 C159.663803,78.0799102 161.690334,75.2204892 163.376554,72.5010756 C165.967202,68.3223148 168.943125,64.4041518 171.615529,60.2775106 C173.990545,56.6087039 176.033426,52.6118506 175.038045,48.1142409 C174.609848,46.1755984 173.645125,44.3974024 172.333961,42.9145504" id="Fill-1" fill="#000000"></path>
    </g>
</svg>