<?xml version="1.0" encoding="UTF-8"?>
<svg width="200px" height="200px" viewBox="0 0 200 200" version="1.1" xmlns="http://www.w3.org/2000/svg" xmlns:xlink="http://www.w3.org/1999/xlink">
    <!-- Generator: Sketch 54.1 (76490) - https://sketchapp.com -->
    <title>num-00--zero</title>
    <desc>Created with Sketch.</desc>
    <g id="num-00--zero" stroke="none" stroke-width="1" fill="none" fill-rule="evenodd">
        <path d="M118.796,100.332 C118.796,130.124848 113.534424,140.648 100.056,140.648 C86.577576,140.648 81.316,130.124848 81.316,100.332 C81.316,72.5453415 86.6328792,60.016 100.056,60.016 C113.479121,60.016 118.796,72.5453415 118.796,100.332 Z M114.796,100.332 C114.796,74.5344846 110.332436,64.016 100.056,64.016 C89.7795636,64.016 85.316,74.5344846 85.316,100.332 C85.316,128.199152 89.540424,136.648 100.056,136.648 C110.571576,136.648 114.796,128.199152 114.796,100.332 Z M47,99.774 C47,144.534696 66.0845331,165.664 100.056,165.664 C134.027467,165.664 153.112,144.534696 153.112,99.774 C153.112,58.6986483 134.134008,35 100.056,35 C65.977992,35 47,58.6986483 47,99.774 Z M43,99.774 C43,56.6605176 63.5490664,31 100.056,31 C136.562934,31 157.112,56.6605176 157.112,99.774 C157.112,146.658162 136.332533,169.664 100.056,169.664 C63.7794669,169.664 43,146.658162 43,99.774 Z" id="0" fill="#000000" fill-rule="nonzero"></path>
    </g>
</svg>