<?xml version="1.0" encoding="UTF-8"?>
<svg width="200px" height="200px" viewBox="0 0 200 200" version="1.1" xmlns="http://www.w3.org/2000/svg" xmlns:xlink="http://www.w3.org/1999/xlink">
    <!-- Generator: Sketch 54.1 (76490) - https://sketchapp.com -->
    <title>num-17--diciassette</title>
    <desc>Created with Sketch.</desc>
    <g id="num-17--diciassette" stroke="none" stroke-width="1" fill="none" fill-rule="evenodd">
        <path d="M44.852,148.692 C44.852,159.872997 51.1615999,165.664 62.01,165.664 C72.8584001,165.664 79.168,159.872997 79.168,148.692 L79.168,46.02 C79.168,38.5547096 74.8791656,35 66.102,35 C60.3715797,35 57.4789007,37.3761291 50.6113585,46.8189811 C44.6068646,55.1328957 38.0896999,59.6380498 27.3867607,61.5680609 C13.3732461,64.020426 11,65.9564951 11,74.292 C11,81.8726461 14.7008821,85.498 22.764,85.498 L44.852,85.498 L44.852,148.692 Z M40.852,89.498 L22.764,89.498 C12.5099929,89.498 7,84.1004559 7,74.292 C7,63.6310312 10.988947,60.3768902 26.6870689,57.629746 C36.2944538,55.8972667 41.9384981,51.9956791 47.3725278,44.4716566 C54.9490993,34.0538709 58.6668551,31 66.102,31 C76.9397475,31 83.168,36.1621552 83.168,46.02 L83.168,148.692 C83.168,162.162372 74.9945849,169.664 62.01,169.664 C49.0254151,169.664 40.852,162.162372 40.852,148.692 L40.852,89.498 Z M157.655894,63.55 L153.594304,67.0627263 C146.920062,72.835044 136.435722,87.8955669 127.68724,104.384853 C117.927852,122.77951 111.878,139.825787 111.878,150.552 C111.878,158.710105 118.937257,165.664 126.432,165.664 C131.906162,165.664 135.553612,164.686094 138.597062,161.927411 C142.525497,158.366549 145.247341,151.779364 146.581877,141.186491 C149.528189,117.943365 163.154762,88.0626743 173.339063,77.3816003 C185.920609,64.0811086 189.532,58.2372219 189.532,51.786 C189.532,41.5698302 184.445073,37.418 173.118,37.418 L100.578,37.418 C90.95556,37.418 86.024,42.0594682 86.024,50.484 C86.024,58.9085318 90.95556,63.55 100.578,63.55 L157.655894,63.55 Z M100.578,67.55 C88.798815,67.55 82.024,61.1737035 82.024,50.484 C82.024,39.7942965 88.798815,33.418 100.578,33.418 L173.118,33.418 C186.495414,33.418 193.532,39.1610963 193.532,51.786 C193.532,59.5891417 189.492418,66.1259191 176.239475,80.1361507 C172.34562,84.2199503 166.715763,93.4493286 161.894462,104.021598 C156.165676,116.583825 152.060663,129.773023 150.550314,141.687992 C147.888035,162.819835 140.337375,169.664 126.432,169.664 C116.74147,169.664 107.878,160.93282 107.878,150.552 C107.878,139.000799 114.110537,121.439782 124.15376,102.510147 C131.723343,88.2428697 140.55619,75.0277505 147.415513,67.55 L100.578,67.55 Z" id="17" fill="#000000" fill-rule="nonzero"></path>
    </g>
</svg>