<?xml version="1.0" encoding="UTF-8"?>
<svg width="200px" height="200px" viewBox="0 0 200 200" version="1.1" xmlns="http://www.w3.org/2000/svg" xmlns:xlink="http://www.w3.org/1999/xlink">
    <!-- Generator: Sketch 54.1 (76490) - https://sketchapp.com -->
    <title>num-11--undici</title>
    <desc>Created with Sketch.</desc>
    <g id="num-11--undici" stroke="none" stroke-width="1" fill="none" fill-rule="evenodd">
        <path d="M58.852,148.692 C58.852,159.872997 65.1615999,165.664 76.01,165.664 C86.8584001,165.664 93.168,159.872997 93.168,148.692 L93.168,46.02 C93.168,38.5547096 88.8791656,35 80.102,35 C74.3715797,35 71.4789007,37.3761291 64.6113585,46.8189811 C58.6068646,55.1328957 52.0896999,59.6380498 41.3867607,61.5680609 C27.3732461,64.020426 25,65.9564951 25,74.292 C25,81.8726461 28.7008821,85.498 36.764,85.498 L58.852,85.498 L58.852,148.692 Z M54.852,89.498 L36.764,89.498 C26.5099929,89.498 21,84.1004559 21,74.292 C21,63.6310312 24.988947,60.3768902 40.6870689,57.629746 C50.2944538,55.8972667 55.9384981,51.9956791 61.3725278,44.4716566 C68.9490993,34.0538709 72.6668551,31 80.102,31 C90.9397475,31 97.168,36.1621552 97.168,46.02 L97.168,148.692 C97.168,162.162372 88.9945849,169.664 76.01,169.664 C63.0254151,169.664 54.852,162.162372 54.852,148.692 L54.852,89.498 Z M140.386,148.692 C140.386,159.872997 146.6956,165.664 157.544,165.664 C168.3924,165.664 174.702,159.872997 174.702,148.692 L174.702,46.02 C174.702,38.5547096 170.413166,35 161.636,35 C155.90558,35 153.012901,37.3761291 146.145358,46.8189811 C140.140865,55.1328957 133.6237,59.6380498 122.920761,61.5680609 C108.907246,64.020426 106.534,65.9564951 106.534,74.292 C106.534,81.8726461 110.234882,85.498 118.298,85.498 L140.386,85.498 L140.386,148.692 Z M118.298,89.498 C108.043993,89.498 102.534,84.1004559 102.534,74.292 C102.534,63.6310312 106.522947,60.3768902 122.221069,57.629746 C131.828454,55.8972667 137.472498,51.9956791 142.906528,44.4716566 C150.483099,34.0538709 154.200855,31 161.636,31 C172.473747,31 178.702,36.1621552 178.702,46.02 L178.702,148.692 C178.702,162.162372 170.528585,169.664 157.544,169.664 C144.559415,169.664 136.386,162.162372 136.386,148.692 L136.386,89.498 L118.298,89.498 Z" id="11" fill="#000000" fill-rule="nonzero"></path>
    </g>
</svg>