<?xml version="1.0" encoding="UTF-8"?>
<svg width="200px" height="200px" viewBox="0 0 200 200" version="1.1" xmlns="http://www.w3.org/2000/svg" xmlns:xlink="http://www.w3.org/1999/xlink">
    <!-- Generator: Sketch 54.1 (76490) - https://sketchapp.com -->
    <title>num-12--dodici</title>
    <desc>Created with Sketch.</desc>
    <g id="num-12--dodici" stroke="none" stroke-width="1" fill="none" fill-rule="evenodd">
        <path d="M39.852,148.692 C39.852,159.872997 46.1615999,165.664 57.01,165.664 C67.8584001,165.664 74.168,159.872997 74.168,148.692 L74.168,46.02 C74.168,38.5547096 69.8791656,35 61.102,35 C55.3715797,35 52.4789007,37.3761291 45.6113585,46.8189811 C39.6068646,55.1328957 33.0896999,59.6380498 22.3867607,61.5680609 C8.37324606,64.020426 6,65.9564951 6,74.292 C6,81.8726461 9.70088209,85.498 17.764,85.498 L39.852,85.498 L39.852,148.692 Z M35.852,89.498 L17.764,89.498 C7.50999291,89.498 2,84.1004559 2,74.292 C2,63.6310312 5.98894695,60.3768902 21.6870689,57.629746 C31.2944538,55.8972667 36.9384981,51.9956791 42.3725278,44.4716566 C49.9490993,34.0538709 53.6668551,31 61.102,31 C71.9397475,31 78.168,36.1621552 78.168,46.02 L78.168,148.692 C78.168,162.162372 69.9945849,169.664 57.01,169.664 C44.0254151,169.664 35.852,162.162372 35.852,148.692 L35.852,89.498 Z M133.01,135.998 L133.01,132.522035 L133.944125,131.93369 L167.610878,110.729217 C183.958743,100.44292 191.042,89.7975625 191.042,75.222 C191.042,64.5846903 187.291025,54.9075175 179.830146,47.8186486 C171.153633,39.57476 157.769484,35 139.66,35 C124.48173,35 111.969917,39.0897337 103.216356,46.2647842 C95.3764938,52.6909007 91.068,61.2614356 91.068,69.828 C91.068,80.4159482 96.004514,85.87 107.296,85.87 C111.626803,85.87 114.493714,84.7180306 116.583721,82.4847668 C118.231387,80.7241641 119.169162,78.8525558 120.966218,74.2691545 L120.988259,74.2129388 C122.972821,69.1513957 124.075837,66.957987 126.21537,64.6849036 C129.117196,61.6019449 133.088578,60.016 138.544,60.016 C149.575235,60.016 156.726,66.7496369 156.726,77.082 C156.726,85.4684067 152.983465,91.2363137 143.405116,97.8825149 L125.736129,110.15781 C108.71089,122.001455 99.5947939,129.342366 94.78251,135.054142 C90.6644668,139.941913 89.58,143.416957 89.58,149.808 C89.58,157.314566 95.2220954,163.246 103.39,163.246 L179.278,163.246 C188.880402,163.246 193.088,158.847147 193.088,149.622 C193.088,140.396853 188.880402,135.998 179.278,135.998 L133.01,135.998 Z M179.278,131.998 C191.130294,131.998 197.088,138.226511 197.088,149.622 C197.088,161.017489 191.130294,167.246 179.278,167.246 L103.39,167.246 C92.9669777,167.246 85.58,159.480203 85.58,149.808 C85.58,136.086066 91.4143949,129.161129 123.452884,106.873485 L141.123837,94.5968238 C149.715718,88.6351105 152.726,83.9957344 152.726,77.082 C152.726,69.0143131 147.418057,64.016 138.544,64.016 C134.153878,64.016 131.244635,65.1777864 129.128067,67.4264714 C127.461096,69.1974953 126.508484,71.0918178 124.712241,75.6730612 L124.690209,75.7292539 C122.705404,80.7915086 121.620579,82.9566012 119.504269,85.2179707 C116.629434,88.2898565 112.696925,89.87 107.296,89.87 C93.7015006,89.87 87.068,82.5410518 87.068,69.828 C87.068,60.0264378 91.9393911,50.3361772 100.680644,43.1712158 C110.181366,35.3837386 123.592634,31 139.66,31 C158.733057,31 173.106957,35.9130612 182.585354,44.9188514 C190.881361,52.8012066 195.042,63.5352754 195.042,75.222 C195.042,91.3138595 187.16578,103.150954 169.741875,114.11431 L141.347594,131.998 L179.278,131.998 Z" id="12" fill="#000000" fill-rule="nonzero"></path>
    </g>
</svg>