<?xml version="1.0" encoding="UTF-8"?>
<svg width="200px" height="200px" viewBox="0 0 200 200" version="1.1" xmlns="http://www.w3.org/2000/svg" xmlns:xlink="http://www.w3.org/1999/xlink">
    <!-- Generator: Sketch 54.1 (76490) - https://sketchapp.com -->
    <title>num-03--tre</title>
    <desc>Created with Sketch.</desc>
    <g id="num-03--tre" stroke="none" stroke-width="1" fill="none" fill-rule="evenodd">
        <path d="M115.774,122.652 C115.774,135.975753 109.045781,141.764 94.616,141.764 C89.3790238,141.764 85.5381138,140.391899 82.6748041,137.706159 C80.541277,135.704944 79.4078712,133.747635 77.403767,129.338606 L77.356677,129.235001 C75.5662958,125.295872 74.643388,123.69061 73.0583822,122.186609 C71.0286337,120.260595 68.2572554,119.258 64.112,119.258 C54.7486053,119.258 49,125.462844 49,135.114 C49,151.472371 68.7166142,165.664 95.732,165.664 C116.957112,165.664 131.482842,160.131191 140.280222,150.353532 C147.04004,142.840477 150.09,133.129358 150.09,123.024 C150.09,110.365604 143.710058,100.725838 132.519828,97.2184524 L131.118,96.7790734 L131.118,93.5129329 L132.464959,93.0476196 C141.72676,89.8480885 146.928,81.4356481 146.928,69.642 C146.928,48.7378637 128.308917,35 100.196,35 C70.5455797,35 51.79,46.8241698 51.79,62.574 C51.79,70.7502776 57.182927,77.128 66.158,77.128 C71.4340999,77.128 74.0804865,75.6243713 77.4968579,70.4185973 C83.1051559,61.7160659 87.5537239,58.9 95.546,58.9 C107.505195,58.9 114.844,63.555212 114.844,73.548 C114.844,82.6185108 108.399001,88.01 100.01,88.01 C91.0530858,88.01 86.758,91.1303615 86.758,98.844 C86.758,104.535668 90.9588277,107.769933 101.643951,108.567333 C111.328563,109.275963 115.774,113.037487 115.774,122.652 Z M154.09,123.024 C154.09,134.045978 150.741862,144.706498 143.253778,153.028968 C133.638195,163.716003 118.022437,169.664 95.732,169.664 C66.7372484,169.664 45,154.017959 45,135.114 C45,123.319061 52.4683359,115.258 64.112,115.258 C69.2394639,115.258 73.0024297,116.61932 75.8116913,119.285008 C77.8983966,121.265068 78.9947785,123.172062 80.9981889,127.579891 L81.045233,127.683394 C82.8349424,131.620755 83.7873034,133.265413 85.4113209,134.788716 C87.4953435,136.743497 90.3520298,137.764 94.616,137.764 C106.95909,137.764 111.774,133.621762 111.774,122.652 C111.774,115.369129 109.122093,113.125207 101.34916,112.556454 C88.7963945,111.61968 82.758,106.970651 82.758,98.844 C82.758,88.5951257 89.0692907,84.01 100.01,84.01 C106.332102,84.01 110.844,80.2356238 110.844,73.548 C110.844,66.2441761 105.572005,62.9 95.546,62.9 C89.0221892,62.9 85.7769453,64.9543287 80.8500958,72.5993129 C76.7023856,78.9196333 72.8156601,81.128 66.158,81.128 C54.8112053,81.128 47.79,72.8246615 47.79,62.574 C47.79,44.1281345 68.6139375,31 100.196,31 C130.300401,31 150.928,46.2198228 150.928,69.642 C150.928,81.289178 146.266562,90.3560963 137.840836,95.0223549 C148.22243,100.003684 154.09,110.29069 154.09,123.024 Z" id="3" fill="#000000" fill-rule="nonzero"></path>
    </g>
</svg>