<svg xmlns="http://www.w3.org/2000/svg" viewBox="0 0 355.42 355.42" id="ruota_fronte">

  <defs>
    <path id="ruota_fronte_arcoDX" d="M177.82,71.38a106.33,106.33,0,0,1,0,212.65" />
    <path id="ruota_fronte_arcoSX" d="M177.82,284a106.33,106.33,0,1,1,0-212.65" />
    <symbol id="deco-rombi" viewBox="0 0 24.51 146.31">
      <path d="M19.16,146.31l-6.9-11.95L5.44,146.18a24.89,24.89,0,0,1,13.72.13Z" />
      <path d="M24.51.45A168.49,168.49,0,0,0,0,.44L12.26,11.36Z" />
      <polygon points="19.97 101.13 11.77 84.74 3.58 101.13 11.77 117.52 19.97 101.13" />
    </symbol>
  </defs>

  <g class="linguetta_sotto">
    <circle cx="303.03" cy="303.45" r="18.62" fill="#fff" />
    <path d="M303,285.33a18.12,18.12,0,1,1-18.12,18.12A18.12,18.12,0,0,1,303,285.33m0-1a19.12,19.12,0,1,0,19.12,19.12A19.14,19.14,0,0,0,303,284.33Z" />
  </g>
  <circle class="base" cx="177.71" cy="177.71" r="177.17" fill="#fff" stroke="#000" />
  <circle class="centro" cx="177.71" cy="177.71" r="3.1" />

  <g class="forbici1 forbici">
    <path
      d="M45.41,49.5l3.9-2.4,5.29,3.2.7-.71-5-3.11,11.12-6.86a6.88,6.88,0,0,0-2.27-1.91,5.87,5.87,0,0,0-2.75-.57,12.19,12.19,0,0,0-4.77,1.33,51.74,51.74,0,0,0-7,4.23,3.9,3.9,0,0,0-1-.59,2.45,2.45,0,0,0-1-.17,6,6,0,0,0-1.34.24,6.73,6.73,0,0,1-1.39.25,4.31,4.31,0,0,1-.6,0,4.7,4.7,0,0,1-.63-.13,6.59,6.59,0,0,0,.74-1.48,4.33,4.33,0,0,0,.21-1.42,4.17,4.17,0,0,0-1.55-3.27,5.54,5.54,0,0,0-3.82-1.22,5.19,5.19,0,0,0-3.8,1.59,5.09,5.09,0,0,0-1.44,3.8,4.65,4.65,0,0,0,1.54,3.57A7.6,7.6,0,0,0,35,45.42c.58.06,1.35.1,2.3.14q2.8.11,2.82,1.11c0,.79-1.22,1.33-3.72,1.64-.44,0-.78.09-1,.13a8.2,8.2,0,0,0-4.51,1.68,4.56,4.56,0,0,0-1.33,3.65A5,5,0,0,0,34.86,59a5.48,5.48,0,0,0,3.75-1.39A4.32,4.32,0,0,0,40,54.17a4.56,4.56,0,0,0-.29-1.46,7.78,7.78,0,0,0-.79-1.5,4.13,4.13,0,0,1,.83-.24,6,6,0,0,1,.85-.09,4.66,4.66,0,0,1,.86.06c.33,0,.72.11,1.19.2l1.86-1.08Q48.44,52.64,51,54l.68-.69A59.29,59.29,0,0,1,45.41,49.5Zm-8.19-5a22.87,22.87,0,0,1-3.59-.27A4.66,4.66,0,0,1,31,42.81a3.81,3.81,0,0,1-1-2.57,4.19,4.19,0,0,1,4.26-4.46,4.16,4.16,0,0,1,3,1,3.62,3.62,0,0,1,1.24,2.71A4.16,4.16,0,0,1,38.21,41a6.52,6.52,0,0,1-.79,1.48.87.87,0,0,0,.61.65,3.88,3.88,0,0,0,1.56.21,6.31,6.31,0,0,0,1.26-.23,6.61,6.61,0,0,1,1.29-.22A2.89,2.89,0,0,1,43,43a1.59,1.59,0,0,1,.62.36l-3.19,1.93A5,5,0,0,0,37.22,44.45ZM42.83,50l-1-.05H41a8.89,8.89,0,0,0-2.47.31c-.52.19-.8.47-.83.85a6.21,6.21,0,0,1,.82,1.4,4,4,0,0,1,.28,1.39,3.86,3.86,0,0,1-1.12,2.91,4,4,0,0,1-2.89,1.23,4.13,4.13,0,0,1-3.11-1.13,4.31,4.31,0,0,1-1.24-3.1,3.59,3.59,0,0,1,1.13-3,7.69,7.69,0,0,1,4-1.32l.62-.06q4.59-.47,4.85-3L51.44,40a15.47,15.47,0,0,1,2.77-1.38,6.94,6.94,0,0,1,2.32-.5,4.79,4.79,0,0,1,1.83.29,5.37,5.37,0,0,1,1.65,1Z" />
    <path
      d="M44.93,44.74a1.61,1.61,0,0,0-1.17.49,1.53,1.53,0,0,0-.45,1.16,1.55,1.55,0,0,0,.5,1.14A1.63,1.63,0,0,0,45,48a1.55,1.55,0,0,0,1.13-.51,1.6,1.6,0,0,0,.45-1.18,1.54,1.54,0,0,0-.49-1.11A1.57,1.57,0,0,0,44.93,44.74Zm.52,2.14a.78.78,0,0,1-.57.28.79.79,0,0,1-.62-.22.78.78,0,0,1-.24-.6.83.83,0,0,1,.23-.62.86.86,0,0,1,.62-.28.82.82,0,0,1,.58.24.84.84,0,0,1,0,1.2Z" />
    <path
      d="M36.5,37.62a3,3,0,0,0-2.22-.84,3.13,3.13,0,0,0-2.24.93,2.84,2.84,0,0,0-.87,2.16,3.07,3.07,0,0,0,.91,2.23,3,3,0,0,0,2.26.83,3.13,3.13,0,0,0,2.24-1,2.94,2.94,0,0,0,.89-2.2A2.91,2.91,0,0,0,36.5,37.62ZM36,41.31a2.12,2.12,0,0,1-1.49.67,2.22,2.22,0,0,1-2.27-2.14,2,2,0,0,1,.62-1.48,2.2,2.2,0,0,1,1.55-.64,2.07,2.07,0,0,1,1.52.61,2.09,2.09,0,0,1,.68,1.49A2,2,0,0,1,36,41.31Z" />
    <path
      d="M34.55,50.84a3.1,3.1,0,0,0-2.24.92A3,3,0,0,0,31.47,54a2.85,2.85,0,0,0,.93,2.16,3.11,3.11,0,0,0,2.28.8,3.16,3.16,0,0,0,2.25-.94,2.89,2.89,0,0,0,.88-2.19,2.92,2.92,0,0,0-1-2.17A3.1,3.1,0,0,0,34.55,50.84Zm1.79,4.55a2.24,2.24,0,0,1-1.58.65,2,2,0,0,1-1.51-.58,2.12,2.12,0,0,1,0-3,2.17,2.17,0,0,1,1.58-.66,2,2,0,0,1,1.5.61A2.11,2.11,0,0,1,37,53.91,2,2,0,0,1,36.34,55.39Z" />
  </g>

  <g class="deco">
    <path
      d="M196.52,177.82a18.76,18.76,0,1,1-18.76-18.76A18.76,18.76,0,0,1,196.52,177.82Zm-18.76-15a15,15,0,1,0,15,15A15,15,0,0,0,177.76,162.82Z" />
    <use width="24.51" height="146.31" transform="translate(165.7 7.53)" xlink:href="#deco-rombi" />
    <use width="24.51" height="146.31" transform="translate(82.22 36.34) rotate(-30)" xlink:href="#deco-rombi" />
    <use width="24.51" height="146.31" transform="translate(24.32 103.02) rotate(-60)" xlink:href="#deco-rombi" />
    <use width="24.51" height="146.31" transform="translate(7.53 189.72) rotate(-90)" xlink:href="#deco-rombi" />
    <use width="24.51" height="146.31" transform="translate(36.34 273.2) rotate(-120)" xlink:href="#deco-rombi" />
    <use width="24.51" height="146.31" transform="translate(103.02 331.1) rotate(-150)" xlink:href="#deco-rombi" />
    <use width="24.51" height="146.31" transform="translate(189.72 347.89) rotate(180)" xlink:href="#deco-rombi" />
    <use width="24.51" height="146.31" transform="translate(273.2 319.08) rotate(150)" xlink:href="#deco-rombi" />
    <use width="24.51" height="146.31" transform="matrix(-0.5, 0.87, -0.87, -0.5, 331.1, 252.4)" xlink:href="#deco-rombi" />
    <use width="24.51" height="146.31" transform="translate(347.89 165.7) rotate(90)" xlink:href="#deco-rombi" />
    <use width="24.51" height="146.31" transform="matrix(0.5, 0.87, -0.87, 0.5, 319.08, 82.22)" xlink:href="#deco-rombi" />
    <use width="24.51" height="146.31" transform="translate(252.4 24.32) rotate(30)" xlink:href="#deco-rombi" />
  </g>

  <text text-anchor="middle">
    <textPath class="titolo1 svg-titolo" xlink:href="#ruota_fronte_arcoSX" startOffset="50%" text-anchor="middle">La ruota dei...</textPath>
  </text>
  <text text-anchor="middle">
    <textPath class="titolo2 svg-titolo" xlink:href="#ruota_fronte_arcoDX" startOffset="50%" text-anchor="middle">... ???</tspan></textPath>
  </text>

  <g class="finestra2">
    <path d="M189.15,220.4a44,44,0,0,1-22.88,0L137.68,327.11a154,154,0,0,0,80,0L189.15,220.4Z" class="finestra" />
    <g class="forbici">
      <path
        d="M170.38,287.79a3.06,3.06,0,0,0,2.34-.41,3.12,3.12,0,0,0,1.45-1.95,2.86,2.86,0,0,0-.35-2.3,3.08,3.08,0,0,0-1.93-1.45,3,3,0,0,0-2.36.45,3.11,3.11,0,0,0-1.44,2,3,3,0,0,0,.36,2.35A2.9,2.9,0,0,0,170.38,287.79Zm-1.47-3.42a2.2,2.2,0,0,1,4-.66,2,2,0,0,1,.23,1.59,2.24,2.24,0,0,1-1,1.35,2.19,2.19,0,0,1-3-.69A2,2,0,0,1,168.91,284.37Z" />
      <path
        d="M158.28,286.2a1.61,1.61,0,0,0,1.22-.23,1.58,1.58,0,0,0,.75-1,1.54,1.54,0,0,0-.2-1.23,1.58,1.58,0,0,0-1-.73,1.64,1.64,0,0,0-1.25.23,1.53,1.53,0,0,0-.71,1,1.61,1.61,0,0,0,.21,1.24A1.55,1.55,0,0,0,158.28,286.2Zm-.32-1.81a.81.81,0,0,1,.35-.53.82.82,0,0,1,.64-.12.86.86,0,0,1,.52.39.9.9,0,0,1,.11.66.84.84,0,0,1-.39.55.83.83,0,0,1-.62.09.82.82,0,0,1-.51-.38A.79.79,0,0,1,158,284.39Z" />
      <path
        d="M156.65,282.12l-2.12,4.06-5.82-.05-.25,1,5.56.11L148,298.78a6.92,6.92,0,0,0,2.93.49,5.82,5.82,0,0,0,2.65-.92,12.06,12.06,0,0,0,3.42-3.58,51.69,51.69,0,0,0,3.86-7.21,3.86,3.86,0,0,0,1.12,0,2.49,2.49,0,0,0,.92-.34,6.39,6.39,0,0,0,1-.9,6.9,6.9,0,0,1,1.07-.92,3.76,3.76,0,0,1,.53-.27,6.32,6.32,0,0,1,.61-.22,6.5,6.5,0,0,0,.13,1.65,4,4,0,0,0,.54,1.34,4.22,4.22,0,0,0,3,2,5.55,5.55,0,0,0,3.9-.9,5.23,5.23,0,0,0,2.47-3.3,5.1,5.1,0,0,0-.71-4,4.64,4.64,0,0,0-3.15-2.28,7.5,7.5,0,0,0-4.54.85c-.54.25-1.22.6-2.06,1.06-1.64.89-2.64,1-3,.49s.37-1.78,2.36-3.32c.35-.26.63-.47.82-.63a8.3,8.3,0,0,0,3-3.75,4.59,4.59,0,0,0-.71-3.82,5.2,5.2,0,0,0-3.27-2.48,5.13,5.13,0,0,0-4,.77,5.43,5.43,0,0,0-2.51,3.1,4.28,4.28,0,0,0,.54,3.63,4.54,4.54,0,0,0,1,1.11,7.19,7.19,0,0,0,1.44.89,4.4,4.4,0,0,1-.59.63,4.83,4.83,0,0,1-.68.51,5,5,0,0,1-.77.39c-.31.13-.68.27-1.13.43l-1.05,1.89c-2.91-.14-5.29-.16-7.14-.08l-.24.92A63.38,63.38,0,0,1,156.65,282.12Zm6.45,1.12q1.07.25,3.18-1a21.76,21.76,0,0,1,3.22-1.59,4.64,4.64,0,0,1,3-.19,3.86,3.86,0,0,1,2.16,1.71,4.18,4.18,0,0,1-1.39,6,4.08,4.08,0,0,1-3.07.6,3.62,3.62,0,0,1-2.45-1.69,4.18,4.18,0,0,1-.53-1.35,6.85,6.85,0,0,1-.08-1.67.85.85,0,0,0-.85-.25,3.84,3.84,0,0,0-1.45.62,6.44,6.44,0,0,0-1,.83,6,6,0,0,1-1,.85,2.65,2.65,0,0,1-.8.36,1.46,1.46,0,0,1-.72,0Zm-4.49-2.88.85-.45c.28-.15.54-.3.79-.46a8.7,8.7,0,0,0,2-1.53,1,1,0,0,0,.28-1.15,6.16,6.16,0,0,1-1.42-.78,4.08,4.08,0,0,1-1-1.05,3.93,3.93,0,0,1-.53-3.08,4,4,0,0,1,1.86-2.53,4.11,4.11,0,0,1,3.25-.62,4.34,4.34,0,0,1,2.66,2,3.58,3.58,0,0,1,.54,3.15,7.58,7.58,0,0,1-2.77,3.18l-.5.37c-2.47,1.83-3.36,3.51-2.65,5l-5.68,10.88a16.74,16.74,0,0,1-1.68,2.6,7.19,7.19,0,0,1-1.74,1.62,5.11,5.11,0,0,1-1.72.68,5.76,5.76,0,0,1-1.94,0Z" />
      <path
        d="M165.31,275.43a3.07,3.07,0,0,0,1.45-1.94,3,3,0,0,0-.44-2.38,2.88,2.88,0,0,0-1.9-1.39,3.42,3.42,0,0,0-3.82,2.44,2.89,2.89,0,0,0,.36,2.33,3,3,0,0,0,1.95,1.37A3.15,3.15,0,0,0,165.31,275.43ZM161.66,274a1.92,1.92,0,0,1-.21-1.59,2.18,2.18,0,0,1,1-1.36,2,2,0,0,1,1.6-.28,2.12,2.12,0,0,1,1.56,2.59,2.23,2.23,0,0,1-1,1.37A2,2,0,0,1,163,275,2.08,2.08,0,0,1,161.66,274Z" />
    </g>
  </g>
  <g class="finestra1">
    <path d="M166.27,135a43.94,43.94,0,0,1,22.88,0L217.74,28.31a153.92,153.92,0,0,0-80.06,0h0L166.27,135Z" class="finestra" />
    <g class="forbici">
      <path
        d="M185,67.63A3.23,3.23,0,0,0,181.25,70a2.86,2.86,0,0,0,.35,2.3,3.08,3.08,0,0,0,1.93,1.45,3,3,0,0,0,2.36-.45,3.06,3.06,0,0,0,1.43-2A2.93,2.93,0,0,0,187,69,2.88,2.88,0,0,0,185,67.63Zm1.46,3.42a2.08,2.08,0,0,1-.93,1.33,2.14,2.14,0,0,1-1.67.28,2.07,2.07,0,0,1-1.37-1,1.94,1.94,0,0,1-.23-1.58,2.24,2.24,0,0,1,1-1.35,2.2,2.2,0,0,1,3,.68A2,2,0,0,1,186.5,71.05Z" />
      <path
        d="M197.14,69.22a1.72,1.72,0,0,0-2,1.24,1.61,1.61,0,0,0,1.21,2,1.64,1.64,0,0,0,1.25-.22,1.64,1.64,0,0,0,.49-2.26A1.51,1.51,0,0,0,197.14,69.22Zm.32,1.8a.81.81,0,0,1-.35.54.82.82,0,0,1-.64.12.86.86,0,0,1-.52-.39.9.9,0,0,1-.11-.66.84.84,0,0,1,.39-.55.78.78,0,0,1,.62-.09.85.85,0,0,1,.61,1Z" />
      <path
        d="M198.77,73.3l2.12-4.06,5.82.05.25-1-5.56-.1,6.06-11.57a6.92,6.92,0,0,0-2.93-.49,5.78,5.78,0,0,0-2.65.92,12.2,12.2,0,0,0-3.43,3.58,52.3,52.3,0,0,0-3.85,7.21,3.54,3.54,0,0,0-1.12,0,2.49,2.49,0,0,0-.92.34,6.39,6.39,0,0,0-1,.9,6.88,6.88,0,0,1-1.08.92,2.91,2.91,0,0,1-.53.27,5.31,5.31,0,0,1-.6.22,6.5,6.5,0,0,0-.13-1.65,3.94,3.94,0,0,0-.54-1.34,4.16,4.16,0,0,0-3-2,5.54,5.54,0,0,0-3.91.9,5.22,5.22,0,0,0-2.46,3.3,5.1,5.1,0,0,0,.71,4A4.64,4.64,0,0,0,183.14,76a7.51,7.51,0,0,0,4.54-.85c.54-.25,1.22-.6,2.06-1.06,1.64-.89,2.64-1,3-.49s-.37,1.78-2.36,3.32c-.36.26-.63.47-.82.63a8.23,8.23,0,0,0-3,3.75,4.59,4.59,0,0,0,.71,3.82,5.2,5.2,0,0,0,3.27,2.48,5.14,5.14,0,0,0,4-.77A5.46,5.46,0,0,0,197,83.7a4.33,4.33,0,0,0-.54-3.62,4.54,4.54,0,0,0-1-1.11,6.76,6.76,0,0,0-1.44-.89,3.5,3.5,0,0,1,.58-.63,5.58,5.58,0,0,1,.69-.51,5,5,0,0,1,.77-.39c.31-.13.68-.28,1.13-.43l1-1.89q4.38.19,7.15.08l.24-.92A63.38,63.38,0,0,1,198.77,73.3Zm-6.45-1.12q-1.06-.25-3.18,1a22.25,22.25,0,0,1-3.22,1.59,4.59,4.59,0,0,1-3,.18,3.75,3.75,0,0,1-2.15-1.7,4.18,4.18,0,0,1,1.39-6,4,4,0,0,1,3.07-.6,3.58,3.58,0,0,1,2.45,1.69,3.87,3.87,0,0,1,.52,1.35,6,6,0,0,1,.08,1.67.88.88,0,0,0,.86.25,3.9,3.9,0,0,0,1.45-.62,6,6,0,0,0,1-.83,7.18,7.18,0,0,1,1-.86,2.87,2.87,0,0,1,.8-.35,1.36,1.36,0,0,1,.72,0Zm4.49,2.88-.86.45c-.27.15-.53.3-.78.46a8.7,8.7,0,0,0-2,1.53,1.06,1.06,0,0,0-.29,1.15,5.77,5.77,0,0,1,1.42.78,3.82,3.82,0,0,1,1,1,3.88,3.88,0,0,1,.52,3.08A3.94,3.94,0,0,1,194,86.09a4.09,4.09,0,0,1-3.26.61,4.27,4.27,0,0,1-2.65-2,3.62,3.62,0,0,1-.55-3.15,7.63,7.63,0,0,1,2.78-3.18l.5-.37q3.71-2.74,2.64-5l5.69-10.87a15.61,15.61,0,0,1,1.68-2.6,7.19,7.19,0,0,1,1.74-1.62,5,5,0,0,1,1.72-.68,5.76,5.76,0,0,1,1.94,0Z" />
      <path
        d="M190.11,80a3.07,3.07,0,0,0-1.45,1.94,3,3,0,0,0,.44,2.38A2.87,2.87,0,0,0,191,85.69a3.41,3.41,0,0,0,3.83-2.43,2.92,2.92,0,0,0-.36-2.34,3,3,0,0,0-2-1.36A3.11,3.11,0,0,0,190.11,80Zm3.65,1.41A1.9,1.9,0,0,1,194,83a2.18,2.18,0,0,1-1,1.36,2,2,0,0,1-1.6.28A2.12,2.12,0,0,1,189.79,82a2.23,2.23,0,0,1,1-1.37,2,2,0,0,1,1.6-.24A2.1,2.1,0,0,1,193.76,81.4Z" />
    </g>
  </g>

  <circle class="linguetta_sopra" cx="303.03" cy="303.45" r="18.12" fill="#fff" />
</svg>
