<svg xmlns="http://www.w3.org/2000/svg" viewBox="0 0 355.42 355.42" id="ruota_retro">
  <g class="linguetta_sotto">
    <circle cx="52.39" cy="303.45" r="18.62" fill="#fff" />
    <path
      d="M52.39,285.33a18.12,18.12,0,1,1-18.13,18.12,18.12,18.12,0,0,1,18.13-18.12m0-1a19.12,19.12,0,1,0,19.12,19.12,19.14,19.14,0,0,0-19.12-19.12Z" />
  </g>
  <circle class="base" cx="177.71" cy="177.71" r="177.17" fill="#fff" stroke="#000" />
  <circle class="centro" cx="177.71" cy="177.71" r="3.1" />
  <g class="forbici1 forbici">
    <path
      d="M45.32,49.5l3.9-2.4,5.29,3.2.7-.71-5-3.11L61.3,39.62A6.88,6.88,0,0,0,59,37.71a5.87,5.87,0,0,0-2.75-.57,12.19,12.19,0,0,0-4.77,1.33,51.74,51.74,0,0,0-7,4.23,3.9,3.9,0,0,0-1-.59,2.45,2.45,0,0,0-1-.17,6,6,0,0,0-1.34.24,6.73,6.73,0,0,1-1.39.25,4.31,4.31,0,0,1-.6,0,4.7,4.7,0,0,1-.63-.13,6.59,6.59,0,0,0,.74-1.48,4.33,4.33,0,0,0,.21-1.42A4.17,4.17,0,0,0,38,36.09a5.54,5.54,0,0,0-3.82-1.22,5.19,5.19,0,0,0-3.8,1.59A5.09,5.09,0,0,0,29,40.26a4.65,4.65,0,0,0,1.54,3.57,7.6,7.6,0,0,0,4.35,1.59c.58.06,1.35.1,2.3.14Q40,45.67,40,46.67c0,.79-1.22,1.33-3.72,1.64-.44,0-.78.09-1,.13a8.2,8.2,0,0,0-4.51,1.68,4.56,4.56,0,0,0-1.33,3.65A5,5,0,0,0,34.77,59a5.48,5.48,0,0,0,3.75-1.39,4.32,4.32,0,0,0,1.39-3.4,4.56,4.56,0,0,0-.29-1.46,7.78,7.78,0,0,0-.79-1.5,4.13,4.13,0,0,1,.83-.24,6,6,0,0,1,.85-.09,4.66,4.66,0,0,1,.86.06c.33,0,.72.11,1.18.2l1.87-1.08q3.93,2.58,6.46,3.91l.68-.69A59.29,59.29,0,0,1,45.32,49.5Zm-8.19-5a22.87,22.87,0,0,1-3.59-.27,4.66,4.66,0,0,1-2.66-1.37,3.81,3.81,0,0,1-1-2.57,4.19,4.19,0,0,1,4.26-4.46,4.16,4.16,0,0,1,3,1,3.62,3.62,0,0,1,1.24,2.71A4.16,4.16,0,0,1,38.12,41a6.52,6.52,0,0,1-.79,1.48.87.87,0,0,0,.61.65,3.88,3.88,0,0,0,1.56.21,6.31,6.31,0,0,0,1.26-.23,6.61,6.61,0,0,1,1.29-.22,2.89,2.89,0,0,1,.87.1,1.59,1.59,0,0,1,.62.36l-3.19,1.93A5,5,0,0,0,37.13,44.45ZM42.74,50l-1-.05h-.91a8.89,8.89,0,0,0-2.47.31c-.52.19-.8.47-.83.85a6.21,6.21,0,0,1,.82,1.4,4,4,0,0,1,.28,1.39,3.86,3.86,0,0,1-1.12,2.91,4,4,0,0,1-2.89,1.23,4.13,4.13,0,0,1-3.11-1.13,4.31,4.31,0,0,1-1.24-3.1,3.59,3.59,0,0,1,1.13-3,7.69,7.69,0,0,1,4-1.32l.62-.06q4.59-.47,4.85-3L51.35,40a15.47,15.47,0,0,1,2.77-1.38,6.94,6.94,0,0,1,2.32-.5,4.79,4.79,0,0,1,1.83.29,5.37,5.37,0,0,1,1.65,1Z" />
    <path
      d="M44.84,44.74a1.61,1.61,0,0,0-1.17.49,1.53,1.53,0,0,0-.45,1.16,1.55,1.55,0,0,0,.5,1.14,1.63,1.63,0,0,0,1.19.44A1.55,1.55,0,0,0,46,47.46a1.6,1.6,0,0,0,.45-1.18A1.54,1.54,0,0,0,46,45.17,1.57,1.57,0,0,0,44.84,44.74Zm.52,2.14a.78.78,0,0,1-.57.28.79.79,0,0,1-.62-.22.78.78,0,0,1-.24-.6.83.83,0,0,1,.23-.62.86.86,0,0,1,.62-.28.82.82,0,0,1,.58.24.84.84,0,0,1,0,1.2Z" />
    <path
      d="M36.41,37.62a3,3,0,0,0-2.22-.84,3.13,3.13,0,0,0-2.24.93,2.84,2.84,0,0,0-.87,2.16A3.07,3.07,0,0,0,32,42.1a3,3,0,0,0,2.26.83,3.13,3.13,0,0,0,2.24-1,2.94,2.94,0,0,0,.89-2.2A2.91,2.91,0,0,0,36.41,37.62Zm-.48,3.69a2.12,2.12,0,0,1-1.49.67,2.22,2.22,0,0,1-2.27-2.14,2,2,0,0,1,.62-1.48,2.2,2.2,0,0,1,1.55-.64,2.07,2.07,0,0,1,1.52.61,2.09,2.09,0,0,1,.68,1.49A2,2,0,0,1,35.93,41.31Z" />
    <path
      d="M34.46,50.84a3.1,3.1,0,0,0-2.24.92A3,3,0,0,0,31.38,54a2.85,2.85,0,0,0,.93,2.16,3.11,3.11,0,0,0,2.28.8,3.16,3.16,0,0,0,2.25-.94,2.89,2.89,0,0,0,.88-2.19,2.92,2.92,0,0,0-1-2.17A3.1,3.1,0,0,0,34.46,50.84Zm1.79,4.55a2.24,2.24,0,0,1-1.58.65,2,2,0,0,1-1.51-.58,2.12,2.12,0,0,1,0-3,2.17,2.17,0,0,1,1.58-.66,2,2,0,0,1,1.5.61,2.11,2.11,0,0,1,.66,1.52A2,2,0,0,1,36.25,55.39Z" />
  </g>
  <g class="spicchi">
    <line x1="189.15" y1="220.4" x2="217.73" y2="327.09" />
    <line x1="137.68" y1="28.33" x2="166.27" y2="135.02" />
    <line x1="208.96" y1="208.96" x2="287.08" y2="287.08" />
    <line x1="68.34" y1="68.34" x2="146.45" y2="146.45" />
    <line x1="220.4" y1="189.15" x2="327.11" y2="217.74" />
    <line x1="28.31" y1="137.68" x2="135.01" y2="166.27" />
    <line x1="220.4" y1="166.27" x2="327.09" y2="137.68" />
    <line x1="28.31" y1="217.74" x2="135.02" y2="189.15" />
    <line x1="208.96" y1="146.46" x2="287.08" y2="68.34" />
    <line x1="68.34" y1="287.08" x2="146.46" y2="208.96" />
    <line x1="189.15" y1="135.01" x2="217.74" y2="28.31" />
    <line x1="137.68" y1="327.11" x2="166.27" y2="220.4" />
    <circle cx="177.71" cy="177.71" r="44.2" />
    <circle cx="177.71" cy="177.71" r="154.65" />
  </g>
  <circle class="linguetta_sopra" cx="52.39" cy="303.45" r="18.12" fill="#fff" />

</svg>
