<svg width="670.5" height="804" viewBox="0 0 447 536" fill="none" xmlns="http://www.w3.org/2000/svg">
  <circle cx="106" cy="88" r="20" fill="#3446E8" fill-opacity="0.99"/>
<path d="M108.002 94H105.15V84.2344H101.82V82.3398C102.699 82.3008 103.314 82.2422 103.666 82.1641C104.226 82.0404 104.682 81.793 105.033 81.4219C105.274 81.168 105.456 80.8294 105.58 80.4062C105.652 80.1523 105.688 79.9635 105.688 79.8398H108.002V94Z" fill="white"/>
<rect x="76.15" y="58.15" width="59.7" height="59.7" stroke="#FB0000" stroke-width="0.3" stroke-dasharray="5 2"/>
<circle cx="166" cy="88" r="20" fill="#3446E8" fill-opacity="0.99"/>
<path d="M167.387 82.7207C167.055 82.3236 166.579 82.125 165.961 82.125C165.115 82.125 164.538 82.4408 164.232 83.0723C164.057 83.4368 163.952 84.0163 163.92 84.8105H161.215C161.26 83.6061 161.479 82.6328 161.869 81.8906C162.611 80.4779 163.93 79.7715 165.824 79.7715C167.322 79.7715 168.513 80.1882 169.398 81.0215C170.284 81.8483 170.727 82.9453 170.727 84.3125C170.727 85.3607 170.414 86.2917 169.789 87.1055C169.379 87.6458 168.705 88.248 167.768 88.9121L166.654 89.7031C165.958 90.1979 165.479 90.556 165.219 90.7773C164.965 90.9987 164.75 91.2559 164.574 91.5488H170.756V94H161.059C161.085 92.9844 161.303 92.0566 161.713 91.2168C162.11 90.2728 163.048 89.2734 164.525 88.2188C165.808 87.3008 166.638 86.6432 167.016 86.2461C167.595 85.6276 167.885 84.9505 167.885 84.2148C167.885 83.6159 167.719 83.1178 167.387 82.7207Z" fill="white"/>
<rect x="136.15" y="58.15" width="59.7" height="59.7" stroke="#FB0000" stroke-width="0.3" stroke-dasharray="5 2"/>
<circle cx="226" cy="88" r="20" fill="#3446E8" fill-opacity="0.99"/>
<path d="M224.262 82.6621C223.949 83.0788 223.799 83.6354 223.812 84.332H221.215C221.241 83.6289 221.361 82.9616 221.576 82.3301C221.804 81.7767 222.162 81.2656 222.65 80.7969C223.015 80.4648 223.448 80.2109 223.949 80.0352C224.451 79.8594 225.066 79.7715 225.795 79.7715C227.149 79.7715 228.24 80.123 229.066 80.8262C229.9 81.5228 230.316 82.4603 230.316 83.6387C230.316 84.472 230.069 85.1751 229.574 85.748C229.262 86.1061 228.936 86.3503 228.598 86.4805C228.852 86.4805 229.216 86.6986 229.691 87.1348C230.401 87.7923 230.756 88.6908 230.756 89.8301C230.756 91.028 230.339 92.0827 229.506 92.9941C228.679 93.8991 227.452 94.3516 225.824 94.3516C223.819 94.3516 222.426 93.6973 221.645 92.3887C221.234 91.6921 221.007 90.7806 220.961 89.6543H223.695C223.695 90.2207 223.786 90.6895 223.969 91.0605C224.307 91.7441 224.923 92.0859 225.814 92.0859C226.361 92.0859 226.837 91.9004 227.24 91.5293C227.65 91.1517 227.855 90.6113 227.855 89.9082C227.855 88.9772 227.478 88.3555 226.723 88.043C226.293 87.8672 225.616 87.7793 224.691 87.7793V85.7871C225.596 85.7741 226.228 85.6862 226.586 85.5234C227.204 85.25 227.514 84.6966 227.514 83.8633C227.514 83.3229 227.354 82.8835 227.035 82.5449C226.723 82.2064 226.28 82.0371 225.707 82.0371C225.049 82.0371 224.568 82.2454 224.262 82.6621Z" fill="white"/>
<rect x="196.15" y="58.15" width="59.7" height="59.7" stroke="#FB0000" stroke-width="0.3" stroke-dasharray="5 2"/>
<circle cx="286" cy="88" r="20" fill="#3446E8" fill-opacity="0.99"/>
<path d="M290.893 88.7754V90.9531H289.291V94H286.566V90.9531H280.961V88.5215L286.166 79.9277H289.291V88.7754H290.893ZM283.021 88.7754H286.566V82.6621L283.021 88.7754Z" fill="white"/>
<rect x="256.15" y="58.15" width="59.7" height="59.7" stroke="#FB0000" stroke-width="0.3" stroke-dasharray="5 2"/>
<circle cx="346" cy="88" r="20" fill="#3446E8" fill-opacity="0.99"/>
<path d="M345.766 86.9688C345.427 86.9688 345.134 87.0111 344.887 87.0957C344.451 87.252 344.122 87.5417 343.9 87.9648L341.4 87.8477L342.396 80.0254H350.199V82.3887H344.408L343.9 85.4844C344.33 85.2044 344.665 85.0189 344.906 84.9277C345.31 84.778 345.801 84.7031 346.381 84.7031C347.553 84.7031 348.575 85.097 349.447 85.8848C350.32 86.6725 350.756 87.8184 350.756 89.3223C350.756 90.6309 350.336 91.7995 349.496 92.8281C348.656 93.8568 347.4 94.3711 345.727 94.3711C344.379 94.3711 343.272 94.0098 342.406 93.2871C341.54 92.5645 341.059 91.5391 340.961 90.2109H343.734C343.845 90.8164 344.057 91.2852 344.369 91.6172C344.682 91.9427 345.137 92.1055 345.736 92.1055C346.426 92.1055 346.951 91.8646 347.309 91.3828C347.673 90.8945 347.855 90.2826 347.855 89.5469C347.855 88.8242 347.686 88.2155 347.348 87.7207C347.009 87.2194 346.482 86.9688 345.766 86.9688Z" fill="white"/>
<rect x="316.15" y="58.15" width="59.7" height="59.7" stroke="#FB0000" stroke-width="0.3" stroke-dasharray="5 2"/>
<circle cx="106" cy="148" r="20" fill="#3446E8" fill-opacity="0.99"/>
<path d="M106.547 144.811C107.803 144.811 108.832 145.237 109.633 146.09C110.44 146.943 110.844 148.033 110.844 149.361C110.844 150.683 110.45 151.848 109.662 152.857C108.874 153.867 107.65 154.371 105.99 154.371C104.206 154.371 102.891 153.626 102.045 152.135C101.387 150.969 101.059 149.465 101.059 147.623C101.059 146.542 101.104 145.663 101.195 144.986C101.358 143.782 101.674 142.779 102.143 141.979C102.546 141.295 103.074 140.745 103.725 140.328C104.382 139.911 105.167 139.703 106.078 139.703C107.393 139.703 108.441 140.042 109.223 140.719C110.004 141.389 110.443 142.285 110.541 143.404H107.768C107.768 143.176 107.68 142.926 107.504 142.652C107.204 142.21 106.752 141.988 106.146 141.988C105.242 141.988 104.597 142.496 104.213 143.512C104.005 144.072 103.861 144.898 103.783 145.992C104.128 145.582 104.529 145.283 104.984 145.094C105.44 144.905 105.961 144.811 106.547 144.811ZM104.672 147.467C104.125 147.89 103.852 148.574 103.852 149.518C103.852 150.279 104.057 150.901 104.467 151.383C104.877 151.865 105.398 152.105 106.029 152.105C106.648 152.105 107.133 151.874 107.484 151.412C107.842 150.943 108.021 150.338 108.021 149.596C108.021 148.769 107.82 148.137 107.416 147.701C107.012 147.258 106.518 147.037 105.932 147.037C105.456 147.037 105.036 147.18 104.672 147.467Z" fill="white"/>
<rect x="76.15" y="118.15" width="59.7" height="59.7" stroke="#FB0000" stroke-width="0.3" stroke-dasharray="5 2"/>
<rect x="76.3" y="58.3" width="299.4" height="419.4" stroke="#FF0202" stroke-width="0.6" stroke-dasharray="5 2"/>
<circle cx="106" cy="88" r="20" fill="#3446E8" fill-opacity="0.99"/>
<path d="M105.941 94.3516C104.138 94.3516 102.872 93.7201 102.143 92.457C101.42 91.194 101.059 89.3939 101.059 87.0566C101.059 84.7194 101.42 82.916 102.143 81.6465C102.872 80.377 104.138 79.7422 105.941 79.7422C107.745 79.7422 109.011 80.377 109.74 81.6465C110.463 82.916 110.824 84.7194 110.824 87.0566C110.824 89.3939 110.46 91.194 109.73 92.457C109.008 93.7201 107.745 94.3516 105.941 94.3516ZM107.572 90.7871C107.826 89.9277 107.953 88.6842 107.953 87.0566C107.953 85.3509 107.823 84.0879 107.562 83.2676C107.309 82.4473 106.768 82.0371 105.941 82.0371C105.115 82.0371 104.568 82.4473 104.301 83.2676C104.034 84.0879 103.9 85.3509 103.9 87.0566C103.9 88.6842 104.034 89.931 104.301 90.7969C104.568 91.6562 105.115 92.0859 105.941 92.0859C106.768 92.0859 107.312 91.653 107.572 90.7871Z" fill="white"/>
<rect x="76.15" y="58.15" width="59.7" height="59.7" stroke="#FB0000" stroke-width="0.3" stroke-dasharray="5 2"/>
<circle cx="166" cy="88" r="20" fill="#3446E8" fill-opacity="0.99"/>
<path d="M168.002 94H165.15V84.2344H161.82V82.3398C162.699 82.3008 163.314 82.2422 163.666 82.1641C164.226 82.0404 164.682 81.793 165.033 81.4219C165.274 81.168 165.456 80.8294 165.58 80.4062C165.652 80.1523 165.688 79.9635 165.688 79.8398H168.002V94Z" fill="white"/>
<rect x="136.15" y="58.15" width="59.7" height="59.7" stroke="#FB0000" stroke-width="0.3" stroke-dasharray="5 2"/>
<circle cx="226" cy="88" r="20" fill="#3446E8" fill-opacity="0.99"/>
<path d="M227.387 82.7207C227.055 82.3236 226.579 82.125 225.961 82.125C225.115 82.125 224.538 82.4408 224.232 83.0723C224.057 83.4368 223.952 84.0163 223.92 84.8105H221.215C221.26 83.6061 221.479 82.6328 221.869 81.8906C222.611 80.4779 223.93 79.7715 225.824 79.7715C227.322 79.7715 228.513 80.1882 229.398 81.0215C230.284 81.8483 230.727 82.9453 230.727 84.3125C230.727 85.3607 230.414 86.2917 229.789 87.1055C229.379 87.6458 228.705 88.248 227.768 88.9121L226.654 89.7031C225.958 90.1979 225.479 90.556 225.219 90.7773C224.965 90.9987 224.75 91.2559 224.574 91.5488H230.756V94H221.059C221.085 92.9844 221.303 92.0566 221.713 91.2168C222.11 90.2728 223.048 89.2734 224.525 88.2188C225.808 87.3008 226.638 86.6432 227.016 86.2461C227.595 85.6276 227.885 84.9505 227.885 84.2148C227.885 83.6159 227.719 83.1178 227.387 82.7207Z" fill="white"/>
<rect x="196.15" y="58.15" width="59.7" height="59.7" stroke="#FB0000" stroke-width="0.3" stroke-dasharray="5 2"/>
<circle cx="286" cy="88" r="20" fill="#3446E8" fill-opacity="0.99"/>
<path d="M284.262 82.6621C283.949 83.0788 283.799 83.6354 283.812 84.332H281.215C281.241 83.6289 281.361 82.9616 281.576 82.3301C281.804 81.7767 282.162 81.2656 282.65 80.7969C283.015 80.4648 283.448 80.2109 283.949 80.0352C284.451 79.8594 285.066 79.7715 285.795 79.7715C287.149 79.7715 288.24 80.123 289.066 80.8262C289.9 81.5228 290.316 82.4603 290.316 83.6387C290.316 84.472 290.069 85.1751 289.574 85.748C289.262 86.1061 288.936 86.3503 288.598 86.4805C288.852 86.4805 289.216 86.6986 289.691 87.1348C290.401 87.7923 290.756 88.6908 290.756 89.8301C290.756 91.028 290.339 92.0827 289.506 92.9941C288.679 93.8991 287.452 94.3516 285.824 94.3516C283.819 94.3516 282.426 93.6973 281.645 92.3887C281.234 91.6921 281.007 90.7806 280.961 89.6543H283.695C283.695 90.2207 283.786 90.6895 283.969 91.0605C284.307 91.7441 284.923 92.0859 285.814 92.0859C286.361 92.0859 286.837 91.9004 287.24 91.5293C287.65 91.1517 287.855 90.6113 287.855 89.9082C287.855 88.9772 287.478 88.3555 286.723 88.043C286.293 87.8672 285.616 87.7793 284.691 87.7793V85.7871C285.596 85.7741 286.228 85.6862 286.586 85.5234C287.204 85.25 287.514 84.6966 287.514 83.8633C287.514 83.3229 287.354 82.8835 287.035 82.5449C286.723 82.2064 286.28 82.0371 285.707 82.0371C285.049 82.0371 284.568 82.2454 284.262 82.6621Z" fill="white"/>
<rect x="256.15" y="58.15" width="59.7" height="59.7" stroke="#FB0000" stroke-width="0.3" stroke-dasharray="5 2"/>
<circle cx="346" cy="88" r="20" fill="#3446E8" fill-opacity="0.99"/>
<path d="M350.893 88.7754V90.9531H349.291V94H346.566V90.9531H340.961V88.5215L346.166 79.9277H349.291V88.7754H350.893ZM343.021 88.7754H346.566V82.6621L343.021 88.7754Z" fill="white"/>
<rect x="316.15" y="58.15" width="59.7" height="59.7" stroke="#FB0000" stroke-width="0.3" stroke-dasharray="5 2"/>
<circle cx="106" cy="148" r="20" fill="#3446E8" fill-opacity="0.99"/>
<path d="M105.766 146.969C105.427 146.969 105.134 147.011 104.887 147.096C104.451 147.252 104.122 147.542 103.9 147.965L101.4 147.848L102.396 140.025H110.199V142.389H104.408L103.9 145.484C104.33 145.204 104.665 145.019 104.906 144.928C105.31 144.778 105.801 144.703 106.381 144.703C107.553 144.703 108.575 145.097 109.447 145.885C110.32 146.673 110.756 147.818 110.756 149.322C110.756 150.631 110.336 151.799 109.496 152.828C108.656 153.857 107.4 154.371 105.727 154.371C104.379 154.371 103.272 154.01 102.406 153.287C101.54 152.564 101.059 151.539 100.961 150.211H103.734C103.845 150.816 104.057 151.285 104.369 151.617C104.682 151.943 105.137 152.105 105.736 152.105C106.426 152.105 106.951 151.865 107.309 151.383C107.673 150.895 107.855 150.283 107.855 149.547C107.855 148.824 107.686 148.215 107.348 147.721C107.009 147.219 106.482 146.969 105.766 146.969Z" fill="white"/>
<rect x="76.15" y="118.15" width="59.7" height="59.7" stroke="#FB0000" stroke-width="0.3" stroke-dasharray="5 2"/>
<circle cx="166" cy="148" r="20" fill="#3446E8" fill-opacity="0.99"/>
<path d="M166.547 144.811C167.803 144.811 168.832 145.237 169.633 146.09C170.44 146.943 170.844 148.033 170.844 149.361C170.844 150.683 170.45 151.848 169.662 152.857C168.874 153.867 167.65 154.371 165.99 154.371C164.206 154.371 162.891 153.626 162.045 152.135C161.387 150.969 161.059 149.465 161.059 147.623C161.059 146.542 161.104 145.663 161.195 144.986C161.358 143.782 161.674 142.779 162.143 141.979C162.546 141.295 163.074 140.745 163.725 140.328C164.382 139.911 165.167 139.703 166.078 139.703C167.393 139.703 168.441 140.042 169.223 140.719C170.004 141.389 170.443 142.285 170.541 143.404H167.768C167.768 143.176 167.68 142.926 167.504 142.652C167.204 142.21 166.752 141.988 166.146 141.988C165.242 141.988 164.597 142.496 164.213 143.512C164.005 144.072 163.861 144.898 163.783 145.992C164.128 145.582 164.529 145.283 164.984 145.094C165.44 144.905 165.961 144.811 166.547 144.811ZM164.672 147.467C164.125 147.89 163.852 148.574 163.852 149.518C163.852 150.279 164.057 150.901 164.467 151.383C164.877 151.865 165.398 152.105 166.029 152.105C166.648 152.105 167.133 151.874 167.484 151.412C167.842 150.943 168.021 150.338 168.021 149.596C168.021 148.769 167.82 148.137 167.416 147.701C167.012 147.258 166.518 147.037 165.932 147.037C165.456 147.037 165.036 147.18 164.672 147.467Z" fill="white"/>
<rect x="136.15" y="118.15" width="59.7" height="59.7" stroke="#FB0000" stroke-width="0.3" stroke-dasharray="5 2"/>
<circle cx="226" cy="148" r="20" fill="#3446E8" fill-opacity="0.99"/>
<path d="M229.242 144.391C228.5 145.445 227.878 146.533 227.377 147.652C226.98 148.531 226.622 149.605 226.303 150.875C225.984 152.145 225.824 153.186 225.824 154H222.934C223.018 151.461 223.852 148.821 225.434 146.08C226.456 144.381 227.312 143.196 228.002 142.525H220.941L220.98 140.025H230.98V142.203C230.564 142.613 229.984 143.342 229.242 144.391Z" fill="white"/>
<rect x="196.15" y="118.15" width="59.7" height="59.7" stroke="#FB0000" stroke-width="0.3" stroke-dasharray="5 2"/>
<circle cx="286" cy="148" r="20" fill="#3446E8" fill-opacity="0.99"/>
<path d="M282.182 153.111C281.368 152.278 280.961 151.266 280.961 150.074C280.961 149.28 281.14 148.561 281.498 147.916C281.863 147.271 282.393 146.786 283.09 146.461C282.406 146.005 281.96 145.514 281.752 144.986C281.55 144.452 281.449 143.954 281.449 143.492C281.449 142.464 281.837 141.588 282.611 140.865C283.386 140.136 284.48 139.771 285.893 139.771C287.305 139.771 288.399 140.136 289.174 140.865C289.949 141.588 290.336 142.464 290.336 143.492C290.336 143.954 290.232 144.452 290.023 144.986C289.822 145.514 289.379 145.973 288.695 146.363C289.392 146.754 289.916 147.271 290.268 147.916C290.619 148.561 290.795 149.28 290.795 150.074C290.795 151.266 290.352 152.281 289.467 153.121C288.588 153.954 287.357 154.371 285.775 154.371C284.193 154.371 282.995 153.951 282.182 153.111ZM283.852 149.889C283.852 150.585 284.031 151.126 284.389 151.51C284.753 151.894 285.255 152.086 285.893 152.086C286.531 152.086 287.029 151.894 287.387 151.51C287.751 151.126 287.934 150.585 287.934 149.889C287.934 149.166 287.748 148.619 287.377 148.248C287.012 147.87 286.518 147.682 285.893 147.682C285.268 147.682 284.77 147.87 284.398 148.248C284.034 148.619 283.852 149.166 283.852 149.889ZM284.584 145.064C284.896 145.39 285.333 145.553 285.893 145.553C286.459 145.553 286.895 145.39 287.201 145.064C287.514 144.739 287.67 144.319 287.67 143.805C287.67 143.245 287.514 142.809 287.201 142.496C286.895 142.177 286.459 142.018 285.893 142.018C285.333 142.018 284.893 142.177 284.574 142.496C284.262 142.809 284.105 143.245 284.105 143.805C284.105 144.319 284.265 144.739 284.584 145.064Z" fill="white"/>
<rect x="256.15" y="118.15" width="59.7" height="59.7" stroke="#FB0000" stroke-width="0.3" stroke-dasharray="5 2"/>
<circle cx="346" cy="148" r="20" fill="#3446E8" fill-opacity="0.99"/>
<path d="M344.629 154.41C343.568 154.41 342.614 154.098 341.768 153.473C340.921 152.841 340.436 151.923 340.312 150.719H343.086C343.151 151.135 343.327 151.474 343.613 151.734C343.9 151.995 344.281 152.125 344.756 152.125C345.674 152.125 346.318 151.617 346.689 150.602C346.891 150.042 347.018 149.225 347.07 148.15C346.816 148.469 346.546 148.714 346.26 148.883C345.739 149.195 345.098 149.352 344.336 149.352C343.21 149.352 342.21 148.964 341.338 148.189C340.465 147.408 340.029 146.285 340.029 144.82C340.029 143.303 340.465 142.076 341.338 141.139C342.217 140.195 343.356 139.723 344.756 139.723C346.911 139.723 348.389 140.676 349.189 142.584C349.645 143.665 349.873 145.087 349.873 146.852C349.873 148.564 349.655 149.993 349.219 151.139C348.385 153.32 346.855 154.41 344.629 154.41ZM343.652 142.447C343.118 142.864 342.852 143.57 342.852 144.566C342.852 145.406 343.021 146.038 343.359 146.461C343.704 146.878 344.232 147.086 344.941 147.086C345.326 147.086 345.687 146.975 346.025 146.754C346.657 146.35 346.973 145.65 346.973 144.654C346.973 143.854 346.784 143.219 346.406 142.75C346.035 142.281 345.524 142.047 344.873 142.047C344.398 142.047 343.991 142.18 343.652 142.447Z" fill="white"/>
<rect x="316.15" y="118.15" width="59.7" height="59.7" stroke="#FB0000" stroke-width="0.3" stroke-dasharray="5 2"/>
<circle cx="106" cy="208" r="20" fill="#3446E8" fill-opacity="0.99"/>
<path d="M102.936 214H100.084V204.234H96.7539V202.34C97.6328 202.301 98.248 202.242 98.5996 202.164C99.1595 202.04 99.6152 201.793 99.9668 201.422C100.208 201.168 100.39 200.829 100.514 200.406C100.585 200.152 100.621 199.964 100.621 199.84H102.936V214ZM112.008 214.352C110.204 214.352 108.938 213.72 108.209 212.457C107.486 211.194 107.125 209.394 107.125 207.057C107.125 204.719 107.486 202.916 108.209 201.646C108.938 200.377 110.204 199.742 112.008 199.742C113.811 199.742 115.077 200.377 115.807 201.646C116.529 202.916 116.891 204.719 116.891 207.057C116.891 209.394 116.526 211.194 115.797 212.457C115.074 213.72 113.811 214.352 112.008 214.352ZM113.639 210.787C113.893 209.928 114.02 208.684 114.02 207.057C114.02 205.351 113.889 204.088 113.629 203.268C113.375 202.447 112.835 202.037 112.008 202.037C111.181 202.037 110.634 202.447 110.367 203.268C110.1 204.088 109.967 205.351 109.967 207.057C109.967 208.684 110.1 209.931 110.367 210.797C110.634 211.656 111.181 212.086 112.008 212.086C112.835 212.086 113.378 211.653 113.639 210.787Z" fill="white"/>
<rect x="76.15" y="178.15" width="59.7" height="59.7" stroke="#FB0000" stroke-width="0.3" stroke-dasharray="5 2"/>
<circle cx="166" cy="208" r="20" fill="#3446E8" fill-opacity="0.99"/>
<path d="M161.982 214H159.131V204.234H155.801V202.34C156.68 202.301 157.295 202.242 157.646 202.164C158.206 202.04 158.662 201.793 159.014 201.422C159.255 201.168 159.437 200.829 159.561 200.406C159.632 200.152 159.668 199.964 159.668 199.84H161.982V214ZM172.021 214H169.17V204.234H165.84V202.34C166.719 202.301 167.334 202.242 167.686 202.164C168.245 202.04 168.701 201.793 169.053 201.422C169.294 201.168 169.476 200.829 169.6 200.406C169.671 200.152 169.707 199.964 169.707 199.84H172.021V214Z" fill="white"/>
<rect x="136.15" y="178.15" width="59.7" height="59.7" stroke="#FB0000" stroke-width="0.3" stroke-dasharray="5 2"/>
<circle cx="226" cy="208" r="20" fill="#3446E8" fill-opacity="0.99"/>
<path d="M221.936 214H219.084V204.234H215.754V202.34C216.633 202.301 217.248 202.242 217.6 202.164C218.16 202.04 218.615 201.793 218.967 201.422C219.208 201.168 219.39 200.829 219.514 200.406C219.585 200.152 219.621 199.964 219.621 199.84H221.936V214ZM232.453 202.721C232.121 202.324 231.646 202.125 231.027 202.125C230.181 202.125 229.605 202.441 229.299 203.072C229.123 203.437 229.019 204.016 228.986 204.811H226.281C226.327 203.606 226.545 202.633 226.936 201.891C227.678 200.478 228.996 199.771 230.891 199.771C232.388 199.771 233.579 200.188 234.465 201.021C235.35 201.848 235.793 202.945 235.793 204.312C235.793 205.361 235.48 206.292 234.855 207.105C234.445 207.646 233.771 208.248 232.834 208.912L231.721 209.703C231.024 210.198 230.546 210.556 230.285 210.777C230.031 210.999 229.816 211.256 229.641 211.549H235.822V214H226.125C226.151 212.984 226.369 212.057 226.779 211.217C227.176 210.273 228.114 209.273 229.592 208.219C230.874 207.301 231.704 206.643 232.082 206.246C232.661 205.628 232.951 204.951 232.951 204.215C232.951 203.616 232.785 203.118 232.453 202.721Z" fill="white"/>
<rect x="196.15" y="178.15" width="59.7" height="59.7" stroke="#FB0000" stroke-width="0.3" stroke-dasharray="5 2"/>
<circle cx="286" cy="208" r="20" fill="#3446E8" fill-opacity="0.99"/>
<path d="M282.936 214H280.084V204.234H276.754V202.34C277.633 202.301 278.248 202.242 278.6 202.164C279.16 202.04 279.615 201.793 279.967 201.422C280.208 201.168 280.39 200.829 280.514 200.406C280.585 200.152 280.621 199.964 280.621 199.84H282.936V214ZM290.328 202.662C290.016 203.079 289.866 203.635 289.879 204.332H287.281C287.307 203.629 287.428 202.962 287.643 202.33C287.87 201.777 288.229 201.266 288.717 200.797C289.081 200.465 289.514 200.211 290.016 200.035C290.517 199.859 291.132 199.771 291.861 199.771C293.215 199.771 294.306 200.123 295.133 200.826C295.966 201.523 296.383 202.46 296.383 203.639C296.383 204.472 296.135 205.175 295.641 205.748C295.328 206.106 295.003 206.35 294.664 206.48C294.918 206.48 295.283 206.699 295.758 207.135C296.467 207.792 296.822 208.691 296.822 209.83C296.822 211.028 296.406 212.083 295.572 212.994C294.745 213.899 293.518 214.352 291.891 214.352C289.885 214.352 288.492 213.697 287.711 212.389C287.301 211.692 287.073 210.781 287.027 209.654H289.762C289.762 210.221 289.853 210.689 290.035 211.061C290.374 211.744 290.989 212.086 291.881 212.086C292.428 212.086 292.903 211.9 293.307 211.529C293.717 211.152 293.922 210.611 293.922 209.908C293.922 208.977 293.544 208.355 292.789 208.043C292.359 207.867 291.682 207.779 290.758 207.779V205.787C291.663 205.774 292.294 205.686 292.652 205.523C293.271 205.25 293.58 204.697 293.58 203.863C293.58 203.323 293.421 202.883 293.102 202.545C292.789 202.206 292.346 202.037 291.773 202.037C291.116 202.037 290.634 202.245 290.328 202.662Z" fill="white"/>
<rect x="256.15" y="178.15" width="59.7" height="59.7" stroke="#FB0000" stroke-width="0.3" stroke-dasharray="5 2"/>
<circle cx="346" cy="208" r="20" fill="#3446E8" fill-opacity="0.99"/>
<path d="M341.936 214H339.084V204.234H335.754V202.34C336.633 202.301 337.248 202.242 337.6 202.164C338.16 202.04 338.615 201.793 338.967 201.422C339.208 201.168 339.39 200.829 339.514 200.406C339.585 200.152 339.621 199.964 339.621 199.84H341.936V214ZM355.959 208.775V210.953H354.357V214H351.633V210.953H346.027V208.521L351.232 199.928H354.357V208.775H355.959ZM348.088 208.775H351.633V202.662L348.088 208.775Z" fill="white"/>
<rect x="316.15" y="178.15" width="59.7" height="59.7" stroke="#FB0000" stroke-width="0.3" stroke-dasharray="5 2"/>
<circle cx="106" cy="268" r="20" fill="#3446E8" fill-opacity="0.99"/>
<path d="M101.936 274H99.084V264.234H95.7539V262.34C96.6328 262.301 97.248 262.242 97.5996 262.164C98.1595 262.04 98.6152 261.793 98.9668 261.422C99.2077 261.168 99.39 260.829 99.5137 260.406C99.5853 260.152 99.6211 259.964 99.6211 259.84H101.936V274ZM110.832 266.969C110.493 266.969 110.201 267.011 109.953 267.096C109.517 267.252 109.188 267.542 108.967 267.965L106.467 267.848L107.463 260.025H115.266V262.389H109.475L108.967 265.484C109.396 265.204 109.732 265.019 109.973 264.928C110.376 264.778 110.868 264.703 111.447 264.703C112.619 264.703 113.641 265.097 114.514 265.885C115.386 266.673 115.822 267.818 115.822 269.322C115.822 270.631 115.402 271.799 114.562 272.828C113.723 273.857 112.466 274.371 110.793 274.371C109.445 274.371 108.339 274.01 107.473 273.287C106.607 272.564 106.125 271.539 106.027 270.211H108.801C108.911 270.816 109.123 271.285 109.436 271.617C109.748 271.943 110.204 272.105 110.803 272.105C111.493 272.105 112.017 271.865 112.375 271.383C112.74 270.895 112.922 270.283 112.922 269.547C112.922 268.824 112.753 268.215 112.414 267.721C112.076 267.219 111.548 266.969 110.832 266.969Z" fill="white"/>
<rect x="76.15" y="238.15" width="59.7" height="59.7" stroke="#FB0000" stroke-width="0.3" stroke-dasharray="5 2"/>
<circle cx="166" cy="268" r="20" fill="#3446E8" fill-opacity="0.99"/>
<path d="M161.936 274H159.084V264.234H155.754V262.34C156.633 262.301 157.248 262.242 157.6 262.164C158.16 262.04 158.615 261.793 158.967 261.422C159.208 261.168 159.39 260.829 159.514 260.406C159.585 260.152 159.621 259.964 159.621 259.84H161.936V274ZM171.613 264.811C172.87 264.811 173.898 265.237 174.699 266.09C175.507 266.943 175.91 268.033 175.91 269.361C175.91 270.683 175.516 271.848 174.729 272.857C173.941 273.867 172.717 274.371 171.057 274.371C169.273 274.371 167.958 273.626 167.111 272.135C166.454 270.969 166.125 269.465 166.125 267.623C166.125 266.542 166.171 265.663 166.262 264.986C166.424 263.782 166.74 262.779 167.209 261.979C167.613 261.295 168.14 260.745 168.791 260.328C169.449 259.911 170.233 259.703 171.145 259.703C172.46 259.703 173.508 260.042 174.289 260.719C175.07 261.389 175.51 262.285 175.607 263.404H172.834C172.834 263.176 172.746 262.926 172.57 262.652C172.271 262.21 171.818 261.988 171.213 261.988C170.308 261.988 169.663 262.496 169.279 263.512C169.071 264.072 168.928 264.898 168.85 265.992C169.195 265.582 169.595 265.283 170.051 265.094C170.507 264.905 171.027 264.811 171.613 264.811ZM169.738 267.467C169.191 267.89 168.918 268.574 168.918 269.518C168.918 270.279 169.123 270.901 169.533 271.383C169.943 271.865 170.464 272.105 171.096 272.105C171.714 272.105 172.199 271.874 172.551 271.412C172.909 270.943 173.088 270.338 173.088 269.596C173.088 268.769 172.886 268.137 172.482 267.701C172.079 267.258 171.584 267.037 170.998 267.037C170.523 267.037 170.103 267.18 169.738 267.467Z" fill="white"/>
<rect x="136.15" y="238.15" width="59.7" height="59.7" stroke="#FB0000" stroke-width="0.3" stroke-dasharray="5 2"/>
<circle cx="226" cy="268" r="20" fill="#3446E8" fill-opacity="0.99"/>
<path d="M221.936 274H219.084V264.234H215.754V262.34C216.633 262.301 217.248 262.242 217.6 262.164C218.16 262.04 218.615 261.793 218.967 261.422C219.208 261.168 219.39 260.829 219.514 260.406C219.585 260.152 219.621 259.964 219.621 259.84H221.936V274ZM234.309 264.391C233.566 265.445 232.945 266.533 232.443 267.652C232.046 268.531 231.688 269.605 231.369 270.875C231.05 272.145 230.891 273.186 230.891 274H228C228.085 271.461 228.918 268.821 230.5 266.08C231.522 264.381 232.378 263.196 233.068 262.525H226.008L226.047 260.025H236.047V262.203C235.63 262.613 235.051 263.342 234.309 264.391Z" fill="white"/>
<rect x="196.15" y="238.15" width="59.7" height="59.7" stroke="#FB0000" stroke-width="0.3" stroke-dasharray="5 2"/>
<circle cx="286" cy="268" r="20" fill="#3446E8" fill-opacity="0.99"/>
<path d="M281.936 274H279.084V264.234H275.754V262.34C276.633 262.301 277.248 262.242 277.6 262.164C278.16 262.04 278.615 261.793 278.967 261.422C279.208 261.168 279.39 260.829 279.514 260.406C279.585 260.152 279.621 259.964 279.621 259.84H281.936V274ZM287.248 273.111C286.434 272.278 286.027 271.266 286.027 270.074C286.027 269.28 286.206 268.561 286.564 267.916C286.929 267.271 287.46 266.786 288.156 266.461C287.473 266.005 287.027 265.514 286.818 264.986C286.617 264.452 286.516 263.954 286.516 263.492C286.516 262.464 286.903 261.588 287.678 260.865C288.452 260.136 289.546 259.771 290.959 259.771C292.372 259.771 293.465 260.136 294.24 260.865C295.015 261.588 295.402 262.464 295.402 263.492C295.402 263.954 295.298 264.452 295.09 264.986C294.888 265.514 294.445 265.973 293.762 266.363C294.458 266.754 294.982 267.271 295.334 267.916C295.686 268.561 295.861 269.28 295.861 270.074C295.861 271.266 295.419 272.281 294.533 273.121C293.654 273.954 292.424 274.371 290.842 274.371C289.26 274.371 288.062 273.951 287.248 273.111ZM288.918 269.889C288.918 270.585 289.097 271.126 289.455 271.51C289.82 271.894 290.321 272.086 290.959 272.086C291.597 272.086 292.095 271.894 292.453 271.51C292.818 271.126 293 270.585 293 269.889C293 269.166 292.814 268.619 292.443 268.248C292.079 267.87 291.584 267.682 290.959 267.682C290.334 267.682 289.836 267.87 289.465 268.248C289.1 268.619 288.918 269.166 288.918 269.889ZM289.65 265.064C289.963 265.39 290.399 265.553 290.959 265.553C291.525 265.553 291.962 265.39 292.268 265.064C292.58 264.739 292.736 264.319 292.736 263.805C292.736 263.245 292.58 262.809 292.268 262.496C291.962 262.177 291.525 262.018 290.959 262.018C290.399 262.018 289.96 262.177 289.641 262.496C289.328 262.809 289.172 263.245 289.172 263.805C289.172 264.319 289.331 264.739 289.65 265.064Z" fill="white"/>
<rect x="256.15" y="238.15" width="59.7" height="59.7" stroke="#FB0000" stroke-width="0.3" stroke-dasharray="5 2"/>
<circle cx="346" cy="268" r="20" fill="#3446E8" fill-opacity="0.99"/>
<path d="M341.936 274H339.084V264.234H335.754V262.34C336.633 262.301 337.248 262.242 337.6 262.164C338.16 262.04 338.615 261.793 338.967 261.422C339.208 261.168 339.39 260.829 339.514 260.406C339.585 260.152 339.621 259.964 339.621 259.84H341.936V274ZM350.695 274.41C349.634 274.41 348.68 274.098 347.834 273.473C346.988 272.841 346.503 271.923 346.379 270.719H349.152C349.217 271.135 349.393 271.474 349.68 271.734C349.966 271.995 350.347 272.125 350.822 272.125C351.74 272.125 352.385 271.617 352.756 270.602C352.958 270.042 353.085 269.225 353.137 268.15C352.883 268.469 352.613 268.714 352.326 268.883C351.805 269.195 351.164 269.352 350.402 269.352C349.276 269.352 348.277 268.964 347.404 268.189C346.532 267.408 346.096 266.285 346.096 264.82C346.096 263.303 346.532 262.076 347.404 261.139C348.283 260.195 349.423 259.723 350.822 259.723C352.977 259.723 354.455 260.676 355.256 262.584C355.712 263.665 355.939 265.087 355.939 266.852C355.939 268.564 355.721 269.993 355.285 271.139C354.452 273.32 352.922 274.41 350.695 274.41ZM349.719 262.447C349.185 262.864 348.918 263.57 348.918 264.566C348.918 265.406 349.087 266.038 349.426 266.461C349.771 266.878 350.298 267.086 351.008 267.086C351.392 267.086 351.753 266.975 352.092 266.754C352.723 266.35 353.039 265.65 353.039 264.654C353.039 263.854 352.85 263.219 352.473 262.75C352.102 262.281 351.59 262.047 350.939 262.047C350.464 262.047 350.057 262.18 349.719 262.447Z" fill="white"/>
<rect x="316.15" y="238.15" width="59.7" height="59.7" stroke="#FB0000" stroke-width="0.3" stroke-dasharray="5 2"/>
<circle cx="106" cy="328" r="20" fill="#3446E8" fill-opacity="0.99"/>
<path d="M101.32 322.721C100.988 322.324 100.513 322.125 99.8945 322.125C99.0482 322.125 98.472 322.441 98.166 323.072C97.9902 323.437 97.8861 324.016 97.8535 324.811H95.1484C95.194 323.606 95.4121 322.633 95.8027 321.891C96.5449 320.478 97.8633 319.771 99.7578 319.771C101.255 319.771 102.447 320.188 103.332 321.021C104.217 321.848 104.66 322.945 104.66 324.312C104.66 325.361 104.348 326.292 103.723 327.105C103.312 327.646 102.639 328.248 101.701 328.912L100.588 329.703C99.8913 330.198 99.4128 330.556 99.1523 330.777C98.8984 330.999 98.6836 331.256 98.5078 331.549H104.689V334H94.9922C95.0182 332.984 95.2363 332.057 95.6465 331.217C96.0436 330.273 96.9811 329.273 98.459 328.219C99.7415 327.301 100.572 326.643 100.949 326.246C101.529 325.628 101.818 324.951 101.818 324.215C101.818 323.616 101.652 323.118 101.32 322.721ZM111.008 334.352C109.204 334.352 107.938 333.72 107.209 332.457C106.486 331.194 106.125 329.394 106.125 327.057C106.125 324.719 106.486 322.916 107.209 321.646C107.938 320.377 109.204 319.742 111.008 319.742C112.811 319.742 114.077 320.377 114.807 321.646C115.529 322.916 115.891 324.719 115.891 327.057C115.891 329.394 115.526 331.194 114.797 332.457C114.074 333.72 112.811 334.352 111.008 334.352ZM112.639 330.787C112.893 329.928 113.02 328.684 113.02 327.057C113.02 325.351 112.889 324.088 112.629 323.268C112.375 322.447 111.835 322.037 111.008 322.037C110.181 322.037 109.634 322.447 109.367 323.268C109.1 324.088 108.967 325.351 108.967 327.057C108.967 328.684 109.1 329.931 109.367 330.797C109.634 331.656 110.181 332.086 111.008 332.086C111.835 332.086 112.378 331.653 112.639 330.787Z" fill="white"/>
<rect x="76.15" y="298.15" width="59.7" height="59.7" stroke="#FB0000" stroke-width="0.3" stroke-dasharray="5 2"/>
<circle cx="166" cy="328" r="20" fill="#3446E8" fill-opacity="0.99"/>
<path d="M161.32 322.721C160.988 322.324 160.513 322.125 159.895 322.125C159.048 322.125 158.472 322.441 158.166 323.072C157.99 323.437 157.886 324.016 157.854 324.811H155.148C155.194 323.606 155.412 322.633 155.803 321.891C156.545 320.478 157.863 319.771 159.758 319.771C161.255 319.771 162.447 320.188 163.332 321.021C164.217 321.848 164.66 322.945 164.66 324.312C164.66 325.361 164.348 326.292 163.723 327.105C163.312 327.646 162.639 328.248 161.701 328.912L160.588 329.703C159.891 330.198 159.413 330.556 159.152 330.777C158.898 330.999 158.684 331.256 158.508 331.549H164.689V334H154.992C155.018 332.984 155.236 332.057 155.646 331.217C156.044 330.273 156.981 329.273 158.459 328.219C159.742 327.301 160.572 326.643 160.949 326.246C161.529 325.628 161.818 324.951 161.818 324.215C161.818 323.616 161.652 323.118 161.32 322.721ZM173.068 334H170.217V324.234H166.887V322.34C167.766 322.301 168.381 322.242 168.732 322.164C169.292 322.04 169.748 321.793 170.1 321.422C170.34 321.168 170.523 320.829 170.646 320.406C170.718 320.152 170.754 319.964 170.754 319.84H173.068V334Z" fill="white"/>
<rect x="136.15" y="298.15" width="59.7" height="59.7" stroke="#FB0000" stroke-width="0.3" stroke-dasharray="5 2"/>
<circle cx="226" cy="328" r="20" fill="#3446E8" fill-opacity="0.99"/>
<path d="M221.32 322.721C220.988 322.324 220.513 322.125 219.895 322.125C219.048 322.125 218.472 322.441 218.166 323.072C217.99 323.437 217.886 324.016 217.854 324.811H215.148C215.194 323.606 215.412 322.633 215.803 321.891C216.545 320.478 217.863 319.771 219.758 319.771C221.255 319.771 222.447 320.188 223.332 321.021C224.217 321.848 224.66 322.945 224.66 324.312C224.66 325.361 224.348 326.292 223.723 327.105C223.312 327.646 222.639 328.248 221.701 328.912L220.588 329.703C219.891 330.198 219.413 330.556 219.152 330.777C218.898 330.999 218.684 331.256 218.508 331.549H224.689V334H214.992C215.018 332.984 215.236 332.057 215.646 331.217C216.044 330.273 216.981 329.273 218.459 328.219C219.742 327.301 220.572 326.643 220.949 326.246C221.529 325.628 221.818 324.951 221.818 324.215C221.818 323.616 221.652 323.118 221.32 322.721ZM232.453 322.721C232.121 322.324 231.646 322.125 231.027 322.125C230.181 322.125 229.605 322.441 229.299 323.072C229.123 323.437 229.019 324.016 228.986 324.811H226.281C226.327 323.606 226.545 322.633 226.936 321.891C227.678 320.478 228.996 319.771 230.891 319.771C232.388 319.771 233.579 320.188 234.465 321.021C235.35 321.848 235.793 322.945 235.793 324.312C235.793 325.361 235.48 326.292 234.855 327.105C234.445 327.646 233.771 328.248 232.834 328.912L231.721 329.703C231.024 330.198 230.546 330.556 230.285 330.777C230.031 330.999 229.816 331.256 229.641 331.549H235.822V334H226.125C226.151 332.984 226.369 332.057 226.779 331.217C227.176 330.273 228.114 329.273 229.592 328.219C230.874 327.301 231.704 326.643 232.082 326.246C232.661 325.628 232.951 324.951 232.951 324.215C232.951 323.616 232.785 323.118 232.453 322.721Z" fill="white"/>
<rect x="196.15" y="298.15" width="59.7" height="59.7" stroke="#FB0000" stroke-width="0.3" stroke-dasharray="5 2"/>
<circle cx="286" cy="328" r="20" fill="#3446E8" fill-opacity="0.99"/>
<path d="M281.32 322.721C280.988 322.324 280.513 322.125 279.895 322.125C279.048 322.125 278.472 322.441 278.166 323.072C277.99 323.437 277.886 324.016 277.854 324.811H275.148C275.194 323.606 275.412 322.633 275.803 321.891C276.545 320.478 277.863 319.771 279.758 319.771C281.255 319.771 282.447 320.188 283.332 321.021C284.217 321.848 284.66 322.945 284.66 324.312C284.66 325.361 284.348 326.292 283.723 327.105C283.312 327.646 282.639 328.248 281.701 328.912L280.588 329.703C279.891 330.198 279.413 330.556 279.152 330.777C278.898 330.999 278.684 331.256 278.508 331.549H284.689V334H274.992C275.018 332.984 275.236 332.057 275.646 331.217C276.044 330.273 276.981 329.273 278.459 328.219C279.742 327.301 280.572 326.643 280.949 326.246C281.529 325.628 281.818 324.951 281.818 324.215C281.818 323.616 281.652 323.118 281.32 322.721ZM289.328 322.662C289.016 323.079 288.866 323.635 288.879 324.332H286.281C286.307 323.629 286.428 322.962 286.643 322.33C286.87 321.777 287.229 321.266 287.717 320.797C288.081 320.465 288.514 320.211 289.016 320.035C289.517 319.859 290.132 319.771 290.861 319.771C292.215 319.771 293.306 320.123 294.133 320.826C294.966 321.523 295.383 322.46 295.383 323.639C295.383 324.472 295.135 325.175 294.641 325.748C294.328 326.106 294.003 326.35 293.664 326.48C293.918 326.48 294.283 326.699 294.758 327.135C295.467 327.792 295.822 328.691 295.822 329.83C295.822 331.028 295.406 332.083 294.572 332.994C293.745 333.899 292.518 334.352 290.891 334.352C288.885 334.352 287.492 333.697 286.711 332.389C286.301 331.692 286.073 330.781 286.027 329.654H288.762C288.762 330.221 288.853 330.689 289.035 331.061C289.374 331.744 289.989 332.086 290.881 332.086C291.428 332.086 291.903 331.9 292.307 331.529C292.717 331.152 292.922 330.611 292.922 329.908C292.922 328.977 292.544 328.355 291.789 328.043C291.359 327.867 290.682 327.779 289.758 327.779V325.787C290.663 325.774 291.294 325.686 291.652 325.523C292.271 325.25 292.58 324.697 292.58 323.863C292.58 323.323 292.421 322.883 292.102 322.545C291.789 322.206 291.346 322.037 290.773 322.037C290.116 322.037 289.634 322.245 289.328 322.662Z" fill="white"/>
<rect x="256.15" y="298.15" width="59.7" height="59.7" stroke="#FB0000" stroke-width="0.3" stroke-dasharray="5 2"/>
<circle cx="346" cy="328" r="20" fill="#3446E8" fill-opacity="0.99"/>
<path d="M341.32 322.721C340.988 322.324 340.513 322.125 339.895 322.125C339.048 322.125 338.472 322.441 338.166 323.072C337.99 323.437 337.886 324.016 337.854 324.811H335.148C335.194 323.606 335.412 322.633 335.803 321.891C336.545 320.478 337.863 319.771 339.758 319.771C341.255 319.771 342.447 320.188 343.332 321.021C344.217 321.848 344.66 322.945 344.66 324.312C344.66 325.361 344.348 326.292 343.723 327.105C343.312 327.646 342.639 328.248 341.701 328.912L340.588 329.703C339.891 330.198 339.413 330.556 339.152 330.777C338.898 330.999 338.684 331.256 338.508 331.549H344.689V334H334.992C335.018 332.984 335.236 332.057 335.646 331.217C336.044 330.273 336.981 329.273 338.459 328.219C339.742 327.301 340.572 326.643 340.949 326.246C341.529 325.628 341.818 324.951 341.818 324.215C341.818 323.616 341.652 323.118 341.32 322.721ZM355.959 328.775V330.953H354.357V334H351.633V330.953H346.027V328.521L351.232 319.928H354.357V328.775H355.959ZM348.088 328.775H351.633V322.662L348.088 328.775Z" fill="white"/>
<rect x="316.15" y="298.15" width="59.7" height="59.7" stroke="#FB0000" stroke-width="0.3" stroke-dasharray="5 2"/>
<circle cx="106" cy="388" r="20" fill="#3446E8" fill-opacity="0.99"/>
<path d="M101.32 382.721C100.988 382.324 100.513 382.125 99.8945 382.125C99.0482 382.125 98.472 382.441 98.166 383.072C97.9902 383.437 97.8861 384.016 97.8535 384.811H95.1484C95.194 383.606 95.4121 382.633 95.8027 381.891C96.5449 380.478 97.8633 379.771 99.7578 379.771C101.255 379.771 102.447 380.188 103.332 381.021C104.217 381.848 104.66 382.945 104.66 384.312C104.66 385.361 104.348 386.292 103.723 387.105C103.312 387.646 102.639 388.248 101.701 388.912L100.588 389.703C99.8913 390.198 99.4128 390.556 99.1523 390.777C98.8984 390.999 98.6836 391.256 98.5078 391.549H104.689V394H94.9922C95.0182 392.984 95.2363 392.057 95.6465 391.217C96.0436 390.273 96.9811 389.273 98.459 388.219C99.7415 387.301 100.572 386.643 100.949 386.246C101.529 385.628 101.818 384.951 101.818 384.215C101.818 383.616 101.652 383.118 101.32 382.721ZM110.832 386.969C110.493 386.969 110.201 387.011 109.953 387.096C109.517 387.252 109.188 387.542 108.967 387.965L106.467 387.848L107.463 380.025H115.266V382.389H109.475L108.967 385.484C109.396 385.204 109.732 385.019 109.973 384.928C110.376 384.778 110.868 384.703 111.447 384.703C112.619 384.703 113.641 385.097 114.514 385.885C115.386 386.673 115.822 387.818 115.822 389.322C115.822 390.631 115.402 391.799 114.562 392.828C113.723 393.857 112.466 394.371 110.793 394.371C109.445 394.371 108.339 394.01 107.473 393.287C106.607 392.564 106.125 391.539 106.027 390.211H108.801C108.911 390.816 109.123 391.285 109.436 391.617C109.748 391.943 110.204 392.105 110.803 392.105C111.493 392.105 112.017 391.865 112.375 391.383C112.74 390.895 112.922 390.283 112.922 389.547C112.922 388.824 112.753 388.215 112.414 387.721C112.076 387.219 111.548 386.969 110.832 386.969Z" fill="white"/>
<rect x="76.15" y="358.15" width="59.7" height="59.7" stroke="#FB0000" stroke-width="0.3" stroke-dasharray="5 2"/>
<circle cx="166" cy="388" r="20" fill="#3446E8" fill-opacity="0.99"/>
<path d="M161.32 382.721C160.988 382.324 160.513 382.125 159.895 382.125C159.048 382.125 158.472 382.441 158.166 383.072C157.99 383.437 157.886 384.016 157.854 384.811H155.148C155.194 383.606 155.412 382.633 155.803 381.891C156.545 380.478 157.863 379.771 159.758 379.771C161.255 379.771 162.447 380.188 163.332 381.021C164.217 381.848 164.66 382.945 164.66 384.312C164.66 385.361 164.348 386.292 163.723 387.105C163.312 387.646 162.639 388.248 161.701 388.912L160.588 389.703C159.891 390.198 159.413 390.556 159.152 390.777C158.898 390.999 158.684 391.256 158.508 391.549H164.689V394H154.992C155.018 392.984 155.236 392.057 155.646 391.217C156.044 390.273 156.981 389.273 158.459 388.219C159.742 387.301 160.572 386.643 160.949 386.246C161.529 385.628 161.818 384.951 161.818 384.215C161.818 383.616 161.652 383.118 161.32 382.721ZM171.613 384.811C172.87 384.811 173.898 385.237 174.699 386.09C175.507 386.943 175.91 388.033 175.91 389.361C175.91 390.683 175.516 391.848 174.729 392.857C173.941 393.867 172.717 394.371 171.057 394.371C169.273 394.371 167.958 393.626 167.111 392.135C166.454 390.969 166.125 389.465 166.125 387.623C166.125 386.542 166.171 385.663 166.262 384.986C166.424 383.782 166.74 382.779 167.209 381.979C167.613 381.295 168.14 380.745 168.791 380.328C169.449 379.911 170.233 379.703 171.145 379.703C172.46 379.703 173.508 380.042 174.289 380.719C175.07 381.389 175.51 382.285 175.607 383.404H172.834C172.834 383.176 172.746 382.926 172.57 382.652C172.271 382.21 171.818 381.988 171.213 381.988C170.308 381.988 169.663 382.496 169.279 383.512C169.071 384.072 168.928 384.898 168.85 385.992C169.195 385.582 169.595 385.283 170.051 385.094C170.507 384.905 171.027 384.811 171.613 384.811ZM169.738 387.467C169.191 387.89 168.918 388.574 168.918 389.518C168.918 390.279 169.123 390.901 169.533 391.383C169.943 391.865 170.464 392.105 171.096 392.105C171.714 392.105 172.199 391.874 172.551 391.412C172.909 390.943 173.088 390.338 173.088 389.596C173.088 388.769 172.886 388.137 172.482 387.701C172.079 387.258 171.584 387.037 170.998 387.037C170.523 387.037 170.103 387.18 169.738 387.467Z" fill="white"/>
<rect x="136.15" y="358.15" width="59.7" height="59.7" stroke="#FB0000" stroke-width="0.3" stroke-dasharray="5 2"/>
<circle cx="226" cy="388" r="20" fill="#3446E8" fill-opacity="0.99"/>
<path d="M221.32 382.721C220.988 382.324 220.513 382.125 219.895 382.125C219.048 382.125 218.472 382.441 218.166 383.072C217.99 383.437 217.886 384.016 217.854 384.811H215.148C215.194 383.606 215.412 382.633 215.803 381.891C216.545 380.478 217.863 379.771 219.758 379.771C221.255 379.771 222.447 380.188 223.332 381.021C224.217 381.848 224.66 382.945 224.66 384.312C224.66 385.361 224.348 386.292 223.723 387.105C223.312 387.646 222.639 388.248 221.701 388.912L220.588 389.703C219.891 390.198 219.413 390.556 219.152 390.777C218.898 390.999 218.684 391.256 218.508 391.549H224.689V394H214.992C215.018 392.984 215.236 392.057 215.646 391.217C216.044 390.273 216.981 389.273 218.459 388.219C219.742 387.301 220.572 386.643 220.949 386.246C221.529 385.628 221.818 384.951 221.818 384.215C221.818 383.616 221.652 383.118 221.32 382.721ZM234.309 384.391C233.566 385.445 232.945 386.533 232.443 387.652C232.046 388.531 231.688 389.605 231.369 390.875C231.05 392.145 230.891 393.186 230.891 394H228C228.085 391.461 228.918 388.821 230.5 386.08C231.522 384.381 232.378 383.196 233.068 382.525H226.008L226.047 380.025H236.047V382.203C235.63 382.613 235.051 383.342 234.309 384.391Z" fill="white"/>
<rect x="196.15" y="358.15" width="59.7" height="59.7" stroke="#FB0000" stroke-width="0.3" stroke-dasharray="5 2"/>
<circle cx="286" cy="388" r="20" fill="#3446E8" fill-opacity="0.99"/>
<path d="M281.32 382.721C280.988 382.324 280.513 382.125 279.895 382.125C279.048 382.125 278.472 382.441 278.166 383.072C277.99 383.437 277.886 384.016 277.854 384.811H275.148C275.194 383.606 275.412 382.633 275.803 381.891C276.545 380.478 277.863 379.771 279.758 379.771C281.255 379.771 282.447 380.188 283.332 381.021C284.217 381.848 284.66 382.945 284.66 384.312C284.66 385.361 284.348 386.292 283.723 387.105C283.312 387.646 282.639 388.248 281.701 388.912L280.588 389.703C279.891 390.198 279.413 390.556 279.152 390.777C278.898 390.999 278.684 391.256 278.508 391.549H284.689V394H274.992C275.018 392.984 275.236 392.057 275.646 391.217C276.044 390.273 276.981 389.273 278.459 388.219C279.742 387.301 280.572 386.643 280.949 386.246C281.529 385.628 281.818 384.951 281.818 384.215C281.818 383.616 281.652 383.118 281.32 382.721ZM287.248 393.111C286.434 392.278 286.027 391.266 286.027 390.074C286.027 389.28 286.206 388.561 286.564 387.916C286.929 387.271 287.46 386.786 288.156 386.461C287.473 386.005 287.027 385.514 286.818 384.986C286.617 384.452 286.516 383.954 286.516 383.492C286.516 382.464 286.903 381.588 287.678 380.865C288.452 380.136 289.546 379.771 290.959 379.771C292.372 379.771 293.465 380.136 294.24 380.865C295.015 381.588 295.402 382.464 295.402 383.492C295.402 383.954 295.298 384.452 295.09 384.986C294.888 385.514 294.445 385.973 293.762 386.363C294.458 386.754 294.982 387.271 295.334 387.916C295.686 388.561 295.861 389.28 295.861 390.074C295.861 391.266 295.419 392.281 294.533 393.121C293.654 393.954 292.424 394.371 290.842 394.371C289.26 394.371 288.062 393.951 287.248 393.111ZM288.918 389.889C288.918 390.585 289.097 391.126 289.455 391.51C289.82 391.894 290.321 392.086 290.959 392.086C291.597 392.086 292.095 391.894 292.453 391.51C292.818 391.126 293 390.585 293 389.889C293 389.166 292.814 388.619 292.443 388.248C292.079 387.87 291.584 387.682 290.959 387.682C290.334 387.682 289.836 387.87 289.465 388.248C289.1 388.619 288.918 389.166 288.918 389.889ZM289.65 385.064C289.963 385.39 290.399 385.553 290.959 385.553C291.525 385.553 291.962 385.39 292.268 385.064C292.58 384.739 292.736 384.319 292.736 383.805C292.736 383.245 292.58 382.809 292.268 382.496C291.962 382.177 291.525 382.018 290.959 382.018C290.399 382.018 289.96 382.177 289.641 382.496C289.328 382.809 289.172 383.245 289.172 383.805C289.172 384.319 289.331 384.739 289.65 385.064Z" fill="white"/>
<rect x="256.15" y="358.15" width="59.7" height="59.7" stroke="#FB0000" stroke-width="0.3" stroke-dasharray="5 2"/>
<circle cx="346" cy="388" r="20" fill="#3446E8" fill-opacity="0.99"/>
<path d="M341.32 382.721C340.988 382.324 340.513 382.125 339.895 382.125C339.048 382.125 338.472 382.441 338.166 383.072C337.99 383.437 337.886 384.016 337.854 384.811H335.148C335.194 383.606 335.412 382.633 335.803 381.891C336.545 380.478 337.863 379.771 339.758 379.771C341.255 379.771 342.447 380.188 343.332 381.021C344.217 381.848 344.66 382.945 344.66 384.312C344.66 385.361 344.348 386.292 343.723 387.105C343.312 387.646 342.639 388.248 341.701 388.912L340.588 389.703C339.891 390.198 339.413 390.556 339.152 390.777C338.898 390.999 338.684 391.256 338.508 391.549H344.689V394H334.992C335.018 392.984 335.236 392.057 335.646 391.217C336.044 390.273 336.981 389.273 338.459 388.219C339.742 387.301 340.572 386.643 340.949 386.246C341.529 385.628 341.818 384.951 341.818 384.215C341.818 383.616 341.652 383.118 341.32 382.721ZM350.695 394.41C349.634 394.41 348.68 394.098 347.834 393.473C346.988 392.841 346.503 391.923 346.379 390.719H349.152C349.217 391.135 349.393 391.474 349.68 391.734C349.966 391.995 350.347 392.125 350.822 392.125C351.74 392.125 352.385 391.617 352.756 390.602C352.958 390.042 353.085 389.225 353.137 388.15C352.883 388.469 352.613 388.714 352.326 388.883C351.805 389.195 351.164 389.352 350.402 389.352C349.276 389.352 348.277 388.964 347.404 388.189C346.532 387.408 346.096 386.285 346.096 384.82C346.096 383.303 346.532 382.076 347.404 381.139C348.283 380.195 349.423 379.723 350.822 379.723C352.977 379.723 354.455 380.676 355.256 382.584C355.712 383.665 355.939 385.087 355.939 386.852C355.939 388.564 355.721 389.993 355.285 391.139C354.452 393.32 352.922 394.41 350.695 394.41ZM349.719 382.447C349.185 382.864 348.918 383.57 348.918 384.566C348.918 385.406 349.087 386.038 349.426 386.461C349.771 386.878 350.298 387.086 351.008 387.086C351.392 387.086 351.753 386.975 352.092 386.754C352.723 386.35 353.039 385.65 353.039 384.654C353.039 383.854 352.85 383.219 352.473 382.75C352.102 382.281 351.59 382.047 350.939 382.047C350.464 382.047 350.057 382.18 349.719 382.447Z" fill="white"/>
<rect x="316.15" y="358.15" width="59.7" height="59.7" stroke="#FB0000" stroke-width="0.3" stroke-dasharray="5 2"/>
<circle cx="106" cy="448" r="20" fill="#3446E8" fill-opacity="0.99"/>
<path d="M98.1953 442.662C97.8828 443.079 97.7331 443.635 97.7461 444.332H95.1484C95.1745 443.629 95.2949 442.962 95.5098 442.33C95.7376 441.777 96.0957 441.266 96.584 440.797C96.9486 440.465 97.3815 440.211 97.8828 440.035C98.3841 439.859 98.9993 439.771 99.7285 439.771C101.083 439.771 102.173 440.123 103 440.826C103.833 441.523 104.25 442.46 104.25 443.639C104.25 444.472 104.003 445.175 103.508 445.748C103.195 446.106 102.87 446.35 102.531 446.48C102.785 446.48 103.15 446.699 103.625 447.135C104.335 447.792 104.689 448.691 104.689 449.83C104.689 451.028 104.273 452.083 103.439 452.994C102.613 453.899 101.385 454.352 99.7578 454.352C97.7526 454.352 96.3594 453.697 95.5781 452.389C95.168 451.692 94.9401 450.781 94.8945 449.654H97.6289C97.6289 450.221 97.7201 450.689 97.9023 451.061C98.2409 451.744 98.8561 452.086 99.748 452.086C100.295 452.086 100.77 451.9 101.174 451.529C101.584 451.152 101.789 450.611 101.789 449.908C101.789 448.977 101.411 448.355 100.656 448.043C100.227 447.867 99.5495 447.779 98.625 447.779V445.787C99.5299 445.774 100.161 445.686 100.52 445.523C101.138 445.25 101.447 444.697 101.447 443.863C101.447 443.323 101.288 442.883 100.969 442.545C100.656 442.206 100.214 442.037 99.6406 442.037C98.9831 442.037 98.5013 442.245 98.1953 442.662ZM111.008 454.352C109.204 454.352 107.938 453.72 107.209 452.457C106.486 451.194 106.125 449.394 106.125 447.057C106.125 444.719 106.486 442.916 107.209 441.646C107.938 440.377 109.204 439.742 111.008 439.742C112.811 439.742 114.077 440.377 114.807 441.646C115.529 442.916 115.891 444.719 115.891 447.057C115.891 449.394 115.526 451.194 114.797 452.457C114.074 453.72 112.811 454.352 111.008 454.352ZM112.639 450.787C112.893 449.928 113.02 448.684 113.02 447.057C113.02 445.351 112.889 444.088 112.629 443.268C112.375 442.447 111.835 442.037 111.008 442.037C110.181 442.037 109.634 442.447 109.367 443.268C109.1 444.088 108.967 445.351 108.967 447.057C108.967 448.684 109.1 449.931 109.367 450.797C109.634 451.656 110.181 452.086 111.008 452.086C111.835 452.086 112.378 451.653 112.639 450.787Z" fill="white"/>
<rect x="76.15" y="418.15" width="59.7" height="59.7" stroke="#FB0000" stroke-width="0.3" stroke-dasharray="5 2"/>
<circle cx="166" cy="448" r="20" fill="#3446E8" fill-opacity="0.99"/>
<path d="M158.195 442.662C157.883 443.079 157.733 443.635 157.746 444.332H155.148C155.174 443.629 155.295 442.962 155.51 442.33C155.738 441.777 156.096 441.266 156.584 440.797C156.949 440.465 157.382 440.211 157.883 440.035C158.384 439.859 158.999 439.771 159.729 439.771C161.083 439.771 162.173 440.123 163 440.826C163.833 441.523 164.25 442.46 164.25 443.639C164.25 444.472 164.003 445.175 163.508 445.748C163.195 446.106 162.87 446.35 162.531 446.48C162.785 446.48 163.15 446.699 163.625 447.135C164.335 447.792 164.689 448.691 164.689 449.83C164.689 451.028 164.273 452.083 163.439 452.994C162.613 453.899 161.385 454.352 159.758 454.352C157.753 454.352 156.359 453.697 155.578 452.389C155.168 451.692 154.94 450.781 154.895 449.654H157.629C157.629 450.221 157.72 450.689 157.902 451.061C158.241 451.744 158.856 452.086 159.748 452.086C160.295 452.086 160.77 451.9 161.174 451.529C161.584 451.152 161.789 450.611 161.789 449.908C161.789 448.977 161.411 448.355 160.656 448.043C160.227 447.867 159.549 447.779 158.625 447.779V445.787C159.53 445.774 160.161 445.686 160.52 445.523C161.138 445.25 161.447 444.697 161.447 443.863C161.447 443.323 161.288 442.883 160.969 442.545C160.656 442.206 160.214 442.037 159.641 442.037C158.983 442.037 158.501 442.245 158.195 442.662ZM173.068 454H170.217V444.234H166.887V442.34C167.766 442.301 168.381 442.242 168.732 442.164C169.292 442.04 169.748 441.793 170.1 441.422C170.34 441.168 170.523 440.829 170.646 440.406C170.718 440.152 170.754 439.964 170.754 439.84H173.068V454Z" fill="white"/>
<rect x="136.15" y="418.15" width="59.7" height="59.7" stroke="#FB0000" stroke-width="0.3" stroke-dasharray="5 2"/>
<circle cx="226" cy="448" r="20" fill="#3446E8" fill-opacity="0.99"/>
<path d="M218.195 442.662C217.883 443.079 217.733 443.635 217.746 444.332H215.148C215.174 443.629 215.295 442.962 215.51 442.33C215.738 441.777 216.096 441.266 216.584 440.797C216.949 440.465 217.382 440.211 217.883 440.035C218.384 439.859 218.999 439.771 219.729 439.771C221.083 439.771 222.173 440.123 223 440.826C223.833 441.523 224.25 442.46 224.25 443.639C224.25 444.472 224.003 445.175 223.508 445.748C223.195 446.106 222.87 446.35 222.531 446.48C222.785 446.48 223.15 446.699 223.625 447.135C224.335 447.792 224.689 448.691 224.689 449.83C224.689 451.028 224.273 452.083 223.439 452.994C222.613 453.899 221.385 454.352 219.758 454.352C217.753 454.352 216.359 453.697 215.578 452.389C215.168 451.692 214.94 450.781 214.895 449.654H217.629C217.629 450.221 217.72 450.689 217.902 451.061C218.241 451.744 218.856 452.086 219.748 452.086C220.295 452.086 220.77 451.9 221.174 451.529C221.584 451.152 221.789 450.611 221.789 449.908C221.789 448.977 221.411 448.355 220.656 448.043C220.227 447.867 219.549 447.779 218.625 447.779V445.787C219.53 445.774 220.161 445.686 220.52 445.523C221.138 445.25 221.447 444.697 221.447 443.863C221.447 443.323 221.288 442.883 220.969 442.545C220.656 442.206 220.214 442.037 219.641 442.037C218.983 442.037 218.501 442.245 218.195 442.662ZM232.453 442.721C232.121 442.324 231.646 442.125 231.027 442.125C230.181 442.125 229.605 442.441 229.299 443.072C229.123 443.437 229.019 444.016 228.986 444.811H226.281C226.327 443.606 226.545 442.633 226.936 441.891C227.678 440.478 228.996 439.771 230.891 439.771C232.388 439.771 233.579 440.188 234.465 441.021C235.35 441.848 235.793 442.945 235.793 444.312C235.793 445.361 235.48 446.292 234.855 447.105C234.445 447.646 233.771 448.248 232.834 448.912L231.721 449.703C231.024 450.198 230.546 450.556 230.285 450.777C230.031 450.999 229.816 451.256 229.641 451.549H235.822V454H226.125C226.151 452.984 226.369 452.057 226.779 451.217C227.176 450.273 228.114 449.273 229.592 448.219C230.874 447.301 231.704 446.643 232.082 446.246C232.661 445.628 232.951 444.951 232.951 444.215C232.951 443.616 232.785 443.118 232.453 442.721Z" fill="white"/>
<rect x="196.15" y="418.15" width="59.7" height="59.7" stroke="#FB0000" stroke-width="0.3" stroke-dasharray="5 2"/>
<circle cx="286" cy="448" r="20" fill="#3446E8" fill-opacity="0.99"/>
<path d="M278.195 442.662C277.883 443.079 277.733 443.635 277.746 444.332H275.148C275.174 443.629 275.295 442.962 275.51 442.33C275.738 441.777 276.096 441.266 276.584 440.797C276.949 440.465 277.382 440.211 277.883 440.035C278.384 439.859 278.999 439.771 279.729 439.771C281.083 439.771 282.173 440.123 283 440.826C283.833 441.523 284.25 442.46 284.25 443.639C284.25 444.472 284.003 445.175 283.508 445.748C283.195 446.106 282.87 446.35 282.531 446.48C282.785 446.48 283.15 446.699 283.625 447.135C284.335 447.792 284.689 448.691 284.689 449.83C284.689 451.028 284.273 452.083 283.439 452.994C282.613 453.899 281.385 454.352 279.758 454.352C277.753 454.352 276.359 453.697 275.578 452.389C275.168 451.692 274.94 450.781 274.895 449.654H277.629C277.629 450.221 277.72 450.689 277.902 451.061C278.241 451.744 278.856 452.086 279.748 452.086C280.295 452.086 280.77 451.9 281.174 451.529C281.584 451.152 281.789 450.611 281.789 449.908C281.789 448.977 281.411 448.355 280.656 448.043C280.227 447.867 279.549 447.779 278.625 447.779V445.787C279.53 445.774 280.161 445.686 280.52 445.523C281.138 445.25 281.447 444.697 281.447 443.863C281.447 443.323 281.288 442.883 280.969 442.545C280.656 442.206 280.214 442.037 279.641 442.037C278.983 442.037 278.501 442.245 278.195 442.662ZM289.328 442.662C289.016 443.079 288.866 443.635 288.879 444.332H286.281C286.307 443.629 286.428 442.962 286.643 442.33C286.87 441.777 287.229 441.266 287.717 440.797C288.081 440.465 288.514 440.211 289.016 440.035C289.517 439.859 290.132 439.771 290.861 439.771C292.215 439.771 293.306 440.123 294.133 440.826C294.966 441.523 295.383 442.46 295.383 443.639C295.383 444.472 295.135 445.175 294.641 445.748C294.328 446.106 294.003 446.35 293.664 446.48C293.918 446.48 294.283 446.699 294.758 447.135C295.467 447.792 295.822 448.691 295.822 449.83C295.822 451.028 295.406 452.083 294.572 452.994C293.745 453.899 292.518 454.352 290.891 454.352C288.885 454.352 287.492 453.697 286.711 452.389C286.301 451.692 286.073 450.781 286.027 449.654H288.762C288.762 450.221 288.853 450.689 289.035 451.061C289.374 451.744 289.989 452.086 290.881 452.086C291.428 452.086 291.903 451.9 292.307 451.529C292.717 451.152 292.922 450.611 292.922 449.908C292.922 448.977 292.544 448.355 291.789 448.043C291.359 447.867 290.682 447.779 289.758 447.779V445.787C290.663 445.774 291.294 445.686 291.652 445.523C292.271 445.25 292.58 444.697 292.58 443.863C292.58 443.323 292.421 442.883 292.102 442.545C291.789 442.206 291.346 442.037 290.773 442.037C290.116 442.037 289.634 442.245 289.328 442.662Z" fill="white"/>
<rect x="256.15" y="418.15" width="59.7" height="59.7" stroke="#FB0000" stroke-width="0.3" stroke-dasharray="5 2"/>
<circle cx="346" cy="448" r="20" fill="#3446E8" fill-opacity="0.99"/>
<path d="M338.195 442.662C337.883 443.079 337.733 443.635 337.746 444.332H335.148C335.174 443.629 335.295 442.962 335.51 442.33C335.738 441.777 336.096 441.266 336.584 440.797C336.949 440.465 337.382 440.211 337.883 440.035C338.384 439.859 338.999 439.771 339.729 439.771C341.083 439.771 342.173 440.123 343 440.826C343.833 441.523 344.25 442.46 344.25 443.639C344.25 444.472 344.003 445.175 343.508 445.748C343.195 446.106 342.87 446.35 342.531 446.48C342.785 446.48 343.15 446.699 343.625 447.135C344.335 447.792 344.689 448.691 344.689 449.83C344.689 451.028 344.273 452.083 343.439 452.994C342.613 453.899 341.385 454.352 339.758 454.352C337.753 454.352 336.359 453.697 335.578 452.389C335.168 451.692 334.94 450.781 334.895 449.654H337.629C337.629 450.221 337.72 450.689 337.902 451.061C338.241 451.744 338.856 452.086 339.748 452.086C340.295 452.086 340.77 451.9 341.174 451.529C341.584 451.152 341.789 450.611 341.789 449.908C341.789 448.977 341.411 448.355 340.656 448.043C340.227 447.867 339.549 447.779 338.625 447.779V445.787C339.53 445.774 340.161 445.686 340.52 445.523C341.138 445.25 341.447 444.697 341.447 443.863C341.447 443.323 341.288 442.883 340.969 442.545C340.656 442.206 340.214 442.037 339.641 442.037C338.983 442.037 338.501 442.245 338.195 442.662ZM355.959 448.775V450.953H354.357V454H351.633V450.953H346.027V448.521L351.232 439.928H354.357V448.775H355.959ZM348.088 448.775H351.633V442.662L348.088 448.775Z" fill="white"/>
<rect x="316.15" y="418.15" width="59.7" height="59.7" stroke="#FB0000" stroke-width="0.3" stroke-dasharray="5 2"/>
<rect x="76.3" y="58.3" width="299.4" height="419.4" stroke="#FF0202" stroke-width="0.6" stroke-dasharray="5 2"/>
<path d="M409.5 58V478" stroke="#EF5533"/>
<rect x="391.5" y="259" width="37" height="18" rx="3" fill="#EF5533"/>
<path d="M397.979 270.722V269.511L401.016 264.727H402.06V266.403H401.442L399.528 269.433V269.489H403.842V270.722H397.979ZM401.47 272V270.352L401.499 269.816V264.727H402.94V272H401.47ZM404.867 272V270.892L407.456 268.495C407.676 268.282 407.86 268.09 408.01 267.92C408.161 267.749 408.276 267.582 408.354 267.419C408.432 267.253 408.471 267.075 408.471 266.883C408.471 266.67 408.423 266.486 408.326 266.332C408.229 266.176 408.096 266.057 407.928 265.974C407.76 265.888 407.569 265.846 407.356 265.846C407.134 265.846 406.94 265.891 406.774 265.981C406.608 266.071 406.48 266.2 406.39 266.368C406.3 266.536 406.255 266.736 406.255 266.968H404.796C404.796 266.492 404.904 266.079 405.119 265.729C405.334 265.378 405.636 265.107 406.025 264.915C406.413 264.724 406.86 264.628 407.367 264.628C407.888 264.628 408.341 264.72 408.727 264.905C409.115 265.087 409.417 265.34 409.632 265.665C409.848 265.989 409.956 266.361 409.956 266.78C409.956 267.054 409.901 267.326 409.792 267.593C409.686 267.861 409.495 268.158 409.221 268.484C408.946 268.809 408.559 269.198 408.059 269.653L406.998 270.693V270.743H410.051V272H404.867ZM411.18 274.045V266.545H412.671V267.462H412.739C412.805 267.315 412.901 267.166 413.026 267.014C413.154 266.86 413.32 266.732 413.524 266.631C413.73 266.527 413.985 266.474 414.291 266.474C414.688 266.474 415.055 266.579 415.392 266.787C415.728 266.993 415.996 267.304 416.198 267.721C416.399 268.135 416.499 268.655 416.499 269.28C416.499 269.888 416.401 270.402 416.205 270.821C416.011 271.238 415.745 271.554 415.409 271.769C415.075 271.982 414.701 272.089 414.287 272.089C413.994 272.089 413.744 272.04 413.538 271.943C413.334 271.846 413.167 271.724 413.037 271.577C412.907 271.428 412.807 271.278 412.739 271.126H412.693V274.045H411.18ZM412.661 269.273C412.661 269.597 412.706 269.88 412.796 270.121C412.886 270.363 413.016 270.551 413.186 270.686C413.357 270.819 413.564 270.885 413.808 270.885C414.054 270.885 414.262 270.817 414.433 270.683C414.603 270.545 414.732 270.356 414.82 270.114C414.91 269.871 414.955 269.59 414.955 269.273C414.955 268.958 414.911 268.681 414.823 268.442C414.736 268.203 414.607 268.016 414.436 267.881C414.266 267.746 414.056 267.678 413.808 267.678C413.561 267.678 413.353 267.743 413.183 267.874C413.015 268.004 412.886 268.188 412.796 268.428C412.706 268.667 412.661 268.948 412.661 269.273ZM418.577 266.545L419.578 268.452L420.605 266.545H422.156L420.576 269.273L422.199 272H420.654L419.578 270.114L418.52 272H416.958L418.577 269.273L417.014 266.545H418.577Z" fill="white"/>
<line x1="406" y1="58.5" x2="413" y2="58.5" stroke="#EF5533"/>
<line x1="406" y1="477.5" x2="413" y2="477.5" stroke="#EF5533"/>
<path d="M76 511.5H376" stroke="#EF5533"/>
<rect x="207" y="502" width="38" height="18" rx="3" fill="#EF5533"/>
<path d="M216.278 515.099C215.747 515.099 215.275 515.008 214.861 514.826C214.449 514.641 214.123 514.388 213.884 514.066C213.647 513.742 213.526 513.368 213.518 512.944H215.067C215.076 513.121 215.134 513.278 215.241 513.413C215.35 513.545 215.494 513.648 215.674 513.722C215.854 513.795 216.056 513.832 216.281 513.832C216.516 513.832 216.723 513.79 216.903 513.707C217.083 513.625 217.223 513.51 217.325 513.363C217.427 513.216 217.478 513.047 217.478 512.855C217.478 512.661 217.424 512.489 217.315 512.34C217.208 512.189 217.054 512.07 216.853 511.985C216.654 511.9 216.417 511.857 216.143 511.857H215.464V510.728H216.143C216.375 510.728 216.58 510.688 216.757 510.607C216.937 510.527 217.077 510.415 217.176 510.273C217.276 510.129 217.325 509.961 217.325 509.769C217.325 509.587 217.281 509.427 217.194 509.29C217.109 509.15 216.988 509.041 216.832 508.963C216.678 508.885 216.498 508.846 216.292 508.846C216.084 508.846 215.893 508.884 215.72 508.96C215.547 509.033 215.409 509.138 215.305 509.276C215.201 509.413 215.145 509.574 215.138 509.759H213.664C213.671 509.339 213.791 508.97 214.023 508.651C214.255 508.331 214.567 508.081 214.96 507.901C215.356 507.719 215.802 507.628 216.299 507.628C216.801 507.628 217.24 507.719 217.616 507.901C217.993 508.084 218.285 508.33 218.494 508.64C218.704 508.948 218.808 509.293 218.806 509.677C218.808 510.084 218.682 510.424 218.426 510.696C218.173 510.968 217.843 511.141 217.435 511.214V511.271C217.97 511.34 218.378 511.526 218.657 511.829C218.939 512.129 219.078 512.506 219.076 512.958C219.078 513.372 218.959 513.741 218.717 514.062C218.478 514.384 218.148 514.638 217.727 514.822C217.305 515.007 216.822 515.099 216.278 515.099ZM223.033 515.16C222.422 515.157 221.896 515.007 221.456 514.709C221.018 514.411 220.681 513.978 220.444 513.413C220.21 512.847 220.094 512.166 220.096 511.371C220.096 510.578 220.213 509.902 220.448 509.343C220.684 508.784 221.022 508.359 221.46 508.068C221.9 507.775 222.424 507.628 223.033 507.628C223.641 507.628 224.164 507.775 224.602 508.068C225.043 508.362 225.381 508.788 225.618 509.347C225.855 509.903 225.972 510.578 225.97 511.371C225.97 512.169 225.851 512.85 225.615 513.416C225.38 513.982 225.044 514.414 224.606 514.712C224.168 515.011 223.644 515.16 223.033 515.16ZM223.033 513.885C223.45 513.885 223.782 513.675 224.031 513.256C224.279 512.837 224.402 512.209 224.4 511.371C224.4 510.819 224.343 510.36 224.23 509.993C224.118 509.626 223.96 509.35 223.754 509.165C223.55 508.981 223.31 508.888 223.033 508.888C222.619 508.888 222.287 509.096 222.039 509.51C221.79 509.924 221.664 510.545 221.662 511.371C221.662 511.929 221.718 512.396 221.829 512.77C221.943 513.142 222.102 513.421 222.308 513.608C222.514 513.793 222.756 513.885 223.033 513.885ZM227.08 517.045V509.545H228.572V510.462H228.639C228.705 510.315 228.801 510.166 228.927 510.014C229.055 509.86 229.22 509.732 229.424 509.631C229.63 509.527 229.886 509.474 230.191 509.474C230.589 509.474 230.956 509.579 231.292 509.787C231.628 509.993 231.897 510.304 232.098 510.721C232.299 511.135 232.4 511.655 232.4 512.28C232.4 512.888 232.302 513.402 232.105 513.821C231.911 514.238 231.646 514.554 231.31 514.769C230.976 514.982 230.602 515.089 230.188 515.089C229.894 515.089 229.644 515.04 229.438 514.943C229.235 514.846 229.068 514.724 228.938 514.577C228.807 514.428 228.708 514.278 228.639 514.126H228.593V517.045H227.08ZM228.561 512.273C228.561 512.597 228.606 512.88 228.696 513.121C228.786 513.363 228.916 513.551 229.087 513.686C229.257 513.819 229.464 513.885 229.708 513.885C229.954 513.885 230.163 513.817 230.333 513.683C230.504 513.545 230.633 513.356 230.72 513.114C230.81 512.871 230.855 512.59 230.855 512.273C230.855 511.958 230.811 511.681 230.724 511.442C230.636 511.203 230.507 511.016 230.337 510.881C230.166 510.746 229.957 510.678 229.708 510.678C229.462 510.678 229.254 510.743 229.083 510.874C228.915 511.004 228.786 511.188 228.696 511.428C228.606 511.667 228.561 511.948 228.561 512.273ZM234.477 509.545L235.479 511.452L236.505 509.545H238.057L236.477 512.273L238.099 515H236.555L235.479 513.114L234.42 515H232.858L234.477 512.273L232.915 509.545H234.477Z" fill="white"/>
<line x1="76.5" y1="515" x2="76.5" y2="508" stroke="#EF5533"/>
<line x1="375.5" y1="515" x2="375.5" y2="508" stroke="#EF5533"/>
<path d="M56.5 58V118" stroke="#EF5533"/>
<rect x="21" y="79" width="31" height="18" rx="3" fill="#EF5533"/>
<path d="M30.3807 92.0994C30.0066 92.0971 29.6456 92.0343 29.2976 91.9112C28.9519 91.7881 28.6418 91.5881 28.3672 91.3111C28.0926 91.0341 27.8748 90.6671 27.7138 90.2102C27.5552 89.7533 27.4759 89.1922 27.4759 88.527C27.4782 87.9162 27.5481 87.3705 27.6854 86.8899C27.825 86.407 28.0239 85.9974 28.282 85.6612C28.5424 85.325 28.8537 85.0694 29.2159 84.8942C29.5781 84.7166 29.9841 84.6278 30.4339 84.6278C30.9193 84.6278 31.3478 84.7225 31.7195 84.9119C32.0911 85.099 32.3894 85.3535 32.6143 85.6754C32.8416 85.9974 32.9789 86.3584 33.0263 86.7585H31.5099C31.4508 86.5052 31.3265 86.3063 31.1371 86.1619C30.9477 86.0175 30.7133 85.9453 30.4339 85.9453C29.9605 85.9453 29.6006 86.1513 29.3544 86.5632C29.1106 86.9751 28.9863 87.535 28.9815 88.2429H29.0312C29.1402 88.0275 29.2869 87.844 29.4716 87.6925C29.6586 87.5386 29.8705 87.4214 30.1072 87.3409C30.3464 87.258 30.5985 87.2166 30.8636 87.2166C31.2945 87.2166 31.678 87.3184 32.0142 87.522C32.3504 87.7232 32.6155 88.0002 32.8097 88.353C33.0038 88.7057 33.1009 89.1094 33.1009 89.5639C33.1009 90.0563 32.986 90.4943 32.7564 90.8778C32.5291 91.2614 32.2107 91.562 31.8011 91.7798C31.3939 91.9953 30.9205 92.1018 30.3807 92.0994ZM30.3736 90.892C30.6103 90.892 30.8222 90.8352 31.0092 90.7216C31.1963 90.608 31.343 90.4541 31.4496 90.2599C31.5561 90.0658 31.6094 89.848 31.6094 89.6065C31.6094 89.3651 31.5561 89.1484 31.4496 88.9567C31.3454 88.7649 31.201 88.6122 31.0163 88.4986C30.8317 88.3849 30.621 88.3281 30.3842 88.3281C30.2067 88.3281 30.0421 88.3613 29.8906 88.4276C29.7415 88.4938 29.6101 88.5862 29.4964 88.7045C29.3852 88.8229 29.2976 88.9602 29.2337 89.1165C29.1697 89.2704 29.1378 89.4349 29.1378 89.6101C29.1378 89.8445 29.1911 90.0587 29.2976 90.2528C29.4065 90.447 29.5533 90.602 29.7379 90.718C29.925 90.834 30.1368 90.892 30.3736 90.892ZM34.2053 94.0455V86.5455H35.6967V87.4616H35.7642C35.8305 87.3149 35.9264 87.1657 36.0518 87.0142C36.1797 86.8603 36.3454 86.7325 36.549 86.6307C36.755 86.5265 37.0107 86.4744 37.3161 86.4744C37.7138 86.4744 38.0807 86.5786 38.4169 86.7869C38.7531 86.9929 39.0218 87.3042 39.223 87.7209C39.4242 88.1352 39.5249 88.6548 39.5249 89.2798C39.5249 89.8883 39.4266 90.402 39.2301 90.821C39.036 91.2377 38.7708 91.5537 38.4347 91.7692C38.1009 91.9822 37.7268 92.0888 37.3125 92.0888C37.0189 92.0888 36.7692 92.0402 36.5632 91.9432C36.3596 91.8461 36.1927 91.7242 36.0625 91.5774C35.9323 91.4283 35.8329 91.2779 35.7642 91.1264H35.718V94.0455H34.2053ZM35.6861 89.2727C35.6861 89.5971 35.7311 89.88 35.821 90.1214C35.911 90.3629 36.0412 90.5511 36.2116 90.6861C36.3821 90.8187 36.5893 90.8849 36.8331 90.8849C37.0793 90.8849 37.2876 90.8175 37.4581 90.6825C37.6286 90.5452 37.7576 90.3558 37.8452 90.1143C37.9351 89.8705 37.9801 89.59 37.9801 89.2727C37.9801 88.9579 37.9363 88.6809 37.8487 88.4418C37.7611 88.2027 37.6321 88.0156 37.4616 87.8807C37.2912 87.7457 37.0817 87.6783 36.8331 87.6783C36.5869 87.6783 36.3786 87.7434 36.2081 87.8736C36.04 88.0038 35.911 88.1884 35.821 88.4276C35.7311 88.6667 35.6861 88.9484 35.6861 89.2727ZM41.6023 86.5455L42.6037 88.4524L43.63 86.5455H45.1818L43.6016 89.2727L45.2244 92H43.6797L42.6037 90.1143L41.5455 92H39.983L41.6023 89.2727L40.0398 86.5455H41.6023Z" fill="white"/>
<line x1="53" y1="58.5" x2="60" y2="58.5" stroke="#EF5533"/>
<line x1="53" y1="117.5" x2="60" y2="117.5" stroke="#EF5533"/>
<path d="M76 38.5H136" stroke="#EF5533"/>
<rect x="90.5" y="16" width="31" height="18" rx="3" fill="#EF5533"/>
<path d="M99.8807 29.0994C99.5066 29.0971 99.1456 29.0343 98.7976 28.9112C98.4519 28.7881 98.1418 28.5881 97.8672 28.3111C97.5926 28.0341 97.3748 27.6671 97.2138 27.2102C97.0552 26.7533 96.9759 26.1922 96.9759 25.527C96.9782 24.9162 97.0481 24.3705 97.1854 23.8899C97.325 23.407 97.5239 22.9974 97.782 22.6612C98.0424 22.325 98.3537 22.0694 98.7159 21.8942C99.0781 21.7166 99.4841 21.6278 99.9339 21.6278C100.419 21.6278 100.848 21.7225 101.219 21.9119C101.591 22.099 101.889 22.3535 102.114 22.6754C102.342 22.9974 102.479 23.3584 102.526 23.7585H101.01C100.951 23.5052 100.826 23.3063 100.637 23.1619C100.448 23.0175 100.213 22.9453 99.9339 22.9453C99.4605 22.9453 99.1006 23.1513 98.8544 23.5632C98.6106 23.9751 98.4863 24.535 98.4815 25.2429H98.5312C98.6402 25.0275 98.7869 24.844 98.9716 24.6925C99.1586 24.5386 99.3705 24.4214 99.6072 24.3409C99.8464 24.258 100.098 24.2166 100.364 24.2166C100.795 24.2166 101.178 24.3184 101.514 24.522C101.85 24.7232 102.116 25.0002 102.31 25.353C102.504 25.7057 102.601 26.1094 102.601 26.5639C102.601 27.0563 102.486 27.4943 102.256 27.8778C102.029 28.2614 101.711 28.562 101.301 28.7798C100.894 28.9953 100.42 29.1018 99.8807 29.0994ZM99.8736 27.892C100.11 27.892 100.322 27.8352 100.509 27.7216C100.696 27.608 100.843 27.4541 100.95 27.2599C101.056 27.0658 101.109 26.848 101.109 26.6065C101.109 26.3651 101.056 26.1484 100.95 25.9567C100.845 25.7649 100.701 25.6122 100.516 25.4986C100.332 25.3849 100.121 25.3281 99.8842 25.3281C99.7067 25.3281 99.5421 25.3613 99.3906 25.4276C99.2415 25.4938 99.1101 25.5862 98.9964 25.7045C98.8852 25.8229 98.7976 25.9602 98.7337 26.1165C98.6697 26.2704 98.6378 26.4349 98.6378 26.6101C98.6378 26.8445 98.6911 27.0587 98.7976 27.2528C98.9065 27.447 99.0533 27.602 99.2379 27.718C99.425 27.834 99.6368 27.892 99.8736 27.892ZM103.705 31.0455V23.5455H105.197V24.4616H105.264C105.33 24.3149 105.426 24.1657 105.552 24.0142C105.68 23.8603 105.845 23.7325 106.049 23.6307C106.255 23.5265 106.511 23.4744 106.816 23.4744C107.214 23.4744 107.581 23.5786 107.917 23.7869C108.253 23.9929 108.522 24.3042 108.723 24.7209C108.924 25.1352 109.025 25.6548 109.025 26.2798C109.025 26.8883 108.927 27.402 108.73 27.821C108.536 28.2377 108.271 28.5537 107.935 28.7692C107.601 28.9822 107.227 29.0888 106.812 29.0888C106.519 29.0888 106.269 29.0402 106.063 28.9432C105.86 28.8461 105.693 28.7242 105.562 28.5774C105.432 28.4283 105.333 28.2779 105.264 28.1264H105.218V31.0455H103.705ZM105.186 26.2727C105.186 26.5971 105.231 26.88 105.321 27.1214C105.411 27.3629 105.541 27.5511 105.712 27.6861C105.882 27.8187 106.089 27.8849 106.333 27.8849C106.579 27.8849 106.788 27.8175 106.958 27.6825C107.129 27.5452 107.258 27.3558 107.345 27.1143C107.435 26.8705 107.48 26.59 107.48 26.2727C107.48 25.9579 107.436 25.6809 107.349 25.4418C107.261 25.2027 107.132 25.0156 106.962 24.8807C106.791 24.7457 106.582 24.6783 106.333 24.6783C106.087 24.6783 105.879 24.7434 105.708 24.8736C105.54 25.0038 105.411 25.1884 105.321 25.4276C105.231 25.6667 105.186 25.9484 105.186 26.2727ZM111.102 23.5455L112.104 25.4524L113.13 23.5455H114.682L113.102 26.2727L114.724 29H113.18L112.104 27.1143L111.045 29H109.483L111.102 26.2727L109.54 23.5455H111.102Z" fill="white"/>
<line x1="76.5" y1="42" x2="76.5" y2="35" stroke="#EF5533"/>
<line x1="135.5" y1="42" x2="135.5" y2="35" stroke="#EF5533"/>
<path d="M326.283 88.2828C326.439 88.1266 326.439 87.8734 326.283 87.7172L323.737 85.1716C323.581 85.0154 323.328 85.0154 323.172 85.1716C323.015 85.3278 323.015 85.581 323.172 85.7373L325.434 88L323.172 90.2627C323.015 90.419 323.015 90.6722 323.172 90.8284C323.328 90.9846 323.581 90.9846 323.737 90.8284L326.283 88.2828ZM305.717 87.7172C305.561 87.8734 305.561 88.1266 305.717 88.2828L308.263 90.8284C308.419 90.9846 308.672 90.9846 308.828 90.8284C308.985 90.6722 308.985 90.419 308.828 90.2627L306.566 88L308.828 85.7373C308.985 85.581 308.985 85.3278 308.828 85.1716C308.672 85.0154 308.419 85.0154 308.263 85.1716L305.717 87.7172ZM326 87.6H306V88.4H326V87.6Z" fill="#EF5533"/>
<rect x="303.7" y="91.2" width="24.6" height="14.8" rx="3" fill="#EF5533"/>
<path d="M308.972 101.6V100.714L311.043 98.7961C311.219 98.6256 311.366 98.4722 311.486 98.3358C311.607 98.1995 311.699 98.0659 311.761 97.9353C311.824 97.8027 311.855 97.6597 311.855 97.5063C311.855 97.3358 311.816 97.1891 311.739 97.0659C311.661 96.9409 311.555 96.8453 311.42 96.779C311.286 96.7108 311.134 96.6767 310.963 96.6767C310.785 96.6767 310.63 96.7127 310.497 96.7847C310.365 96.8567 310.262 96.9599 310.19 97.0944C310.118 97.2288 310.082 97.3889 310.082 97.5745H308.915C308.915 97.1938 309.001 96.8633 309.173 96.583C309.346 96.3027 309.587 96.0858 309.898 95.9324C310.208 95.779 310.566 95.7023 310.972 95.7023C311.388 95.7023 311.751 95.7762 312.06 95.9239C312.37 96.0697 312.612 96.2724 312.784 96.5319C312.956 96.7913 313.043 97.0887 313.043 97.4239C313.043 97.6436 312.999 97.8605 312.912 98.0745C312.827 98.2885 312.674 98.5262 312.455 98.7875C312.235 99.047 311.925 99.3586 311.526 99.7222L310.676 100.555V100.594H313.119V101.6H308.972ZM314.022 103.236V97.2364H315.215V97.9694H315.269C315.322 97.8519 315.399 97.7326 315.499 97.6114C315.602 97.4883 315.734 97.386 315.897 97.3046C316.062 97.2212 316.266 97.1796 316.511 97.1796C316.829 97.1796 317.122 97.2629 317.391 97.4296C317.66 97.5944 317.875 97.8434 318.036 98.1767C318.197 98.5082 318.278 98.9239 318.278 99.4239C318.278 99.9106 318.199 100.322 318.042 100.657C317.887 100.99 317.674 101.243 317.406 101.415C317.138 101.586 316.839 101.671 316.508 101.671C316.273 101.671 316.073 101.632 315.908 101.555C315.746 101.477 315.612 101.379 315.508 101.262C315.404 101.143 315.324 101.022 315.269 100.901H315.232V103.236H314.022ZM315.207 99.4182C315.207 99.6777 315.243 99.904 315.315 100.097C315.387 100.29 315.491 100.441 315.627 100.549C315.763 100.655 315.929 100.708 316.124 100.708C316.321 100.708 316.488 100.654 316.624 100.546C316.761 100.436 316.864 100.285 316.934 100.092C317.006 99.8964 317.042 99.672 317.042 99.4182C317.042 99.1663 317.007 98.9447 316.937 98.7534C316.867 98.5622 316.763 98.4125 316.627 98.3046C316.491 98.1966 316.323 98.1427 316.124 98.1427C315.927 98.1427 315.761 98.1947 315.624 98.2989C315.49 98.4031 315.387 98.5508 315.315 98.7421C315.243 98.9334 315.207 99.1587 315.207 99.4182ZM319.94 97.2364L320.741 98.762L321.562 97.2364H322.803L321.539 99.4182L322.837 101.6H321.602L320.741 100.092L319.894 101.6H318.644L319.94 99.4182L318.69 97.2364H319.94Z" fill="white"/>
<path d="M205.682 54.2318C205.506 54.4075 205.506 54.6924 205.682 54.8682L208.546 57.732C208.721 57.9077 209.006 57.9077 209.182 57.732C209.358 57.5562 209.358 57.2713 209.182 57.0956L206.636 54.55L209.182 52.0044C209.358 51.8287 209.358 51.5437 209.182 51.368C209.006 51.1923 208.721 51.1923 208.546 51.368L205.682 54.2318ZM246.318 54.8682C246.494 54.6924 246.494 54.4075 246.318 54.2318L243.454 51.368C243.279 51.1923 242.994 51.1923 242.818 51.368C242.642 51.5437 242.642 51.8287 242.818 52.0044L245.364 54.55L242.818 57.0956C242.642 57.2713 242.642 57.5562 242.818 57.732C242.994 57.9077 243.279 57.9077 243.454 57.732L246.318 54.8682ZM206 55H246V54.1H206V55Z" fill="#EF5533"/>
<rect x="212.1" y="34.1" width="27.8" height="16.4" rx="3" fill="#EF5533"/>
<path d="M217.931 44.6495V43.5596L220.664 39.2546H221.604V40.7631H221.048L219.325 43.4893V43.5404H223.208V44.6495H217.931ZM221.073 45.8V44.3171L221.099 43.8345V39.2546H222.396V45.8H221.073ZM224.143 47.6409V40.8909H225.485V41.7155H225.546C225.606 41.5834 225.692 41.4492 225.805 41.3128C225.92 41.1743 226.069 41.0593 226.252 40.9676C226.438 40.8739 226.668 40.827 226.943 40.827C227.301 40.827 227.631 40.9208 227.933 41.1083C228.236 41.2936 228.478 41.5738 228.659 41.9488C228.84 42.3217 228.931 42.7894 228.931 43.3519C228.931 43.8995 228.842 44.3618 228.665 44.7389C228.491 45.1139 228.252 45.3984 227.949 45.5923C227.649 45.784 227.312 45.8799 226.939 45.8799C226.675 45.8799 226.45 45.8362 226.265 45.7489C226.082 45.6615 225.932 45.5518 225.814 45.4197C225.697 45.2855 225.608 45.1502 225.546 45.0138H225.504V47.6409H224.143ZM225.476 43.3455C225.476 43.6374 225.516 43.892 225.597 44.1093C225.678 44.3267 225.795 44.496 225.949 44.6175C226.102 44.7368 226.289 44.7965 226.508 44.7965C226.73 44.7965 226.917 44.7357 227.07 44.6143C227.224 44.4907 227.34 44.3203 227.419 44.1029C227.5 43.8835 227.54 43.631 227.54 43.3455C227.54 43.0621 227.501 42.8128 227.422 42.5976C227.343 42.3824 227.227 42.2141 227.074 42.0926C226.92 41.9712 226.732 41.9105 226.508 41.9105C226.286 41.9105 226.099 41.9691 225.945 42.0862C225.794 42.2034 225.678 42.3696 225.597 42.5848C225.516 42.8 225.476 43.0536 225.476 43.3455ZM230.8 40.8909L231.702 42.6072L232.625 40.8909H234.022L232.6 43.3455L234.06 45.8H232.67L231.702 44.1029L230.749 45.8H229.343L230.8 43.3455L229.394 40.8909H230.8Z" fill="white"/>
</svg>
